G04 #@! TF.GenerationSoftware,KiCad,Pcbnew,5.0.1-33cea8e~68~ubuntu18.04.1*
G04 #@! TF.CreationDate,2018-11-08T21:15:48+01:00*
G04 #@! TF.ProjectId,audio_interface,617564696F5F696E746572666163652E,rev?*
G04 #@! TF.SameCoordinates,Original*
G04 #@! TF.FileFunction,Soldermask,Top*
G04 #@! TF.FilePolarity,Negative*
%FSLAX46Y46*%
G04 Gerber Fmt 4.6, Leading zero omitted, Abs format (unit mm)*
G04 Created by KiCad (PCBNEW 5.0.1-33cea8e~68~ubuntu18.04.1) date Do 08 Nov 2018 21:15:48 CET*
%MOMM*%
%LPD*%
G01*
G04 APERTURE LIST*
%ADD10C,0.100000*%
G04 APERTURE END LIST*
D10*
G36*
X160937224Y-110010128D02*
X161069175Y-110050155D01*
X161190781Y-110115155D01*
X161297370Y-110202630D01*
X161384845Y-110309219D01*
X161449845Y-110430825D01*
X161489872Y-110562776D01*
X161503387Y-110700000D01*
X161489872Y-110837224D01*
X161449845Y-110969175D01*
X161384845Y-111090781D01*
X161297370Y-111197370D01*
X161190781Y-111284845D01*
X161069175Y-111349845D01*
X160937224Y-111389872D01*
X160834390Y-111400000D01*
X160165610Y-111400000D01*
X160062776Y-111389872D01*
X159930825Y-111349845D01*
X159809219Y-111284845D01*
X159702630Y-111197370D01*
X159615155Y-111090781D01*
X159550155Y-110969175D01*
X159510128Y-110837224D01*
X159496613Y-110700000D01*
X159510128Y-110562776D01*
X159550155Y-110430825D01*
X159615155Y-110309219D01*
X159702630Y-110202630D01*
X159809219Y-110115155D01*
X159930825Y-110050155D01*
X160062776Y-110010128D01*
X160165610Y-110000000D01*
X160834390Y-110000000D01*
X160937224Y-110010128D01*
X160937224Y-110010128D01*
G37*
G36*
X157175012Y-109773057D02*
X157284207Y-109818287D01*
X157382481Y-109883952D01*
X157466048Y-109967519D01*
X157531713Y-110065793D01*
X157576943Y-110174988D01*
X157600000Y-110290904D01*
X157600000Y-110409096D01*
X157576943Y-110525012D01*
X157531713Y-110634207D01*
X157466048Y-110732481D01*
X157382481Y-110816048D01*
X157284207Y-110881713D01*
X157175012Y-110926943D01*
X157059096Y-110950000D01*
X156940904Y-110950000D01*
X156824988Y-110926943D01*
X156715793Y-110881713D01*
X156617519Y-110816048D01*
X156533952Y-110732481D01*
X156468287Y-110634207D01*
X156423057Y-110525012D01*
X156400000Y-110409096D01*
X156400000Y-110290904D01*
X156423057Y-110174988D01*
X156468287Y-110065793D01*
X156533952Y-109967519D01*
X156617519Y-109883952D01*
X156715793Y-109818287D01*
X156824988Y-109773057D01*
X156940904Y-109750000D01*
X157059096Y-109750000D01*
X157175012Y-109773057D01*
X157175012Y-109773057D01*
G37*
G36*
X140250000Y-110950000D02*
X139350000Y-110950000D01*
X139350000Y-110150000D01*
X140250000Y-110150000D01*
X140250000Y-110950000D01*
X140250000Y-110950000D01*
G37*
G36*
X153437224Y-109460128D02*
X153569175Y-109500155D01*
X153690781Y-109565155D01*
X153797370Y-109652630D01*
X153884845Y-109759219D01*
X153949845Y-109880825D01*
X153989872Y-110012776D01*
X154003387Y-110150000D01*
X153989872Y-110287224D01*
X153949845Y-110419175D01*
X153884845Y-110540781D01*
X153797370Y-110647370D01*
X153690781Y-110734845D01*
X153569175Y-110799845D01*
X153437224Y-110839872D01*
X153334390Y-110850000D01*
X152665610Y-110850000D01*
X152562776Y-110839872D01*
X152430825Y-110799845D01*
X152309219Y-110734845D01*
X152202630Y-110647370D01*
X152115155Y-110540781D01*
X152050155Y-110419175D01*
X152010128Y-110287224D01*
X151996613Y-110150000D01*
X152010128Y-110012776D01*
X152050155Y-109880825D01*
X152115155Y-109759219D01*
X152202630Y-109652630D01*
X152309219Y-109565155D01*
X152430825Y-109500155D01*
X152562776Y-109460128D01*
X152665610Y-109450000D01*
X153334390Y-109450000D01*
X153437224Y-109460128D01*
X153437224Y-109460128D01*
G37*
G36*
X136549116Y-109753595D02*
X136578313Y-109762452D01*
X136605218Y-109776833D01*
X136628808Y-109796192D01*
X136648167Y-109819782D01*
X136662548Y-109846687D01*
X136671405Y-109875884D01*
X136675000Y-109912390D01*
X136675000Y-110462610D01*
X136671405Y-110499116D01*
X136662548Y-110528313D01*
X136648167Y-110555218D01*
X136628808Y-110578808D01*
X136605218Y-110598167D01*
X136578313Y-110612548D01*
X136549116Y-110621405D01*
X136512610Y-110625000D01*
X135887390Y-110625000D01*
X135850884Y-110621405D01*
X135821687Y-110612548D01*
X135794782Y-110598167D01*
X135771192Y-110578808D01*
X135751833Y-110555218D01*
X135737452Y-110528313D01*
X135728595Y-110499116D01*
X135725000Y-110462610D01*
X135725000Y-109912390D01*
X135728595Y-109875884D01*
X135737452Y-109846687D01*
X135751833Y-109819782D01*
X135771192Y-109796192D01*
X135794782Y-109776833D01*
X135821687Y-109762452D01*
X135850884Y-109753595D01*
X135887390Y-109750000D01*
X136512610Y-109750000D01*
X136549116Y-109753595D01*
X136549116Y-109753595D01*
G37*
G36*
X148149116Y-109753595D02*
X148178313Y-109762452D01*
X148205218Y-109776833D01*
X148228808Y-109796192D01*
X148248167Y-109819782D01*
X148262548Y-109846687D01*
X148271405Y-109875884D01*
X148275000Y-109912390D01*
X148275000Y-110462610D01*
X148271405Y-110499116D01*
X148262548Y-110528313D01*
X148248167Y-110555218D01*
X148228808Y-110578808D01*
X148205218Y-110598167D01*
X148178313Y-110612548D01*
X148149116Y-110621405D01*
X148112610Y-110625000D01*
X147487390Y-110625000D01*
X147450884Y-110621405D01*
X147421687Y-110612548D01*
X147394782Y-110598167D01*
X147371192Y-110578808D01*
X147351833Y-110555218D01*
X147337452Y-110528313D01*
X147328595Y-110499116D01*
X147325000Y-110462610D01*
X147325000Y-109912390D01*
X147328595Y-109875884D01*
X147337452Y-109846687D01*
X147351833Y-109819782D01*
X147371192Y-109796192D01*
X147394782Y-109776833D01*
X147421687Y-109762452D01*
X147450884Y-109753595D01*
X147487390Y-109750000D01*
X148112610Y-109750000D01*
X148149116Y-109753595D01*
X148149116Y-109753595D01*
G37*
G36*
X146549116Y-109753595D02*
X146578313Y-109762452D01*
X146605218Y-109776833D01*
X146628808Y-109796192D01*
X146648167Y-109819782D01*
X146662548Y-109846687D01*
X146671405Y-109875884D01*
X146675000Y-109912390D01*
X146675000Y-110462610D01*
X146671405Y-110499116D01*
X146662548Y-110528313D01*
X146648167Y-110555218D01*
X146628808Y-110578808D01*
X146605218Y-110598167D01*
X146578313Y-110612548D01*
X146549116Y-110621405D01*
X146512610Y-110625000D01*
X145887390Y-110625000D01*
X145850884Y-110621405D01*
X145821687Y-110612548D01*
X145794782Y-110598167D01*
X145771192Y-110578808D01*
X145751833Y-110555218D01*
X145737452Y-110528313D01*
X145728595Y-110499116D01*
X145725000Y-110462610D01*
X145725000Y-109912390D01*
X145728595Y-109875884D01*
X145737452Y-109846687D01*
X145751833Y-109819782D01*
X145771192Y-109796192D01*
X145794782Y-109776833D01*
X145821687Y-109762452D01*
X145850884Y-109753595D01*
X145887390Y-109750000D01*
X146512610Y-109750000D01*
X146549116Y-109753595D01*
X146549116Y-109753595D01*
G37*
G36*
X144949116Y-109753595D02*
X144978313Y-109762452D01*
X145005218Y-109776833D01*
X145028808Y-109796192D01*
X145048167Y-109819782D01*
X145062548Y-109846687D01*
X145071405Y-109875884D01*
X145075000Y-109912390D01*
X145075000Y-110462610D01*
X145071405Y-110499116D01*
X145062548Y-110528313D01*
X145048167Y-110555218D01*
X145028808Y-110578808D01*
X145005218Y-110598167D01*
X144978313Y-110612548D01*
X144949116Y-110621405D01*
X144912610Y-110625000D01*
X144287390Y-110625000D01*
X144250884Y-110621405D01*
X144221687Y-110612548D01*
X144194782Y-110598167D01*
X144171192Y-110578808D01*
X144151833Y-110555218D01*
X144137452Y-110528313D01*
X144128595Y-110499116D01*
X144125000Y-110462610D01*
X144125000Y-109912390D01*
X144128595Y-109875884D01*
X144137452Y-109846687D01*
X144151833Y-109819782D01*
X144171192Y-109796192D01*
X144194782Y-109776833D01*
X144221687Y-109762452D01*
X144250884Y-109753595D01*
X144287390Y-109750000D01*
X144912610Y-109750000D01*
X144949116Y-109753595D01*
X144949116Y-109753595D01*
G37*
G36*
X143349116Y-109753595D02*
X143378313Y-109762452D01*
X143405218Y-109776833D01*
X143428808Y-109796192D01*
X143448167Y-109819782D01*
X143462548Y-109846687D01*
X143471405Y-109875884D01*
X143475000Y-109912390D01*
X143475000Y-110462610D01*
X143471405Y-110499116D01*
X143462548Y-110528313D01*
X143448167Y-110555218D01*
X143428808Y-110578808D01*
X143405218Y-110598167D01*
X143378313Y-110612548D01*
X143349116Y-110621405D01*
X143312610Y-110625000D01*
X142687390Y-110625000D01*
X142650884Y-110621405D01*
X142621687Y-110612548D01*
X142594782Y-110598167D01*
X142571192Y-110578808D01*
X142551833Y-110555218D01*
X142537452Y-110528313D01*
X142528595Y-110499116D01*
X142525000Y-110462610D01*
X142525000Y-109912390D01*
X142528595Y-109875884D01*
X142537452Y-109846687D01*
X142551833Y-109819782D01*
X142571192Y-109796192D01*
X142594782Y-109776833D01*
X142621687Y-109762452D01*
X142650884Y-109753595D01*
X142687390Y-109750000D01*
X143312610Y-109750000D01*
X143349116Y-109753595D01*
X143349116Y-109753595D01*
G37*
G36*
X141749116Y-109753595D02*
X141778313Y-109762452D01*
X141805218Y-109776833D01*
X141828808Y-109796192D01*
X141848167Y-109819782D01*
X141862548Y-109846687D01*
X141871405Y-109875884D01*
X141875000Y-109912390D01*
X141875000Y-110462610D01*
X141871405Y-110499116D01*
X141862548Y-110528313D01*
X141848167Y-110555218D01*
X141828808Y-110578808D01*
X141805218Y-110598167D01*
X141778313Y-110612548D01*
X141749116Y-110621405D01*
X141712610Y-110625000D01*
X141087390Y-110625000D01*
X141050884Y-110621405D01*
X141021687Y-110612548D01*
X140994782Y-110598167D01*
X140971192Y-110578808D01*
X140951833Y-110555218D01*
X140937452Y-110528313D01*
X140928595Y-110499116D01*
X140925000Y-110462610D01*
X140925000Y-109912390D01*
X140928595Y-109875884D01*
X140937452Y-109846687D01*
X140951833Y-109819782D01*
X140971192Y-109796192D01*
X140994782Y-109776833D01*
X141021687Y-109762452D01*
X141050884Y-109753595D01*
X141087390Y-109750000D01*
X141712610Y-109750000D01*
X141749116Y-109753595D01*
X141749116Y-109753595D01*
G37*
G36*
X138250000Y-110000000D02*
X137350000Y-110000000D01*
X137350000Y-109200000D01*
X138250000Y-109200000D01*
X138250000Y-110000000D01*
X138250000Y-110000000D01*
G37*
G36*
X134016448Y-108006873D02*
X134086232Y-108013746D01*
X134175770Y-108040907D01*
X134265309Y-108068068D01*
X134430347Y-108156283D01*
X134575001Y-108274999D01*
X134693717Y-108419653D01*
X134781932Y-108584691D01*
X134836254Y-108763769D01*
X134854596Y-108950000D01*
X134836254Y-109136231D01*
X134781932Y-109315309D01*
X134693717Y-109480347D01*
X134575001Y-109625001D01*
X134430347Y-109743717D01*
X134265309Y-109831932D01*
X134175770Y-109859093D01*
X134086232Y-109886254D01*
X133946666Y-109900000D01*
X132253334Y-109900000D01*
X132113768Y-109886254D01*
X132024230Y-109859093D01*
X131934691Y-109831932D01*
X131769653Y-109743717D01*
X131624999Y-109625001D01*
X131506283Y-109480347D01*
X131418068Y-109315309D01*
X131363746Y-109136231D01*
X131345404Y-108950000D01*
X131363746Y-108763769D01*
X131418068Y-108584691D01*
X131506283Y-108419653D01*
X131624999Y-108274999D01*
X131769653Y-108156283D01*
X131934691Y-108068068D01*
X132024230Y-108040907D01*
X132113768Y-108013746D01*
X132183552Y-108006873D01*
X132253334Y-108000000D01*
X133946666Y-108000000D01*
X134016448Y-108006873D01*
X134016448Y-108006873D01*
G37*
G36*
X136549116Y-108178595D02*
X136578313Y-108187452D01*
X136605218Y-108201833D01*
X136628808Y-108221192D01*
X136648167Y-108244782D01*
X136662548Y-108271687D01*
X136671405Y-108300884D01*
X136675000Y-108337390D01*
X136675000Y-108887610D01*
X136671405Y-108924116D01*
X136662548Y-108953313D01*
X136648167Y-108980218D01*
X136628808Y-109003808D01*
X136605218Y-109023167D01*
X136578313Y-109037548D01*
X136549116Y-109046405D01*
X136512610Y-109050000D01*
X135887390Y-109050000D01*
X135850884Y-109046405D01*
X135821687Y-109037548D01*
X135794782Y-109023167D01*
X135771192Y-109003808D01*
X135751833Y-108980218D01*
X135737452Y-108953313D01*
X135728595Y-108924116D01*
X135725000Y-108887610D01*
X135725000Y-108337390D01*
X135728595Y-108300884D01*
X135737452Y-108271687D01*
X135751833Y-108244782D01*
X135771192Y-108221192D01*
X135794782Y-108201833D01*
X135821687Y-108187452D01*
X135850884Y-108178595D01*
X135887390Y-108175000D01*
X136512610Y-108175000D01*
X136549116Y-108178595D01*
X136549116Y-108178595D01*
G37*
G36*
X140250000Y-109050000D02*
X139350000Y-109050000D01*
X139350000Y-108250000D01*
X140250000Y-108250000D01*
X140250000Y-109050000D01*
X140250000Y-109050000D01*
G37*
G36*
X141749116Y-108178595D02*
X141778313Y-108187452D01*
X141805218Y-108201833D01*
X141828808Y-108221192D01*
X141848167Y-108244782D01*
X141862548Y-108271687D01*
X141871405Y-108300884D01*
X141875000Y-108337390D01*
X141875000Y-108887610D01*
X141871405Y-108924116D01*
X141862548Y-108953313D01*
X141848167Y-108980218D01*
X141828808Y-109003808D01*
X141805218Y-109023167D01*
X141778313Y-109037548D01*
X141749116Y-109046405D01*
X141712610Y-109050000D01*
X141087390Y-109050000D01*
X141050884Y-109046405D01*
X141021687Y-109037548D01*
X140994782Y-109023167D01*
X140971192Y-109003808D01*
X140951833Y-108980218D01*
X140937452Y-108953313D01*
X140928595Y-108924116D01*
X140925000Y-108887610D01*
X140925000Y-108337390D01*
X140928595Y-108300884D01*
X140937452Y-108271687D01*
X140951833Y-108244782D01*
X140971192Y-108221192D01*
X140994782Y-108201833D01*
X141021687Y-108187452D01*
X141050884Y-108178595D01*
X141087390Y-108175000D01*
X141712610Y-108175000D01*
X141749116Y-108178595D01*
X141749116Y-108178595D01*
G37*
G36*
X146549116Y-108178595D02*
X146578313Y-108187452D01*
X146605218Y-108201833D01*
X146628808Y-108221192D01*
X146648167Y-108244782D01*
X146662548Y-108271687D01*
X146671405Y-108300884D01*
X146675000Y-108337390D01*
X146675000Y-108887610D01*
X146671405Y-108924116D01*
X146662548Y-108953313D01*
X146648167Y-108980218D01*
X146628808Y-109003808D01*
X146605218Y-109023167D01*
X146578313Y-109037548D01*
X146549116Y-109046405D01*
X146512610Y-109050000D01*
X145887390Y-109050000D01*
X145850884Y-109046405D01*
X145821687Y-109037548D01*
X145794782Y-109023167D01*
X145771192Y-109003808D01*
X145751833Y-108980218D01*
X145737452Y-108953313D01*
X145728595Y-108924116D01*
X145725000Y-108887610D01*
X145725000Y-108337390D01*
X145728595Y-108300884D01*
X145737452Y-108271687D01*
X145751833Y-108244782D01*
X145771192Y-108221192D01*
X145794782Y-108201833D01*
X145821687Y-108187452D01*
X145850884Y-108178595D01*
X145887390Y-108175000D01*
X146512610Y-108175000D01*
X146549116Y-108178595D01*
X146549116Y-108178595D01*
G37*
G36*
X143349116Y-108178595D02*
X143378313Y-108187452D01*
X143405218Y-108201833D01*
X143428808Y-108221192D01*
X143448167Y-108244782D01*
X143462548Y-108271687D01*
X143471405Y-108300884D01*
X143475000Y-108337390D01*
X143475000Y-108887610D01*
X143471405Y-108924116D01*
X143462548Y-108953313D01*
X143448167Y-108980218D01*
X143428808Y-109003808D01*
X143405218Y-109023167D01*
X143378313Y-109037548D01*
X143349116Y-109046405D01*
X143312610Y-109050000D01*
X142687390Y-109050000D01*
X142650884Y-109046405D01*
X142621687Y-109037548D01*
X142594782Y-109023167D01*
X142571192Y-109003808D01*
X142551833Y-108980218D01*
X142537452Y-108953313D01*
X142528595Y-108924116D01*
X142525000Y-108887610D01*
X142525000Y-108337390D01*
X142528595Y-108300884D01*
X142537452Y-108271687D01*
X142551833Y-108244782D01*
X142571192Y-108221192D01*
X142594782Y-108201833D01*
X142621687Y-108187452D01*
X142650884Y-108178595D01*
X142687390Y-108175000D01*
X143312610Y-108175000D01*
X143349116Y-108178595D01*
X143349116Y-108178595D01*
G37*
G36*
X148149116Y-108178595D02*
X148178313Y-108187452D01*
X148205218Y-108201833D01*
X148228808Y-108221192D01*
X148248167Y-108244782D01*
X148262548Y-108271687D01*
X148271405Y-108300884D01*
X148275000Y-108337390D01*
X148275000Y-108887610D01*
X148271405Y-108924116D01*
X148262548Y-108953313D01*
X148248167Y-108980218D01*
X148228808Y-109003808D01*
X148205218Y-109023167D01*
X148178313Y-109037548D01*
X148149116Y-109046405D01*
X148112610Y-109050000D01*
X147487390Y-109050000D01*
X147450884Y-109046405D01*
X147421687Y-109037548D01*
X147394782Y-109023167D01*
X147371192Y-109003808D01*
X147351833Y-108980218D01*
X147337452Y-108953313D01*
X147328595Y-108924116D01*
X147325000Y-108887610D01*
X147325000Y-108337390D01*
X147328595Y-108300884D01*
X147337452Y-108271687D01*
X147351833Y-108244782D01*
X147371192Y-108221192D01*
X147394782Y-108201833D01*
X147421687Y-108187452D01*
X147450884Y-108178595D01*
X147487390Y-108175000D01*
X148112610Y-108175000D01*
X148149116Y-108178595D01*
X148149116Y-108178595D01*
G37*
G36*
X144949116Y-108178595D02*
X144978313Y-108187452D01*
X145005218Y-108201833D01*
X145028808Y-108221192D01*
X145048167Y-108244782D01*
X145062548Y-108271687D01*
X145071405Y-108300884D01*
X145075000Y-108337390D01*
X145075000Y-108887610D01*
X145071405Y-108924116D01*
X145062548Y-108953313D01*
X145048167Y-108980218D01*
X145028808Y-109003808D01*
X145005218Y-109023167D01*
X144978313Y-109037548D01*
X144949116Y-109046405D01*
X144912610Y-109050000D01*
X144287390Y-109050000D01*
X144250884Y-109046405D01*
X144221687Y-109037548D01*
X144194782Y-109023167D01*
X144171192Y-109003808D01*
X144151833Y-108980218D01*
X144137452Y-108953313D01*
X144128595Y-108924116D01*
X144125000Y-108887610D01*
X144125000Y-108337390D01*
X144128595Y-108300884D01*
X144137452Y-108271687D01*
X144151833Y-108244782D01*
X144171192Y-108221192D01*
X144194782Y-108201833D01*
X144221687Y-108187452D01*
X144250884Y-108178595D01*
X144287390Y-108175000D01*
X144912610Y-108175000D01*
X144949116Y-108178595D01*
X144949116Y-108178595D01*
G37*
G36*
X148099116Y-106628595D02*
X148128313Y-106637452D01*
X148155218Y-106651833D01*
X148178808Y-106671192D01*
X148198167Y-106694782D01*
X148212548Y-106721687D01*
X148221405Y-106750884D01*
X148225000Y-106787390D01*
X148225000Y-107412610D01*
X148221405Y-107449116D01*
X148212548Y-107478313D01*
X148198167Y-107505218D01*
X148178808Y-107528808D01*
X148155218Y-107548167D01*
X148128313Y-107562548D01*
X148099116Y-107571405D01*
X148062610Y-107575000D01*
X147512390Y-107575000D01*
X147475884Y-107571405D01*
X147446687Y-107562548D01*
X147419782Y-107548167D01*
X147396192Y-107528808D01*
X147376833Y-107505218D01*
X147362452Y-107478313D01*
X147353595Y-107449116D01*
X147350000Y-107412610D01*
X147350000Y-106787390D01*
X147353595Y-106750884D01*
X147362452Y-106721687D01*
X147376833Y-106694782D01*
X147396192Y-106671192D01*
X147419782Y-106651833D01*
X147446687Y-106637452D01*
X147475884Y-106628595D01*
X147512390Y-106625000D01*
X148062610Y-106625000D01*
X148099116Y-106628595D01*
X148099116Y-106628595D01*
G37*
G36*
X146524116Y-106628595D02*
X146553313Y-106637452D01*
X146580218Y-106651833D01*
X146603808Y-106671192D01*
X146623167Y-106694782D01*
X146637548Y-106721687D01*
X146646405Y-106750884D01*
X146650000Y-106787390D01*
X146650000Y-107412610D01*
X146646405Y-107449116D01*
X146637548Y-107478313D01*
X146623167Y-107505218D01*
X146603808Y-107528808D01*
X146580218Y-107548167D01*
X146553313Y-107562548D01*
X146524116Y-107571405D01*
X146487610Y-107575000D01*
X145937390Y-107575000D01*
X145900884Y-107571405D01*
X145871687Y-107562548D01*
X145844782Y-107548167D01*
X145821192Y-107528808D01*
X145801833Y-107505218D01*
X145787452Y-107478313D01*
X145778595Y-107449116D01*
X145775000Y-107412610D01*
X145775000Y-106787390D01*
X145778595Y-106750884D01*
X145787452Y-106721687D01*
X145801833Y-106694782D01*
X145821192Y-106671192D01*
X145844782Y-106651833D01*
X145871687Y-106637452D01*
X145900884Y-106628595D01*
X145937390Y-106625000D01*
X146487610Y-106625000D01*
X146524116Y-106628595D01*
X146524116Y-106628595D01*
G37*
G36*
X137100000Y-107300000D02*
X134600000Y-107300000D01*
X134600000Y-106200000D01*
X137100000Y-106200000D01*
X137100000Y-107300000D01*
X137100000Y-107300000D01*
G37*
G36*
X153437224Y-104860128D02*
X153569175Y-104900155D01*
X153690781Y-104965155D01*
X153797370Y-105052630D01*
X153884845Y-105159219D01*
X153949845Y-105280825D01*
X153989872Y-105412776D01*
X154003387Y-105550000D01*
X153989872Y-105687224D01*
X153949845Y-105819175D01*
X153884845Y-105940781D01*
X153797370Y-106047370D01*
X153690781Y-106134845D01*
X153569175Y-106199845D01*
X153437224Y-106239872D01*
X153334390Y-106250000D01*
X152665610Y-106250000D01*
X152562776Y-106239872D01*
X152430825Y-106199845D01*
X152309219Y-106134845D01*
X152202630Y-106047370D01*
X152115155Y-105940781D01*
X152050155Y-105819175D01*
X152010128Y-105687224D01*
X151996613Y-105550000D01*
X152010128Y-105412776D01*
X152050155Y-105280825D01*
X152115155Y-105159219D01*
X152202630Y-105052630D01*
X152309219Y-104965155D01*
X152430825Y-104900155D01*
X152562776Y-104860128D01*
X152665610Y-104850000D01*
X153334390Y-104850000D01*
X153437224Y-104860128D01*
X153437224Y-104860128D01*
G37*
G36*
X133189590Y-105007045D02*
X133260429Y-105021136D01*
X133336463Y-105052631D01*
X133360523Y-105062597D01*
X133450607Y-105122789D01*
X133527211Y-105199393D01*
X133527213Y-105199396D01*
X133587403Y-105289477D01*
X133628864Y-105389571D01*
X133650000Y-105495830D01*
X133650000Y-105604170D01*
X133628864Y-105710429D01*
X133587403Y-105810523D01*
X133527211Y-105900607D01*
X133450607Y-105977211D01*
X133450604Y-105977213D01*
X133360523Y-106037403D01*
X133260429Y-106078864D01*
X133189590Y-106092955D01*
X133154171Y-106100000D01*
X133045829Y-106100000D01*
X133010410Y-106092955D01*
X132939571Y-106078864D01*
X132839477Y-106037403D01*
X132749396Y-105977213D01*
X132749393Y-105977211D01*
X132672789Y-105900607D01*
X132612597Y-105810523D01*
X132571136Y-105710429D01*
X132550000Y-105604170D01*
X132550000Y-105495830D01*
X132571136Y-105389571D01*
X132612597Y-105289477D01*
X132672787Y-105199396D01*
X132672789Y-105199393D01*
X132749393Y-105122789D01*
X132839477Y-105062597D01*
X132863537Y-105052631D01*
X132939571Y-105021136D01*
X133010410Y-105007045D01*
X133045829Y-105000000D01*
X133154171Y-105000000D01*
X133189590Y-105007045D01*
X133189590Y-105007045D01*
G37*
G36*
X140299116Y-105128595D02*
X140328313Y-105137452D01*
X140355218Y-105151833D01*
X140378808Y-105171192D01*
X140398167Y-105194782D01*
X140412548Y-105221687D01*
X140421405Y-105250884D01*
X140425000Y-105287390D01*
X140425000Y-105912610D01*
X140421405Y-105949116D01*
X140412548Y-105978313D01*
X140398167Y-106005218D01*
X140378808Y-106028808D01*
X140355218Y-106048167D01*
X140328313Y-106062548D01*
X140299116Y-106071405D01*
X140262610Y-106075000D01*
X139712390Y-106075000D01*
X139675884Y-106071405D01*
X139646687Y-106062548D01*
X139619782Y-106048167D01*
X139596192Y-106028808D01*
X139576833Y-106005218D01*
X139562452Y-105978313D01*
X139553595Y-105949116D01*
X139550000Y-105912610D01*
X139550000Y-105287390D01*
X139553595Y-105250884D01*
X139562452Y-105221687D01*
X139576833Y-105194782D01*
X139596192Y-105171192D01*
X139619782Y-105151833D01*
X139646687Y-105137452D01*
X139675884Y-105128595D01*
X139712390Y-105125000D01*
X140262610Y-105125000D01*
X140299116Y-105128595D01*
X140299116Y-105128595D01*
G37*
G36*
X138724116Y-105128595D02*
X138753313Y-105137452D01*
X138780218Y-105151833D01*
X138803808Y-105171192D01*
X138823167Y-105194782D01*
X138837548Y-105221687D01*
X138846405Y-105250884D01*
X138850000Y-105287390D01*
X138850000Y-105912610D01*
X138846405Y-105949116D01*
X138837548Y-105978313D01*
X138823167Y-106005218D01*
X138803808Y-106028808D01*
X138780218Y-106048167D01*
X138753313Y-106062548D01*
X138724116Y-106071405D01*
X138687610Y-106075000D01*
X138137390Y-106075000D01*
X138100884Y-106071405D01*
X138071687Y-106062548D01*
X138044782Y-106048167D01*
X138021192Y-106028808D01*
X138001833Y-106005218D01*
X137987452Y-105978313D01*
X137978595Y-105949116D01*
X137975000Y-105912610D01*
X137975000Y-105287390D01*
X137978595Y-105250884D01*
X137987452Y-105221687D01*
X138001833Y-105194782D01*
X138021192Y-105171192D01*
X138044782Y-105151833D01*
X138071687Y-105137452D01*
X138100884Y-105128595D01*
X138137390Y-105125000D01*
X138687610Y-105125000D01*
X138724116Y-105128595D01*
X138724116Y-105128595D01*
G37*
G36*
X157175012Y-104773057D02*
X157284207Y-104818287D01*
X157382481Y-104883952D01*
X157466048Y-104967519D01*
X157531713Y-105065793D01*
X157576943Y-105174988D01*
X157600000Y-105290904D01*
X157600000Y-105409096D01*
X157576943Y-105525012D01*
X157531713Y-105634207D01*
X157466048Y-105732481D01*
X157382481Y-105816048D01*
X157284207Y-105881713D01*
X157175012Y-105926943D01*
X157059096Y-105950000D01*
X156940904Y-105950000D01*
X156824988Y-105926943D01*
X156715793Y-105881713D01*
X156617519Y-105816048D01*
X156533952Y-105732481D01*
X156468287Y-105634207D01*
X156423057Y-105525012D01*
X156400000Y-105409096D01*
X156400000Y-105290904D01*
X156423057Y-105174988D01*
X156468287Y-105065793D01*
X156533952Y-104967519D01*
X156617519Y-104883952D01*
X156715793Y-104818287D01*
X156824988Y-104773057D01*
X156940904Y-104750000D01*
X157059096Y-104750000D01*
X157175012Y-104773057D01*
X157175012Y-104773057D01*
G37*
G36*
X160937224Y-104310128D02*
X161069175Y-104350155D01*
X161190781Y-104415155D01*
X161297370Y-104502630D01*
X161384845Y-104609219D01*
X161449845Y-104730825D01*
X161489872Y-104862776D01*
X161503387Y-105000000D01*
X161489872Y-105137224D01*
X161449845Y-105269175D01*
X161384845Y-105390781D01*
X161297370Y-105497370D01*
X161190781Y-105584845D01*
X161069175Y-105649845D01*
X160937224Y-105689872D01*
X160834390Y-105700000D01*
X160165610Y-105700000D01*
X160062776Y-105689872D01*
X159930825Y-105649845D01*
X159809219Y-105584845D01*
X159702630Y-105497370D01*
X159615155Y-105390781D01*
X159550155Y-105269175D01*
X159510128Y-105137224D01*
X159496613Y-105000000D01*
X159510128Y-104862776D01*
X159550155Y-104730825D01*
X159615155Y-104609219D01*
X159702630Y-104502630D01*
X159809219Y-104415155D01*
X159930825Y-104350155D01*
X160062776Y-104310128D01*
X160165610Y-104300000D01*
X160834390Y-104300000D01*
X160937224Y-104310128D01*
X160937224Y-104310128D01*
G37*
G36*
X151550000Y-105600000D02*
X150050000Y-105600000D01*
X150050000Y-105200000D01*
X151550000Y-105200000D01*
X151550000Y-105600000D01*
X151550000Y-105600000D01*
G37*
G36*
X143699449Y-99875551D02*
X143700000Y-99881141D01*
X143700000Y-100090245D01*
X143701761Y-100108121D01*
X143700602Y-100112747D01*
X143699449Y-100124449D01*
X143687747Y-100125602D01*
X143663713Y-100130383D01*
X143641075Y-100139760D01*
X143620700Y-100153374D01*
X143603373Y-100170702D01*
X143589759Y-100191076D01*
X143580382Y-100213715D01*
X143575602Y-100237749D01*
X143575602Y-100262253D01*
X143580383Y-100286287D01*
X143589760Y-100308925D01*
X143603374Y-100329300D01*
X143620702Y-100346627D01*
X143641076Y-100360241D01*
X143663715Y-100369618D01*
X143687747Y-100374398D01*
X143699449Y-100375551D01*
X143700602Y-100387253D01*
X143705383Y-100411287D01*
X143714760Y-100433925D01*
X143728374Y-100454300D01*
X143745702Y-100471627D01*
X143766076Y-100485241D01*
X143788715Y-100494618D01*
X143812749Y-100499398D01*
X143837253Y-100499398D01*
X143861287Y-100494617D01*
X143883925Y-100485240D01*
X143904300Y-100471626D01*
X143921627Y-100454298D01*
X143935241Y-100433924D01*
X143944618Y-100411285D01*
X143950000Y-100375000D01*
X143950000Y-100125000D01*
X143948239Y-100107124D01*
X143949398Y-100102498D01*
X143953288Y-100063001D01*
X143961234Y-100036807D01*
X143974138Y-100012666D01*
X143991504Y-99991504D01*
X144012666Y-99974138D01*
X144036807Y-99961234D01*
X144063001Y-99953288D01*
X144096386Y-99950000D01*
X147875000Y-99950000D01*
X147892876Y-99948239D01*
X147897502Y-99949398D01*
X147936999Y-99953288D01*
X147963193Y-99961234D01*
X147987334Y-99974138D01*
X148008496Y-99991504D01*
X148025862Y-100012666D01*
X148038766Y-100036807D01*
X148046712Y-100063001D01*
X148050602Y-100102498D01*
X148052169Y-100110376D01*
X148050000Y-100125000D01*
X148050000Y-100375000D01*
X148052402Y-100399386D01*
X148059515Y-100422835D01*
X148071066Y-100444446D01*
X148086612Y-100463388D01*
X148105554Y-100478934D01*
X148127165Y-100490485D01*
X148150614Y-100497598D01*
X148175000Y-100500000D01*
X148199386Y-100497598D01*
X148222835Y-100490485D01*
X148244446Y-100478934D01*
X148263388Y-100463388D01*
X148278934Y-100444446D01*
X148290485Y-100422835D01*
X148299398Y-100387253D01*
X148300551Y-100375551D01*
X148312253Y-100374398D01*
X148336287Y-100369617D01*
X148358925Y-100360240D01*
X148379300Y-100346626D01*
X148396627Y-100329298D01*
X148410241Y-100308924D01*
X148419618Y-100286285D01*
X148424398Y-100262251D01*
X148424398Y-100237747D01*
X148419617Y-100213713D01*
X148410240Y-100191075D01*
X148396626Y-100170700D01*
X148379298Y-100153373D01*
X148358924Y-100139759D01*
X148336285Y-100130382D01*
X148312253Y-100125602D01*
X148300551Y-100124449D01*
X148299398Y-100112747D01*
X148297831Y-100104869D01*
X148300000Y-100090245D01*
X148300000Y-99881141D01*
X148300551Y-99875551D01*
X148306141Y-99875000D01*
X149368859Y-99875000D01*
X149374449Y-99875551D01*
X149375000Y-99881141D01*
X149375000Y-100118859D01*
X149374449Y-100124449D01*
X149362747Y-100125602D01*
X149338713Y-100130383D01*
X149316075Y-100139760D01*
X149295700Y-100153374D01*
X149278373Y-100170702D01*
X149264759Y-100191076D01*
X149255382Y-100213715D01*
X149250602Y-100237749D01*
X149250602Y-100262253D01*
X149255383Y-100286287D01*
X149264760Y-100308925D01*
X149278374Y-100329300D01*
X149295702Y-100346627D01*
X149316076Y-100360241D01*
X149338715Y-100369618D01*
X149362747Y-100374398D01*
X149374449Y-100375551D01*
X149375000Y-100381141D01*
X149375000Y-100618859D01*
X149374449Y-100624449D01*
X149362747Y-100625602D01*
X149338713Y-100630383D01*
X149316075Y-100639760D01*
X149295700Y-100653374D01*
X149278373Y-100670702D01*
X149264759Y-100691076D01*
X149255382Y-100713715D01*
X149250602Y-100737749D01*
X149250602Y-100762253D01*
X149255383Y-100786287D01*
X149264760Y-100808925D01*
X149278374Y-100829300D01*
X149295702Y-100846627D01*
X149316076Y-100860241D01*
X149338715Y-100869618D01*
X149362747Y-100874398D01*
X149374449Y-100875551D01*
X149375000Y-100881141D01*
X149375000Y-101118859D01*
X149374449Y-101124449D01*
X149362747Y-101125602D01*
X149338713Y-101130383D01*
X149316075Y-101139760D01*
X149295700Y-101153374D01*
X149278373Y-101170702D01*
X149264759Y-101191076D01*
X149255382Y-101213715D01*
X149250602Y-101237749D01*
X149250602Y-101262253D01*
X149255383Y-101286287D01*
X149264760Y-101308925D01*
X149278374Y-101329300D01*
X149295702Y-101346627D01*
X149316076Y-101360241D01*
X149338715Y-101369618D01*
X149362747Y-101374398D01*
X149374449Y-101375551D01*
X149375000Y-101381141D01*
X149375000Y-101618859D01*
X149374449Y-101624449D01*
X149362747Y-101625602D01*
X149338713Y-101630383D01*
X149316075Y-101639760D01*
X149295700Y-101653374D01*
X149278373Y-101670702D01*
X149264759Y-101691076D01*
X149255382Y-101713715D01*
X149250602Y-101737749D01*
X149250602Y-101762253D01*
X149255383Y-101786287D01*
X149264760Y-101808925D01*
X149278374Y-101829300D01*
X149295702Y-101846627D01*
X149316076Y-101860241D01*
X149338715Y-101869618D01*
X149362747Y-101874398D01*
X149374449Y-101875551D01*
X149375000Y-101881141D01*
X149375000Y-102118859D01*
X149374449Y-102124449D01*
X149362747Y-102125602D01*
X149338713Y-102130383D01*
X149316075Y-102139760D01*
X149295700Y-102153374D01*
X149278373Y-102170702D01*
X149264759Y-102191076D01*
X149255382Y-102213715D01*
X149250602Y-102237749D01*
X149250602Y-102262253D01*
X149255383Y-102286287D01*
X149264760Y-102308925D01*
X149278374Y-102329300D01*
X149295702Y-102346627D01*
X149316076Y-102360241D01*
X149338715Y-102369618D01*
X149362747Y-102374398D01*
X149374449Y-102375551D01*
X149375000Y-102381141D01*
X149375000Y-102618859D01*
X149374449Y-102624449D01*
X149362747Y-102625602D01*
X149338713Y-102630383D01*
X149316075Y-102639760D01*
X149295700Y-102653374D01*
X149278373Y-102670702D01*
X149264759Y-102691076D01*
X149255382Y-102713715D01*
X149250602Y-102737749D01*
X149250602Y-102762253D01*
X149255383Y-102786287D01*
X149264760Y-102808925D01*
X149278374Y-102829300D01*
X149295702Y-102846627D01*
X149316076Y-102860241D01*
X149338715Y-102869618D01*
X149362747Y-102874398D01*
X149374449Y-102875551D01*
X149375000Y-102881141D01*
X149375000Y-103118859D01*
X149374449Y-103124449D01*
X149362747Y-103125602D01*
X149338713Y-103130383D01*
X149316075Y-103139760D01*
X149295700Y-103153374D01*
X149278373Y-103170702D01*
X149264759Y-103191076D01*
X149255382Y-103213715D01*
X149250602Y-103237749D01*
X149250602Y-103262253D01*
X149255383Y-103286287D01*
X149264760Y-103308925D01*
X149278374Y-103329300D01*
X149295702Y-103346627D01*
X149316076Y-103360241D01*
X149338715Y-103369618D01*
X149362747Y-103374398D01*
X149374449Y-103375551D01*
X149375000Y-103381141D01*
X149375000Y-103618859D01*
X149374449Y-103624449D01*
X149362747Y-103625602D01*
X149338713Y-103630383D01*
X149316075Y-103639760D01*
X149295700Y-103653374D01*
X149278373Y-103670702D01*
X149264759Y-103691076D01*
X149255382Y-103713715D01*
X149250602Y-103737749D01*
X149250602Y-103762253D01*
X149255383Y-103786287D01*
X149264760Y-103808925D01*
X149278374Y-103829300D01*
X149295702Y-103846627D01*
X149316076Y-103860241D01*
X149338715Y-103869618D01*
X149362747Y-103874398D01*
X149374449Y-103875551D01*
X149375000Y-103881141D01*
X149375000Y-104118859D01*
X149374449Y-104124449D01*
X149368859Y-104125000D01*
X148306141Y-104125000D01*
X148300551Y-104124449D01*
X148300000Y-104118859D01*
X148300000Y-103909755D01*
X148298239Y-103891879D01*
X148299398Y-103887253D01*
X148300551Y-103875551D01*
X148312253Y-103874398D01*
X148336287Y-103869617D01*
X148358925Y-103860240D01*
X148379300Y-103846626D01*
X148396627Y-103829298D01*
X148410241Y-103808924D01*
X148419618Y-103786285D01*
X148424398Y-103762251D01*
X148424398Y-103737747D01*
X148419617Y-103713713D01*
X148410240Y-103691075D01*
X148396626Y-103670700D01*
X148379298Y-103653373D01*
X148358924Y-103639759D01*
X148336285Y-103630382D01*
X148312253Y-103625602D01*
X148300551Y-103624449D01*
X148299398Y-103612747D01*
X148294617Y-103588713D01*
X148285240Y-103566075D01*
X148271626Y-103545700D01*
X148254298Y-103528373D01*
X148233924Y-103514759D01*
X148211285Y-103505382D01*
X148187251Y-103500602D01*
X148162747Y-103500602D01*
X148138713Y-103505383D01*
X148116075Y-103514760D01*
X148095700Y-103528374D01*
X148078373Y-103545702D01*
X148064759Y-103566076D01*
X148055382Y-103588715D01*
X148050000Y-103625000D01*
X148050000Y-103875000D01*
X148051761Y-103892876D01*
X148050602Y-103897502D01*
X148046712Y-103936999D01*
X148038766Y-103963193D01*
X148025862Y-103987334D01*
X148008496Y-104008496D01*
X147987334Y-104025862D01*
X147963193Y-104038766D01*
X147936999Y-104046712D01*
X147897502Y-104050602D01*
X147889624Y-104052169D01*
X147875000Y-104050000D01*
X147625000Y-104050000D01*
X147600614Y-104052402D01*
X147577165Y-104059515D01*
X147555554Y-104071066D01*
X147536612Y-104086612D01*
X147521066Y-104105554D01*
X147509515Y-104127165D01*
X147502402Y-104150614D01*
X147500000Y-104175000D01*
X147502402Y-104199386D01*
X147509515Y-104222835D01*
X147521066Y-104244446D01*
X147536612Y-104263388D01*
X147555554Y-104278934D01*
X147577165Y-104290485D01*
X147612747Y-104299398D01*
X147624449Y-104300551D01*
X147625602Y-104312253D01*
X147630383Y-104336287D01*
X147639760Y-104358925D01*
X147653374Y-104379300D01*
X147670702Y-104396627D01*
X147691076Y-104410241D01*
X147713715Y-104419618D01*
X147737749Y-104424398D01*
X147762253Y-104424398D01*
X147786287Y-104419617D01*
X147808925Y-104410240D01*
X147829300Y-104396626D01*
X147846627Y-104379298D01*
X147860241Y-104358924D01*
X147869618Y-104336285D01*
X147874398Y-104312253D01*
X147875551Y-104300551D01*
X147887253Y-104299398D01*
X147895131Y-104297831D01*
X147909755Y-104300000D01*
X148118859Y-104300000D01*
X148124449Y-104300551D01*
X148125000Y-104306141D01*
X148125000Y-105368859D01*
X148124449Y-105374449D01*
X148118859Y-105375000D01*
X147881141Y-105375000D01*
X147875551Y-105374449D01*
X147874398Y-105362747D01*
X147869617Y-105338713D01*
X147860240Y-105316075D01*
X147846626Y-105295700D01*
X147829298Y-105278373D01*
X147808924Y-105264759D01*
X147786285Y-105255382D01*
X147762251Y-105250602D01*
X147737747Y-105250602D01*
X147713713Y-105255383D01*
X147691075Y-105264760D01*
X147670700Y-105278374D01*
X147653373Y-105295702D01*
X147639759Y-105316076D01*
X147630382Y-105338715D01*
X147625602Y-105362747D01*
X147624449Y-105374449D01*
X147618859Y-105375000D01*
X147381141Y-105375000D01*
X147375551Y-105374449D01*
X147374398Y-105362747D01*
X147369617Y-105338713D01*
X147360240Y-105316075D01*
X147346626Y-105295700D01*
X147329298Y-105278373D01*
X147308924Y-105264759D01*
X147286285Y-105255382D01*
X147262251Y-105250602D01*
X147237747Y-105250602D01*
X147213713Y-105255383D01*
X147191075Y-105264760D01*
X147170700Y-105278374D01*
X147153373Y-105295702D01*
X147139759Y-105316076D01*
X147130382Y-105338715D01*
X147125602Y-105362747D01*
X147124449Y-105374449D01*
X147118859Y-105375000D01*
X146881141Y-105375000D01*
X146875551Y-105374449D01*
X146874398Y-105362747D01*
X146869617Y-105338713D01*
X146860240Y-105316075D01*
X146846626Y-105295700D01*
X146829298Y-105278373D01*
X146808924Y-105264759D01*
X146786285Y-105255382D01*
X146762251Y-105250602D01*
X146737747Y-105250602D01*
X146713713Y-105255383D01*
X146691075Y-105264760D01*
X146670700Y-105278374D01*
X146653373Y-105295702D01*
X146639759Y-105316076D01*
X146630382Y-105338715D01*
X146625602Y-105362747D01*
X146624449Y-105374449D01*
X146618859Y-105375000D01*
X146381141Y-105375000D01*
X146375551Y-105374449D01*
X146374398Y-105362747D01*
X146369617Y-105338713D01*
X146360240Y-105316075D01*
X146346626Y-105295700D01*
X146329298Y-105278373D01*
X146308924Y-105264759D01*
X146286285Y-105255382D01*
X146262251Y-105250602D01*
X146237747Y-105250602D01*
X146213713Y-105255383D01*
X146191075Y-105264760D01*
X146170700Y-105278374D01*
X146153373Y-105295702D01*
X146139759Y-105316076D01*
X146130382Y-105338715D01*
X146125602Y-105362747D01*
X146124449Y-105374449D01*
X146118859Y-105375000D01*
X145881141Y-105375000D01*
X145875551Y-105374449D01*
X145874398Y-105362747D01*
X145869617Y-105338713D01*
X145860240Y-105316075D01*
X145846626Y-105295700D01*
X145829298Y-105278373D01*
X145808924Y-105264759D01*
X145786285Y-105255382D01*
X145762251Y-105250602D01*
X145737747Y-105250602D01*
X145713713Y-105255383D01*
X145691075Y-105264760D01*
X145670700Y-105278374D01*
X145653373Y-105295702D01*
X145639759Y-105316076D01*
X145630382Y-105338715D01*
X145625602Y-105362747D01*
X145624449Y-105374449D01*
X145618859Y-105375000D01*
X145381141Y-105375000D01*
X145375551Y-105374449D01*
X145374398Y-105362747D01*
X145369617Y-105338713D01*
X145360240Y-105316075D01*
X145346626Y-105295700D01*
X145329298Y-105278373D01*
X145308924Y-105264759D01*
X145286285Y-105255382D01*
X145262251Y-105250602D01*
X145237747Y-105250602D01*
X145213713Y-105255383D01*
X145191075Y-105264760D01*
X145170700Y-105278374D01*
X145153373Y-105295702D01*
X145139759Y-105316076D01*
X145130382Y-105338715D01*
X145125602Y-105362747D01*
X145124449Y-105374449D01*
X145118859Y-105375000D01*
X144881141Y-105375000D01*
X144875551Y-105374449D01*
X144874398Y-105362747D01*
X144869617Y-105338713D01*
X144860240Y-105316075D01*
X144846626Y-105295700D01*
X144829298Y-105278373D01*
X144808924Y-105264759D01*
X144786285Y-105255382D01*
X144762251Y-105250602D01*
X144737747Y-105250602D01*
X144713713Y-105255383D01*
X144691075Y-105264760D01*
X144670700Y-105278374D01*
X144653373Y-105295702D01*
X144639759Y-105316076D01*
X144630382Y-105338715D01*
X144625602Y-105362747D01*
X144624449Y-105374449D01*
X144618859Y-105375000D01*
X144381141Y-105375000D01*
X144375551Y-105374449D01*
X144374398Y-105362747D01*
X144369617Y-105338713D01*
X144360240Y-105316075D01*
X144346626Y-105295700D01*
X144329298Y-105278373D01*
X144308924Y-105264759D01*
X144286285Y-105255382D01*
X144262251Y-105250602D01*
X144237747Y-105250602D01*
X144213713Y-105255383D01*
X144191075Y-105264760D01*
X144170700Y-105278374D01*
X144153373Y-105295702D01*
X144139759Y-105316076D01*
X144130382Y-105338715D01*
X144125602Y-105362747D01*
X144124449Y-105374449D01*
X144118859Y-105375000D01*
X143881141Y-105375000D01*
X143875551Y-105374449D01*
X143875000Y-105368859D01*
X143875000Y-104306141D01*
X143875551Y-104300551D01*
X143881141Y-104300000D01*
X144090245Y-104300000D01*
X144108121Y-104298239D01*
X144112747Y-104299398D01*
X144124449Y-104300551D01*
X144125602Y-104312253D01*
X144130383Y-104336287D01*
X144139760Y-104358925D01*
X144153374Y-104379300D01*
X144170702Y-104396627D01*
X144191076Y-104410241D01*
X144213715Y-104419618D01*
X144237749Y-104424398D01*
X144262253Y-104424398D01*
X144286287Y-104419617D01*
X144308925Y-104410240D01*
X144329300Y-104396626D01*
X144346627Y-104379298D01*
X144360241Y-104358924D01*
X144369618Y-104336285D01*
X144374398Y-104312253D01*
X144375551Y-104300551D01*
X144387253Y-104299398D01*
X144411287Y-104294617D01*
X144433925Y-104285240D01*
X144454300Y-104271626D01*
X144471627Y-104254298D01*
X144485241Y-104233924D01*
X144494618Y-104211285D01*
X144499398Y-104187251D01*
X144499398Y-104175000D01*
X144500000Y-104175000D01*
X144502402Y-104199386D01*
X144509515Y-104222835D01*
X144521066Y-104244446D01*
X144536612Y-104263388D01*
X144555554Y-104278934D01*
X144577165Y-104290485D01*
X144612747Y-104299398D01*
X144624449Y-104300551D01*
X144625602Y-104312253D01*
X144630383Y-104336287D01*
X144639760Y-104358925D01*
X144653374Y-104379300D01*
X144670702Y-104396627D01*
X144691076Y-104410241D01*
X144713715Y-104419618D01*
X144737749Y-104424398D01*
X144762253Y-104424398D01*
X144786287Y-104419617D01*
X144808925Y-104410240D01*
X144829300Y-104396626D01*
X144846627Y-104379298D01*
X144860241Y-104358924D01*
X144869618Y-104336285D01*
X144874398Y-104312253D01*
X144875551Y-104300551D01*
X144887253Y-104299398D01*
X144911287Y-104294617D01*
X144933925Y-104285240D01*
X144954300Y-104271626D01*
X144971627Y-104254298D01*
X144985241Y-104233924D01*
X144994618Y-104211285D01*
X144999398Y-104187251D01*
X144999398Y-104175000D01*
X145000000Y-104175000D01*
X145002402Y-104199386D01*
X145009515Y-104222835D01*
X145021066Y-104244446D01*
X145036612Y-104263388D01*
X145055554Y-104278934D01*
X145077165Y-104290485D01*
X145112747Y-104299398D01*
X145124449Y-104300551D01*
X145125602Y-104312253D01*
X145130383Y-104336287D01*
X145139760Y-104358925D01*
X145153374Y-104379300D01*
X145170702Y-104396627D01*
X145191076Y-104410241D01*
X145213715Y-104419618D01*
X145237749Y-104424398D01*
X145262253Y-104424398D01*
X145286287Y-104419617D01*
X145308925Y-104410240D01*
X145329300Y-104396626D01*
X145346627Y-104379298D01*
X145360241Y-104358924D01*
X145369618Y-104336285D01*
X145374398Y-104312253D01*
X145375551Y-104300551D01*
X145387253Y-104299398D01*
X145411287Y-104294617D01*
X145433925Y-104285240D01*
X145454300Y-104271626D01*
X145471627Y-104254298D01*
X145485241Y-104233924D01*
X145494618Y-104211285D01*
X145499398Y-104187251D01*
X145499398Y-104175000D01*
X145500000Y-104175000D01*
X145502402Y-104199386D01*
X145509515Y-104222835D01*
X145521066Y-104244446D01*
X145536612Y-104263388D01*
X145555554Y-104278934D01*
X145577165Y-104290485D01*
X145612747Y-104299398D01*
X145624449Y-104300551D01*
X145625602Y-104312253D01*
X145630383Y-104336287D01*
X145639760Y-104358925D01*
X145653374Y-104379300D01*
X145670702Y-104396627D01*
X145691076Y-104410241D01*
X145713715Y-104419618D01*
X145737749Y-104424398D01*
X145762253Y-104424398D01*
X145786287Y-104419617D01*
X145808925Y-104410240D01*
X145829300Y-104396626D01*
X145846627Y-104379298D01*
X145860241Y-104358924D01*
X145869618Y-104336285D01*
X145874398Y-104312253D01*
X145875551Y-104300551D01*
X145887253Y-104299398D01*
X145911287Y-104294617D01*
X145933925Y-104285240D01*
X145954300Y-104271626D01*
X145971627Y-104254298D01*
X145985241Y-104233924D01*
X145994618Y-104211285D01*
X145999398Y-104187251D01*
X145999398Y-104175000D01*
X146000000Y-104175000D01*
X146002402Y-104199386D01*
X146009515Y-104222835D01*
X146021066Y-104244446D01*
X146036612Y-104263388D01*
X146055554Y-104278934D01*
X146077165Y-104290485D01*
X146112747Y-104299398D01*
X146124449Y-104300551D01*
X146125602Y-104312253D01*
X146130383Y-104336287D01*
X146139760Y-104358925D01*
X146153374Y-104379300D01*
X146170702Y-104396627D01*
X146191076Y-104410241D01*
X146213715Y-104419618D01*
X146237749Y-104424398D01*
X146262253Y-104424398D01*
X146286287Y-104419617D01*
X146308925Y-104410240D01*
X146329300Y-104396626D01*
X146346627Y-104379298D01*
X146360241Y-104358924D01*
X146369618Y-104336285D01*
X146374398Y-104312253D01*
X146375551Y-104300551D01*
X146387253Y-104299398D01*
X146411287Y-104294617D01*
X146433925Y-104285240D01*
X146454300Y-104271626D01*
X146471627Y-104254298D01*
X146485241Y-104233924D01*
X146494618Y-104211285D01*
X146499398Y-104187251D01*
X146499398Y-104175000D01*
X146500000Y-104175000D01*
X146502402Y-104199386D01*
X146509515Y-104222835D01*
X146521066Y-104244446D01*
X146536612Y-104263388D01*
X146555554Y-104278934D01*
X146577165Y-104290485D01*
X146612747Y-104299398D01*
X146624449Y-104300551D01*
X146625602Y-104312253D01*
X146630383Y-104336287D01*
X146639760Y-104358925D01*
X146653374Y-104379300D01*
X146670702Y-104396627D01*
X146691076Y-104410241D01*
X146713715Y-104419618D01*
X146737749Y-104424398D01*
X146762253Y-104424398D01*
X146786287Y-104419617D01*
X146808925Y-104410240D01*
X146829300Y-104396626D01*
X146846627Y-104379298D01*
X146860241Y-104358924D01*
X146869618Y-104336285D01*
X146874398Y-104312253D01*
X146875551Y-104300551D01*
X146887253Y-104299398D01*
X146911287Y-104294617D01*
X146933925Y-104285240D01*
X146954300Y-104271626D01*
X146971627Y-104254298D01*
X146985241Y-104233924D01*
X146994618Y-104211285D01*
X146999398Y-104187251D01*
X146999398Y-104175000D01*
X147000000Y-104175000D01*
X147002402Y-104199386D01*
X147009515Y-104222835D01*
X147021066Y-104244446D01*
X147036612Y-104263388D01*
X147055554Y-104278934D01*
X147077165Y-104290485D01*
X147112747Y-104299398D01*
X147124449Y-104300551D01*
X147125602Y-104312253D01*
X147130383Y-104336287D01*
X147139760Y-104358925D01*
X147153374Y-104379300D01*
X147170702Y-104396627D01*
X147191076Y-104410241D01*
X147213715Y-104419618D01*
X147237749Y-104424398D01*
X147262253Y-104424398D01*
X147286287Y-104419617D01*
X147308925Y-104410240D01*
X147329300Y-104396626D01*
X147346627Y-104379298D01*
X147360241Y-104358924D01*
X147369618Y-104336285D01*
X147374398Y-104312253D01*
X147375551Y-104300551D01*
X147387253Y-104299398D01*
X147411287Y-104294617D01*
X147433925Y-104285240D01*
X147454300Y-104271626D01*
X147471627Y-104254298D01*
X147485241Y-104233924D01*
X147494618Y-104211285D01*
X147499398Y-104187251D01*
X147499398Y-104162747D01*
X147494617Y-104138713D01*
X147485240Y-104116075D01*
X147471626Y-104095700D01*
X147454298Y-104078373D01*
X147433924Y-104064759D01*
X147411285Y-104055382D01*
X147375000Y-104050000D01*
X147125000Y-104050000D01*
X147100614Y-104052402D01*
X147077165Y-104059515D01*
X147055554Y-104071066D01*
X147036612Y-104086612D01*
X147021066Y-104105554D01*
X147009515Y-104127165D01*
X147002402Y-104150614D01*
X147000000Y-104175000D01*
X146999398Y-104175000D01*
X146999398Y-104162747D01*
X146994617Y-104138713D01*
X146985240Y-104116075D01*
X146971626Y-104095700D01*
X146954298Y-104078373D01*
X146933924Y-104064759D01*
X146911285Y-104055382D01*
X146875000Y-104050000D01*
X146625000Y-104050000D01*
X146600614Y-104052402D01*
X146577165Y-104059515D01*
X146555554Y-104071066D01*
X146536612Y-104086612D01*
X146521066Y-104105554D01*
X146509515Y-104127165D01*
X146502402Y-104150614D01*
X146500000Y-104175000D01*
X146499398Y-104175000D01*
X146499398Y-104162747D01*
X146494617Y-104138713D01*
X146485240Y-104116075D01*
X146471626Y-104095700D01*
X146454298Y-104078373D01*
X146433924Y-104064759D01*
X146411285Y-104055382D01*
X146375000Y-104050000D01*
X146125000Y-104050000D01*
X146100614Y-104052402D01*
X146077165Y-104059515D01*
X146055554Y-104071066D01*
X146036612Y-104086612D01*
X146021066Y-104105554D01*
X146009515Y-104127165D01*
X146002402Y-104150614D01*
X146000000Y-104175000D01*
X145999398Y-104175000D01*
X145999398Y-104162747D01*
X145994617Y-104138713D01*
X145985240Y-104116075D01*
X145971626Y-104095700D01*
X145954298Y-104078373D01*
X145933924Y-104064759D01*
X145911285Y-104055382D01*
X145875000Y-104050000D01*
X145625000Y-104050000D01*
X145600614Y-104052402D01*
X145577165Y-104059515D01*
X145555554Y-104071066D01*
X145536612Y-104086612D01*
X145521066Y-104105554D01*
X145509515Y-104127165D01*
X145502402Y-104150614D01*
X145500000Y-104175000D01*
X145499398Y-104175000D01*
X145499398Y-104162747D01*
X145494617Y-104138713D01*
X145485240Y-104116075D01*
X145471626Y-104095700D01*
X145454298Y-104078373D01*
X145433924Y-104064759D01*
X145411285Y-104055382D01*
X145375000Y-104050000D01*
X145125000Y-104050000D01*
X145100614Y-104052402D01*
X145077165Y-104059515D01*
X145055554Y-104071066D01*
X145036612Y-104086612D01*
X145021066Y-104105554D01*
X145009515Y-104127165D01*
X145002402Y-104150614D01*
X145000000Y-104175000D01*
X144999398Y-104175000D01*
X144999398Y-104162747D01*
X144994617Y-104138713D01*
X144985240Y-104116075D01*
X144971626Y-104095700D01*
X144954298Y-104078373D01*
X144933924Y-104064759D01*
X144911285Y-104055382D01*
X144875000Y-104050000D01*
X144625000Y-104050000D01*
X144600614Y-104052402D01*
X144577165Y-104059515D01*
X144555554Y-104071066D01*
X144536612Y-104086612D01*
X144521066Y-104105554D01*
X144509515Y-104127165D01*
X144502402Y-104150614D01*
X144500000Y-104175000D01*
X144499398Y-104175000D01*
X144499398Y-104162747D01*
X144494617Y-104138713D01*
X144485240Y-104116075D01*
X144471626Y-104095700D01*
X144454298Y-104078373D01*
X144433924Y-104064759D01*
X144411285Y-104055382D01*
X144375000Y-104050000D01*
X144125000Y-104050000D01*
X144107124Y-104051761D01*
X144102498Y-104050602D01*
X144063001Y-104046712D01*
X144036807Y-104038766D01*
X144012666Y-104025862D01*
X143991504Y-104008496D01*
X143974138Y-103987334D01*
X143961234Y-103963193D01*
X143953288Y-103936999D01*
X143949398Y-103897502D01*
X143947831Y-103889624D01*
X143950000Y-103875000D01*
X143950000Y-103625000D01*
X143947598Y-103600614D01*
X143940485Y-103577165D01*
X143928934Y-103555554D01*
X143913388Y-103536612D01*
X143894446Y-103521066D01*
X143872835Y-103509515D01*
X143849386Y-103502402D01*
X143825000Y-103500000D01*
X143800614Y-103502402D01*
X143777165Y-103509515D01*
X143755554Y-103521066D01*
X143736612Y-103536612D01*
X143721066Y-103555554D01*
X143709515Y-103577165D01*
X143700602Y-103612747D01*
X143699449Y-103624449D01*
X143687747Y-103625602D01*
X143663713Y-103630383D01*
X143641075Y-103639760D01*
X143620700Y-103653374D01*
X143603373Y-103670702D01*
X143589759Y-103691076D01*
X143580382Y-103713715D01*
X143575602Y-103737749D01*
X143575602Y-103762253D01*
X143580383Y-103786287D01*
X143589760Y-103808925D01*
X143603374Y-103829300D01*
X143620702Y-103846627D01*
X143641076Y-103860241D01*
X143663715Y-103869618D01*
X143687747Y-103874398D01*
X143699449Y-103875551D01*
X143700602Y-103887253D01*
X143702169Y-103895131D01*
X143700000Y-103909755D01*
X143700000Y-104118859D01*
X143699449Y-104124449D01*
X143693859Y-104125000D01*
X142631141Y-104125000D01*
X142625551Y-104124449D01*
X142625000Y-104118859D01*
X142625000Y-103881141D01*
X142625551Y-103875551D01*
X142637253Y-103874398D01*
X142661287Y-103869617D01*
X142683925Y-103860240D01*
X142704300Y-103846626D01*
X142721627Y-103829298D01*
X142735241Y-103808924D01*
X142744618Y-103786285D01*
X142749398Y-103762251D01*
X142749398Y-103737747D01*
X142744617Y-103713713D01*
X142735240Y-103691075D01*
X142721626Y-103670700D01*
X142704298Y-103653373D01*
X142683924Y-103639759D01*
X142661285Y-103630382D01*
X142637253Y-103625602D01*
X142625551Y-103624449D01*
X142625000Y-103618859D01*
X142625000Y-103381141D01*
X142625551Y-103375551D01*
X142637253Y-103374398D01*
X142661287Y-103369617D01*
X142683925Y-103360240D01*
X142704300Y-103346626D01*
X142721627Y-103329298D01*
X142735241Y-103308924D01*
X142744618Y-103286285D01*
X142749398Y-103262251D01*
X142749398Y-103237749D01*
X143575602Y-103237749D01*
X143575602Y-103262253D01*
X143580383Y-103286287D01*
X143589760Y-103308925D01*
X143603374Y-103329300D01*
X143620702Y-103346627D01*
X143641076Y-103360241D01*
X143663715Y-103369618D01*
X143687747Y-103374398D01*
X143699449Y-103375551D01*
X143700602Y-103387253D01*
X143705383Y-103411287D01*
X143714760Y-103433925D01*
X143728374Y-103454300D01*
X143745702Y-103471627D01*
X143766076Y-103485241D01*
X143788715Y-103494618D01*
X143812749Y-103499398D01*
X143837253Y-103499398D01*
X143861287Y-103494617D01*
X143883925Y-103485240D01*
X143904300Y-103471626D01*
X143921627Y-103454298D01*
X143935241Y-103433924D01*
X143944618Y-103411285D01*
X143950000Y-103375000D01*
X143950000Y-103125000D01*
X148050000Y-103125000D01*
X148050000Y-103375000D01*
X148052402Y-103399386D01*
X148059515Y-103422835D01*
X148071066Y-103444446D01*
X148086612Y-103463388D01*
X148105554Y-103478934D01*
X148127165Y-103490485D01*
X148150614Y-103497598D01*
X148175000Y-103500000D01*
X148199386Y-103497598D01*
X148222835Y-103490485D01*
X148244446Y-103478934D01*
X148263388Y-103463388D01*
X148278934Y-103444446D01*
X148290485Y-103422835D01*
X148299398Y-103387253D01*
X148300551Y-103375551D01*
X148312253Y-103374398D01*
X148336287Y-103369617D01*
X148358925Y-103360240D01*
X148379300Y-103346626D01*
X148396627Y-103329298D01*
X148410241Y-103308924D01*
X148419618Y-103286285D01*
X148424398Y-103262251D01*
X148424398Y-103237747D01*
X148419617Y-103213713D01*
X148410240Y-103191075D01*
X148396626Y-103170700D01*
X148379298Y-103153373D01*
X148358924Y-103139759D01*
X148336285Y-103130382D01*
X148312253Y-103125602D01*
X148300551Y-103124449D01*
X148299398Y-103112747D01*
X148294617Y-103088713D01*
X148285240Y-103066075D01*
X148271626Y-103045700D01*
X148254298Y-103028373D01*
X148233924Y-103014759D01*
X148211285Y-103005382D01*
X148187251Y-103000602D01*
X148162747Y-103000602D01*
X148138713Y-103005383D01*
X148116075Y-103014760D01*
X148095700Y-103028374D01*
X148078373Y-103045702D01*
X148064759Y-103066076D01*
X148055382Y-103088715D01*
X148050000Y-103125000D01*
X143950000Y-103125000D01*
X143947598Y-103100614D01*
X143940485Y-103077165D01*
X143928934Y-103055554D01*
X143913388Y-103036612D01*
X143894446Y-103021066D01*
X143872835Y-103009515D01*
X143849386Y-103002402D01*
X143825000Y-103000000D01*
X143800614Y-103002402D01*
X143777165Y-103009515D01*
X143755554Y-103021066D01*
X143736612Y-103036612D01*
X143721066Y-103055554D01*
X143709515Y-103077165D01*
X143700602Y-103112747D01*
X143699449Y-103124449D01*
X143687747Y-103125602D01*
X143663713Y-103130383D01*
X143641075Y-103139760D01*
X143620700Y-103153374D01*
X143603373Y-103170702D01*
X143589759Y-103191076D01*
X143580382Y-103213715D01*
X143575602Y-103237749D01*
X142749398Y-103237749D01*
X142749398Y-103237747D01*
X142744617Y-103213713D01*
X142735240Y-103191075D01*
X142721626Y-103170700D01*
X142704298Y-103153373D01*
X142683924Y-103139759D01*
X142661285Y-103130382D01*
X142637253Y-103125602D01*
X142625551Y-103124449D01*
X142625000Y-103118859D01*
X142625000Y-102881141D01*
X142625551Y-102875551D01*
X142637253Y-102874398D01*
X142661287Y-102869617D01*
X142683925Y-102860240D01*
X142704300Y-102846626D01*
X142721627Y-102829298D01*
X142735241Y-102808924D01*
X142744618Y-102786285D01*
X142749398Y-102762251D01*
X142749398Y-102737749D01*
X143575602Y-102737749D01*
X143575602Y-102762253D01*
X143580383Y-102786287D01*
X143589760Y-102808925D01*
X143603374Y-102829300D01*
X143620702Y-102846627D01*
X143641076Y-102860241D01*
X143663715Y-102869618D01*
X143687747Y-102874398D01*
X143699449Y-102875551D01*
X143700602Y-102887253D01*
X143705383Y-102911287D01*
X143714760Y-102933925D01*
X143728374Y-102954300D01*
X143745702Y-102971627D01*
X143766076Y-102985241D01*
X143788715Y-102994618D01*
X143812749Y-102999398D01*
X143837253Y-102999398D01*
X143861287Y-102994617D01*
X143883925Y-102985240D01*
X143904300Y-102971626D01*
X143921627Y-102954298D01*
X143935241Y-102933924D01*
X143944618Y-102911285D01*
X143950000Y-102875000D01*
X143950000Y-102625000D01*
X148050000Y-102625000D01*
X148050000Y-102875000D01*
X148052402Y-102899386D01*
X148059515Y-102922835D01*
X148071066Y-102944446D01*
X148086612Y-102963388D01*
X148105554Y-102978934D01*
X148127165Y-102990485D01*
X148150614Y-102997598D01*
X148175000Y-103000000D01*
X148199386Y-102997598D01*
X148222835Y-102990485D01*
X148244446Y-102978934D01*
X148263388Y-102963388D01*
X148278934Y-102944446D01*
X148290485Y-102922835D01*
X148299398Y-102887253D01*
X148300551Y-102875551D01*
X148312253Y-102874398D01*
X148336287Y-102869617D01*
X148358925Y-102860240D01*
X148379300Y-102846626D01*
X148396627Y-102829298D01*
X148410241Y-102808924D01*
X148419618Y-102786285D01*
X148424398Y-102762251D01*
X148424398Y-102737747D01*
X148419617Y-102713713D01*
X148410240Y-102691075D01*
X148396626Y-102670700D01*
X148379298Y-102653373D01*
X148358924Y-102639759D01*
X148336285Y-102630382D01*
X148312253Y-102625602D01*
X148300551Y-102624449D01*
X148299398Y-102612747D01*
X148294617Y-102588713D01*
X148285240Y-102566075D01*
X148271626Y-102545700D01*
X148254298Y-102528373D01*
X148233924Y-102514759D01*
X148211285Y-102505382D01*
X148187251Y-102500602D01*
X148162747Y-102500602D01*
X148138713Y-102505383D01*
X148116075Y-102514760D01*
X148095700Y-102528374D01*
X148078373Y-102545702D01*
X148064759Y-102566076D01*
X148055382Y-102588715D01*
X148050000Y-102625000D01*
X143950000Y-102625000D01*
X143947598Y-102600614D01*
X143940485Y-102577165D01*
X143928934Y-102555554D01*
X143913388Y-102536612D01*
X143894446Y-102521066D01*
X143872835Y-102509515D01*
X143849386Y-102502402D01*
X143825000Y-102500000D01*
X143800614Y-102502402D01*
X143777165Y-102509515D01*
X143755554Y-102521066D01*
X143736612Y-102536612D01*
X143721066Y-102555554D01*
X143709515Y-102577165D01*
X143700602Y-102612747D01*
X143699449Y-102624449D01*
X143687747Y-102625602D01*
X143663713Y-102630383D01*
X143641075Y-102639760D01*
X143620700Y-102653374D01*
X143603373Y-102670702D01*
X143589759Y-102691076D01*
X143580382Y-102713715D01*
X143575602Y-102737749D01*
X142749398Y-102737749D01*
X142749398Y-102737747D01*
X142744617Y-102713713D01*
X142735240Y-102691075D01*
X142721626Y-102670700D01*
X142704298Y-102653373D01*
X142683924Y-102639759D01*
X142661285Y-102630382D01*
X142637253Y-102625602D01*
X142625551Y-102624449D01*
X142625000Y-102618859D01*
X142625000Y-102381141D01*
X142625551Y-102375551D01*
X142637253Y-102374398D01*
X142661287Y-102369617D01*
X142683925Y-102360240D01*
X142704300Y-102346626D01*
X142721627Y-102329298D01*
X142735241Y-102308924D01*
X142744618Y-102286285D01*
X142749398Y-102262251D01*
X142749398Y-102237749D01*
X143575602Y-102237749D01*
X143575602Y-102262253D01*
X143580383Y-102286287D01*
X143589760Y-102308925D01*
X143603374Y-102329300D01*
X143620702Y-102346627D01*
X143641076Y-102360241D01*
X143663715Y-102369618D01*
X143687747Y-102374398D01*
X143699449Y-102375551D01*
X143700602Y-102387253D01*
X143705383Y-102411287D01*
X143714760Y-102433925D01*
X143728374Y-102454300D01*
X143745702Y-102471627D01*
X143766076Y-102485241D01*
X143788715Y-102494618D01*
X143812749Y-102499398D01*
X143837253Y-102499398D01*
X143861287Y-102494617D01*
X143883925Y-102485240D01*
X143904300Y-102471626D01*
X143921627Y-102454298D01*
X143935241Y-102433924D01*
X143944618Y-102411285D01*
X143950000Y-102375000D01*
X143950000Y-102125000D01*
X148050000Y-102125000D01*
X148050000Y-102375000D01*
X148052402Y-102399386D01*
X148059515Y-102422835D01*
X148071066Y-102444446D01*
X148086612Y-102463388D01*
X148105554Y-102478934D01*
X148127165Y-102490485D01*
X148150614Y-102497598D01*
X148175000Y-102500000D01*
X148199386Y-102497598D01*
X148222835Y-102490485D01*
X148244446Y-102478934D01*
X148263388Y-102463388D01*
X148278934Y-102444446D01*
X148290485Y-102422835D01*
X148299398Y-102387253D01*
X148300551Y-102375551D01*
X148312253Y-102374398D01*
X148336287Y-102369617D01*
X148358925Y-102360240D01*
X148379300Y-102346626D01*
X148396627Y-102329298D01*
X148410241Y-102308924D01*
X148419618Y-102286285D01*
X148424398Y-102262251D01*
X148424398Y-102237747D01*
X148419617Y-102213713D01*
X148410240Y-102191075D01*
X148396626Y-102170700D01*
X148379298Y-102153373D01*
X148358924Y-102139759D01*
X148336285Y-102130382D01*
X148312253Y-102125602D01*
X148300551Y-102124449D01*
X148299398Y-102112747D01*
X148294617Y-102088713D01*
X148285240Y-102066075D01*
X148271626Y-102045700D01*
X148254298Y-102028373D01*
X148233924Y-102014759D01*
X148211285Y-102005382D01*
X148187251Y-102000602D01*
X148162747Y-102000602D01*
X148138713Y-102005383D01*
X148116075Y-102014760D01*
X148095700Y-102028374D01*
X148078373Y-102045702D01*
X148064759Y-102066076D01*
X148055382Y-102088715D01*
X148050000Y-102125000D01*
X143950000Y-102125000D01*
X143947598Y-102100614D01*
X143940485Y-102077165D01*
X143928934Y-102055554D01*
X143913388Y-102036612D01*
X143894446Y-102021066D01*
X143872835Y-102009515D01*
X143849386Y-102002402D01*
X143825000Y-102000000D01*
X143800614Y-102002402D01*
X143777165Y-102009515D01*
X143755554Y-102021066D01*
X143736612Y-102036612D01*
X143721066Y-102055554D01*
X143709515Y-102077165D01*
X143700602Y-102112747D01*
X143699449Y-102124449D01*
X143687747Y-102125602D01*
X143663713Y-102130383D01*
X143641075Y-102139760D01*
X143620700Y-102153374D01*
X143603373Y-102170702D01*
X143589759Y-102191076D01*
X143580382Y-102213715D01*
X143575602Y-102237749D01*
X142749398Y-102237749D01*
X142749398Y-102237747D01*
X142744617Y-102213713D01*
X142735240Y-102191075D01*
X142721626Y-102170700D01*
X142704298Y-102153373D01*
X142683924Y-102139759D01*
X142661285Y-102130382D01*
X142637253Y-102125602D01*
X142625551Y-102124449D01*
X142625000Y-102118859D01*
X142625000Y-101881141D01*
X142625551Y-101875551D01*
X142637253Y-101874398D01*
X142661287Y-101869617D01*
X142683925Y-101860240D01*
X142704300Y-101846626D01*
X142721627Y-101829298D01*
X142735241Y-101808924D01*
X142744618Y-101786285D01*
X142749398Y-101762251D01*
X142749398Y-101737749D01*
X143575602Y-101737749D01*
X143575602Y-101762253D01*
X143580383Y-101786287D01*
X143589760Y-101808925D01*
X143603374Y-101829300D01*
X143620702Y-101846627D01*
X143641076Y-101860241D01*
X143663715Y-101869618D01*
X143687747Y-101874398D01*
X143699449Y-101875551D01*
X143700602Y-101887253D01*
X143705383Y-101911287D01*
X143714760Y-101933925D01*
X143728374Y-101954300D01*
X143745702Y-101971627D01*
X143766076Y-101985241D01*
X143788715Y-101994618D01*
X143812749Y-101999398D01*
X143837253Y-101999398D01*
X143861287Y-101994617D01*
X143883925Y-101985240D01*
X143904300Y-101971626D01*
X143921627Y-101954298D01*
X143935241Y-101933924D01*
X143944618Y-101911285D01*
X143950000Y-101875000D01*
X143950000Y-101625000D01*
X148050000Y-101625000D01*
X148050000Y-101875000D01*
X148052402Y-101899386D01*
X148059515Y-101922835D01*
X148071066Y-101944446D01*
X148086612Y-101963388D01*
X148105554Y-101978934D01*
X148127165Y-101990485D01*
X148150614Y-101997598D01*
X148175000Y-102000000D01*
X148199386Y-101997598D01*
X148222835Y-101990485D01*
X148244446Y-101978934D01*
X148263388Y-101963388D01*
X148278934Y-101944446D01*
X148290485Y-101922835D01*
X148299398Y-101887253D01*
X148300551Y-101875551D01*
X148312253Y-101874398D01*
X148336287Y-101869617D01*
X148358925Y-101860240D01*
X148379300Y-101846626D01*
X148396627Y-101829298D01*
X148410241Y-101808924D01*
X148419618Y-101786285D01*
X148424398Y-101762251D01*
X148424398Y-101737747D01*
X148419617Y-101713713D01*
X148410240Y-101691075D01*
X148396626Y-101670700D01*
X148379298Y-101653373D01*
X148358924Y-101639759D01*
X148336285Y-101630382D01*
X148312253Y-101625602D01*
X148300551Y-101624449D01*
X148299398Y-101612747D01*
X148294617Y-101588713D01*
X148285240Y-101566075D01*
X148271626Y-101545700D01*
X148254298Y-101528373D01*
X148233924Y-101514759D01*
X148211285Y-101505382D01*
X148187251Y-101500602D01*
X148162747Y-101500602D01*
X148138713Y-101505383D01*
X148116075Y-101514760D01*
X148095700Y-101528374D01*
X148078373Y-101545702D01*
X148064759Y-101566076D01*
X148055382Y-101588715D01*
X148050000Y-101625000D01*
X143950000Y-101625000D01*
X143947598Y-101600614D01*
X143940485Y-101577165D01*
X143928934Y-101555554D01*
X143913388Y-101536612D01*
X143894446Y-101521066D01*
X143872835Y-101509515D01*
X143849386Y-101502402D01*
X143825000Y-101500000D01*
X143800614Y-101502402D01*
X143777165Y-101509515D01*
X143755554Y-101521066D01*
X143736612Y-101536612D01*
X143721066Y-101555554D01*
X143709515Y-101577165D01*
X143700602Y-101612747D01*
X143699449Y-101624449D01*
X143687747Y-101625602D01*
X143663713Y-101630383D01*
X143641075Y-101639760D01*
X143620700Y-101653374D01*
X143603373Y-101670702D01*
X143589759Y-101691076D01*
X143580382Y-101713715D01*
X143575602Y-101737749D01*
X142749398Y-101737749D01*
X142749398Y-101737747D01*
X142744617Y-101713713D01*
X142735240Y-101691075D01*
X142721626Y-101670700D01*
X142704298Y-101653373D01*
X142683924Y-101639759D01*
X142661285Y-101630382D01*
X142637253Y-101625602D01*
X142625551Y-101624449D01*
X142625000Y-101618859D01*
X142625000Y-101381141D01*
X142625551Y-101375551D01*
X142637253Y-101374398D01*
X142661287Y-101369617D01*
X142683925Y-101360240D01*
X142704300Y-101346626D01*
X142721627Y-101329298D01*
X142735241Y-101308924D01*
X142744618Y-101286285D01*
X142749398Y-101262251D01*
X142749398Y-101237749D01*
X143575602Y-101237749D01*
X143575602Y-101262253D01*
X143580383Y-101286287D01*
X143589760Y-101308925D01*
X143603374Y-101329300D01*
X143620702Y-101346627D01*
X143641076Y-101360241D01*
X143663715Y-101369618D01*
X143687747Y-101374398D01*
X143699449Y-101375551D01*
X143700602Y-101387253D01*
X143705383Y-101411287D01*
X143714760Y-101433925D01*
X143728374Y-101454300D01*
X143745702Y-101471627D01*
X143766076Y-101485241D01*
X143788715Y-101494618D01*
X143812749Y-101499398D01*
X143837253Y-101499398D01*
X143861287Y-101494617D01*
X143883925Y-101485240D01*
X143904300Y-101471626D01*
X143921627Y-101454298D01*
X143935241Y-101433924D01*
X143944618Y-101411285D01*
X143950000Y-101375000D01*
X143950000Y-101125000D01*
X148050000Y-101125000D01*
X148050000Y-101375000D01*
X148052402Y-101399386D01*
X148059515Y-101422835D01*
X148071066Y-101444446D01*
X148086612Y-101463388D01*
X148105554Y-101478934D01*
X148127165Y-101490485D01*
X148150614Y-101497598D01*
X148175000Y-101500000D01*
X148199386Y-101497598D01*
X148222835Y-101490485D01*
X148244446Y-101478934D01*
X148263388Y-101463388D01*
X148278934Y-101444446D01*
X148290485Y-101422835D01*
X148299398Y-101387253D01*
X148300551Y-101375551D01*
X148312253Y-101374398D01*
X148336287Y-101369617D01*
X148358925Y-101360240D01*
X148379300Y-101346626D01*
X148396627Y-101329298D01*
X148410241Y-101308924D01*
X148419618Y-101286285D01*
X148424398Y-101262251D01*
X148424398Y-101237747D01*
X148419617Y-101213713D01*
X148410240Y-101191075D01*
X148396626Y-101170700D01*
X148379298Y-101153373D01*
X148358924Y-101139759D01*
X148336285Y-101130382D01*
X148312253Y-101125602D01*
X148300551Y-101124449D01*
X148299398Y-101112747D01*
X148294617Y-101088713D01*
X148285240Y-101066075D01*
X148271626Y-101045700D01*
X148254298Y-101028373D01*
X148233924Y-101014759D01*
X148211285Y-101005382D01*
X148187251Y-101000602D01*
X148162747Y-101000602D01*
X148138713Y-101005383D01*
X148116075Y-101014760D01*
X148095700Y-101028374D01*
X148078373Y-101045702D01*
X148064759Y-101066076D01*
X148055382Y-101088715D01*
X148050000Y-101125000D01*
X143950000Y-101125000D01*
X143947598Y-101100614D01*
X143940485Y-101077165D01*
X143928934Y-101055554D01*
X143913388Y-101036612D01*
X143894446Y-101021066D01*
X143872835Y-101009515D01*
X143849386Y-101002402D01*
X143825000Y-101000000D01*
X143800614Y-101002402D01*
X143777165Y-101009515D01*
X143755554Y-101021066D01*
X143736612Y-101036612D01*
X143721066Y-101055554D01*
X143709515Y-101077165D01*
X143700602Y-101112747D01*
X143699449Y-101124449D01*
X143687747Y-101125602D01*
X143663713Y-101130383D01*
X143641075Y-101139760D01*
X143620700Y-101153374D01*
X143603373Y-101170702D01*
X143589759Y-101191076D01*
X143580382Y-101213715D01*
X143575602Y-101237749D01*
X142749398Y-101237749D01*
X142749398Y-101237747D01*
X142744617Y-101213713D01*
X142735240Y-101191075D01*
X142721626Y-101170700D01*
X142704298Y-101153373D01*
X142683924Y-101139759D01*
X142661285Y-101130382D01*
X142637253Y-101125602D01*
X142625551Y-101124449D01*
X142625000Y-101118859D01*
X142625000Y-100881141D01*
X142625551Y-100875551D01*
X142637253Y-100874398D01*
X142661287Y-100869617D01*
X142683925Y-100860240D01*
X142704300Y-100846626D01*
X142721627Y-100829298D01*
X142735241Y-100808924D01*
X142744618Y-100786285D01*
X142749398Y-100762251D01*
X142749398Y-100737749D01*
X143575602Y-100737749D01*
X143575602Y-100762253D01*
X143580383Y-100786287D01*
X143589760Y-100808925D01*
X143603374Y-100829300D01*
X143620702Y-100846627D01*
X143641076Y-100860241D01*
X143663715Y-100869618D01*
X143687747Y-100874398D01*
X143699449Y-100875551D01*
X143700602Y-100887253D01*
X143705383Y-100911287D01*
X143714760Y-100933925D01*
X143728374Y-100954300D01*
X143745702Y-100971627D01*
X143766076Y-100985241D01*
X143788715Y-100994618D01*
X143812749Y-100999398D01*
X143837253Y-100999398D01*
X143861287Y-100994617D01*
X143883925Y-100985240D01*
X143904300Y-100971626D01*
X143921627Y-100954298D01*
X143935241Y-100933924D01*
X143944618Y-100911285D01*
X143950000Y-100875000D01*
X143950000Y-100625000D01*
X148050000Y-100625000D01*
X148050000Y-100875000D01*
X148052402Y-100899386D01*
X148059515Y-100922835D01*
X148071066Y-100944446D01*
X148086612Y-100963388D01*
X148105554Y-100978934D01*
X148127165Y-100990485D01*
X148150614Y-100997598D01*
X148175000Y-101000000D01*
X148199386Y-100997598D01*
X148222835Y-100990485D01*
X148244446Y-100978934D01*
X148263388Y-100963388D01*
X148278934Y-100944446D01*
X148290485Y-100922835D01*
X148299398Y-100887253D01*
X148300551Y-100875551D01*
X148312253Y-100874398D01*
X148336287Y-100869617D01*
X148358925Y-100860240D01*
X148379300Y-100846626D01*
X148396627Y-100829298D01*
X148410241Y-100808924D01*
X148419618Y-100786285D01*
X148424398Y-100762251D01*
X148424398Y-100737747D01*
X148419617Y-100713713D01*
X148410240Y-100691075D01*
X148396626Y-100670700D01*
X148379298Y-100653373D01*
X148358924Y-100639759D01*
X148336285Y-100630382D01*
X148312253Y-100625602D01*
X148300551Y-100624449D01*
X148299398Y-100612747D01*
X148294617Y-100588713D01*
X148285240Y-100566075D01*
X148271626Y-100545700D01*
X148254298Y-100528373D01*
X148233924Y-100514759D01*
X148211285Y-100505382D01*
X148187251Y-100500602D01*
X148162747Y-100500602D01*
X148138713Y-100505383D01*
X148116075Y-100514760D01*
X148095700Y-100528374D01*
X148078373Y-100545702D01*
X148064759Y-100566076D01*
X148055382Y-100588715D01*
X148050000Y-100625000D01*
X143950000Y-100625000D01*
X143947598Y-100600614D01*
X143940485Y-100577165D01*
X143928934Y-100555554D01*
X143913388Y-100536612D01*
X143894446Y-100521066D01*
X143872835Y-100509515D01*
X143849386Y-100502402D01*
X143825000Y-100500000D01*
X143800614Y-100502402D01*
X143777165Y-100509515D01*
X143755554Y-100521066D01*
X143736612Y-100536612D01*
X143721066Y-100555554D01*
X143709515Y-100577165D01*
X143700602Y-100612747D01*
X143699449Y-100624449D01*
X143687747Y-100625602D01*
X143663713Y-100630383D01*
X143641075Y-100639760D01*
X143620700Y-100653374D01*
X143603373Y-100670702D01*
X143589759Y-100691076D01*
X143580382Y-100713715D01*
X143575602Y-100737749D01*
X142749398Y-100737749D01*
X142749398Y-100737747D01*
X142744617Y-100713713D01*
X142735240Y-100691075D01*
X142721626Y-100670700D01*
X142704298Y-100653373D01*
X142683924Y-100639759D01*
X142661285Y-100630382D01*
X142637253Y-100625602D01*
X142625551Y-100624449D01*
X142625000Y-100618859D01*
X142625000Y-100381141D01*
X142625551Y-100375551D01*
X142637253Y-100374398D01*
X142661287Y-100369617D01*
X142683925Y-100360240D01*
X142704300Y-100346626D01*
X142721627Y-100329298D01*
X142735241Y-100308924D01*
X142744618Y-100286285D01*
X142749398Y-100262251D01*
X142749398Y-100237747D01*
X142744617Y-100213713D01*
X142735240Y-100191075D01*
X142721626Y-100170700D01*
X142704298Y-100153373D01*
X142683924Y-100139759D01*
X142661285Y-100130382D01*
X142637253Y-100125602D01*
X142625551Y-100124449D01*
X142625000Y-100118859D01*
X142625000Y-99881141D01*
X142625551Y-99875551D01*
X142631141Y-99875000D01*
X143693859Y-99875000D01*
X143699449Y-99875551D01*
X143699449Y-99875551D01*
G37*
G36*
X137100000Y-104800000D02*
X134600000Y-104800000D01*
X134600000Y-103700000D01*
X137100000Y-103700000D01*
X137100000Y-104800000D01*
X137100000Y-104800000D01*
G37*
G36*
X138724116Y-103528595D02*
X138753313Y-103537452D01*
X138780218Y-103551833D01*
X138803808Y-103571192D01*
X138823167Y-103594782D01*
X138837548Y-103621687D01*
X138846405Y-103650884D01*
X138850000Y-103687390D01*
X138850000Y-104312610D01*
X138846405Y-104349116D01*
X138837548Y-104378313D01*
X138823167Y-104405218D01*
X138803808Y-104428808D01*
X138780218Y-104448167D01*
X138753313Y-104462548D01*
X138724116Y-104471405D01*
X138687610Y-104475000D01*
X138137390Y-104475000D01*
X138100884Y-104471405D01*
X138071687Y-104462548D01*
X138044782Y-104448167D01*
X138021192Y-104428808D01*
X138001833Y-104405218D01*
X137987452Y-104378313D01*
X137978595Y-104349116D01*
X137975000Y-104312610D01*
X137975000Y-103687390D01*
X137978595Y-103650884D01*
X137987452Y-103621687D01*
X138001833Y-103594782D01*
X138021192Y-103571192D01*
X138044782Y-103551833D01*
X138071687Y-103537452D01*
X138100884Y-103528595D01*
X138137390Y-103525000D01*
X138687610Y-103525000D01*
X138724116Y-103528595D01*
X138724116Y-103528595D01*
G37*
G36*
X140299116Y-103528595D02*
X140328313Y-103537452D01*
X140355218Y-103551833D01*
X140378808Y-103571192D01*
X140398167Y-103594782D01*
X140412548Y-103621687D01*
X140421405Y-103650884D01*
X140425000Y-103687390D01*
X140425000Y-104312610D01*
X140421405Y-104349116D01*
X140412548Y-104378313D01*
X140398167Y-104405218D01*
X140378808Y-104428808D01*
X140355218Y-104448167D01*
X140328313Y-104462548D01*
X140299116Y-104471405D01*
X140262610Y-104475000D01*
X139712390Y-104475000D01*
X139675884Y-104471405D01*
X139646687Y-104462548D01*
X139619782Y-104448167D01*
X139596192Y-104428808D01*
X139576833Y-104405218D01*
X139562452Y-104378313D01*
X139553595Y-104349116D01*
X139550000Y-104312610D01*
X139550000Y-103687390D01*
X139553595Y-103650884D01*
X139562452Y-103621687D01*
X139576833Y-103594782D01*
X139596192Y-103571192D01*
X139619782Y-103551833D01*
X139646687Y-103537452D01*
X139675884Y-103528595D01*
X139712390Y-103525000D01*
X140262610Y-103525000D01*
X140299116Y-103528595D01*
X140299116Y-103528595D01*
G37*
G36*
X151550000Y-104400000D02*
X150050000Y-104400000D01*
X150050000Y-104000000D01*
X151550000Y-104000000D01*
X151550000Y-104400000D01*
X151550000Y-104400000D01*
G37*
G36*
X156611116Y-102828595D02*
X156640313Y-102837452D01*
X156667218Y-102851833D01*
X156690808Y-102871192D01*
X156710167Y-102894782D01*
X156724548Y-102921687D01*
X156733405Y-102950884D01*
X156737000Y-102987390D01*
X156737000Y-103612610D01*
X156733405Y-103649116D01*
X156724548Y-103678313D01*
X156710167Y-103705218D01*
X156690808Y-103728808D01*
X156667218Y-103748167D01*
X156640313Y-103762548D01*
X156611116Y-103771405D01*
X156574610Y-103775000D01*
X156024390Y-103775000D01*
X155987884Y-103771405D01*
X155958687Y-103762548D01*
X155931782Y-103748167D01*
X155908192Y-103728808D01*
X155888833Y-103705218D01*
X155874452Y-103678313D01*
X155865595Y-103649116D01*
X155862000Y-103612610D01*
X155862000Y-102987390D01*
X155865595Y-102950884D01*
X155874452Y-102921687D01*
X155888833Y-102894782D01*
X155908192Y-102871192D01*
X155931782Y-102851833D01*
X155958687Y-102837452D01*
X155987884Y-102828595D01*
X156024390Y-102825000D01*
X156574610Y-102825000D01*
X156611116Y-102828595D01*
X156611116Y-102828595D01*
G37*
G36*
X155036116Y-102828595D02*
X155065313Y-102837452D01*
X155092218Y-102851833D01*
X155115808Y-102871192D01*
X155135167Y-102894782D01*
X155149548Y-102921687D01*
X155158405Y-102950884D01*
X155162000Y-102987390D01*
X155162000Y-103612610D01*
X155158405Y-103649116D01*
X155149548Y-103678313D01*
X155135167Y-103705218D01*
X155115808Y-103728808D01*
X155092218Y-103748167D01*
X155065313Y-103762548D01*
X155036116Y-103771405D01*
X154999610Y-103775000D01*
X154449390Y-103775000D01*
X154412884Y-103771405D01*
X154383687Y-103762548D01*
X154356782Y-103748167D01*
X154333192Y-103728808D01*
X154313833Y-103705218D01*
X154299452Y-103678313D01*
X154290595Y-103649116D01*
X154287000Y-103612610D01*
X154287000Y-102987390D01*
X154290595Y-102950884D01*
X154299452Y-102921687D01*
X154313833Y-102894782D01*
X154333192Y-102871192D01*
X154356782Y-102851833D01*
X154383687Y-102837452D01*
X154412884Y-102828595D01*
X154449390Y-102825000D01*
X154999610Y-102825000D01*
X155036116Y-102828595D01*
X155036116Y-102828595D01*
G37*
G36*
X158036116Y-102828595D02*
X158065313Y-102837452D01*
X158092218Y-102851833D01*
X158115808Y-102871192D01*
X158135167Y-102894782D01*
X158149548Y-102921687D01*
X158158405Y-102950884D01*
X158162000Y-102987390D01*
X158162000Y-103612610D01*
X158158405Y-103649116D01*
X158149548Y-103678313D01*
X158135167Y-103705218D01*
X158115808Y-103728808D01*
X158092218Y-103748167D01*
X158065313Y-103762548D01*
X158036116Y-103771405D01*
X157999610Y-103775000D01*
X157449390Y-103775000D01*
X157412884Y-103771405D01*
X157383687Y-103762548D01*
X157356782Y-103748167D01*
X157333192Y-103728808D01*
X157313833Y-103705218D01*
X157299452Y-103678313D01*
X157290595Y-103649116D01*
X157287000Y-103612610D01*
X157287000Y-102987390D01*
X157290595Y-102950884D01*
X157299452Y-102921687D01*
X157313833Y-102894782D01*
X157333192Y-102871192D01*
X157356782Y-102851833D01*
X157383687Y-102837452D01*
X157412884Y-102828595D01*
X157449390Y-102825000D01*
X157999610Y-102825000D01*
X158036116Y-102828595D01*
X158036116Y-102828595D01*
G37*
G36*
X159611116Y-102828595D02*
X159640313Y-102837452D01*
X159667218Y-102851833D01*
X159690808Y-102871192D01*
X159710167Y-102894782D01*
X159724548Y-102921687D01*
X159733405Y-102950884D01*
X159737000Y-102987390D01*
X159737000Y-103612610D01*
X159733405Y-103649116D01*
X159724548Y-103678313D01*
X159710167Y-103705218D01*
X159690808Y-103728808D01*
X159667218Y-103748167D01*
X159640313Y-103762548D01*
X159611116Y-103771405D01*
X159574610Y-103775000D01*
X159024390Y-103775000D01*
X158987884Y-103771405D01*
X158958687Y-103762548D01*
X158931782Y-103748167D01*
X158908192Y-103728808D01*
X158888833Y-103705218D01*
X158874452Y-103678313D01*
X158865595Y-103649116D01*
X158862000Y-103612610D01*
X158862000Y-102987390D01*
X158865595Y-102950884D01*
X158874452Y-102921687D01*
X158888833Y-102894782D01*
X158908192Y-102871192D01*
X158931782Y-102851833D01*
X158958687Y-102837452D01*
X158987884Y-102828595D01*
X159024390Y-102825000D01*
X159574610Y-102825000D01*
X159611116Y-102828595D01*
X159611116Y-102828595D01*
G37*
G36*
X151550000Y-103200000D02*
X150050000Y-103200000D01*
X150050000Y-102800000D01*
X151550000Y-102800000D01*
X151550000Y-103200000D01*
X151550000Y-103200000D01*
G37*
G36*
X140299116Y-101928595D02*
X140328313Y-101937452D01*
X140355218Y-101951833D01*
X140378808Y-101971192D01*
X140398167Y-101994782D01*
X140412548Y-102021687D01*
X140421405Y-102050884D01*
X140425000Y-102087390D01*
X140425000Y-102712610D01*
X140421405Y-102749116D01*
X140412548Y-102778313D01*
X140398167Y-102805218D01*
X140378808Y-102828808D01*
X140355218Y-102848167D01*
X140328313Y-102862548D01*
X140299116Y-102871405D01*
X140262610Y-102875000D01*
X139712390Y-102875000D01*
X139675884Y-102871405D01*
X139646687Y-102862548D01*
X139619782Y-102848167D01*
X139596192Y-102828808D01*
X139576833Y-102805218D01*
X139562452Y-102778313D01*
X139553595Y-102749116D01*
X139550000Y-102712610D01*
X139550000Y-102087390D01*
X139553595Y-102050884D01*
X139562452Y-102021687D01*
X139576833Y-101994782D01*
X139596192Y-101971192D01*
X139619782Y-101951833D01*
X139646687Y-101937452D01*
X139675884Y-101928595D01*
X139712390Y-101925000D01*
X140262610Y-101925000D01*
X140299116Y-101928595D01*
X140299116Y-101928595D01*
G37*
G36*
X138724116Y-101928595D02*
X138753313Y-101937452D01*
X138780218Y-101951833D01*
X138803808Y-101971192D01*
X138823167Y-101994782D01*
X138837548Y-102021687D01*
X138846405Y-102050884D01*
X138850000Y-102087390D01*
X138850000Y-102712610D01*
X138846405Y-102749116D01*
X138837548Y-102778313D01*
X138823167Y-102805218D01*
X138803808Y-102828808D01*
X138780218Y-102848167D01*
X138753313Y-102862548D01*
X138724116Y-102871405D01*
X138687610Y-102875000D01*
X138137390Y-102875000D01*
X138100884Y-102871405D01*
X138071687Y-102862548D01*
X138044782Y-102848167D01*
X138021192Y-102828808D01*
X138001833Y-102805218D01*
X137987452Y-102778313D01*
X137978595Y-102749116D01*
X137975000Y-102712610D01*
X137975000Y-102087390D01*
X137978595Y-102050884D01*
X137987452Y-102021687D01*
X138001833Y-101994782D01*
X138021192Y-101971192D01*
X138044782Y-101951833D01*
X138071687Y-101937452D01*
X138100884Y-101928595D01*
X138137390Y-101925000D01*
X138687610Y-101925000D01*
X138724116Y-101928595D01*
X138724116Y-101928595D01*
G37*
G36*
X137100000Y-102800000D02*
X134600000Y-102800000D01*
X134600000Y-101700000D01*
X137100000Y-101700000D01*
X137100000Y-102800000D01*
X137100000Y-102800000D01*
G37*
G36*
X160937224Y-100810128D02*
X161069175Y-100850155D01*
X161190781Y-100915155D01*
X161297370Y-101002630D01*
X161384845Y-101109219D01*
X161449845Y-101230825D01*
X161489872Y-101362776D01*
X161503387Y-101500000D01*
X161489872Y-101637224D01*
X161449845Y-101769175D01*
X161384845Y-101890781D01*
X161297370Y-101997370D01*
X161190781Y-102084845D01*
X161069175Y-102149845D01*
X160937224Y-102189872D01*
X160834390Y-102200000D01*
X160165610Y-102200000D01*
X160062776Y-102189872D01*
X159930825Y-102149845D01*
X159809219Y-102084845D01*
X159702630Y-101997370D01*
X159615155Y-101890781D01*
X159550155Y-101769175D01*
X159510128Y-101637224D01*
X159496613Y-101500000D01*
X159510128Y-101362776D01*
X159550155Y-101230825D01*
X159615155Y-101109219D01*
X159702630Y-101002630D01*
X159809219Y-100915155D01*
X159930825Y-100850155D01*
X160062776Y-100810128D01*
X160165610Y-100800000D01*
X160834390Y-100800000D01*
X160937224Y-100810128D01*
X160937224Y-100810128D01*
G37*
G36*
X157175012Y-100573057D02*
X157284207Y-100618287D01*
X157382481Y-100683952D01*
X157466048Y-100767519D01*
X157531713Y-100865793D01*
X157576943Y-100974988D01*
X157600000Y-101090904D01*
X157600000Y-101209096D01*
X157576943Y-101325012D01*
X157531713Y-101434207D01*
X157466048Y-101532481D01*
X157382481Y-101616048D01*
X157284207Y-101681713D01*
X157175012Y-101726943D01*
X157059096Y-101750000D01*
X156940904Y-101750000D01*
X156824988Y-101726943D01*
X156715793Y-101681713D01*
X156617519Y-101616048D01*
X156533952Y-101532481D01*
X156468287Y-101434207D01*
X156423057Y-101325012D01*
X156400000Y-101209096D01*
X156400000Y-101090904D01*
X156423057Y-100974988D01*
X156468287Y-100865793D01*
X156533952Y-100767519D01*
X156617519Y-100683952D01*
X156715793Y-100618287D01*
X156824988Y-100573057D01*
X156940904Y-100550000D01*
X157059096Y-100550000D01*
X157175012Y-100573057D01*
X157175012Y-100573057D01*
G37*
G36*
X153437224Y-100260128D02*
X153569175Y-100300155D01*
X153690781Y-100365155D01*
X153797370Y-100452630D01*
X153884845Y-100559219D01*
X153949845Y-100680825D01*
X153989872Y-100812776D01*
X154003387Y-100950000D01*
X153989872Y-101087224D01*
X153949845Y-101219175D01*
X153884845Y-101340781D01*
X153797370Y-101447370D01*
X153690781Y-101534845D01*
X153569175Y-101599845D01*
X153437224Y-101639872D01*
X153334390Y-101650000D01*
X152665610Y-101650000D01*
X152562776Y-101639872D01*
X152430825Y-101599845D01*
X152309219Y-101534845D01*
X152202630Y-101447370D01*
X152115155Y-101340781D01*
X152050155Y-101219175D01*
X152010128Y-101087224D01*
X151996613Y-100950000D01*
X152010128Y-100812776D01*
X152050155Y-100680825D01*
X152115155Y-100559219D01*
X152202630Y-100452630D01*
X152309219Y-100365155D01*
X152430825Y-100300155D01*
X152562776Y-100260128D01*
X152665610Y-100250000D01*
X153334390Y-100250000D01*
X153437224Y-100260128D01*
X153437224Y-100260128D01*
G37*
G36*
X133189590Y-100407045D02*
X133260429Y-100421136D01*
X133354345Y-100460038D01*
X133360523Y-100462597D01*
X133450607Y-100522789D01*
X133527211Y-100599393D01*
X133527213Y-100599396D01*
X133587403Y-100689477D01*
X133628864Y-100789571D01*
X133650000Y-100895830D01*
X133650000Y-101004170D01*
X133628864Y-101110429D01*
X133587994Y-101209096D01*
X133587403Y-101210523D01*
X133527211Y-101300607D01*
X133450607Y-101377211D01*
X133450604Y-101377213D01*
X133360523Y-101437403D01*
X133260429Y-101478864D01*
X133189590Y-101492955D01*
X133154171Y-101500000D01*
X133045829Y-101500000D01*
X133010410Y-101492955D01*
X132939571Y-101478864D01*
X132839477Y-101437403D01*
X132749396Y-101377213D01*
X132749393Y-101377211D01*
X132672789Y-101300607D01*
X132612597Y-101210523D01*
X132612006Y-101209096D01*
X132571136Y-101110429D01*
X132550000Y-101004170D01*
X132550000Y-100895830D01*
X132571136Y-100789571D01*
X132612597Y-100689477D01*
X132672787Y-100599396D01*
X132672789Y-100599393D01*
X132749393Y-100522789D01*
X132839477Y-100462597D01*
X132845655Y-100460038D01*
X132939571Y-100421136D01*
X133010410Y-100407045D01*
X133045829Y-100400000D01*
X133154171Y-100400000D01*
X133189590Y-100407045D01*
X133189590Y-100407045D01*
G37*
G36*
X140299116Y-100328595D02*
X140328313Y-100337452D01*
X140355218Y-100351833D01*
X140378808Y-100371192D01*
X140398167Y-100394782D01*
X140412548Y-100421687D01*
X140421405Y-100450884D01*
X140425000Y-100487390D01*
X140425000Y-101112610D01*
X140421405Y-101149116D01*
X140412548Y-101178313D01*
X140398167Y-101205218D01*
X140378808Y-101228808D01*
X140355218Y-101248167D01*
X140328313Y-101262548D01*
X140299116Y-101271405D01*
X140262610Y-101275000D01*
X139712390Y-101275000D01*
X139675884Y-101271405D01*
X139646687Y-101262548D01*
X139619782Y-101248167D01*
X139596192Y-101228808D01*
X139576833Y-101205218D01*
X139562452Y-101178313D01*
X139553595Y-101149116D01*
X139550000Y-101112610D01*
X139550000Y-100487390D01*
X139553595Y-100450884D01*
X139562452Y-100421687D01*
X139576833Y-100394782D01*
X139596192Y-100371192D01*
X139619782Y-100351833D01*
X139646687Y-100337452D01*
X139675884Y-100328595D01*
X139712390Y-100325000D01*
X140262610Y-100325000D01*
X140299116Y-100328595D01*
X140299116Y-100328595D01*
G37*
G36*
X138724116Y-100328595D02*
X138753313Y-100337452D01*
X138780218Y-100351833D01*
X138803808Y-100371192D01*
X138823167Y-100394782D01*
X138837548Y-100421687D01*
X138846405Y-100450884D01*
X138850000Y-100487390D01*
X138850000Y-101112610D01*
X138846405Y-101149116D01*
X138837548Y-101178313D01*
X138823167Y-101205218D01*
X138803808Y-101228808D01*
X138780218Y-101248167D01*
X138753313Y-101262548D01*
X138724116Y-101271405D01*
X138687610Y-101275000D01*
X138137390Y-101275000D01*
X138100884Y-101271405D01*
X138071687Y-101262548D01*
X138044782Y-101248167D01*
X138021192Y-101228808D01*
X138001833Y-101205218D01*
X137987452Y-101178313D01*
X137978595Y-101149116D01*
X137975000Y-101112610D01*
X137975000Y-100487390D01*
X137978595Y-100450884D01*
X137987452Y-100421687D01*
X138001833Y-100394782D01*
X138021192Y-100371192D01*
X138044782Y-100351833D01*
X138071687Y-100337452D01*
X138100884Y-100328595D01*
X138137390Y-100325000D01*
X138687610Y-100325000D01*
X138724116Y-100328595D01*
X138724116Y-100328595D01*
G37*
G36*
X137100000Y-100300000D02*
X134600000Y-100300000D01*
X134600000Y-99200000D01*
X137100000Y-99200000D01*
X137100000Y-100300000D01*
X137100000Y-100300000D01*
G37*
G36*
X144124449Y-98625551D02*
X144125602Y-98637253D01*
X144130383Y-98661287D01*
X144139760Y-98683925D01*
X144153374Y-98704300D01*
X144170702Y-98721627D01*
X144191076Y-98735241D01*
X144213715Y-98744618D01*
X144237749Y-98749398D01*
X144262253Y-98749398D01*
X144286287Y-98744617D01*
X144308925Y-98735240D01*
X144329300Y-98721626D01*
X144346627Y-98704298D01*
X144360241Y-98683924D01*
X144369618Y-98661285D01*
X144374398Y-98637253D01*
X144375551Y-98625551D01*
X144381141Y-98625000D01*
X144618859Y-98625000D01*
X144624449Y-98625551D01*
X144625602Y-98637253D01*
X144630383Y-98661287D01*
X144639760Y-98683925D01*
X144653374Y-98704300D01*
X144670702Y-98721627D01*
X144691076Y-98735241D01*
X144713715Y-98744618D01*
X144737749Y-98749398D01*
X144762253Y-98749398D01*
X144786287Y-98744617D01*
X144808925Y-98735240D01*
X144829300Y-98721626D01*
X144846627Y-98704298D01*
X144860241Y-98683924D01*
X144869618Y-98661285D01*
X144874398Y-98637253D01*
X144875551Y-98625551D01*
X144881141Y-98625000D01*
X145118859Y-98625000D01*
X145124449Y-98625551D01*
X145125602Y-98637253D01*
X145130383Y-98661287D01*
X145139760Y-98683925D01*
X145153374Y-98704300D01*
X145170702Y-98721627D01*
X145191076Y-98735241D01*
X145213715Y-98744618D01*
X145237749Y-98749398D01*
X145262253Y-98749398D01*
X145286287Y-98744617D01*
X145308925Y-98735240D01*
X145329300Y-98721626D01*
X145346627Y-98704298D01*
X145360241Y-98683924D01*
X145369618Y-98661285D01*
X145374398Y-98637253D01*
X145375551Y-98625551D01*
X145381141Y-98625000D01*
X145618859Y-98625000D01*
X145624449Y-98625551D01*
X145625602Y-98637253D01*
X145630383Y-98661287D01*
X145639760Y-98683925D01*
X145653374Y-98704300D01*
X145670702Y-98721627D01*
X145691076Y-98735241D01*
X145713715Y-98744618D01*
X145737749Y-98749398D01*
X145762253Y-98749398D01*
X145786287Y-98744617D01*
X145808925Y-98735240D01*
X145829300Y-98721626D01*
X145846627Y-98704298D01*
X145860241Y-98683924D01*
X145869618Y-98661285D01*
X145874398Y-98637253D01*
X145875551Y-98625551D01*
X145881141Y-98625000D01*
X146118859Y-98625000D01*
X146124449Y-98625551D01*
X146125602Y-98637253D01*
X146130383Y-98661287D01*
X146139760Y-98683925D01*
X146153374Y-98704300D01*
X146170702Y-98721627D01*
X146191076Y-98735241D01*
X146213715Y-98744618D01*
X146237749Y-98749398D01*
X146262253Y-98749398D01*
X146286287Y-98744617D01*
X146308925Y-98735240D01*
X146329300Y-98721626D01*
X146346627Y-98704298D01*
X146360241Y-98683924D01*
X146369618Y-98661285D01*
X146374398Y-98637253D01*
X146375551Y-98625551D01*
X146381141Y-98625000D01*
X146618859Y-98625000D01*
X146624449Y-98625551D01*
X146625602Y-98637253D01*
X146630383Y-98661287D01*
X146639760Y-98683925D01*
X146653374Y-98704300D01*
X146670702Y-98721627D01*
X146691076Y-98735241D01*
X146713715Y-98744618D01*
X146737749Y-98749398D01*
X146762253Y-98749398D01*
X146786287Y-98744617D01*
X146808925Y-98735240D01*
X146829300Y-98721626D01*
X146846627Y-98704298D01*
X146860241Y-98683924D01*
X146869618Y-98661285D01*
X146874398Y-98637253D01*
X146875551Y-98625551D01*
X146881141Y-98625000D01*
X147118859Y-98625000D01*
X147124449Y-98625551D01*
X147125602Y-98637253D01*
X147130383Y-98661287D01*
X147139760Y-98683925D01*
X147153374Y-98704300D01*
X147170702Y-98721627D01*
X147191076Y-98735241D01*
X147213715Y-98744618D01*
X147237749Y-98749398D01*
X147262253Y-98749398D01*
X147286287Y-98744617D01*
X147308925Y-98735240D01*
X147329300Y-98721626D01*
X147346627Y-98704298D01*
X147360241Y-98683924D01*
X147369618Y-98661285D01*
X147374398Y-98637253D01*
X147375551Y-98625551D01*
X147381141Y-98625000D01*
X147618859Y-98625000D01*
X147624449Y-98625551D01*
X147625602Y-98637253D01*
X147630383Y-98661287D01*
X147639760Y-98683925D01*
X147653374Y-98704300D01*
X147670702Y-98721627D01*
X147691076Y-98735241D01*
X147713715Y-98744618D01*
X147737749Y-98749398D01*
X147762253Y-98749398D01*
X147786287Y-98744617D01*
X147808925Y-98735240D01*
X147829300Y-98721626D01*
X147846627Y-98704298D01*
X147860241Y-98683924D01*
X147869618Y-98661285D01*
X147874398Y-98637253D01*
X147875551Y-98625551D01*
X147881141Y-98625000D01*
X148118859Y-98625000D01*
X148124449Y-98625551D01*
X148125000Y-98631141D01*
X148125000Y-99693859D01*
X148124449Y-99699449D01*
X148118859Y-99700000D01*
X147909755Y-99700000D01*
X147891879Y-99701761D01*
X147887253Y-99700602D01*
X147875551Y-99699449D01*
X147874398Y-99687747D01*
X147869617Y-99663713D01*
X147860240Y-99641075D01*
X147846626Y-99620700D01*
X147829298Y-99603373D01*
X147808924Y-99589759D01*
X147786285Y-99580382D01*
X147762251Y-99575602D01*
X147737747Y-99575602D01*
X147713713Y-99580383D01*
X147691075Y-99589760D01*
X147670700Y-99603374D01*
X147653373Y-99620702D01*
X147639759Y-99641076D01*
X147630382Y-99663715D01*
X147625602Y-99687747D01*
X147624449Y-99699449D01*
X147618859Y-99700000D01*
X147381141Y-99700000D01*
X147375551Y-99699449D01*
X147374398Y-99687747D01*
X147369617Y-99663713D01*
X147360240Y-99641075D01*
X147346626Y-99620700D01*
X147329298Y-99603373D01*
X147308924Y-99589759D01*
X147286285Y-99580382D01*
X147262251Y-99575602D01*
X147237747Y-99575602D01*
X147213713Y-99580383D01*
X147191075Y-99589760D01*
X147170700Y-99603374D01*
X147153373Y-99620702D01*
X147139759Y-99641076D01*
X147130382Y-99663715D01*
X147125602Y-99687747D01*
X147124449Y-99699449D01*
X147118859Y-99700000D01*
X146881141Y-99700000D01*
X146875551Y-99699449D01*
X146874398Y-99687747D01*
X146869617Y-99663713D01*
X146860240Y-99641075D01*
X146846626Y-99620700D01*
X146829298Y-99603373D01*
X146808924Y-99589759D01*
X146786285Y-99580382D01*
X146762251Y-99575602D01*
X146737747Y-99575602D01*
X146713713Y-99580383D01*
X146691075Y-99589760D01*
X146670700Y-99603374D01*
X146653373Y-99620702D01*
X146639759Y-99641076D01*
X146630382Y-99663715D01*
X146625602Y-99687747D01*
X146624449Y-99699449D01*
X146618859Y-99700000D01*
X146381141Y-99700000D01*
X146375551Y-99699449D01*
X146374398Y-99687747D01*
X146369617Y-99663713D01*
X146360240Y-99641075D01*
X146346626Y-99620700D01*
X146329298Y-99603373D01*
X146308924Y-99589759D01*
X146286285Y-99580382D01*
X146262251Y-99575602D01*
X146237747Y-99575602D01*
X146213713Y-99580383D01*
X146191075Y-99589760D01*
X146170700Y-99603374D01*
X146153373Y-99620702D01*
X146139759Y-99641076D01*
X146130382Y-99663715D01*
X146125602Y-99687747D01*
X146124449Y-99699449D01*
X146118859Y-99700000D01*
X145881141Y-99700000D01*
X145875551Y-99699449D01*
X145874398Y-99687747D01*
X145869617Y-99663713D01*
X145860240Y-99641075D01*
X145846626Y-99620700D01*
X145829298Y-99603373D01*
X145808924Y-99589759D01*
X145786285Y-99580382D01*
X145762251Y-99575602D01*
X145737747Y-99575602D01*
X145713713Y-99580383D01*
X145691075Y-99589760D01*
X145670700Y-99603374D01*
X145653373Y-99620702D01*
X145639759Y-99641076D01*
X145630382Y-99663715D01*
X145625602Y-99687747D01*
X145624449Y-99699449D01*
X145618859Y-99700000D01*
X145381141Y-99700000D01*
X145375551Y-99699449D01*
X145374398Y-99687747D01*
X145369617Y-99663713D01*
X145360240Y-99641075D01*
X145346626Y-99620700D01*
X145329298Y-99603373D01*
X145308924Y-99589759D01*
X145286285Y-99580382D01*
X145262251Y-99575602D01*
X145237747Y-99575602D01*
X145213713Y-99580383D01*
X145191075Y-99589760D01*
X145170700Y-99603374D01*
X145153373Y-99620702D01*
X145139759Y-99641076D01*
X145130382Y-99663715D01*
X145125602Y-99687747D01*
X145124449Y-99699449D01*
X145118859Y-99700000D01*
X144881141Y-99700000D01*
X144875551Y-99699449D01*
X144874398Y-99687747D01*
X144869617Y-99663713D01*
X144860240Y-99641075D01*
X144846626Y-99620700D01*
X144829298Y-99603373D01*
X144808924Y-99589759D01*
X144786285Y-99580382D01*
X144762251Y-99575602D01*
X144737747Y-99575602D01*
X144713713Y-99580383D01*
X144691075Y-99589760D01*
X144670700Y-99603374D01*
X144653373Y-99620702D01*
X144639759Y-99641076D01*
X144630382Y-99663715D01*
X144625602Y-99687747D01*
X144624449Y-99699449D01*
X144618859Y-99700000D01*
X144381141Y-99700000D01*
X144375551Y-99699449D01*
X144374398Y-99687747D01*
X144369617Y-99663713D01*
X144360240Y-99641075D01*
X144346626Y-99620700D01*
X144329298Y-99603373D01*
X144308924Y-99589759D01*
X144286285Y-99580382D01*
X144262251Y-99575602D01*
X144237747Y-99575602D01*
X144213713Y-99580383D01*
X144191075Y-99589760D01*
X144170700Y-99603374D01*
X144153373Y-99620702D01*
X144139759Y-99641076D01*
X144130382Y-99663715D01*
X144125602Y-99687747D01*
X144124449Y-99699449D01*
X144118859Y-99700000D01*
X143881141Y-99700000D01*
X143875551Y-99699449D01*
X143875000Y-99693859D01*
X143875000Y-98631141D01*
X143875551Y-98625551D01*
X143881141Y-98625000D01*
X144118859Y-98625000D01*
X144124449Y-98625551D01*
X144124449Y-98625551D01*
G37*
G36*
X134016448Y-96606873D02*
X134086232Y-96613746D01*
X134175770Y-96640907D01*
X134265309Y-96668068D01*
X134430347Y-96756283D01*
X134575001Y-96874999D01*
X134693717Y-97019653D01*
X134781932Y-97184691D01*
X134781932Y-97184692D01*
X134836254Y-97363768D01*
X134854596Y-97550000D01*
X134836254Y-97736232D01*
X134823650Y-97777781D01*
X134781932Y-97915309D01*
X134693717Y-98080347D01*
X134575001Y-98225001D01*
X134430347Y-98343717D01*
X134265309Y-98431932D01*
X134175770Y-98459093D01*
X134086232Y-98486254D01*
X134016448Y-98493127D01*
X133946666Y-98500000D01*
X132253334Y-98500000D01*
X132183552Y-98493127D01*
X132113768Y-98486254D01*
X132024230Y-98459093D01*
X131934691Y-98431932D01*
X131769653Y-98343717D01*
X131624999Y-98225001D01*
X131506283Y-98080347D01*
X131418068Y-97915309D01*
X131376350Y-97777781D01*
X131363746Y-97736232D01*
X131345404Y-97550000D01*
X131363746Y-97363768D01*
X131418068Y-97184692D01*
X131418068Y-97184691D01*
X131506283Y-97019653D01*
X131624999Y-96874999D01*
X131769653Y-96756283D01*
X131934691Y-96668068D01*
X132024230Y-96640907D01*
X132113768Y-96613746D01*
X132253334Y-96600000D01*
X133946666Y-96600000D01*
X134016448Y-96606873D01*
X134016448Y-96606873D01*
G37*
G36*
X144124116Y-96928595D02*
X144153313Y-96937452D01*
X144180218Y-96951833D01*
X144203808Y-96971192D01*
X144223167Y-96994782D01*
X144237548Y-97021687D01*
X144246405Y-97050884D01*
X144250000Y-97087390D01*
X144250000Y-97712610D01*
X144246405Y-97749116D01*
X144237548Y-97778313D01*
X144223167Y-97805218D01*
X144203808Y-97828808D01*
X144180218Y-97848167D01*
X144153313Y-97862548D01*
X144124116Y-97871405D01*
X144087610Y-97875000D01*
X143537390Y-97875000D01*
X143500884Y-97871405D01*
X143471687Y-97862548D01*
X143444782Y-97848167D01*
X143421192Y-97828808D01*
X143401833Y-97805218D01*
X143387452Y-97778313D01*
X143378595Y-97749116D01*
X143375000Y-97712610D01*
X143375000Y-97087390D01*
X143378595Y-97050884D01*
X143387452Y-97021687D01*
X143401833Y-96994782D01*
X143421192Y-96971192D01*
X143444782Y-96951833D01*
X143471687Y-96937452D01*
X143500884Y-96928595D01*
X143537390Y-96925000D01*
X144087610Y-96925000D01*
X144124116Y-96928595D01*
X144124116Y-96928595D01*
G37*
G36*
X145699116Y-96928595D02*
X145728313Y-96937452D01*
X145755218Y-96951833D01*
X145778808Y-96971192D01*
X145798167Y-96994782D01*
X145812548Y-97021687D01*
X145821405Y-97050884D01*
X145825000Y-97087390D01*
X145825000Y-97712610D01*
X145821405Y-97749116D01*
X145812548Y-97778313D01*
X145798167Y-97805218D01*
X145778808Y-97828808D01*
X145755218Y-97848167D01*
X145728313Y-97862548D01*
X145699116Y-97871405D01*
X145662610Y-97875000D01*
X145112390Y-97875000D01*
X145075884Y-97871405D01*
X145046687Y-97862548D01*
X145019782Y-97848167D01*
X144996192Y-97828808D01*
X144976833Y-97805218D01*
X144962452Y-97778313D01*
X144953595Y-97749116D01*
X144950000Y-97712610D01*
X144950000Y-97087390D01*
X144953595Y-97050884D01*
X144962452Y-97021687D01*
X144976833Y-96994782D01*
X144996192Y-96971192D01*
X145019782Y-96951833D01*
X145046687Y-96937452D01*
X145075884Y-96928595D01*
X145112390Y-96925000D01*
X145662610Y-96925000D01*
X145699116Y-96928595D01*
X145699116Y-96928595D01*
G37*
G36*
X147224116Y-96928595D02*
X147253313Y-96937452D01*
X147280218Y-96951833D01*
X147303808Y-96971192D01*
X147323167Y-96994782D01*
X147337548Y-97021687D01*
X147346405Y-97050884D01*
X147350000Y-97087390D01*
X147350000Y-97712610D01*
X147346405Y-97749116D01*
X147337548Y-97778313D01*
X147323167Y-97805218D01*
X147303808Y-97828808D01*
X147280218Y-97848167D01*
X147253313Y-97862548D01*
X147224116Y-97871405D01*
X147187610Y-97875000D01*
X146637390Y-97875000D01*
X146600884Y-97871405D01*
X146571687Y-97862548D01*
X146544782Y-97848167D01*
X146521192Y-97828808D01*
X146501833Y-97805218D01*
X146487452Y-97778313D01*
X146478595Y-97749116D01*
X146475000Y-97712610D01*
X146475000Y-97087390D01*
X146478595Y-97050884D01*
X146487452Y-97021687D01*
X146501833Y-96994782D01*
X146521192Y-96971192D01*
X146544782Y-96951833D01*
X146571687Y-96937452D01*
X146600884Y-96928595D01*
X146637390Y-96925000D01*
X147187610Y-96925000D01*
X147224116Y-96928595D01*
X147224116Y-96928595D01*
G37*
G36*
X148799116Y-96928595D02*
X148828313Y-96937452D01*
X148855218Y-96951833D01*
X148878808Y-96971192D01*
X148898167Y-96994782D01*
X148912548Y-97021687D01*
X148921405Y-97050884D01*
X148925000Y-97087390D01*
X148925000Y-97712610D01*
X148921405Y-97749116D01*
X148912548Y-97778313D01*
X148898167Y-97805218D01*
X148878808Y-97828808D01*
X148855218Y-97848167D01*
X148828313Y-97862548D01*
X148799116Y-97871405D01*
X148762610Y-97875000D01*
X148212390Y-97875000D01*
X148175884Y-97871405D01*
X148146687Y-97862548D01*
X148119782Y-97848167D01*
X148096192Y-97828808D01*
X148076833Y-97805218D01*
X148062452Y-97778313D01*
X148053595Y-97749116D01*
X148050000Y-97712610D01*
X148050000Y-97087390D01*
X148053595Y-97050884D01*
X148062452Y-97021687D01*
X148076833Y-96994782D01*
X148096192Y-96971192D01*
X148119782Y-96951833D01*
X148146687Y-96937452D01*
X148175884Y-96928595D01*
X148212390Y-96925000D01*
X148762610Y-96925000D01*
X148799116Y-96928595D01*
X148799116Y-96928595D01*
G37*
G36*
X153437224Y-95660128D02*
X153569175Y-95700155D01*
X153690781Y-95765155D01*
X153797370Y-95852630D01*
X153884845Y-95959219D01*
X153949845Y-96080825D01*
X153989872Y-96212776D01*
X154003387Y-96350000D01*
X153989872Y-96487224D01*
X153949845Y-96619175D01*
X153884845Y-96740781D01*
X153797370Y-96847370D01*
X153690781Y-96934845D01*
X153569175Y-96999845D01*
X153437224Y-97039872D01*
X153334390Y-97050000D01*
X152665610Y-97050000D01*
X152562776Y-97039872D01*
X152430825Y-96999845D01*
X152309219Y-96934845D01*
X152202630Y-96847370D01*
X152115155Y-96740781D01*
X152050155Y-96619175D01*
X152010128Y-96487224D01*
X151996613Y-96350000D01*
X152010128Y-96212776D01*
X152050155Y-96080825D01*
X152115155Y-95959219D01*
X152202630Y-95852630D01*
X152309219Y-95765155D01*
X152430825Y-95700155D01*
X152562776Y-95660128D01*
X152665610Y-95650000D01*
X153334390Y-95650000D01*
X153437224Y-95660128D01*
X153437224Y-95660128D01*
G37*
G36*
X157175012Y-95573057D02*
X157284207Y-95618287D01*
X157382481Y-95683952D01*
X157466048Y-95767519D01*
X157531713Y-95865793D01*
X157576943Y-95974988D01*
X157600000Y-96090904D01*
X157600000Y-96209096D01*
X157576943Y-96325012D01*
X157531713Y-96434207D01*
X157466048Y-96532481D01*
X157382481Y-96616048D01*
X157284207Y-96681713D01*
X157175012Y-96726943D01*
X157059096Y-96750000D01*
X156940904Y-96750000D01*
X156824988Y-96726943D01*
X156715793Y-96681713D01*
X156617519Y-96616048D01*
X156533952Y-96532481D01*
X156468287Y-96434207D01*
X156423057Y-96325012D01*
X156400000Y-96209096D01*
X156400000Y-96090904D01*
X156423057Y-95974988D01*
X156468287Y-95865793D01*
X156533952Y-95767519D01*
X156617519Y-95683952D01*
X156715793Y-95618287D01*
X156824988Y-95573057D01*
X156940904Y-95550000D01*
X157059096Y-95550000D01*
X157175012Y-95573057D01*
X157175012Y-95573057D01*
G37*
G36*
X160937224Y-95110128D02*
X161069175Y-95150155D01*
X161190781Y-95215155D01*
X161297370Y-95302630D01*
X161384845Y-95409219D01*
X161449845Y-95530825D01*
X161489872Y-95662776D01*
X161503387Y-95800000D01*
X161489872Y-95937224D01*
X161449845Y-96069175D01*
X161384845Y-96190781D01*
X161297370Y-96297370D01*
X161190781Y-96384845D01*
X161069175Y-96449845D01*
X160937224Y-96489872D01*
X160834390Y-96500000D01*
X160165610Y-96500000D01*
X160062776Y-96489872D01*
X159930825Y-96449845D01*
X159809219Y-96384845D01*
X159702630Y-96297370D01*
X159615155Y-96190781D01*
X159550155Y-96069175D01*
X159510128Y-95937224D01*
X159496613Y-95800000D01*
X159510128Y-95662776D01*
X159550155Y-95530825D01*
X159615155Y-95409219D01*
X159702630Y-95302630D01*
X159809219Y-95215155D01*
X159930825Y-95150155D01*
X160062776Y-95110128D01*
X160165610Y-95100000D01*
X160834390Y-95100000D01*
X160937224Y-95110128D01*
X160937224Y-95110128D01*
G37*
M02*
