M48
METRIC,TZ
T1C0.400
T2C0.600
T3C0.900
T4C1.100
T5C1.200
%
G90
G05
T1
X131.Y-96.
X131.Y-110.5
X135.Y-101.
X139.263Y-106.4
X141.08Y-103.452
X141.196Y-104.467
X141.7Y-100.2
X142.045Y-102.014
X142.3Y-107.1
X143.1Y-105.
X144.6Y-100.6
X145.Y-106.2
X146.Y-102.
X147.4Y-103.4
X148.9Y-105.
X150.16Y-102.2
X150.2Y-109.487
X150.5Y-101.01
X150.6Y-100.
X151.3Y-109.8
X151.463Y-102.163
X163.Y-96.
X163.Y-110.5
T4
X133.1Y-100.95
X133.1Y-105.55
T5
X157.Y-105.35
X157.Y-110.35
X157.Y-96.15
X157.Y-101.15
T2
X153.3Y-105.55G85X152.7Y-105.55
G05
X153.3Y-110.15G85X152.7Y-110.15
G05
X160.8Y-105.G85X160.2Y-105.
G05
X160.8Y-110.7G85X160.2Y-110.7
G05
X153.3Y-96.35G85X152.7Y-96.35
G05
X153.3Y-100.95G85X152.7Y-100.95
G05
X160.8Y-95.8G85X160.2Y-95.8
G05
X160.8Y-101.5G85X160.2Y-101.5
G05
T3
X133.9Y-97.55G85X132.3Y-97.55
G05
X133.9Y-108.95G85X132.3Y-108.95
G05
T0
M30
