G04 #@! TF.GenerationSoftware,KiCad,Pcbnew,5.0.1-33cea8e~68~ubuntu18.04.1*
G04 #@! TF.CreationDate,2018-11-08T21:15:48+01:00*
G04 #@! TF.ProjectId,audio_interface,617564696F5F696E746572666163652E,rev?*
G04 #@! TF.SameCoordinates,Original*
G04 #@! TF.FileFunction,Legend,Bot*
G04 #@! TF.FilePolarity,Positive*
%FSLAX46Y46*%
G04 Gerber Fmt 4.6, Leading zero omitted, Abs format (unit mm)*
G04 Created by KiCad (PCBNEW 5.0.1-33cea8e~68~ubuntu18.04.1) date Do 08 Nov 2018 21:15:48 CET*
%MOMM*%
%LPD*%
G01*
G04 APERTURE LIST*
%ADD10C,0.150000*%
%ADD11C,0.120000*%
G04 APERTURE END LIST*
D10*
X162500000Y-103589285D02*
X162500000Y-102839285D01*
X162071428Y-103589285D02*
X162392857Y-103160714D01*
X162071428Y-102839285D02*
X162500000Y-103267857D01*
X161428571Y-103589285D02*
X161428571Y-103196428D01*
X161464285Y-103125000D01*
X161535714Y-103089285D01*
X161678571Y-103089285D01*
X161750000Y-103125000D01*
X161428571Y-103553571D02*
X161500000Y-103589285D01*
X161678571Y-103589285D01*
X161750000Y-103553571D01*
X161785714Y-103482142D01*
X161785714Y-103410714D01*
X161750000Y-103339285D01*
X161678571Y-103303571D01*
X161500000Y-103303571D01*
X161428571Y-103267857D01*
X161071428Y-103589285D02*
X161071428Y-103089285D01*
X161071428Y-102839285D02*
X161107142Y-102875000D01*
X161071428Y-102910714D01*
X161035714Y-102875000D01*
X161071428Y-102839285D01*
X161071428Y-102910714D01*
X159892857Y-103196428D02*
X159785714Y-103232142D01*
X159750000Y-103267857D01*
X159714285Y-103339285D01*
X159714285Y-103446428D01*
X159750000Y-103517857D01*
X159785714Y-103553571D01*
X159857142Y-103589285D01*
X160142857Y-103589285D01*
X160142857Y-102839285D01*
X159892857Y-102839285D01*
X159821428Y-102875000D01*
X159785714Y-102910714D01*
X159750000Y-102982142D01*
X159750000Y-103053571D01*
X159785714Y-103125000D01*
X159821428Y-103160714D01*
X159892857Y-103196428D01*
X160142857Y-103196428D01*
X159071428Y-103589285D02*
X159071428Y-103196428D01*
X159107142Y-103125000D01*
X159178571Y-103089285D01*
X159321428Y-103089285D01*
X159392857Y-103125000D01*
X159071428Y-103553571D02*
X159142857Y-103589285D01*
X159321428Y-103589285D01*
X159392857Y-103553571D01*
X159428571Y-103482142D01*
X159428571Y-103410714D01*
X159392857Y-103339285D01*
X159321428Y-103303571D01*
X159142857Y-103303571D01*
X159071428Y-103267857D01*
X158392857Y-103589285D02*
X158392857Y-102839285D01*
X158392857Y-103553571D02*
X158464285Y-103589285D01*
X158607142Y-103589285D01*
X158678571Y-103553571D01*
X158714285Y-103517857D01*
X158750000Y-103446428D01*
X158750000Y-103232142D01*
X158714285Y-103160714D01*
X158678571Y-103125000D01*
X158607142Y-103089285D01*
X158464285Y-103089285D01*
X158392857Y-103125000D01*
X157750000Y-103553571D02*
X157821428Y-103589285D01*
X157964285Y-103589285D01*
X158035714Y-103553571D01*
X158071428Y-103482142D01*
X158071428Y-103196428D01*
X158035714Y-103125000D01*
X157964285Y-103089285D01*
X157821428Y-103089285D01*
X157750000Y-103125000D01*
X157714285Y-103196428D01*
X157714285Y-103267857D01*
X158071428Y-103339285D01*
X157392857Y-103589285D02*
X157392857Y-103089285D01*
X157392857Y-103232142D02*
X157357142Y-103160714D01*
X157321428Y-103125000D01*
X157250000Y-103089285D01*
X157178571Y-103089285D01*
X156392857Y-102910714D02*
X156357142Y-102875000D01*
X156285714Y-102839285D01*
X156107142Y-102839285D01*
X156035714Y-102875000D01*
X156000000Y-102910714D01*
X155964285Y-102982142D01*
X155964285Y-103053571D01*
X156000000Y-103160714D01*
X156428571Y-103589285D01*
X155964285Y-103589285D01*
X155500000Y-102839285D02*
X155428571Y-102839285D01*
X155357142Y-102875000D01*
X155321428Y-102910714D01*
X155285714Y-102982142D01*
X155250000Y-103125000D01*
X155250000Y-103303571D01*
X155285714Y-103446428D01*
X155321428Y-103517857D01*
X155357142Y-103553571D01*
X155428571Y-103589285D01*
X155500000Y-103589285D01*
X155571428Y-103553571D01*
X155607142Y-103517857D01*
X155642857Y-103446428D01*
X155678571Y-103303571D01*
X155678571Y-103125000D01*
X155642857Y-102982142D01*
X155607142Y-102910714D01*
X155571428Y-102875000D01*
X155500000Y-102839285D01*
X154535714Y-103589285D02*
X154964285Y-103589285D01*
X154750000Y-103589285D02*
X154750000Y-102839285D01*
X154821428Y-102946428D01*
X154892857Y-103017857D01*
X154964285Y-103053571D01*
X154107142Y-103160714D02*
X154178571Y-103125000D01*
X154214285Y-103089285D01*
X154250000Y-103017857D01*
X154250000Y-102982142D01*
X154214285Y-102910714D01*
X154178571Y-102875000D01*
X154107142Y-102839285D01*
X153964285Y-102839285D01*
X153892857Y-102875000D01*
X153857142Y-102910714D01*
X153821428Y-102982142D01*
X153821428Y-103017857D01*
X153857142Y-103089285D01*
X153892857Y-103125000D01*
X153964285Y-103160714D01*
X154107142Y-103160714D01*
X154178571Y-103196428D01*
X154214285Y-103232142D01*
X154250000Y-103303571D01*
X154250000Y-103446428D01*
X154214285Y-103517857D01*
X154178571Y-103553571D01*
X154107142Y-103589285D01*
X153964285Y-103589285D01*
X153892857Y-103553571D01*
X153857142Y-103517857D01*
X153821428Y-103446428D01*
X153821428Y-103303571D01*
X153857142Y-103232142D01*
X153892857Y-103196428D01*
X153964285Y-103160714D01*
X153500000Y-103303571D02*
X152928571Y-103303571D01*
X152178571Y-103589285D02*
X152607142Y-103589285D01*
X152392857Y-103589285D02*
X152392857Y-102839285D01*
X152464285Y-102946428D01*
X152535714Y-103017857D01*
X152607142Y-103053571D01*
X151464285Y-103589285D02*
X151892857Y-103589285D01*
X151678571Y-103589285D02*
X151678571Y-102839285D01*
X151750000Y-102946428D01*
X151821428Y-103017857D01*
X151892857Y-103053571D01*
X143238095Y-108829761D02*
X143095238Y-108877380D01*
X142857142Y-108877380D01*
X142761904Y-108829761D01*
X142714285Y-108782142D01*
X142666666Y-108686904D01*
X142666666Y-108591666D01*
X142714285Y-108496428D01*
X142761904Y-108448809D01*
X142857142Y-108401190D01*
X143047619Y-108353571D01*
X143142857Y-108305952D01*
X143190476Y-108258333D01*
X143238095Y-108163095D01*
X143238095Y-108067857D01*
X143190476Y-107972619D01*
X143142857Y-107925000D01*
X143047619Y-107877380D01*
X142809523Y-107877380D01*
X142666666Y-107925000D01*
X142238095Y-108877380D02*
X142238095Y-107877380D01*
X142238095Y-108353571D02*
X141666666Y-108353571D01*
X141666666Y-108877380D02*
X141666666Y-107877380D01*
X141238095Y-108591666D02*
X140761904Y-108591666D01*
X141333333Y-108877380D02*
X141000000Y-107877380D01*
X140666666Y-108877380D01*
X139761904Y-108877380D02*
X140095238Y-108401190D01*
X140333333Y-108877380D02*
X140333333Y-107877380D01*
X139952380Y-107877380D01*
X139857142Y-107925000D01*
X139809523Y-107972619D01*
X139761904Y-108067857D01*
X139761904Y-108210714D01*
X139809523Y-108305952D01*
X139857142Y-108353571D01*
X139952380Y-108401190D01*
X140333333Y-108401190D01*
X139333333Y-108877380D02*
X139333333Y-107877380D01*
X138952380Y-107877380D01*
X138857142Y-107925000D01*
X138809523Y-107972619D01*
X138761904Y-108067857D01*
X138761904Y-108210714D01*
X138809523Y-108305952D01*
X138857142Y-108353571D01*
X138952380Y-108401190D01*
X139333333Y-108401190D01*
X144690476Y-110241666D02*
X144214285Y-110241666D01*
X144785714Y-110527380D02*
X144452380Y-109527380D01*
X144119047Y-110527380D01*
X143785714Y-109527380D02*
X143785714Y-110336904D01*
X143738095Y-110432142D01*
X143690476Y-110479761D01*
X143595238Y-110527380D01*
X143404761Y-110527380D01*
X143309523Y-110479761D01*
X143261904Y-110432142D01*
X143214285Y-110336904D01*
X143214285Y-109527380D01*
X142738095Y-110527380D02*
X142738095Y-109527380D01*
X142500000Y-109527380D01*
X142357142Y-109575000D01*
X142261904Y-109670238D01*
X142214285Y-109765476D01*
X142166666Y-109955952D01*
X142166666Y-110098809D01*
X142214285Y-110289285D01*
X142261904Y-110384523D01*
X142357142Y-110479761D01*
X142500000Y-110527380D01*
X142738095Y-110527380D01*
X141738095Y-110527380D02*
X141738095Y-109527380D01*
X141071428Y-109527380D02*
X140880952Y-109527380D01*
X140785714Y-109575000D01*
X140690476Y-109670238D01*
X140642857Y-109860714D01*
X140642857Y-110194047D01*
X140690476Y-110384523D01*
X140785714Y-110479761D01*
X140880952Y-110527380D01*
X141071428Y-110527380D01*
X141166666Y-110479761D01*
X141261904Y-110384523D01*
X141309523Y-110194047D01*
X141309523Y-109860714D01*
X141261904Y-109670238D01*
X141166666Y-109575000D01*
X141071428Y-109527380D01*
X139452380Y-110527380D02*
X139452380Y-109527380D01*
X138261904Y-109479761D02*
X139119047Y-110765476D01*
X137738095Y-109527380D02*
X137547619Y-109527380D01*
X137452380Y-109575000D01*
X137357142Y-109670238D01*
X137309523Y-109860714D01*
X137309523Y-110194047D01*
X137357142Y-110384523D01*
X137452380Y-110479761D01*
X137547619Y-110527380D01*
X137738095Y-110527380D01*
X137833333Y-110479761D01*
X137928571Y-110384523D01*
X137976190Y-110194047D01*
X137976190Y-109860714D01*
X137928571Y-109670238D01*
X137833333Y-109575000D01*
X137738095Y-109527380D01*
X147750000Y-99000000D02*
X147750000Y-103000000D01*
X146250000Y-99000000D02*
X146250000Y-103000000D01*
X144750000Y-99000000D02*
X144750000Y-103000000D01*
X143250000Y-99000000D02*
X143250000Y-103000000D01*
X141750000Y-99000000D02*
X141750000Y-103000000D01*
X149250000Y-99000000D02*
X149250000Y-103000000D01*
X140250000Y-99000000D02*
X149250000Y-99000000D01*
X140250000Y-103000000D02*
X140250000Y-99000000D01*
X149250000Y-103000000D02*
X140250000Y-103000000D01*
X146625000Y-100428571D02*
X146589285Y-100357142D01*
X146589285Y-100250000D01*
X146625000Y-100142857D01*
X146696428Y-100071428D01*
X146767857Y-100035714D01*
X146910714Y-100000000D01*
X147017857Y-100000000D01*
X147160714Y-100035714D01*
X147232142Y-100071428D01*
X147303571Y-100142857D01*
X147339285Y-100250000D01*
X147339285Y-100321428D01*
X147303571Y-100428571D01*
X147267857Y-100464285D01*
X147017857Y-100464285D01*
X147017857Y-100321428D01*
X147339285Y-100785714D02*
X146589285Y-100785714D01*
X147339285Y-101214285D01*
X146589285Y-101214285D01*
X147339285Y-101571428D02*
X146589285Y-101571428D01*
X146589285Y-101750000D01*
X146625000Y-101857142D01*
X146696428Y-101928571D01*
X146767857Y-101964285D01*
X146910714Y-102000000D01*
X147017857Y-102000000D01*
X147160714Y-101964285D01*
X147232142Y-101928571D01*
X147303571Y-101857142D01*
X147339285Y-101750000D01*
X147339285Y-101571428D01*
X141053571Y-99678571D02*
X141053571Y-100250000D01*
X141339285Y-99964285D02*
X140767857Y-99964285D01*
X140589285Y-100535714D02*
X140589285Y-101000000D01*
X140875000Y-100750000D01*
X140875000Y-100857142D01*
X140910714Y-100928571D01*
X140946428Y-100964285D01*
X141017857Y-101000000D01*
X141196428Y-101000000D01*
X141267857Y-100964285D01*
X141303571Y-100928571D01*
X141339285Y-100857142D01*
X141339285Y-100642857D01*
X141303571Y-100571428D01*
X141267857Y-100535714D01*
X140589285Y-101214285D02*
X141339285Y-101464285D01*
X140589285Y-101714285D01*
X140589285Y-101892857D02*
X140589285Y-102357142D01*
X140875000Y-102107142D01*
X140875000Y-102214285D01*
X140910714Y-102285714D01*
X140946428Y-102321428D01*
X141017857Y-102357142D01*
X141196428Y-102357142D01*
X141267857Y-102321428D01*
X141303571Y-102285714D01*
X141339285Y-102214285D01*
X141339285Y-102000000D01*
X141303571Y-101928571D01*
X141267857Y-101892857D01*
X144339285Y-99910714D02*
X143982142Y-99660714D01*
X144339285Y-99482142D02*
X143589285Y-99482142D01*
X143589285Y-99767857D01*
X143625000Y-99839285D01*
X143660714Y-99875000D01*
X143732142Y-99910714D01*
X143839285Y-99910714D01*
X143910714Y-99875000D01*
X143946428Y-99839285D01*
X143982142Y-99767857D01*
X143982142Y-99482142D01*
X143946428Y-100232142D02*
X143946428Y-100482142D01*
X144339285Y-100589285D02*
X144339285Y-100232142D01*
X143589285Y-100232142D01*
X143589285Y-100589285D01*
X144303571Y-100875000D02*
X144339285Y-100982142D01*
X144339285Y-101160714D01*
X144303571Y-101232142D01*
X144267857Y-101267857D01*
X144196428Y-101303571D01*
X144125000Y-101303571D01*
X144053571Y-101267857D01*
X144017857Y-101232142D01*
X143982142Y-101160714D01*
X143946428Y-101017857D01*
X143910714Y-100946428D01*
X143875000Y-100910714D01*
X143803571Y-100875000D01*
X143732142Y-100875000D01*
X143660714Y-100910714D01*
X143625000Y-100946428D01*
X143589285Y-101017857D01*
X143589285Y-101196428D01*
X143625000Y-101303571D01*
X143946428Y-101625000D02*
X143946428Y-101875000D01*
X144339285Y-101982142D02*
X144339285Y-101625000D01*
X143589285Y-101625000D01*
X143589285Y-101982142D01*
X143589285Y-102196428D02*
X143589285Y-102625000D01*
X144339285Y-102410714D02*
X143589285Y-102410714D01*
X142803571Y-99410714D02*
X142839285Y-99517857D01*
X142839285Y-99696428D01*
X142803571Y-99767857D01*
X142767857Y-99803571D01*
X142696428Y-99839285D01*
X142625000Y-99839285D01*
X142553571Y-99803571D01*
X142517857Y-99767857D01*
X142482142Y-99696428D01*
X142446428Y-99553571D01*
X142410714Y-99482142D01*
X142375000Y-99446428D01*
X142303571Y-99410714D01*
X142232142Y-99410714D01*
X142160714Y-99446428D01*
X142125000Y-99482142D01*
X142089285Y-99553571D01*
X142089285Y-99732142D01*
X142125000Y-99839285D01*
X142089285Y-100089285D02*
X142839285Y-100267857D01*
X142303571Y-100410714D01*
X142839285Y-100553571D01*
X142089285Y-100732142D01*
X142839285Y-101017857D02*
X142089285Y-101017857D01*
X142089285Y-101196428D01*
X142125000Y-101303571D01*
X142196428Y-101375000D01*
X142267857Y-101410714D01*
X142410714Y-101446428D01*
X142517857Y-101446428D01*
X142660714Y-101410714D01*
X142732142Y-101375000D01*
X142803571Y-101303571D01*
X142839285Y-101196428D01*
X142839285Y-101017857D01*
X142839285Y-101767857D02*
X142089285Y-101767857D01*
X142089285Y-102267857D02*
X142089285Y-102410714D01*
X142125000Y-102482142D01*
X142196428Y-102553571D01*
X142339285Y-102589285D01*
X142589285Y-102589285D01*
X142732142Y-102553571D01*
X142803571Y-102482142D01*
X142839285Y-102410714D01*
X142839285Y-102267857D01*
X142803571Y-102196428D01*
X142732142Y-102125000D01*
X142589285Y-102089285D01*
X142339285Y-102089285D01*
X142196428Y-102125000D01*
X142125000Y-102196428D01*
X142089285Y-102267857D01*
X145803571Y-99303571D02*
X145839285Y-99410714D01*
X145839285Y-99589285D01*
X145803571Y-99660714D01*
X145767857Y-99696428D01*
X145696428Y-99732142D01*
X145625000Y-99732142D01*
X145553571Y-99696428D01*
X145517857Y-99660714D01*
X145482142Y-99589285D01*
X145446428Y-99446428D01*
X145410714Y-99375000D01*
X145375000Y-99339285D01*
X145303571Y-99303571D01*
X145232142Y-99303571D01*
X145160714Y-99339285D01*
X145125000Y-99375000D01*
X145089285Y-99446428D01*
X145089285Y-99625000D01*
X145125000Y-99732142D01*
X145089285Y-99982142D02*
X145839285Y-100160714D01*
X145303571Y-100303571D01*
X145839285Y-100446428D01*
X145089285Y-100625000D01*
X145767857Y-101339285D02*
X145803571Y-101303571D01*
X145839285Y-101196428D01*
X145839285Y-101125000D01*
X145803571Y-101017857D01*
X145732142Y-100946428D01*
X145660714Y-100910714D01*
X145517857Y-100875000D01*
X145410714Y-100875000D01*
X145267857Y-100910714D01*
X145196428Y-100946428D01*
X145125000Y-101017857D01*
X145089285Y-101125000D01*
X145089285Y-101196428D01*
X145125000Y-101303571D01*
X145160714Y-101339285D01*
X145839285Y-102017857D02*
X145839285Y-101660714D01*
X145089285Y-101660714D01*
X145839285Y-102267857D02*
X145089285Y-102267857D01*
X145839285Y-102696428D02*
X145410714Y-102375000D01*
X145089285Y-102696428D02*
X145517857Y-102267857D01*
X148803571Y-99964285D02*
X148839285Y-100071428D01*
X148839285Y-100250000D01*
X148803571Y-100321428D01*
X148767857Y-100357142D01*
X148696428Y-100392857D01*
X148625000Y-100392857D01*
X148553571Y-100357142D01*
X148517857Y-100321428D01*
X148482142Y-100250000D01*
X148446428Y-100107142D01*
X148410714Y-100035714D01*
X148375000Y-100000000D01*
X148303571Y-99964285D01*
X148232142Y-99964285D01*
X148160714Y-100000000D01*
X148125000Y-100035714D01*
X148089285Y-100107142D01*
X148089285Y-100285714D01*
X148125000Y-100392857D01*
X148089285Y-100642857D02*
X148839285Y-100821428D01*
X148303571Y-100964285D01*
X148839285Y-101107142D01*
X148089285Y-101285714D01*
X148089285Y-101714285D02*
X148089285Y-101857142D01*
X148125000Y-101928571D01*
X148196428Y-102000000D01*
X148339285Y-102035714D01*
X148589285Y-102035714D01*
X148732142Y-102000000D01*
X148803571Y-101928571D01*
X148839285Y-101857142D01*
X148839285Y-101714285D01*
X148803571Y-101642857D01*
X148732142Y-101571428D01*
X148589285Y-101535714D01*
X148339285Y-101535714D01*
X148196428Y-101571428D01*
X148125000Y-101642857D01*
X148089285Y-101714285D01*
X134746428Y-103125000D02*
X134782142Y-103232142D01*
X134817857Y-103267857D01*
X134889285Y-103303571D01*
X134996428Y-103303571D01*
X135067857Y-103267857D01*
X135103571Y-103232142D01*
X135139285Y-103160714D01*
X135139285Y-102875000D01*
X134389285Y-102875000D01*
X134389285Y-103125000D01*
X134425000Y-103196428D01*
X134460714Y-103232142D01*
X134532142Y-103267857D01*
X134603571Y-103267857D01*
X134675000Y-103232142D01*
X134710714Y-103196428D01*
X134746428Y-103125000D01*
X134746428Y-102875000D01*
X134389285Y-103767857D02*
X134389285Y-103910714D01*
X134425000Y-103982142D01*
X134496428Y-104053571D01*
X134639285Y-104089285D01*
X134889285Y-104089285D01*
X135032142Y-104053571D01*
X135103571Y-103982142D01*
X135139285Y-103910714D01*
X135139285Y-103767857D01*
X135103571Y-103696428D01*
X135032142Y-103625000D01*
X134889285Y-103589285D01*
X134639285Y-103589285D01*
X134496428Y-103625000D01*
X134425000Y-103696428D01*
X134389285Y-103767857D01*
X134389285Y-104553571D02*
X134389285Y-104696428D01*
X134425000Y-104767857D01*
X134496428Y-104839285D01*
X134639285Y-104875000D01*
X134889285Y-104875000D01*
X135032142Y-104839285D01*
X135103571Y-104767857D01*
X135139285Y-104696428D01*
X135139285Y-104553571D01*
X135103571Y-104482142D01*
X135032142Y-104410714D01*
X134889285Y-104375000D01*
X134639285Y-104375000D01*
X134496428Y-104410714D01*
X134425000Y-104482142D01*
X134389285Y-104553571D01*
X134389285Y-105089285D02*
X134389285Y-105517857D01*
X135139285Y-105303571D02*
X134389285Y-105303571D01*
X134389285Y-105910714D02*
X134389285Y-105982142D01*
X134425000Y-106053571D01*
X134460714Y-106089285D01*
X134532142Y-106125000D01*
X134675000Y-106160714D01*
X134853571Y-106160714D01*
X134996428Y-106125000D01*
X135067857Y-106089285D01*
X135103571Y-106053571D01*
X135139285Y-105982142D01*
X135139285Y-105910714D01*
X135103571Y-105839285D01*
X135067857Y-105803571D01*
X134996428Y-105767857D01*
X134853571Y-105732142D01*
X134675000Y-105732142D01*
X134532142Y-105767857D01*
X134460714Y-105803571D01*
X134425000Y-105839285D01*
X134389285Y-105910714D01*
X138246428Y-100425000D02*
X138282142Y-100532142D01*
X138317857Y-100567857D01*
X138389285Y-100603571D01*
X138496428Y-100603571D01*
X138567857Y-100567857D01*
X138603571Y-100532142D01*
X138639285Y-100460714D01*
X138639285Y-100175000D01*
X137889285Y-100175000D01*
X137889285Y-100425000D01*
X137925000Y-100496428D01*
X137960714Y-100532142D01*
X138032142Y-100567857D01*
X138103571Y-100567857D01*
X138175000Y-100532142D01*
X138210714Y-100496428D01*
X138246428Y-100425000D01*
X138246428Y-100175000D01*
X137889285Y-101067857D02*
X137889285Y-101210714D01*
X137925000Y-101282142D01*
X137996428Y-101353571D01*
X138139285Y-101389285D01*
X138389285Y-101389285D01*
X138532142Y-101353571D01*
X138603571Y-101282142D01*
X138639285Y-101210714D01*
X138639285Y-101067857D01*
X138603571Y-100996428D01*
X138532142Y-100925000D01*
X138389285Y-100889285D01*
X138139285Y-100889285D01*
X137996428Y-100925000D01*
X137925000Y-100996428D01*
X137889285Y-101067857D01*
X137889285Y-101853571D02*
X137889285Y-101996428D01*
X137925000Y-102067857D01*
X137996428Y-102139285D01*
X138139285Y-102175000D01*
X138389285Y-102175000D01*
X138532142Y-102139285D01*
X138603571Y-102067857D01*
X138639285Y-101996428D01*
X138639285Y-101853571D01*
X138603571Y-101782142D01*
X138532142Y-101710714D01*
X138389285Y-101675000D01*
X138139285Y-101675000D01*
X137996428Y-101710714D01*
X137925000Y-101782142D01*
X137889285Y-101853571D01*
X137889285Y-102389285D02*
X137889285Y-102817857D01*
X138639285Y-102603571D02*
X137889285Y-102603571D01*
X138639285Y-103460714D02*
X138639285Y-103032142D01*
X138639285Y-103246428D02*
X137889285Y-103246428D01*
X137996428Y-103175000D01*
X138067857Y-103103571D01*
X138103571Y-103032142D01*
D11*
G04 #@! TO.C,C4*
X156324721Y-108310000D02*
X156650279Y-108310000D01*
X156324721Y-107290000D02*
X156650279Y-107290000D01*
G04 #@! TO.C,C5*
X156750779Y-99110000D02*
X156425221Y-99110000D01*
X156750779Y-98090000D02*
X156425221Y-98090000D01*
G04 #@! TO.C,C6*
X159950779Y-98090000D02*
X159625221Y-98090000D01*
X159950779Y-99110000D02*
X159625221Y-99110000D01*
G04 #@! TO.C,R6*
X153224721Y-107290000D02*
X153550279Y-107290000D01*
X153224721Y-108310000D02*
X153550279Y-108310000D01*
G04 #@! TO.C,R7*
X146237221Y-109210000D02*
X146562779Y-109210000D01*
X146237221Y-108190000D02*
X146562779Y-108190000D01*
G04 #@! TO.C,R8*
X146237221Y-107810000D02*
X146562779Y-107810000D01*
X146237221Y-106790000D02*
X146562779Y-106790000D01*
G04 #@! TO.C,R9*
X153574779Y-98090000D02*
X153249221Y-98090000D01*
X153574779Y-99110000D02*
X153249221Y-99110000D01*
G04 #@! TO.C,U3*
X149000000Y-106190000D02*
X150800000Y-106190000D01*
X150800000Y-109410000D02*
X148350000Y-109410000D01*
G04 #@! TO.C,JP1*
X135300000Y-106700000D02*
X135000000Y-106400000D01*
X135000000Y-107000000D02*
X135000000Y-106400000D01*
X135300000Y-106700000D02*
X135000000Y-107000000D01*
X136200000Y-107550000D02*
X136800000Y-107550000D01*
X135500000Y-104100000D02*
X135500000Y-106900000D01*
X136800000Y-103450000D02*
X136200000Y-103450000D01*
X137500000Y-106900000D02*
X137500000Y-104100000D01*
X137500000Y-104150000D02*
G75*
G03X136800000Y-103450000I-700000J0D01*
G01*
X136200000Y-103450000D02*
G75*
G03X135500000Y-104150000I0J-700000D01*
G01*
X135500000Y-106850000D02*
G75*
G03X136200000Y-107550000I700000J0D01*
G01*
X136800000Y-107550000D02*
G75*
G03X137500000Y-106850000I0J700000D01*
G01*
G04 #@! TO.C,JP2*
X136200000Y-98750000D02*
G75*
G03X135500000Y-99450000I0J-700000D01*
G01*
X137500000Y-99450000D02*
G75*
G03X136800000Y-98750000I-700000J0D01*
G01*
X136800000Y-102850000D02*
G75*
G03X137500000Y-102150000I0J700000D01*
G01*
X135500000Y-102150000D02*
G75*
G03X136200000Y-102850000I700000J0D01*
G01*
X135500000Y-99400000D02*
X135500000Y-102200000D01*
X136200000Y-102850000D02*
X136800000Y-102850000D01*
X137500000Y-102200000D02*
X137500000Y-99400000D01*
X136800000Y-98750000D02*
X136200000Y-98750000D01*
X137700000Y-99600000D02*
X138000000Y-99300000D01*
X138000000Y-99300000D02*
X138000000Y-99900000D01*
X137700000Y-99600000D02*
X138000000Y-99900000D01*
G04 #@! TD*
M02*
