G04 #@! TF.GenerationSoftware,KiCad,Pcbnew,5.0.1-33cea8e~68~ubuntu18.04.1*
G04 #@! TF.CreationDate,2018-11-08T21:15:48+01:00*
G04 #@! TF.ProjectId,audio_interface,617564696F5F696E746572666163652E,rev?*
G04 #@! TF.SameCoordinates,Original*
G04 #@! TF.FileFunction,Legend,Top*
G04 #@! TF.FilePolarity,Positive*
%FSLAX46Y46*%
G04 Gerber Fmt 4.6, Leading zero omitted, Abs format (unit mm)*
G04 Created by KiCad (PCBNEW 5.0.1-33cea8e~68~ubuntu18.04.1) date Do 08 Nov 2018 21:15:48 CET*
%MOMM*%
%LPD*%
G01*
G04 APERTURE LIST*
%ADD10C,0.150000*%
%ADD11C,0.120000*%
G04 APERTURE END LIST*
D10*
X137321428Y-96666071D02*
X137428571Y-96701785D01*
X137607142Y-96701785D01*
X137678571Y-96666071D01*
X137714285Y-96630357D01*
X137750000Y-96558928D01*
X137750000Y-96487500D01*
X137714285Y-96416071D01*
X137678571Y-96380357D01*
X137607142Y-96344642D01*
X137464285Y-96308928D01*
X137392857Y-96273214D01*
X137357142Y-96237500D01*
X137321428Y-96166071D01*
X137321428Y-96094642D01*
X137357142Y-96023214D01*
X137392857Y-95987500D01*
X137464285Y-95951785D01*
X137642857Y-95951785D01*
X137750000Y-95987500D01*
X138071428Y-96701785D02*
X138071428Y-95951785D01*
X138071428Y-96308928D02*
X138500000Y-96308928D01*
X138500000Y-96701785D02*
X138500000Y-95951785D01*
X138821428Y-96487500D02*
X139178571Y-96487500D01*
X138750000Y-96701785D02*
X139000000Y-95951785D01*
X139250000Y-96701785D01*
X139928571Y-96701785D02*
X139678571Y-96344642D01*
X139500000Y-96701785D02*
X139500000Y-95951785D01*
X139785714Y-95951785D01*
X139857142Y-95987500D01*
X139892857Y-96023214D01*
X139928571Y-96094642D01*
X139928571Y-96201785D01*
X139892857Y-96273214D01*
X139857142Y-96308928D01*
X139785714Y-96344642D01*
X139500000Y-96344642D01*
X140250000Y-96701785D02*
X140250000Y-95951785D01*
X140535714Y-95951785D01*
X140607142Y-95987500D01*
X140642857Y-96023214D01*
X140678571Y-96094642D01*
X140678571Y-96201785D01*
X140642857Y-96273214D01*
X140607142Y-96308928D01*
X140535714Y-96344642D01*
X140250000Y-96344642D01*
X136232142Y-97762500D02*
X136589285Y-97762500D01*
X136160714Y-97976785D02*
X136410714Y-97226785D01*
X136660714Y-97976785D01*
X136910714Y-97226785D02*
X136910714Y-97833928D01*
X136946428Y-97905357D01*
X136982142Y-97941071D01*
X137053571Y-97976785D01*
X137196428Y-97976785D01*
X137267857Y-97941071D01*
X137303571Y-97905357D01*
X137339285Y-97833928D01*
X137339285Y-97226785D01*
X137696428Y-97976785D02*
X137696428Y-97226785D01*
X137875000Y-97226785D01*
X137982142Y-97262500D01*
X138053571Y-97333928D01*
X138089285Y-97405357D01*
X138125000Y-97548214D01*
X138125000Y-97655357D01*
X138089285Y-97798214D01*
X138053571Y-97869642D01*
X137982142Y-97941071D01*
X137875000Y-97976785D01*
X137696428Y-97976785D01*
X138446428Y-97976785D02*
X138446428Y-97226785D01*
X138946428Y-97226785D02*
X139089285Y-97226785D01*
X139160714Y-97262500D01*
X139232142Y-97333928D01*
X139267857Y-97476785D01*
X139267857Y-97726785D01*
X139232142Y-97869642D01*
X139160714Y-97941071D01*
X139089285Y-97976785D01*
X138946428Y-97976785D01*
X138875000Y-97941071D01*
X138803571Y-97869642D01*
X138767857Y-97726785D01*
X138767857Y-97476785D01*
X138803571Y-97333928D01*
X138875000Y-97262500D01*
X138946428Y-97226785D01*
X140160714Y-97976785D02*
X140160714Y-97226785D01*
X141053571Y-97191071D02*
X140410714Y-98155357D01*
X141446428Y-97226785D02*
X141589285Y-97226785D01*
X141660714Y-97262500D01*
X141732142Y-97333928D01*
X141767857Y-97476785D01*
X141767857Y-97726785D01*
X141732142Y-97869642D01*
X141660714Y-97941071D01*
X141589285Y-97976785D01*
X141446428Y-97976785D01*
X141375000Y-97941071D01*
X141303571Y-97869642D01*
X141267857Y-97726785D01*
X141267857Y-97476785D01*
X141303571Y-97333928D01*
X141375000Y-97262500D01*
X141446428Y-97226785D01*
D11*
G04 #@! TO.C,C1*
X135690000Y-109237221D02*
X135690000Y-109562779D01*
X136710000Y-109237221D02*
X136710000Y-109562779D01*
G04 #@! TO.C,C2*
X141910000Y-109237221D02*
X141910000Y-109562779D01*
X140890000Y-109237221D02*
X140890000Y-109562779D01*
G04 #@! TO.C,C3*
X142490000Y-109237221D02*
X142490000Y-109562779D01*
X143510000Y-109237221D02*
X143510000Y-109562779D01*
G04 #@! TO.C,D1*
X157712000Y-104035000D02*
X159997000Y-104035000D01*
X159997000Y-104035000D02*
X159997000Y-102565000D01*
X159997000Y-102565000D02*
X157712000Y-102565000D01*
G04 #@! TO.C,D2*
X145335000Y-110885000D02*
X145335000Y-108600000D01*
X143865000Y-110885000D02*
X145335000Y-110885000D01*
X143865000Y-108600000D02*
X143865000Y-110885000D01*
G04 #@! TO.C,J1*
X134220000Y-107650000D02*
X134220000Y-98850000D01*
X131050000Y-109395000D02*
X130000000Y-109395000D01*
X131050000Y-97105000D02*
X130000000Y-97105000D01*
G04 #@! TO.C,R1*
X139362779Y-102910000D02*
X139037221Y-102910000D01*
X139362779Y-101890000D02*
X139037221Y-101890000D01*
G04 #@! TO.C,R2*
X139362779Y-105090000D02*
X139037221Y-105090000D01*
X139362779Y-106110000D02*
X139037221Y-106110000D01*
G04 #@! TO.C,R3*
X147162779Y-106590000D02*
X146837221Y-106590000D01*
X147162779Y-107610000D02*
X146837221Y-107610000D01*
G04 #@! TO.C,R4*
X139362779Y-104510000D02*
X139037221Y-104510000D01*
X139362779Y-103490000D02*
X139037221Y-103490000D01*
G04 #@! TO.C,R5*
X139037221Y-100290000D02*
X139362779Y-100290000D01*
X139037221Y-101310000D02*
X139362779Y-101310000D01*
G04 #@! TO.C,R10*
X147290000Y-109237221D02*
X147290000Y-109562779D01*
X148310000Y-109237221D02*
X148310000Y-109562779D01*
G04 #@! TO.C,R11*
X155674779Y-102790000D02*
X155349221Y-102790000D01*
X155674779Y-103810000D02*
X155349221Y-103810000D01*
G04 #@! TO.C,R12*
X146710000Y-109562779D02*
X146710000Y-109237221D01*
X145690000Y-109562779D02*
X145690000Y-109237221D01*
G04 #@! TO.C,U1*
X143615000Y-105110000D02*
X142890000Y-105110000D01*
X142890000Y-105110000D02*
X142890000Y-104385000D01*
X148385000Y-98890000D02*
X149110000Y-98890000D01*
X149110000Y-98890000D02*
X149110000Y-99615000D01*
X143615000Y-98890000D02*
X142890000Y-98890000D01*
X142890000Y-98890000D02*
X142890000Y-99615000D01*
X148385000Y-105110000D02*
X149110000Y-105110000D01*
G04 #@! TO.C,U2*
X138040000Y-108020000D02*
X138040000Y-108950000D01*
X138040000Y-111180000D02*
X138040000Y-110250000D01*
X138040000Y-111180000D02*
X140200000Y-111180000D01*
X138040000Y-108020000D02*
X139500000Y-108020000D01*
D10*
G04 #@! TO.C,Y1*
X150000000Y-105900000D02*
X150000000Y-105700000D01*
X150000000Y-102500000D02*
X151600000Y-102500000D01*
X151600000Y-105700000D02*
X151600000Y-105900000D01*
X151600000Y-105900000D02*
X150000000Y-105900000D01*
X151600000Y-102500000D02*
X151600000Y-102700000D01*
X150000000Y-102700000D02*
X150000000Y-102500000D01*
D11*
G04 #@! TO.C,D3*
X145400000Y-96665000D02*
X143115000Y-96665000D01*
X143115000Y-96665000D02*
X143115000Y-98135000D01*
X143115000Y-98135000D02*
X145400000Y-98135000D01*
G04 #@! TO.C,R13*
X147537221Y-96890000D02*
X147862779Y-96890000D01*
X147537221Y-97910000D02*
X147862779Y-97910000D01*
G04 #@! TD*
M02*
