G04 #@! TF.GenerationSoftware,KiCad,Pcbnew,5.0.1-33cea8e~68~ubuntu18.04.1*
G04 #@! TF.CreationDate,2018-11-08T21:15:48+01:00*
G04 #@! TF.ProjectId,audio_interface,617564696F5F696E746572666163652E,rev?*
G04 #@! TF.SameCoordinates,Original*
G04 #@! TF.FileFunction,Copper,L2,Bot,Signal*
G04 #@! TF.FilePolarity,Positive*
%FSLAX46Y46*%
G04 Gerber Fmt 4.6, Leading zero omitted, Abs format (unit mm)*
G04 Created by KiCad (PCBNEW 5.0.1-33cea8e~68~ubuntu18.04.1) date Do 08 Nov 2018 21:15:48 CET*
%MOMM*%
%LPD*%
G01*
G04 APERTURE LIST*
G04 #@! TA.AperFunction,Conductor*
%ADD10C,0.100000*%
G04 #@! TD*
G04 #@! TA.AperFunction,SMDPad,CuDef*
%ADD11C,0.875000*%
G04 #@! TD*
G04 #@! TA.AperFunction,ComponentPad*
%ADD12O,3.500000X1.900000*%
G04 #@! TD*
G04 #@! TA.AperFunction,ComponentPad*
%ADD13O,2.000000X1.400000*%
G04 #@! TD*
G04 #@! TA.AperFunction,SMDPad,CuDef*
%ADD14R,1.060000X0.650000*%
G04 #@! TD*
G04 #@! TA.AperFunction,SMDPad,CuDef*
%ADD15R,1.700000X1.700000*%
G04 #@! TD*
G04 #@! TA.AperFunction,SMDPad,CuDef*
%ADD16O,1.700000X1.700000*%
G04 #@! TD*
G04 #@! TA.AperFunction,SMDPad,CuDef*
%ADD17C,0.500000*%
G04 #@! TD*
G04 #@! TA.AperFunction,SMDPad,CuDef*
%ADD18R,1.500000X1.000000*%
G04 #@! TD*
G04 #@! TA.AperFunction,ViaPad*
%ADD19C,0.800000*%
G04 #@! TD*
G04 #@! TA.AperFunction,Conductor*
%ADD20C,0.400000*%
G04 #@! TD*
G04 #@! TA.AperFunction,Conductor*
%ADD21C,0.200000*%
G04 #@! TD*
G04 #@! TA.AperFunction,Conductor*
%ADD22C,0.254000*%
G04 #@! TD*
G04 APERTURE END LIST*
D10*
G04 #@! TO.N,Net-(C4-Pad1)*
G04 #@! TO.C,C4*
G36*
X155940191Y-107326053D02*
X155961426Y-107329203D01*
X155982250Y-107334419D01*
X156002462Y-107341651D01*
X156021868Y-107350830D01*
X156040281Y-107361866D01*
X156057524Y-107374654D01*
X156073430Y-107389070D01*
X156087846Y-107404976D01*
X156100634Y-107422219D01*
X156111670Y-107440632D01*
X156120849Y-107460038D01*
X156128081Y-107480250D01*
X156133297Y-107501074D01*
X156136447Y-107522309D01*
X156137500Y-107543750D01*
X156137500Y-108056250D01*
X156136447Y-108077691D01*
X156133297Y-108098926D01*
X156128081Y-108119750D01*
X156120849Y-108139962D01*
X156111670Y-108159368D01*
X156100634Y-108177781D01*
X156087846Y-108195024D01*
X156073430Y-108210930D01*
X156057524Y-108225346D01*
X156040281Y-108238134D01*
X156021868Y-108249170D01*
X156002462Y-108258349D01*
X155982250Y-108265581D01*
X155961426Y-108270797D01*
X155940191Y-108273947D01*
X155918750Y-108275000D01*
X155481250Y-108275000D01*
X155459809Y-108273947D01*
X155438574Y-108270797D01*
X155417750Y-108265581D01*
X155397538Y-108258349D01*
X155378132Y-108249170D01*
X155359719Y-108238134D01*
X155342476Y-108225346D01*
X155326570Y-108210930D01*
X155312154Y-108195024D01*
X155299366Y-108177781D01*
X155288330Y-108159368D01*
X155279151Y-108139962D01*
X155271919Y-108119750D01*
X155266703Y-108098926D01*
X155263553Y-108077691D01*
X155262500Y-108056250D01*
X155262500Y-107543750D01*
X155263553Y-107522309D01*
X155266703Y-107501074D01*
X155271919Y-107480250D01*
X155279151Y-107460038D01*
X155288330Y-107440632D01*
X155299366Y-107422219D01*
X155312154Y-107404976D01*
X155326570Y-107389070D01*
X155342476Y-107374654D01*
X155359719Y-107361866D01*
X155378132Y-107350830D01*
X155397538Y-107341651D01*
X155417750Y-107334419D01*
X155438574Y-107329203D01*
X155459809Y-107326053D01*
X155481250Y-107325000D01*
X155918750Y-107325000D01*
X155940191Y-107326053D01*
X155940191Y-107326053D01*
G37*
D11*
G04 #@! TD*
G04 #@! TO.P,C4,1*
G04 #@! TO.N,Net-(C4-Pad1)*
X155700000Y-107800000D03*
D10*
G04 #@! TO.N,Net-(C4-Pad2)*
G04 #@! TO.C,C4*
G36*
X157515191Y-107326053D02*
X157536426Y-107329203D01*
X157557250Y-107334419D01*
X157577462Y-107341651D01*
X157596868Y-107350830D01*
X157615281Y-107361866D01*
X157632524Y-107374654D01*
X157648430Y-107389070D01*
X157662846Y-107404976D01*
X157675634Y-107422219D01*
X157686670Y-107440632D01*
X157695849Y-107460038D01*
X157703081Y-107480250D01*
X157708297Y-107501074D01*
X157711447Y-107522309D01*
X157712500Y-107543750D01*
X157712500Y-108056250D01*
X157711447Y-108077691D01*
X157708297Y-108098926D01*
X157703081Y-108119750D01*
X157695849Y-108139962D01*
X157686670Y-108159368D01*
X157675634Y-108177781D01*
X157662846Y-108195024D01*
X157648430Y-108210930D01*
X157632524Y-108225346D01*
X157615281Y-108238134D01*
X157596868Y-108249170D01*
X157577462Y-108258349D01*
X157557250Y-108265581D01*
X157536426Y-108270797D01*
X157515191Y-108273947D01*
X157493750Y-108275000D01*
X157056250Y-108275000D01*
X157034809Y-108273947D01*
X157013574Y-108270797D01*
X156992750Y-108265581D01*
X156972538Y-108258349D01*
X156953132Y-108249170D01*
X156934719Y-108238134D01*
X156917476Y-108225346D01*
X156901570Y-108210930D01*
X156887154Y-108195024D01*
X156874366Y-108177781D01*
X156863330Y-108159368D01*
X156854151Y-108139962D01*
X156846919Y-108119750D01*
X156841703Y-108098926D01*
X156838553Y-108077691D01*
X156837500Y-108056250D01*
X156837500Y-107543750D01*
X156838553Y-107522309D01*
X156841703Y-107501074D01*
X156846919Y-107480250D01*
X156854151Y-107460038D01*
X156863330Y-107440632D01*
X156874366Y-107422219D01*
X156887154Y-107404976D01*
X156901570Y-107389070D01*
X156917476Y-107374654D01*
X156934719Y-107361866D01*
X156953132Y-107350830D01*
X156972538Y-107341651D01*
X156992750Y-107334419D01*
X157013574Y-107329203D01*
X157034809Y-107326053D01*
X157056250Y-107325000D01*
X157493750Y-107325000D01*
X157515191Y-107326053D01*
X157515191Y-107326053D01*
G37*
D11*
G04 #@! TD*
G04 #@! TO.P,C4,2*
G04 #@! TO.N,Net-(C4-Pad2)*
X157275000Y-107800000D03*
D10*
G04 #@! TO.N,GND*
G04 #@! TO.C,C5*
G36*
X156040691Y-98126053D02*
X156061926Y-98129203D01*
X156082750Y-98134419D01*
X156102962Y-98141651D01*
X156122368Y-98150830D01*
X156140781Y-98161866D01*
X156158024Y-98174654D01*
X156173930Y-98189070D01*
X156188346Y-98204976D01*
X156201134Y-98222219D01*
X156212170Y-98240632D01*
X156221349Y-98260038D01*
X156228581Y-98280250D01*
X156233797Y-98301074D01*
X156236947Y-98322309D01*
X156238000Y-98343750D01*
X156238000Y-98856250D01*
X156236947Y-98877691D01*
X156233797Y-98898926D01*
X156228581Y-98919750D01*
X156221349Y-98939962D01*
X156212170Y-98959368D01*
X156201134Y-98977781D01*
X156188346Y-98995024D01*
X156173930Y-99010930D01*
X156158024Y-99025346D01*
X156140781Y-99038134D01*
X156122368Y-99049170D01*
X156102962Y-99058349D01*
X156082750Y-99065581D01*
X156061926Y-99070797D01*
X156040691Y-99073947D01*
X156019250Y-99075000D01*
X155581750Y-99075000D01*
X155560309Y-99073947D01*
X155539074Y-99070797D01*
X155518250Y-99065581D01*
X155498038Y-99058349D01*
X155478632Y-99049170D01*
X155460219Y-99038134D01*
X155442976Y-99025346D01*
X155427070Y-99010930D01*
X155412654Y-98995024D01*
X155399866Y-98977781D01*
X155388830Y-98959368D01*
X155379651Y-98939962D01*
X155372419Y-98919750D01*
X155367203Y-98898926D01*
X155364053Y-98877691D01*
X155363000Y-98856250D01*
X155363000Y-98343750D01*
X155364053Y-98322309D01*
X155367203Y-98301074D01*
X155372419Y-98280250D01*
X155379651Y-98260038D01*
X155388830Y-98240632D01*
X155399866Y-98222219D01*
X155412654Y-98204976D01*
X155427070Y-98189070D01*
X155442976Y-98174654D01*
X155460219Y-98161866D01*
X155478632Y-98150830D01*
X155498038Y-98141651D01*
X155518250Y-98134419D01*
X155539074Y-98129203D01*
X155560309Y-98126053D01*
X155581750Y-98125000D01*
X156019250Y-98125000D01*
X156040691Y-98126053D01*
X156040691Y-98126053D01*
G37*
D11*
G04 #@! TD*
G04 #@! TO.P,C5,2*
G04 #@! TO.N,GND*
X155800500Y-98600000D03*
D10*
G04 #@! TO.N,Net-(C5-Pad1)*
G04 #@! TO.C,C5*
G36*
X157615691Y-98126053D02*
X157636926Y-98129203D01*
X157657750Y-98134419D01*
X157677962Y-98141651D01*
X157697368Y-98150830D01*
X157715781Y-98161866D01*
X157733024Y-98174654D01*
X157748930Y-98189070D01*
X157763346Y-98204976D01*
X157776134Y-98222219D01*
X157787170Y-98240632D01*
X157796349Y-98260038D01*
X157803581Y-98280250D01*
X157808797Y-98301074D01*
X157811947Y-98322309D01*
X157813000Y-98343750D01*
X157813000Y-98856250D01*
X157811947Y-98877691D01*
X157808797Y-98898926D01*
X157803581Y-98919750D01*
X157796349Y-98939962D01*
X157787170Y-98959368D01*
X157776134Y-98977781D01*
X157763346Y-98995024D01*
X157748930Y-99010930D01*
X157733024Y-99025346D01*
X157715781Y-99038134D01*
X157697368Y-99049170D01*
X157677962Y-99058349D01*
X157657750Y-99065581D01*
X157636926Y-99070797D01*
X157615691Y-99073947D01*
X157594250Y-99075000D01*
X157156750Y-99075000D01*
X157135309Y-99073947D01*
X157114074Y-99070797D01*
X157093250Y-99065581D01*
X157073038Y-99058349D01*
X157053632Y-99049170D01*
X157035219Y-99038134D01*
X157017976Y-99025346D01*
X157002070Y-99010930D01*
X156987654Y-98995024D01*
X156974866Y-98977781D01*
X156963830Y-98959368D01*
X156954651Y-98939962D01*
X156947419Y-98919750D01*
X156942203Y-98898926D01*
X156939053Y-98877691D01*
X156938000Y-98856250D01*
X156938000Y-98343750D01*
X156939053Y-98322309D01*
X156942203Y-98301074D01*
X156947419Y-98280250D01*
X156954651Y-98260038D01*
X156963830Y-98240632D01*
X156974866Y-98222219D01*
X156987654Y-98204976D01*
X157002070Y-98189070D01*
X157017976Y-98174654D01*
X157035219Y-98161866D01*
X157053632Y-98150830D01*
X157073038Y-98141651D01*
X157093250Y-98134419D01*
X157114074Y-98129203D01*
X157135309Y-98126053D01*
X157156750Y-98125000D01*
X157594250Y-98125000D01*
X157615691Y-98126053D01*
X157615691Y-98126053D01*
G37*
D11*
G04 #@! TD*
G04 #@! TO.P,C5,1*
G04 #@! TO.N,Net-(C5-Pad1)*
X157375500Y-98600000D03*
D10*
G04 #@! TO.N,Net-(C6-Pad1)*
G04 #@! TO.C,C6*
G36*
X160815691Y-98126053D02*
X160836926Y-98129203D01*
X160857750Y-98134419D01*
X160877962Y-98141651D01*
X160897368Y-98150830D01*
X160915781Y-98161866D01*
X160933024Y-98174654D01*
X160948930Y-98189070D01*
X160963346Y-98204976D01*
X160976134Y-98222219D01*
X160987170Y-98240632D01*
X160996349Y-98260038D01*
X161003581Y-98280250D01*
X161008797Y-98301074D01*
X161011947Y-98322309D01*
X161013000Y-98343750D01*
X161013000Y-98856250D01*
X161011947Y-98877691D01*
X161008797Y-98898926D01*
X161003581Y-98919750D01*
X160996349Y-98939962D01*
X160987170Y-98959368D01*
X160976134Y-98977781D01*
X160963346Y-98995024D01*
X160948930Y-99010930D01*
X160933024Y-99025346D01*
X160915781Y-99038134D01*
X160897368Y-99049170D01*
X160877962Y-99058349D01*
X160857750Y-99065581D01*
X160836926Y-99070797D01*
X160815691Y-99073947D01*
X160794250Y-99075000D01*
X160356750Y-99075000D01*
X160335309Y-99073947D01*
X160314074Y-99070797D01*
X160293250Y-99065581D01*
X160273038Y-99058349D01*
X160253632Y-99049170D01*
X160235219Y-99038134D01*
X160217976Y-99025346D01*
X160202070Y-99010930D01*
X160187654Y-98995024D01*
X160174866Y-98977781D01*
X160163830Y-98959368D01*
X160154651Y-98939962D01*
X160147419Y-98919750D01*
X160142203Y-98898926D01*
X160139053Y-98877691D01*
X160138000Y-98856250D01*
X160138000Y-98343750D01*
X160139053Y-98322309D01*
X160142203Y-98301074D01*
X160147419Y-98280250D01*
X160154651Y-98260038D01*
X160163830Y-98240632D01*
X160174866Y-98222219D01*
X160187654Y-98204976D01*
X160202070Y-98189070D01*
X160217976Y-98174654D01*
X160235219Y-98161866D01*
X160253632Y-98150830D01*
X160273038Y-98141651D01*
X160293250Y-98134419D01*
X160314074Y-98129203D01*
X160335309Y-98126053D01*
X160356750Y-98125000D01*
X160794250Y-98125000D01*
X160815691Y-98126053D01*
X160815691Y-98126053D01*
G37*
D11*
G04 #@! TD*
G04 #@! TO.P,C6,1*
G04 #@! TO.N,Net-(C6-Pad1)*
X160575500Y-98600000D03*
D10*
G04 #@! TO.N,Net-(C5-Pad1)*
G04 #@! TO.C,C6*
G36*
X159240691Y-98126053D02*
X159261926Y-98129203D01*
X159282750Y-98134419D01*
X159302962Y-98141651D01*
X159322368Y-98150830D01*
X159340781Y-98161866D01*
X159358024Y-98174654D01*
X159373930Y-98189070D01*
X159388346Y-98204976D01*
X159401134Y-98222219D01*
X159412170Y-98240632D01*
X159421349Y-98260038D01*
X159428581Y-98280250D01*
X159433797Y-98301074D01*
X159436947Y-98322309D01*
X159438000Y-98343750D01*
X159438000Y-98856250D01*
X159436947Y-98877691D01*
X159433797Y-98898926D01*
X159428581Y-98919750D01*
X159421349Y-98939962D01*
X159412170Y-98959368D01*
X159401134Y-98977781D01*
X159388346Y-98995024D01*
X159373930Y-99010930D01*
X159358024Y-99025346D01*
X159340781Y-99038134D01*
X159322368Y-99049170D01*
X159302962Y-99058349D01*
X159282750Y-99065581D01*
X159261926Y-99070797D01*
X159240691Y-99073947D01*
X159219250Y-99075000D01*
X158781750Y-99075000D01*
X158760309Y-99073947D01*
X158739074Y-99070797D01*
X158718250Y-99065581D01*
X158698038Y-99058349D01*
X158678632Y-99049170D01*
X158660219Y-99038134D01*
X158642976Y-99025346D01*
X158627070Y-99010930D01*
X158612654Y-98995024D01*
X158599866Y-98977781D01*
X158588830Y-98959368D01*
X158579651Y-98939962D01*
X158572419Y-98919750D01*
X158567203Y-98898926D01*
X158564053Y-98877691D01*
X158563000Y-98856250D01*
X158563000Y-98343750D01*
X158564053Y-98322309D01*
X158567203Y-98301074D01*
X158572419Y-98280250D01*
X158579651Y-98260038D01*
X158588830Y-98240632D01*
X158599866Y-98222219D01*
X158612654Y-98204976D01*
X158627070Y-98189070D01*
X158642976Y-98174654D01*
X158660219Y-98161866D01*
X158678632Y-98150830D01*
X158698038Y-98141651D01*
X158718250Y-98134419D01*
X158739074Y-98129203D01*
X158760309Y-98126053D01*
X158781750Y-98125000D01*
X159219250Y-98125000D01*
X159240691Y-98126053D01*
X159240691Y-98126053D01*
G37*
D11*
G04 #@! TD*
G04 #@! TO.P,C6,2*
G04 #@! TO.N,Net-(C5-Pad1)*
X159000500Y-98600000D03*
D12*
G04 #@! TO.P,J1,5*
G04 #@! TO.N,GND*
X133100000Y-108950000D03*
X133100000Y-97550000D03*
G04 #@! TD*
D13*
G04 #@! TO.P,J3,R*
G04 #@! TO.N,GND*
X153000000Y-100950000D03*
G04 #@! TO.P,J3,S*
X153000000Y-96350000D03*
G04 #@! TO.P,J3,T*
G04 #@! TO.N,Net-(C6-Pad1)*
X160500000Y-101500000D03*
X160500000Y-95800000D03*
G04 #@! TD*
G04 #@! TO.P,J4,T*
G04 #@! TO.N,Net-(C4-Pad2)*
X160500000Y-105000000D03*
X160500000Y-110700000D03*
G04 #@! TO.P,J4,S*
G04 #@! TO.N,GND*
X153000000Y-105550000D03*
G04 #@! TO.P,J4,R*
X153000000Y-110150000D03*
G04 #@! TD*
D10*
G04 #@! TO.N,Net-(C4-Pad1)*
G04 #@! TO.C,R6*
G36*
X154415191Y-107326053D02*
X154436426Y-107329203D01*
X154457250Y-107334419D01*
X154477462Y-107341651D01*
X154496868Y-107350830D01*
X154515281Y-107361866D01*
X154532524Y-107374654D01*
X154548430Y-107389070D01*
X154562846Y-107404976D01*
X154575634Y-107422219D01*
X154586670Y-107440632D01*
X154595849Y-107460038D01*
X154603081Y-107480250D01*
X154608297Y-107501074D01*
X154611447Y-107522309D01*
X154612500Y-107543750D01*
X154612500Y-108056250D01*
X154611447Y-108077691D01*
X154608297Y-108098926D01*
X154603081Y-108119750D01*
X154595849Y-108139962D01*
X154586670Y-108159368D01*
X154575634Y-108177781D01*
X154562846Y-108195024D01*
X154548430Y-108210930D01*
X154532524Y-108225346D01*
X154515281Y-108238134D01*
X154496868Y-108249170D01*
X154477462Y-108258349D01*
X154457250Y-108265581D01*
X154436426Y-108270797D01*
X154415191Y-108273947D01*
X154393750Y-108275000D01*
X153956250Y-108275000D01*
X153934809Y-108273947D01*
X153913574Y-108270797D01*
X153892750Y-108265581D01*
X153872538Y-108258349D01*
X153853132Y-108249170D01*
X153834719Y-108238134D01*
X153817476Y-108225346D01*
X153801570Y-108210930D01*
X153787154Y-108195024D01*
X153774366Y-108177781D01*
X153763330Y-108159368D01*
X153754151Y-108139962D01*
X153746919Y-108119750D01*
X153741703Y-108098926D01*
X153738553Y-108077691D01*
X153737500Y-108056250D01*
X153737500Y-107543750D01*
X153738553Y-107522309D01*
X153741703Y-107501074D01*
X153746919Y-107480250D01*
X153754151Y-107460038D01*
X153763330Y-107440632D01*
X153774366Y-107422219D01*
X153787154Y-107404976D01*
X153801570Y-107389070D01*
X153817476Y-107374654D01*
X153834719Y-107361866D01*
X153853132Y-107350830D01*
X153872538Y-107341651D01*
X153892750Y-107334419D01*
X153913574Y-107329203D01*
X153934809Y-107326053D01*
X153956250Y-107325000D01*
X154393750Y-107325000D01*
X154415191Y-107326053D01*
X154415191Y-107326053D01*
G37*
D11*
G04 #@! TD*
G04 #@! TO.P,R6,2*
G04 #@! TO.N,Net-(C4-Pad1)*
X154175000Y-107800000D03*
D10*
G04 #@! TO.N,/MIC_IN*
G04 #@! TO.C,R6*
G36*
X152840191Y-107326053D02*
X152861426Y-107329203D01*
X152882250Y-107334419D01*
X152902462Y-107341651D01*
X152921868Y-107350830D01*
X152940281Y-107361866D01*
X152957524Y-107374654D01*
X152973430Y-107389070D01*
X152987846Y-107404976D01*
X153000634Y-107422219D01*
X153011670Y-107440632D01*
X153020849Y-107460038D01*
X153028081Y-107480250D01*
X153033297Y-107501074D01*
X153036447Y-107522309D01*
X153037500Y-107543750D01*
X153037500Y-108056250D01*
X153036447Y-108077691D01*
X153033297Y-108098926D01*
X153028081Y-108119750D01*
X153020849Y-108139962D01*
X153011670Y-108159368D01*
X153000634Y-108177781D01*
X152987846Y-108195024D01*
X152973430Y-108210930D01*
X152957524Y-108225346D01*
X152940281Y-108238134D01*
X152921868Y-108249170D01*
X152902462Y-108258349D01*
X152882250Y-108265581D01*
X152861426Y-108270797D01*
X152840191Y-108273947D01*
X152818750Y-108275000D01*
X152381250Y-108275000D01*
X152359809Y-108273947D01*
X152338574Y-108270797D01*
X152317750Y-108265581D01*
X152297538Y-108258349D01*
X152278132Y-108249170D01*
X152259719Y-108238134D01*
X152242476Y-108225346D01*
X152226570Y-108210930D01*
X152212154Y-108195024D01*
X152199366Y-108177781D01*
X152188330Y-108159368D01*
X152179151Y-108139962D01*
X152171919Y-108119750D01*
X152166703Y-108098926D01*
X152163553Y-108077691D01*
X152162500Y-108056250D01*
X152162500Y-107543750D01*
X152163553Y-107522309D01*
X152166703Y-107501074D01*
X152171919Y-107480250D01*
X152179151Y-107460038D01*
X152188330Y-107440632D01*
X152199366Y-107422219D01*
X152212154Y-107404976D01*
X152226570Y-107389070D01*
X152242476Y-107374654D01*
X152259719Y-107361866D01*
X152278132Y-107350830D01*
X152297538Y-107341651D01*
X152317750Y-107334419D01*
X152338574Y-107329203D01*
X152359809Y-107326053D01*
X152381250Y-107325000D01*
X152818750Y-107325000D01*
X152840191Y-107326053D01*
X152840191Y-107326053D01*
G37*
D11*
G04 #@! TD*
G04 #@! TO.P,R6,1*
G04 #@! TO.N,/MIC_IN*
X152600000Y-107800000D03*
D10*
G04 #@! TO.N,+3V3*
G04 #@! TO.C,R7*
G36*
X145852691Y-108226053D02*
X145873926Y-108229203D01*
X145894750Y-108234419D01*
X145914962Y-108241651D01*
X145934368Y-108250830D01*
X145952781Y-108261866D01*
X145970024Y-108274654D01*
X145985930Y-108289070D01*
X146000346Y-108304976D01*
X146013134Y-108322219D01*
X146024170Y-108340632D01*
X146033349Y-108360038D01*
X146040581Y-108380250D01*
X146045797Y-108401074D01*
X146048947Y-108422309D01*
X146050000Y-108443750D01*
X146050000Y-108956250D01*
X146048947Y-108977691D01*
X146045797Y-108998926D01*
X146040581Y-109019750D01*
X146033349Y-109039962D01*
X146024170Y-109059368D01*
X146013134Y-109077781D01*
X146000346Y-109095024D01*
X145985930Y-109110930D01*
X145970024Y-109125346D01*
X145952781Y-109138134D01*
X145934368Y-109149170D01*
X145914962Y-109158349D01*
X145894750Y-109165581D01*
X145873926Y-109170797D01*
X145852691Y-109173947D01*
X145831250Y-109175000D01*
X145393750Y-109175000D01*
X145372309Y-109173947D01*
X145351074Y-109170797D01*
X145330250Y-109165581D01*
X145310038Y-109158349D01*
X145290632Y-109149170D01*
X145272219Y-109138134D01*
X145254976Y-109125346D01*
X145239070Y-109110930D01*
X145224654Y-109095024D01*
X145211866Y-109077781D01*
X145200830Y-109059368D01*
X145191651Y-109039962D01*
X145184419Y-109019750D01*
X145179203Y-108998926D01*
X145176053Y-108977691D01*
X145175000Y-108956250D01*
X145175000Y-108443750D01*
X145176053Y-108422309D01*
X145179203Y-108401074D01*
X145184419Y-108380250D01*
X145191651Y-108360038D01*
X145200830Y-108340632D01*
X145211866Y-108322219D01*
X145224654Y-108304976D01*
X145239070Y-108289070D01*
X145254976Y-108274654D01*
X145272219Y-108261866D01*
X145290632Y-108250830D01*
X145310038Y-108241651D01*
X145330250Y-108234419D01*
X145351074Y-108229203D01*
X145372309Y-108226053D01*
X145393750Y-108225000D01*
X145831250Y-108225000D01*
X145852691Y-108226053D01*
X145852691Y-108226053D01*
G37*
D11*
G04 #@! TD*
G04 #@! TO.P,R7,1*
G04 #@! TO.N,+3V3*
X145612500Y-108700000D03*
D10*
G04 #@! TO.N,Net-(R7-Pad2)*
G04 #@! TO.C,R7*
G36*
X147427691Y-108226053D02*
X147448926Y-108229203D01*
X147469750Y-108234419D01*
X147489962Y-108241651D01*
X147509368Y-108250830D01*
X147527781Y-108261866D01*
X147545024Y-108274654D01*
X147560930Y-108289070D01*
X147575346Y-108304976D01*
X147588134Y-108322219D01*
X147599170Y-108340632D01*
X147608349Y-108360038D01*
X147615581Y-108380250D01*
X147620797Y-108401074D01*
X147623947Y-108422309D01*
X147625000Y-108443750D01*
X147625000Y-108956250D01*
X147623947Y-108977691D01*
X147620797Y-108998926D01*
X147615581Y-109019750D01*
X147608349Y-109039962D01*
X147599170Y-109059368D01*
X147588134Y-109077781D01*
X147575346Y-109095024D01*
X147560930Y-109110930D01*
X147545024Y-109125346D01*
X147527781Y-109138134D01*
X147509368Y-109149170D01*
X147489962Y-109158349D01*
X147469750Y-109165581D01*
X147448926Y-109170797D01*
X147427691Y-109173947D01*
X147406250Y-109175000D01*
X146968750Y-109175000D01*
X146947309Y-109173947D01*
X146926074Y-109170797D01*
X146905250Y-109165581D01*
X146885038Y-109158349D01*
X146865632Y-109149170D01*
X146847219Y-109138134D01*
X146829976Y-109125346D01*
X146814070Y-109110930D01*
X146799654Y-109095024D01*
X146786866Y-109077781D01*
X146775830Y-109059368D01*
X146766651Y-109039962D01*
X146759419Y-109019750D01*
X146754203Y-108998926D01*
X146751053Y-108977691D01*
X146750000Y-108956250D01*
X146750000Y-108443750D01*
X146751053Y-108422309D01*
X146754203Y-108401074D01*
X146759419Y-108380250D01*
X146766651Y-108360038D01*
X146775830Y-108340632D01*
X146786866Y-108322219D01*
X146799654Y-108304976D01*
X146814070Y-108289070D01*
X146829976Y-108274654D01*
X146847219Y-108261866D01*
X146865632Y-108250830D01*
X146885038Y-108241651D01*
X146905250Y-108234419D01*
X146926074Y-108229203D01*
X146947309Y-108226053D01*
X146968750Y-108225000D01*
X147406250Y-108225000D01*
X147427691Y-108226053D01*
X147427691Y-108226053D01*
G37*
D11*
G04 #@! TD*
G04 #@! TO.P,R7,2*
G04 #@! TO.N,Net-(R7-Pad2)*
X147187500Y-108700000D03*
D10*
G04 #@! TO.N,Net-(R7-Pad2)*
G04 #@! TO.C,R8*
G36*
X145852691Y-106826053D02*
X145873926Y-106829203D01*
X145894750Y-106834419D01*
X145914962Y-106841651D01*
X145934368Y-106850830D01*
X145952781Y-106861866D01*
X145970024Y-106874654D01*
X145985930Y-106889070D01*
X146000346Y-106904976D01*
X146013134Y-106922219D01*
X146024170Y-106940632D01*
X146033349Y-106960038D01*
X146040581Y-106980250D01*
X146045797Y-107001074D01*
X146048947Y-107022309D01*
X146050000Y-107043750D01*
X146050000Y-107556250D01*
X146048947Y-107577691D01*
X146045797Y-107598926D01*
X146040581Y-107619750D01*
X146033349Y-107639962D01*
X146024170Y-107659368D01*
X146013134Y-107677781D01*
X146000346Y-107695024D01*
X145985930Y-107710930D01*
X145970024Y-107725346D01*
X145952781Y-107738134D01*
X145934368Y-107749170D01*
X145914962Y-107758349D01*
X145894750Y-107765581D01*
X145873926Y-107770797D01*
X145852691Y-107773947D01*
X145831250Y-107775000D01*
X145393750Y-107775000D01*
X145372309Y-107773947D01*
X145351074Y-107770797D01*
X145330250Y-107765581D01*
X145310038Y-107758349D01*
X145290632Y-107749170D01*
X145272219Y-107738134D01*
X145254976Y-107725346D01*
X145239070Y-107710930D01*
X145224654Y-107695024D01*
X145211866Y-107677781D01*
X145200830Y-107659368D01*
X145191651Y-107639962D01*
X145184419Y-107619750D01*
X145179203Y-107598926D01*
X145176053Y-107577691D01*
X145175000Y-107556250D01*
X145175000Y-107043750D01*
X145176053Y-107022309D01*
X145179203Y-107001074D01*
X145184419Y-106980250D01*
X145191651Y-106960038D01*
X145200830Y-106940632D01*
X145211866Y-106922219D01*
X145224654Y-106904976D01*
X145239070Y-106889070D01*
X145254976Y-106874654D01*
X145272219Y-106861866D01*
X145290632Y-106850830D01*
X145310038Y-106841651D01*
X145330250Y-106834419D01*
X145351074Y-106829203D01*
X145372309Y-106826053D01*
X145393750Y-106825000D01*
X145831250Y-106825000D01*
X145852691Y-106826053D01*
X145852691Y-106826053D01*
G37*
D11*
G04 #@! TD*
G04 #@! TO.P,R8,1*
G04 #@! TO.N,Net-(R7-Pad2)*
X145612500Y-107300000D03*
D10*
G04 #@! TO.N,GND*
G04 #@! TO.C,R8*
G36*
X147427691Y-106826053D02*
X147448926Y-106829203D01*
X147469750Y-106834419D01*
X147489962Y-106841651D01*
X147509368Y-106850830D01*
X147527781Y-106861866D01*
X147545024Y-106874654D01*
X147560930Y-106889070D01*
X147575346Y-106904976D01*
X147588134Y-106922219D01*
X147599170Y-106940632D01*
X147608349Y-106960038D01*
X147615581Y-106980250D01*
X147620797Y-107001074D01*
X147623947Y-107022309D01*
X147625000Y-107043750D01*
X147625000Y-107556250D01*
X147623947Y-107577691D01*
X147620797Y-107598926D01*
X147615581Y-107619750D01*
X147608349Y-107639962D01*
X147599170Y-107659368D01*
X147588134Y-107677781D01*
X147575346Y-107695024D01*
X147560930Y-107710930D01*
X147545024Y-107725346D01*
X147527781Y-107738134D01*
X147509368Y-107749170D01*
X147489962Y-107758349D01*
X147469750Y-107765581D01*
X147448926Y-107770797D01*
X147427691Y-107773947D01*
X147406250Y-107775000D01*
X146968750Y-107775000D01*
X146947309Y-107773947D01*
X146926074Y-107770797D01*
X146905250Y-107765581D01*
X146885038Y-107758349D01*
X146865632Y-107749170D01*
X146847219Y-107738134D01*
X146829976Y-107725346D01*
X146814070Y-107710930D01*
X146799654Y-107695024D01*
X146786866Y-107677781D01*
X146775830Y-107659368D01*
X146766651Y-107639962D01*
X146759419Y-107619750D01*
X146754203Y-107598926D01*
X146751053Y-107577691D01*
X146750000Y-107556250D01*
X146750000Y-107043750D01*
X146751053Y-107022309D01*
X146754203Y-107001074D01*
X146759419Y-106980250D01*
X146766651Y-106960038D01*
X146775830Y-106940632D01*
X146786866Y-106922219D01*
X146799654Y-106904976D01*
X146814070Y-106889070D01*
X146829976Y-106874654D01*
X146847219Y-106861866D01*
X146865632Y-106850830D01*
X146885038Y-106841651D01*
X146905250Y-106834419D01*
X146926074Y-106829203D01*
X146947309Y-106826053D01*
X146968750Y-106825000D01*
X147406250Y-106825000D01*
X147427691Y-106826053D01*
X147427691Y-106826053D01*
G37*
D11*
G04 #@! TD*
G04 #@! TO.P,R8,2*
G04 #@! TO.N,GND*
X147187500Y-107300000D03*
D10*
G04 #@! TO.N,Net-(C5-Pad1)*
G04 #@! TO.C,R9*
G36*
X154439691Y-98126053D02*
X154460926Y-98129203D01*
X154481750Y-98134419D01*
X154501962Y-98141651D01*
X154521368Y-98150830D01*
X154539781Y-98161866D01*
X154557024Y-98174654D01*
X154572930Y-98189070D01*
X154587346Y-98204976D01*
X154600134Y-98222219D01*
X154611170Y-98240632D01*
X154620349Y-98260038D01*
X154627581Y-98280250D01*
X154632797Y-98301074D01*
X154635947Y-98322309D01*
X154637000Y-98343750D01*
X154637000Y-98856250D01*
X154635947Y-98877691D01*
X154632797Y-98898926D01*
X154627581Y-98919750D01*
X154620349Y-98939962D01*
X154611170Y-98959368D01*
X154600134Y-98977781D01*
X154587346Y-98995024D01*
X154572930Y-99010930D01*
X154557024Y-99025346D01*
X154539781Y-99038134D01*
X154521368Y-99049170D01*
X154501962Y-99058349D01*
X154481750Y-99065581D01*
X154460926Y-99070797D01*
X154439691Y-99073947D01*
X154418250Y-99075000D01*
X153980750Y-99075000D01*
X153959309Y-99073947D01*
X153938074Y-99070797D01*
X153917250Y-99065581D01*
X153897038Y-99058349D01*
X153877632Y-99049170D01*
X153859219Y-99038134D01*
X153841976Y-99025346D01*
X153826070Y-99010930D01*
X153811654Y-98995024D01*
X153798866Y-98977781D01*
X153787830Y-98959368D01*
X153778651Y-98939962D01*
X153771419Y-98919750D01*
X153766203Y-98898926D01*
X153763053Y-98877691D01*
X153762000Y-98856250D01*
X153762000Y-98343750D01*
X153763053Y-98322309D01*
X153766203Y-98301074D01*
X153771419Y-98280250D01*
X153778651Y-98260038D01*
X153787830Y-98240632D01*
X153798866Y-98222219D01*
X153811654Y-98204976D01*
X153826070Y-98189070D01*
X153841976Y-98174654D01*
X153859219Y-98161866D01*
X153877632Y-98150830D01*
X153897038Y-98141651D01*
X153917250Y-98134419D01*
X153938074Y-98129203D01*
X153959309Y-98126053D01*
X153980750Y-98125000D01*
X154418250Y-98125000D01*
X154439691Y-98126053D01*
X154439691Y-98126053D01*
G37*
D11*
G04 #@! TD*
G04 #@! TO.P,R9,1*
G04 #@! TO.N,Net-(C5-Pad1)*
X154199500Y-98600000D03*
D10*
G04 #@! TO.N,/LINE_OUT*
G04 #@! TO.C,R9*
G36*
X152864691Y-98126053D02*
X152885926Y-98129203D01*
X152906750Y-98134419D01*
X152926962Y-98141651D01*
X152946368Y-98150830D01*
X152964781Y-98161866D01*
X152982024Y-98174654D01*
X152997930Y-98189070D01*
X153012346Y-98204976D01*
X153025134Y-98222219D01*
X153036170Y-98240632D01*
X153045349Y-98260038D01*
X153052581Y-98280250D01*
X153057797Y-98301074D01*
X153060947Y-98322309D01*
X153062000Y-98343750D01*
X153062000Y-98856250D01*
X153060947Y-98877691D01*
X153057797Y-98898926D01*
X153052581Y-98919750D01*
X153045349Y-98939962D01*
X153036170Y-98959368D01*
X153025134Y-98977781D01*
X153012346Y-98995024D01*
X152997930Y-99010930D01*
X152982024Y-99025346D01*
X152964781Y-99038134D01*
X152946368Y-99049170D01*
X152926962Y-99058349D01*
X152906750Y-99065581D01*
X152885926Y-99070797D01*
X152864691Y-99073947D01*
X152843250Y-99075000D01*
X152405750Y-99075000D01*
X152384309Y-99073947D01*
X152363074Y-99070797D01*
X152342250Y-99065581D01*
X152322038Y-99058349D01*
X152302632Y-99049170D01*
X152284219Y-99038134D01*
X152266976Y-99025346D01*
X152251070Y-99010930D01*
X152236654Y-98995024D01*
X152223866Y-98977781D01*
X152212830Y-98959368D01*
X152203651Y-98939962D01*
X152196419Y-98919750D01*
X152191203Y-98898926D01*
X152188053Y-98877691D01*
X152187000Y-98856250D01*
X152187000Y-98343750D01*
X152188053Y-98322309D01*
X152191203Y-98301074D01*
X152196419Y-98280250D01*
X152203651Y-98260038D01*
X152212830Y-98240632D01*
X152223866Y-98222219D01*
X152236654Y-98204976D01*
X152251070Y-98189070D01*
X152266976Y-98174654D01*
X152284219Y-98161866D01*
X152302632Y-98150830D01*
X152322038Y-98141651D01*
X152342250Y-98134419D01*
X152363074Y-98129203D01*
X152384309Y-98126053D01*
X152405750Y-98125000D01*
X152843250Y-98125000D01*
X152864691Y-98126053D01*
X152864691Y-98126053D01*
G37*
D11*
G04 #@! TD*
G04 #@! TO.P,R9,2*
G04 #@! TO.N,/LINE_OUT*
X152624500Y-98600000D03*
D14*
G04 #@! TO.P,U3,1*
G04 #@! TO.N,Net-(R7-Pad2)*
X148800000Y-108750000D03*
G04 #@! TO.P,U3,2*
G04 #@! TO.N,GND*
X148800000Y-107800000D03*
G04 #@! TO.P,U3,3*
G04 #@! TO.N,Net-(C4-Pad1)*
X148800000Y-106850000D03*
G04 #@! TO.P,U3,4*
G04 #@! TO.N,/MIC_IN*
X151000000Y-106850000D03*
G04 #@! TO.P,U3,5*
G04 #@! TO.N,+3V3*
X151000000Y-108750000D03*
G04 #@! TD*
D15*
G04 #@! TO.P,J2,1*
G04 #@! TO.N,+3V3*
X137375000Y-97350000D03*
D16*
G04 #@! TO.P,J2,2*
G04 #@! TO.N,/SWDIO*
X139915000Y-97350000D03*
G04 #@! TO.P,J2,3*
G04 #@! TO.N,/~RESET*
X142455000Y-97350000D03*
G04 #@! TO.P,J2,4*
G04 #@! TO.N,/SWCLK*
X144995000Y-97350000D03*
G04 #@! TO.P,J2,5*
G04 #@! TO.N,GND*
X147535000Y-97350000D03*
G04 #@! TO.P,J2,6*
G04 #@! TO.N,/SWO*
X150075000Y-97350000D03*
G04 #@! TD*
D17*
G04 #@! TO.P,JP1,1*
G04 #@! TO.N,GND*
X136500000Y-106800000D03*
D10*
G04 #@! TD*
G04 #@! TO.N,GND*
G04 #@! TO.C,JP1*
G36*
X136200000Y-106250000D02*
X136200000Y-105900000D01*
X136800000Y-105900000D01*
X136800000Y-106250000D01*
X137250000Y-106250000D01*
X137250000Y-106800000D01*
X137249398Y-106800000D01*
X137249398Y-106824534D01*
X137244588Y-106873365D01*
X137235016Y-106921490D01*
X137220772Y-106968445D01*
X137201995Y-107013778D01*
X137178864Y-107057051D01*
X137151604Y-107097850D01*
X137120476Y-107135779D01*
X137085779Y-107170476D01*
X137047850Y-107201604D01*
X137007051Y-107228864D01*
X136963778Y-107251995D01*
X136918445Y-107270772D01*
X136871490Y-107285016D01*
X136823365Y-107294588D01*
X136774534Y-107299398D01*
X136750000Y-107299398D01*
X136750000Y-107300000D01*
X136250000Y-107300000D01*
X136250000Y-107299398D01*
X136225466Y-107299398D01*
X136176635Y-107294588D01*
X136128510Y-107285016D01*
X136081555Y-107270772D01*
X136036222Y-107251995D01*
X135992949Y-107228864D01*
X135952150Y-107201604D01*
X135914221Y-107170476D01*
X135879524Y-107135779D01*
X135848396Y-107097850D01*
X135821136Y-107057051D01*
X135798005Y-107013778D01*
X135779228Y-106968445D01*
X135764984Y-106921490D01*
X135755412Y-106873365D01*
X135750602Y-106824534D01*
X135750602Y-106800000D01*
X135750000Y-106800000D01*
X135750000Y-106250000D01*
X136200000Y-106250000D01*
X136200000Y-106250000D01*
G37*
D17*
G04 #@! TO.P,JP1,3*
G04 #@! TO.N,+3V3*
X136500000Y-104200000D03*
D10*
G04 #@! TD*
G04 #@! TO.N,+3V3*
G04 #@! TO.C,JP1*
G36*
X135750602Y-104200000D02*
X135750602Y-104175466D01*
X135755412Y-104126635D01*
X135764984Y-104078510D01*
X135779228Y-104031555D01*
X135798005Y-103986222D01*
X135821136Y-103942949D01*
X135848396Y-103902150D01*
X135879524Y-103864221D01*
X135914221Y-103829524D01*
X135952150Y-103798396D01*
X135992949Y-103771136D01*
X136036222Y-103748005D01*
X136081555Y-103729228D01*
X136128510Y-103714984D01*
X136176635Y-103705412D01*
X136225466Y-103700602D01*
X136250000Y-103700602D01*
X136250000Y-103700000D01*
X136750000Y-103700000D01*
X136750000Y-103700602D01*
X136774534Y-103700602D01*
X136823365Y-103705412D01*
X136871490Y-103714984D01*
X136918445Y-103729228D01*
X136963778Y-103748005D01*
X137007051Y-103771136D01*
X137047850Y-103798396D01*
X137085779Y-103829524D01*
X137120476Y-103864221D01*
X137151604Y-103902150D01*
X137178864Y-103942949D01*
X137201995Y-103986222D01*
X137220772Y-104031555D01*
X137235016Y-104078510D01*
X137244588Y-104126635D01*
X137249398Y-104175466D01*
X137249398Y-104200000D01*
X137250000Y-104200000D01*
X137250000Y-104750000D01*
X135750000Y-104750000D01*
X135750000Y-104200000D01*
X135750602Y-104200000D01*
X135750602Y-104200000D01*
G37*
D18*
G04 #@! TO.P,JP1,2*
G04 #@! TO.N,Net-(JP1-Pad2)*
X136500000Y-105500000D03*
G04 #@! TD*
G04 #@! TO.P,JP2,2*
G04 #@! TO.N,Net-(JP2-Pad2)*
X136500000Y-100800000D03*
D17*
G04 #@! TO.P,JP2,3*
G04 #@! TO.N,+3V3*
X136500000Y-102100000D03*
D10*
G04 #@! TD*
G04 #@! TO.N,+3V3*
G04 #@! TO.C,JP2*
G36*
X137249398Y-102100000D02*
X137249398Y-102124534D01*
X137244588Y-102173365D01*
X137235016Y-102221490D01*
X137220772Y-102268445D01*
X137201995Y-102313778D01*
X137178864Y-102357051D01*
X137151604Y-102397850D01*
X137120476Y-102435779D01*
X137085779Y-102470476D01*
X137047850Y-102501604D01*
X137007051Y-102528864D01*
X136963778Y-102551995D01*
X136918445Y-102570772D01*
X136871490Y-102585016D01*
X136823365Y-102594588D01*
X136774534Y-102599398D01*
X136750000Y-102599398D01*
X136750000Y-102600000D01*
X136250000Y-102600000D01*
X136250000Y-102599398D01*
X136225466Y-102599398D01*
X136176635Y-102594588D01*
X136128510Y-102585016D01*
X136081555Y-102570772D01*
X136036222Y-102551995D01*
X135992949Y-102528864D01*
X135952150Y-102501604D01*
X135914221Y-102470476D01*
X135879524Y-102435779D01*
X135848396Y-102397850D01*
X135821136Y-102357051D01*
X135798005Y-102313778D01*
X135779228Y-102268445D01*
X135764984Y-102221490D01*
X135755412Y-102173365D01*
X135750602Y-102124534D01*
X135750602Y-102100000D01*
X135750000Y-102100000D01*
X135750000Y-101550000D01*
X137250000Y-101550000D01*
X137250000Y-102100000D01*
X137249398Y-102100000D01*
X137249398Y-102100000D01*
G37*
D17*
G04 #@! TO.P,JP2,1*
G04 #@! TO.N,GND*
X136500000Y-99500000D03*
D10*
G04 #@! TD*
G04 #@! TO.N,GND*
G04 #@! TO.C,JP2*
G36*
X136800000Y-100050000D02*
X136800000Y-100400000D01*
X136200000Y-100400000D01*
X136200000Y-100050000D01*
X135750000Y-100050000D01*
X135750000Y-99500000D01*
X135750602Y-99500000D01*
X135750602Y-99475466D01*
X135755412Y-99426635D01*
X135764984Y-99378510D01*
X135779228Y-99331555D01*
X135798005Y-99286222D01*
X135821136Y-99242949D01*
X135848396Y-99202150D01*
X135879524Y-99164221D01*
X135914221Y-99129524D01*
X135952150Y-99098396D01*
X135992949Y-99071136D01*
X136036222Y-99048005D01*
X136081555Y-99029228D01*
X136128510Y-99014984D01*
X136176635Y-99005412D01*
X136225466Y-99000602D01*
X136250000Y-99000602D01*
X136250000Y-99000000D01*
X136750000Y-99000000D01*
X136750000Y-99000602D01*
X136774534Y-99000602D01*
X136823365Y-99005412D01*
X136871490Y-99014984D01*
X136918445Y-99029228D01*
X136963778Y-99048005D01*
X137007051Y-99071136D01*
X137047850Y-99098396D01*
X137085779Y-99129524D01*
X137120476Y-99164221D01*
X137151604Y-99202150D01*
X137178864Y-99242949D01*
X137201995Y-99286222D01*
X137220772Y-99331555D01*
X137235016Y-99378510D01*
X137244588Y-99426635D01*
X137249398Y-99475466D01*
X137249398Y-99500000D01*
X137250000Y-99500000D01*
X137250000Y-100050000D01*
X136800000Y-100050000D01*
X136800000Y-100050000D01*
G37*
D19*
G04 #@! TO.N,GND*
X131000000Y-96000000D03*
X163000000Y-96000000D03*
X163000000Y-110500000D03*
X131000000Y-110500000D03*
X147400000Y-103400000D03*
X144600000Y-100600000D03*
X146000000Y-102000000D03*
G04 #@! TO.N,+3V3*
X150199500Y-109487490D03*
X141700000Y-100200000D03*
X141196482Y-104467488D03*
X148900000Y-105000000D03*
X150499979Y-101010488D03*
G04 #@! TO.N,Net-(C4-Pad2)*
X151300000Y-109800000D03*
G04 #@! TO.N,/SWDIO*
X141080370Y-103452215D03*
G04 #@! TO.N,/~RESET*
X150159680Y-102199826D03*
G04 #@! TO.N,/SWCLK*
X143100000Y-105000000D03*
G04 #@! TO.N,/SWO*
X145000000Y-106200000D03*
G04 #@! TO.N,Net-(JP1-Pad2)*
X142300000Y-107100000D03*
G04 #@! TO.N,Net-(JP2-Pad2)*
X135000000Y-101000000D03*
G04 #@! TO.N,/USB_DM*
X139262707Y-106399990D03*
X142045451Y-102014065D03*
G04 #@! TO.N,/MIC_IN*
X151462737Y-102163229D03*
G04 #@! TO.N,/LINE_OUT*
X150599979Y-100000008D03*
G04 #@! TD*
D20*
G04 #@! TO.N,GND*
X133900000Y-106800000D02*
X133100000Y-107600000D01*
X133100000Y-107600000D02*
X133100000Y-108950000D01*
X136500000Y-106800000D02*
X133900000Y-106800000D01*
X133700000Y-99500000D02*
X133100000Y-98900000D01*
X133100000Y-98900000D02*
X133100000Y-97550000D01*
X136500000Y-99500000D02*
X133700000Y-99500000D01*
X147687500Y-107800000D02*
X148800000Y-107800000D01*
X147187500Y-107300000D02*
X147687500Y-107800000D01*
X147535000Y-97350000D02*
X147250000Y-97350000D01*
X147535000Y-97665000D02*
X147535000Y-97350000D01*
X144600000Y-100600000D02*
X147535000Y-97665000D01*
G04 #@! TO.N,+3V3*
X136500000Y-104200000D02*
X136500000Y-102100000D01*
X137375000Y-98600000D02*
X137375000Y-97350000D01*
X137650010Y-98875010D02*
X137375000Y-98600000D01*
X137650010Y-101797582D02*
X137650010Y-98875010D01*
X137347592Y-102100000D02*
X137650010Y-101797582D01*
X136500000Y-102100000D02*
X137347592Y-102100000D01*
X151000000Y-108750000D02*
X150936990Y-108750000D01*
X150599499Y-109087491D02*
X150199500Y-109487490D01*
X150936990Y-108750000D02*
X150599499Y-109087491D01*
X141700000Y-100200000D02*
X141240914Y-100659086D01*
X141240914Y-100659086D02*
X141240914Y-102340914D01*
X141240914Y-102340914D02*
X141900000Y-103000000D01*
X140648462Y-104467488D02*
X141196482Y-104467488D01*
X136500000Y-104200000D02*
X140380974Y-104200000D01*
X140380974Y-104200000D02*
X140648462Y-104467488D01*
X141900000Y-103000000D02*
X141900000Y-103763970D01*
X141900000Y-103763970D02*
X141196482Y-104467488D01*
X146224989Y-109887489D02*
X149799501Y-109887489D01*
X149799501Y-109887489D02*
X150199500Y-109487490D01*
X145612500Y-109275000D02*
X146224989Y-109887489D01*
X145612500Y-108700000D02*
X145612500Y-109275000D01*
X148900000Y-105000000D02*
X148900000Y-102044782D01*
X149934294Y-101010488D02*
X150499979Y-101010488D01*
X148900000Y-102044782D02*
X149934294Y-101010488D01*
D21*
G04 #@! TO.N,Net-(C4-Pad1)*
X154175000Y-107800000D02*
X155700000Y-107800000D01*
X154175000Y-107800000D02*
X153399990Y-108575010D01*
X149530000Y-106850000D02*
X148800000Y-106850000D01*
X153399990Y-108575010D02*
X151959290Y-108575010D01*
X150229999Y-107475001D02*
X149604998Y-106850000D01*
X151959290Y-108575010D02*
X151830001Y-108445721D01*
X149604998Y-106850000D02*
X149530000Y-106850000D01*
X151830001Y-108445721D02*
X151830001Y-108184999D01*
X151120003Y-107475001D02*
X150229999Y-107475001D01*
X151830001Y-108184999D02*
X151120003Y-107475001D01*
G04 #@! TO.N,Net-(C4-Pad2)*
X160075000Y-105000000D02*
X160500000Y-105000000D01*
X157275000Y-107800000D02*
X160075000Y-105000000D01*
X160175000Y-110700000D02*
X160500000Y-110700000D01*
X157275000Y-107800000D02*
X160175000Y-110700000D01*
X152124979Y-108975021D02*
X156099979Y-108975021D01*
X151300000Y-109800000D02*
X152124979Y-108975021D01*
X156813388Y-108261612D02*
X157275000Y-107800000D01*
X156099979Y-108975021D02*
X156813388Y-108261612D01*
G04 #@! TO.N,Net-(C5-Pad1)*
X159000500Y-98600000D02*
X157375500Y-98600000D01*
X154974510Y-99375010D02*
X156600490Y-99375010D01*
X156913888Y-99061612D02*
X157375500Y-98600000D01*
X156600490Y-99375010D02*
X156913888Y-99061612D01*
X154199500Y-98600000D02*
X154974510Y-99375010D01*
G04 #@! TO.N,Net-(C6-Pad1)*
X160575500Y-95875500D02*
X160500000Y-95800000D01*
X160575500Y-98600000D02*
X160575500Y-95875500D01*
X160575500Y-101424500D02*
X160500000Y-101500000D01*
X160575500Y-98600000D02*
X160575500Y-101424500D01*
G04 #@! TO.N,/SWDIO*
X139915000Y-102286845D02*
X140680371Y-103052216D01*
X140680371Y-103052216D02*
X141080370Y-103452215D01*
X139915000Y-97350000D02*
X139915000Y-102286845D01*
G04 #@! TO.N,/~RESET*
X150165878Y-95799998D02*
X152190870Y-97824990D01*
X153058130Y-97824990D02*
X153362010Y-98128870D01*
X153362010Y-98128870D02*
X153362010Y-99071130D01*
X152190870Y-97824990D02*
X153058130Y-97824990D01*
X153362010Y-99071130D02*
X153058130Y-99375010D01*
X151600001Y-100989963D02*
X150790137Y-101799827D01*
X152190870Y-99375010D02*
X151600001Y-99965879D01*
X142455000Y-97350000D02*
X144005002Y-95799998D01*
X150790137Y-101799827D02*
X150559679Y-101799827D01*
X150559679Y-101799827D02*
X150159680Y-102199826D01*
X153058130Y-99375010D02*
X152190870Y-99375010D01*
X144005002Y-95799998D02*
X150165878Y-95799998D01*
X151600001Y-99965879D02*
X151600001Y-100989963D01*
G04 #@! TO.N,/SWCLK*
X144995000Y-97350000D02*
X143100000Y-99245000D01*
X143100000Y-104434315D02*
X143100000Y-105000000D01*
X143100000Y-99245000D02*
X143100000Y-104434315D01*
G04 #@! TO.N,/SWO*
X145000000Y-106200000D02*
X145000000Y-105634315D01*
X148499999Y-98500001D02*
X145000000Y-102000000D01*
X150075000Y-97350000D02*
X148924999Y-98500001D01*
X148924999Y-98500001D02*
X148499999Y-98500001D01*
X145000000Y-106200000D02*
X145000000Y-102000000D01*
G04 #@! TO.N,Net-(JP1-Pad2)*
X136924280Y-105500000D02*
X136500000Y-105500000D01*
X138524280Y-107100000D02*
X136924280Y-105500000D01*
X142300000Y-107100000D02*
X138524280Y-107100000D01*
G04 #@! TO.N,Net-(JP2-Pad2)*
X136300000Y-101000000D02*
X136500000Y-100800000D01*
X135000000Y-101000000D02*
X136300000Y-101000000D01*
G04 #@! TO.N,/USB_DM*
X140436012Y-106399990D02*
X142500011Y-104335991D01*
X142445450Y-102414064D02*
X142045451Y-102014065D01*
X142500011Y-104335991D02*
X142500011Y-102468625D01*
X142500011Y-102468625D02*
X142445450Y-102414064D01*
X139262707Y-106399990D02*
X140436012Y-106399990D01*
G04 #@! TO.N,/MIC_IN*
X151205000Y-106850000D02*
X152155000Y-107800000D01*
X151000000Y-106850000D02*
X151205000Y-106850000D01*
X152155000Y-107800000D02*
X152600000Y-107800000D01*
X151000000Y-102625966D02*
X151062738Y-102563228D01*
X151062738Y-102563228D02*
X151462737Y-102163229D01*
X151000000Y-106850000D02*
X151000000Y-102625966D01*
G04 #@! TO.N,Net-(R7-Pad2)*
X148624500Y-108925500D02*
X148800000Y-108750000D01*
X147237500Y-108750000D02*
X147187500Y-108700000D01*
X148800000Y-108750000D02*
X147237500Y-108750000D01*
X145787500Y-107300000D02*
X145612500Y-107300000D01*
X147187500Y-108700000D02*
X145787500Y-107300000D01*
G04 #@! TO.N,/LINE_OUT*
X150999978Y-99600009D02*
X150599979Y-100000008D01*
X152624500Y-98600000D02*
X151999987Y-98600000D01*
X151999987Y-98600000D02*
X150999978Y-99600009D01*
G04 #@! TD*
D22*
G04 #@! TO.N,GND*
G36*
X163265001Y-110765000D02*
X162148225Y-110765000D01*
X162161154Y-110700000D01*
X162057542Y-110179109D01*
X161762481Y-109737519D01*
X161320891Y-109442458D01*
X160931485Y-109365000D01*
X160068515Y-109365000D01*
X159910815Y-109396369D01*
X158359940Y-107845494D01*
X158359940Y-107754506D01*
X159827406Y-106287040D01*
X160068515Y-106335000D01*
X160931485Y-106335000D01*
X161320891Y-106257542D01*
X161762481Y-105962481D01*
X162057542Y-105520891D01*
X162161154Y-105000000D01*
X162057542Y-104479109D01*
X161762481Y-104037519D01*
X161320891Y-103742458D01*
X160931485Y-103665000D01*
X160068515Y-103665000D01*
X159679109Y-103742458D01*
X159237519Y-104037519D01*
X158942458Y-104479109D01*
X158838846Y-105000000D01*
X158871482Y-105164071D01*
X158090115Y-105945438D01*
X158235000Y-105595657D01*
X158235000Y-105104343D01*
X158046982Y-104650429D01*
X157699571Y-104303018D01*
X157245657Y-104115000D01*
X156754343Y-104115000D01*
X156300429Y-104303018D01*
X155953018Y-104650429D01*
X155765000Y-105104343D01*
X155765000Y-105595657D01*
X155953018Y-106049571D01*
X156300429Y-106396982D01*
X156754343Y-106585000D01*
X157245657Y-106585000D01*
X157595438Y-106440115D01*
X157357994Y-106677560D01*
X157056250Y-106677560D01*
X156724773Y-106743495D01*
X156487500Y-106902036D01*
X156250227Y-106743495D01*
X155918750Y-106677560D01*
X155481250Y-106677560D01*
X155149773Y-106743495D01*
X154937500Y-106885331D01*
X154725227Y-106743495D01*
X154393750Y-106677560D01*
X153998411Y-106677560D01*
X154333790Y-106404185D01*
X154581980Y-105943550D01*
X154592716Y-105883329D01*
X154469374Y-105677000D01*
X153127000Y-105677000D01*
X153127000Y-105697000D01*
X152873000Y-105697000D01*
X152873000Y-105677000D01*
X152853000Y-105677000D01*
X152853000Y-105423000D01*
X152873000Y-105423000D01*
X152873000Y-104215000D01*
X153127000Y-104215000D01*
X153127000Y-105423000D01*
X154469374Y-105423000D01*
X154592716Y-105216671D01*
X154581980Y-105156450D01*
X154333790Y-104695815D01*
X153928215Y-104365222D01*
X153427000Y-104215000D01*
X153127000Y-104215000D01*
X152873000Y-104215000D01*
X152573000Y-104215000D01*
X152071785Y-104365222D01*
X151735000Y-104639743D01*
X151735000Y-103170730D01*
X152049017Y-103040660D01*
X152340168Y-102749509D01*
X152497737Y-102369103D01*
X152497737Y-102262442D01*
X152573000Y-102285000D01*
X152873000Y-102285000D01*
X152873000Y-101077000D01*
X153127000Y-101077000D01*
X153127000Y-102285000D01*
X153427000Y-102285000D01*
X153928215Y-102134778D01*
X154333790Y-101804185D01*
X154581980Y-101343550D01*
X154592716Y-101283329D01*
X154469374Y-101077000D01*
X153127000Y-101077000D01*
X152873000Y-101077000D01*
X152853000Y-101077000D01*
X152853000Y-100823000D01*
X152873000Y-100823000D01*
X152873000Y-100803000D01*
X153127000Y-100803000D01*
X153127000Y-100823000D01*
X154469374Y-100823000D01*
X154592716Y-100616671D01*
X154581980Y-100556450D01*
X154333790Y-100095815D01*
X153928215Y-99765222D01*
X153758292Y-99714294D01*
X153788406Y-99684180D01*
X153980750Y-99722440D01*
X154282493Y-99722440D01*
X154403600Y-99843547D01*
X154444605Y-99904915D01*
X154687727Y-100067364D01*
X154902122Y-100110010D01*
X154974510Y-100124409D01*
X155046898Y-100110010D01*
X156293437Y-100110010D01*
X155953018Y-100450429D01*
X155765000Y-100904343D01*
X155765000Y-101395657D01*
X155953018Y-101849571D01*
X156300429Y-102196982D01*
X156754343Y-102385000D01*
X157245657Y-102385000D01*
X157699571Y-102196982D01*
X158046982Y-101849571D01*
X158235000Y-101395657D01*
X158235000Y-100904343D01*
X158046982Y-100450429D01*
X157699571Y-100103018D01*
X157245657Y-99915000D01*
X157115302Y-99915000D01*
X157130395Y-99904915D01*
X157171401Y-99843545D01*
X157292506Y-99722440D01*
X157594250Y-99722440D01*
X157925727Y-99656505D01*
X158188000Y-99481260D01*
X158450273Y-99656505D01*
X158781750Y-99722440D01*
X159219250Y-99722440D01*
X159550727Y-99656505D01*
X159788000Y-99497964D01*
X159840500Y-99533044D01*
X159840501Y-100210355D01*
X159679109Y-100242458D01*
X159237519Y-100537519D01*
X158942458Y-100979109D01*
X158838846Y-101500000D01*
X158942458Y-102020891D01*
X159237519Y-102462481D01*
X159679109Y-102757542D01*
X160068515Y-102835000D01*
X160931485Y-102835000D01*
X161320891Y-102757542D01*
X161762481Y-102462481D01*
X162057542Y-102020891D01*
X162161154Y-101500000D01*
X162057542Y-100979109D01*
X161762481Y-100537519D01*
X161320891Y-100242458D01*
X161310500Y-100240391D01*
X161310500Y-99533044D01*
X161406739Y-99468739D01*
X161594505Y-99187727D01*
X161660440Y-98856250D01*
X161660440Y-98343750D01*
X161594505Y-98012273D01*
X161406739Y-97731261D01*
X161310500Y-97666956D01*
X161310500Y-97059609D01*
X161320891Y-97057542D01*
X161762481Y-96762481D01*
X162057542Y-96320891D01*
X162161154Y-95800000D01*
X162148225Y-95735000D01*
X163265000Y-95735000D01*
X163265001Y-110765000D01*
X163265001Y-110765000D01*
G37*
X163265001Y-110765000D02*
X162148225Y-110765000D01*
X162161154Y-110700000D01*
X162057542Y-110179109D01*
X161762481Y-109737519D01*
X161320891Y-109442458D01*
X160931485Y-109365000D01*
X160068515Y-109365000D01*
X159910815Y-109396369D01*
X158359940Y-107845494D01*
X158359940Y-107754506D01*
X159827406Y-106287040D01*
X160068515Y-106335000D01*
X160931485Y-106335000D01*
X161320891Y-106257542D01*
X161762481Y-105962481D01*
X162057542Y-105520891D01*
X162161154Y-105000000D01*
X162057542Y-104479109D01*
X161762481Y-104037519D01*
X161320891Y-103742458D01*
X160931485Y-103665000D01*
X160068515Y-103665000D01*
X159679109Y-103742458D01*
X159237519Y-104037519D01*
X158942458Y-104479109D01*
X158838846Y-105000000D01*
X158871482Y-105164071D01*
X158090115Y-105945438D01*
X158235000Y-105595657D01*
X158235000Y-105104343D01*
X158046982Y-104650429D01*
X157699571Y-104303018D01*
X157245657Y-104115000D01*
X156754343Y-104115000D01*
X156300429Y-104303018D01*
X155953018Y-104650429D01*
X155765000Y-105104343D01*
X155765000Y-105595657D01*
X155953018Y-106049571D01*
X156300429Y-106396982D01*
X156754343Y-106585000D01*
X157245657Y-106585000D01*
X157595438Y-106440115D01*
X157357994Y-106677560D01*
X157056250Y-106677560D01*
X156724773Y-106743495D01*
X156487500Y-106902036D01*
X156250227Y-106743495D01*
X155918750Y-106677560D01*
X155481250Y-106677560D01*
X155149773Y-106743495D01*
X154937500Y-106885331D01*
X154725227Y-106743495D01*
X154393750Y-106677560D01*
X153998411Y-106677560D01*
X154333790Y-106404185D01*
X154581980Y-105943550D01*
X154592716Y-105883329D01*
X154469374Y-105677000D01*
X153127000Y-105677000D01*
X153127000Y-105697000D01*
X152873000Y-105697000D01*
X152873000Y-105677000D01*
X152853000Y-105677000D01*
X152853000Y-105423000D01*
X152873000Y-105423000D01*
X152873000Y-104215000D01*
X153127000Y-104215000D01*
X153127000Y-105423000D01*
X154469374Y-105423000D01*
X154592716Y-105216671D01*
X154581980Y-105156450D01*
X154333790Y-104695815D01*
X153928215Y-104365222D01*
X153427000Y-104215000D01*
X153127000Y-104215000D01*
X152873000Y-104215000D01*
X152573000Y-104215000D01*
X152071785Y-104365222D01*
X151735000Y-104639743D01*
X151735000Y-103170730D01*
X152049017Y-103040660D01*
X152340168Y-102749509D01*
X152497737Y-102369103D01*
X152497737Y-102262442D01*
X152573000Y-102285000D01*
X152873000Y-102285000D01*
X152873000Y-101077000D01*
X153127000Y-101077000D01*
X153127000Y-102285000D01*
X153427000Y-102285000D01*
X153928215Y-102134778D01*
X154333790Y-101804185D01*
X154581980Y-101343550D01*
X154592716Y-101283329D01*
X154469374Y-101077000D01*
X153127000Y-101077000D01*
X152873000Y-101077000D01*
X152853000Y-101077000D01*
X152853000Y-100823000D01*
X152873000Y-100823000D01*
X152873000Y-100803000D01*
X153127000Y-100803000D01*
X153127000Y-100823000D01*
X154469374Y-100823000D01*
X154592716Y-100616671D01*
X154581980Y-100556450D01*
X154333790Y-100095815D01*
X153928215Y-99765222D01*
X153758292Y-99714294D01*
X153788406Y-99684180D01*
X153980750Y-99722440D01*
X154282493Y-99722440D01*
X154403600Y-99843547D01*
X154444605Y-99904915D01*
X154687727Y-100067364D01*
X154902122Y-100110010D01*
X154974510Y-100124409D01*
X155046898Y-100110010D01*
X156293437Y-100110010D01*
X155953018Y-100450429D01*
X155765000Y-100904343D01*
X155765000Y-101395657D01*
X155953018Y-101849571D01*
X156300429Y-102196982D01*
X156754343Y-102385000D01*
X157245657Y-102385000D01*
X157699571Y-102196982D01*
X158046982Y-101849571D01*
X158235000Y-101395657D01*
X158235000Y-100904343D01*
X158046982Y-100450429D01*
X157699571Y-100103018D01*
X157245657Y-99915000D01*
X157115302Y-99915000D01*
X157130395Y-99904915D01*
X157171401Y-99843545D01*
X157292506Y-99722440D01*
X157594250Y-99722440D01*
X157925727Y-99656505D01*
X158188000Y-99481260D01*
X158450273Y-99656505D01*
X158781750Y-99722440D01*
X159219250Y-99722440D01*
X159550727Y-99656505D01*
X159788000Y-99497964D01*
X159840500Y-99533044D01*
X159840501Y-100210355D01*
X159679109Y-100242458D01*
X159237519Y-100537519D01*
X158942458Y-100979109D01*
X158838846Y-101500000D01*
X158942458Y-102020891D01*
X159237519Y-102462481D01*
X159679109Y-102757542D01*
X160068515Y-102835000D01*
X160931485Y-102835000D01*
X161320891Y-102757542D01*
X161762481Y-102462481D01*
X162057542Y-102020891D01*
X162161154Y-101500000D01*
X162057542Y-100979109D01*
X161762481Y-100537519D01*
X161320891Y-100242458D01*
X161310500Y-100240391D01*
X161310500Y-99533044D01*
X161406739Y-99468739D01*
X161594505Y-99187727D01*
X161660440Y-98856250D01*
X161660440Y-98343750D01*
X161594505Y-98012273D01*
X161406739Y-97731261D01*
X161310500Y-97666956D01*
X161310500Y-97059609D01*
X161320891Y-97057542D01*
X161762481Y-96762481D01*
X162057542Y-96320891D01*
X162161154Y-95800000D01*
X162148225Y-95735000D01*
X163265000Y-95735000D01*
X163265001Y-110765000D01*
G36*
X155765000Y-110104343D02*
X155765000Y-110595657D01*
X155835144Y-110765000D01*
X154462663Y-110765000D01*
X154581980Y-110543550D01*
X154592716Y-110483329D01*
X154469374Y-110277000D01*
X153127000Y-110277000D01*
X153127000Y-110297000D01*
X152873000Y-110297000D01*
X152873000Y-110277000D01*
X152853000Y-110277000D01*
X152853000Y-110023000D01*
X152873000Y-110023000D01*
X152873000Y-110003000D01*
X153127000Y-110003000D01*
X153127000Y-110023000D01*
X154469374Y-110023000D01*
X154592716Y-109816671D01*
X154581980Y-109756450D01*
X154556964Y-109710021D01*
X155928334Y-109710021D01*
X155765000Y-110104343D01*
X155765000Y-110104343D01*
G37*
X155765000Y-110104343D02*
X155765000Y-110595657D01*
X155835144Y-110765000D01*
X154462663Y-110765000D01*
X154581980Y-110543550D01*
X154592716Y-110483329D01*
X154469374Y-110277000D01*
X153127000Y-110277000D01*
X153127000Y-110297000D01*
X152873000Y-110297000D01*
X152873000Y-110277000D01*
X152853000Y-110277000D01*
X152853000Y-110023000D01*
X152873000Y-110023000D01*
X152873000Y-110003000D01*
X153127000Y-110003000D01*
X153127000Y-110023000D01*
X154469374Y-110023000D01*
X154592716Y-109816671D01*
X154581980Y-109756450D01*
X154556964Y-109710021D01*
X155928334Y-109710021D01*
X155765000Y-110104343D01*
G36*
X142850897Y-95914657D02*
X142601256Y-95865000D01*
X142308744Y-95865000D01*
X141875582Y-95951161D01*
X141384375Y-96279375D01*
X141185000Y-96577761D01*
X140985625Y-96279375D01*
X140494418Y-95951161D01*
X140061256Y-95865000D01*
X139768744Y-95865000D01*
X139335582Y-95951161D01*
X138844375Y-96279375D01*
X138832184Y-96297619D01*
X138823157Y-96252235D01*
X138682809Y-96042191D01*
X138472765Y-95901843D01*
X138225000Y-95852560D01*
X136525000Y-95852560D01*
X136277235Y-95901843D01*
X136067191Y-96042191D01*
X135926843Y-96252235D01*
X135877560Y-96500000D01*
X135877560Y-98200000D01*
X135918298Y-98404807D01*
X135857096Y-98423372D01*
X135766540Y-98460881D01*
X135654603Y-98520713D01*
X135573104Y-98575169D01*
X135474994Y-98655686D01*
X135405686Y-98724994D01*
X135325169Y-98823104D01*
X135270713Y-98904603D01*
X135210881Y-99016540D01*
X135173372Y-99107096D01*
X135136530Y-99228549D01*
X135117408Y-99324682D01*
X135104968Y-99450991D01*
X135104968Y-99487894D01*
X135102560Y-99500000D01*
X135102560Y-99965000D01*
X134794126Y-99965000D01*
X134413720Y-100122569D01*
X134149391Y-100386898D01*
X134104595Y-100278751D01*
X133771249Y-99945405D01*
X133335711Y-99765000D01*
X132864289Y-99765000D01*
X132428751Y-99945405D01*
X132095405Y-100278751D01*
X131915000Y-100714289D01*
X131915000Y-101185711D01*
X132095405Y-101621249D01*
X132428751Y-101954595D01*
X132864289Y-102135000D01*
X133335711Y-102135000D01*
X133771249Y-101954595D01*
X134104595Y-101621249D01*
X134120824Y-101582068D01*
X134122569Y-101586280D01*
X134413720Y-101877431D01*
X134794126Y-102035000D01*
X135102560Y-102035000D01*
X135102560Y-102100000D01*
X135104968Y-102112106D01*
X135104968Y-102149009D01*
X135117408Y-102275318D01*
X135136530Y-102371451D01*
X135173372Y-102492904D01*
X135210881Y-102583460D01*
X135270713Y-102695397D01*
X135325169Y-102776896D01*
X135405686Y-102875006D01*
X135474994Y-102944314D01*
X135573104Y-103024831D01*
X135654603Y-103079287D01*
X135665001Y-103084845D01*
X135665000Y-103215155D01*
X135654603Y-103220713D01*
X135573104Y-103275169D01*
X135474994Y-103355686D01*
X135405686Y-103424994D01*
X135325169Y-103523104D01*
X135270713Y-103604603D01*
X135210881Y-103716540D01*
X135173372Y-103807096D01*
X135136530Y-103928549D01*
X135117408Y-104024682D01*
X135104968Y-104150991D01*
X135104968Y-104187894D01*
X135102560Y-104200000D01*
X135102560Y-104750000D01*
X135127424Y-104875000D01*
X135102560Y-105000000D01*
X135102560Y-106000000D01*
X135127424Y-106125000D01*
X135102560Y-106250000D01*
X135102560Y-106800000D01*
X135104968Y-106812106D01*
X135104968Y-106849009D01*
X135117408Y-106975318D01*
X135136530Y-107071451D01*
X135173372Y-107192904D01*
X135210881Y-107283460D01*
X135270713Y-107395397D01*
X135325169Y-107476896D01*
X135405686Y-107575006D01*
X135474994Y-107644314D01*
X135573104Y-107724831D01*
X135654603Y-107779287D01*
X135766540Y-107839119D01*
X135857096Y-107876628D01*
X135978549Y-107913470D01*
X136074682Y-107932592D01*
X136200991Y-107945032D01*
X136237894Y-107945032D01*
X136250000Y-107947440D01*
X136750000Y-107947440D01*
X136762106Y-107945032D01*
X136799009Y-107945032D01*
X136925318Y-107932592D01*
X137021451Y-107913470D01*
X137142904Y-107876628D01*
X137233460Y-107839119D01*
X137345397Y-107779287D01*
X137426896Y-107724831D01*
X137525006Y-107644314D01*
X137594314Y-107575006D01*
X137674831Y-107476896D01*
X137729287Y-107395397D01*
X137747032Y-107362199D01*
X137953370Y-107568537D01*
X137994375Y-107629905D01*
X138237497Y-107792354D01*
X138451892Y-107835000D01*
X138524280Y-107849399D01*
X138596668Y-107835000D01*
X141571289Y-107835000D01*
X141713720Y-107977431D01*
X142094126Y-108135000D01*
X142505874Y-108135000D01*
X142886280Y-107977431D01*
X143177431Y-107686280D01*
X143335000Y-107305874D01*
X143335000Y-106894126D01*
X143177431Y-106513720D01*
X142886280Y-106222569D01*
X142505874Y-106065000D01*
X142094126Y-106065000D01*
X141713720Y-106222569D01*
X141571289Y-106365000D01*
X141510448Y-106365000D01*
X142255869Y-105619580D01*
X142513720Y-105877431D01*
X142894126Y-106035000D01*
X143305874Y-106035000D01*
X143686280Y-105877431D01*
X143977431Y-105586280D01*
X144135000Y-105205874D01*
X144135000Y-104794126D01*
X143977431Y-104413720D01*
X143835000Y-104271289D01*
X143835000Y-99549446D01*
X144599103Y-98785343D01*
X144848744Y-98835000D01*
X145141256Y-98835000D01*
X145574418Y-98748839D01*
X146065625Y-98420625D01*
X146278843Y-98101522D01*
X146339817Y-98231358D01*
X146768076Y-98621645D01*
X147171723Y-98788830D01*
X144531463Y-101429091D01*
X144470096Y-101470095D01*
X144429092Y-101531462D01*
X144429091Y-101531463D01*
X144307646Y-101713218D01*
X144250602Y-102000000D01*
X144265001Y-102072389D01*
X144265000Y-105471289D01*
X144122569Y-105613720D01*
X143965000Y-105994126D01*
X143965000Y-106405874D01*
X144122569Y-106786280D01*
X144413720Y-107077431D01*
X144527560Y-107124585D01*
X144527560Y-107556250D01*
X144593495Y-107887727D01*
X144668513Y-108000000D01*
X144593495Y-108112273D01*
X144527560Y-108443750D01*
X144527560Y-108956250D01*
X144593495Y-109287727D01*
X144781261Y-109568739D01*
X144825443Y-109598260D01*
X144825948Y-109600801D01*
X145010500Y-109877001D01*
X145080218Y-109923585D01*
X145576403Y-110419771D01*
X145622988Y-110489490D01*
X145899188Y-110674041D01*
X146142752Y-110722489D01*
X146142755Y-110722489D01*
X146224988Y-110738846D01*
X146307221Y-110722489D01*
X149717268Y-110722489D01*
X149799501Y-110738846D01*
X149881734Y-110722489D01*
X149881738Y-110722489D01*
X150125302Y-110674041D01*
X150352114Y-110522490D01*
X150405374Y-110522490D01*
X150513848Y-110477559D01*
X150713720Y-110677431D01*
X150925131Y-110765000D01*
X130735000Y-110765000D01*
X130735000Y-109077002D01*
X130879415Y-109077002D01*
X130759414Y-109322588D01*
X130787050Y-109439220D01*
X131089433Y-109980961D01*
X131576114Y-110365748D01*
X132173000Y-110535000D01*
X132973000Y-110535000D01*
X132973000Y-109077000D01*
X133227000Y-109077000D01*
X133227000Y-110535000D01*
X134027000Y-110535000D01*
X134623886Y-110365748D01*
X135110567Y-109980961D01*
X135412950Y-109439220D01*
X135440586Y-109322588D01*
X135320584Y-109077000D01*
X133227000Y-109077000D01*
X132973000Y-109077000D01*
X132953000Y-109077000D01*
X132953000Y-108823000D01*
X132973000Y-108823000D01*
X132973000Y-107365000D01*
X133227000Y-107365000D01*
X133227000Y-108823000D01*
X135320584Y-108823000D01*
X135440586Y-108577412D01*
X135412950Y-108460780D01*
X135110567Y-107919039D01*
X134623886Y-107534252D01*
X134027000Y-107365000D01*
X133227000Y-107365000D01*
X132973000Y-107365000D01*
X132173000Y-107365000D01*
X131576114Y-107534252D01*
X131089433Y-107919039D01*
X130787050Y-108460780D01*
X130759414Y-108577412D01*
X130879415Y-108822998D01*
X130735000Y-108822998D01*
X130735000Y-105314289D01*
X131915000Y-105314289D01*
X131915000Y-105785711D01*
X132095405Y-106221249D01*
X132428751Y-106554595D01*
X132864289Y-106735000D01*
X133335711Y-106735000D01*
X133771249Y-106554595D01*
X134104595Y-106221249D01*
X134285000Y-105785711D01*
X134285000Y-105314289D01*
X134104595Y-104878751D01*
X133771249Y-104545405D01*
X133335711Y-104365000D01*
X132864289Y-104365000D01*
X132428751Y-104545405D01*
X132095405Y-104878751D01*
X131915000Y-105314289D01*
X130735000Y-105314289D01*
X130735000Y-97677002D01*
X130879415Y-97677002D01*
X130759414Y-97922588D01*
X130787050Y-98039220D01*
X131089433Y-98580961D01*
X131576114Y-98965748D01*
X132173000Y-99135000D01*
X132973000Y-99135000D01*
X132973000Y-97677000D01*
X133227000Y-97677000D01*
X133227000Y-99135000D01*
X134027000Y-99135000D01*
X134623886Y-98965748D01*
X135110567Y-98580961D01*
X135412950Y-98039220D01*
X135440586Y-97922588D01*
X135320584Y-97677000D01*
X133227000Y-97677000D01*
X132973000Y-97677000D01*
X132953000Y-97677000D01*
X132953000Y-97423000D01*
X132973000Y-97423000D01*
X132973000Y-95965000D01*
X133227000Y-95965000D01*
X133227000Y-97423000D01*
X135320584Y-97423000D01*
X135440586Y-97177412D01*
X135412950Y-97060780D01*
X135110567Y-96519039D01*
X134623886Y-96134252D01*
X134027000Y-95965000D01*
X133227000Y-95965000D01*
X132973000Y-95965000D01*
X132173000Y-95965000D01*
X131576114Y-96134252D01*
X131089433Y-96519039D01*
X130787050Y-97060780D01*
X130759414Y-97177412D01*
X130879415Y-97422998D01*
X130735000Y-97422998D01*
X130735000Y-95735000D01*
X143030553Y-95735000D01*
X142850897Y-95914657D01*
X142850897Y-95914657D01*
G37*
X142850897Y-95914657D02*
X142601256Y-95865000D01*
X142308744Y-95865000D01*
X141875582Y-95951161D01*
X141384375Y-96279375D01*
X141185000Y-96577761D01*
X140985625Y-96279375D01*
X140494418Y-95951161D01*
X140061256Y-95865000D01*
X139768744Y-95865000D01*
X139335582Y-95951161D01*
X138844375Y-96279375D01*
X138832184Y-96297619D01*
X138823157Y-96252235D01*
X138682809Y-96042191D01*
X138472765Y-95901843D01*
X138225000Y-95852560D01*
X136525000Y-95852560D01*
X136277235Y-95901843D01*
X136067191Y-96042191D01*
X135926843Y-96252235D01*
X135877560Y-96500000D01*
X135877560Y-98200000D01*
X135918298Y-98404807D01*
X135857096Y-98423372D01*
X135766540Y-98460881D01*
X135654603Y-98520713D01*
X135573104Y-98575169D01*
X135474994Y-98655686D01*
X135405686Y-98724994D01*
X135325169Y-98823104D01*
X135270713Y-98904603D01*
X135210881Y-99016540D01*
X135173372Y-99107096D01*
X135136530Y-99228549D01*
X135117408Y-99324682D01*
X135104968Y-99450991D01*
X135104968Y-99487894D01*
X135102560Y-99500000D01*
X135102560Y-99965000D01*
X134794126Y-99965000D01*
X134413720Y-100122569D01*
X134149391Y-100386898D01*
X134104595Y-100278751D01*
X133771249Y-99945405D01*
X133335711Y-99765000D01*
X132864289Y-99765000D01*
X132428751Y-99945405D01*
X132095405Y-100278751D01*
X131915000Y-100714289D01*
X131915000Y-101185711D01*
X132095405Y-101621249D01*
X132428751Y-101954595D01*
X132864289Y-102135000D01*
X133335711Y-102135000D01*
X133771249Y-101954595D01*
X134104595Y-101621249D01*
X134120824Y-101582068D01*
X134122569Y-101586280D01*
X134413720Y-101877431D01*
X134794126Y-102035000D01*
X135102560Y-102035000D01*
X135102560Y-102100000D01*
X135104968Y-102112106D01*
X135104968Y-102149009D01*
X135117408Y-102275318D01*
X135136530Y-102371451D01*
X135173372Y-102492904D01*
X135210881Y-102583460D01*
X135270713Y-102695397D01*
X135325169Y-102776896D01*
X135405686Y-102875006D01*
X135474994Y-102944314D01*
X135573104Y-103024831D01*
X135654603Y-103079287D01*
X135665001Y-103084845D01*
X135665000Y-103215155D01*
X135654603Y-103220713D01*
X135573104Y-103275169D01*
X135474994Y-103355686D01*
X135405686Y-103424994D01*
X135325169Y-103523104D01*
X135270713Y-103604603D01*
X135210881Y-103716540D01*
X135173372Y-103807096D01*
X135136530Y-103928549D01*
X135117408Y-104024682D01*
X135104968Y-104150991D01*
X135104968Y-104187894D01*
X135102560Y-104200000D01*
X135102560Y-104750000D01*
X135127424Y-104875000D01*
X135102560Y-105000000D01*
X135102560Y-106000000D01*
X135127424Y-106125000D01*
X135102560Y-106250000D01*
X135102560Y-106800000D01*
X135104968Y-106812106D01*
X135104968Y-106849009D01*
X135117408Y-106975318D01*
X135136530Y-107071451D01*
X135173372Y-107192904D01*
X135210881Y-107283460D01*
X135270713Y-107395397D01*
X135325169Y-107476896D01*
X135405686Y-107575006D01*
X135474994Y-107644314D01*
X135573104Y-107724831D01*
X135654603Y-107779287D01*
X135766540Y-107839119D01*
X135857096Y-107876628D01*
X135978549Y-107913470D01*
X136074682Y-107932592D01*
X136200991Y-107945032D01*
X136237894Y-107945032D01*
X136250000Y-107947440D01*
X136750000Y-107947440D01*
X136762106Y-107945032D01*
X136799009Y-107945032D01*
X136925318Y-107932592D01*
X137021451Y-107913470D01*
X137142904Y-107876628D01*
X137233460Y-107839119D01*
X137345397Y-107779287D01*
X137426896Y-107724831D01*
X137525006Y-107644314D01*
X137594314Y-107575006D01*
X137674831Y-107476896D01*
X137729287Y-107395397D01*
X137747032Y-107362199D01*
X137953370Y-107568537D01*
X137994375Y-107629905D01*
X138237497Y-107792354D01*
X138451892Y-107835000D01*
X138524280Y-107849399D01*
X138596668Y-107835000D01*
X141571289Y-107835000D01*
X141713720Y-107977431D01*
X142094126Y-108135000D01*
X142505874Y-108135000D01*
X142886280Y-107977431D01*
X143177431Y-107686280D01*
X143335000Y-107305874D01*
X143335000Y-106894126D01*
X143177431Y-106513720D01*
X142886280Y-106222569D01*
X142505874Y-106065000D01*
X142094126Y-106065000D01*
X141713720Y-106222569D01*
X141571289Y-106365000D01*
X141510448Y-106365000D01*
X142255869Y-105619580D01*
X142513720Y-105877431D01*
X142894126Y-106035000D01*
X143305874Y-106035000D01*
X143686280Y-105877431D01*
X143977431Y-105586280D01*
X144135000Y-105205874D01*
X144135000Y-104794126D01*
X143977431Y-104413720D01*
X143835000Y-104271289D01*
X143835000Y-99549446D01*
X144599103Y-98785343D01*
X144848744Y-98835000D01*
X145141256Y-98835000D01*
X145574418Y-98748839D01*
X146065625Y-98420625D01*
X146278843Y-98101522D01*
X146339817Y-98231358D01*
X146768076Y-98621645D01*
X147171723Y-98788830D01*
X144531463Y-101429091D01*
X144470096Y-101470095D01*
X144429092Y-101531462D01*
X144429091Y-101531463D01*
X144307646Y-101713218D01*
X144250602Y-102000000D01*
X144265001Y-102072389D01*
X144265000Y-105471289D01*
X144122569Y-105613720D01*
X143965000Y-105994126D01*
X143965000Y-106405874D01*
X144122569Y-106786280D01*
X144413720Y-107077431D01*
X144527560Y-107124585D01*
X144527560Y-107556250D01*
X144593495Y-107887727D01*
X144668513Y-108000000D01*
X144593495Y-108112273D01*
X144527560Y-108443750D01*
X144527560Y-108956250D01*
X144593495Y-109287727D01*
X144781261Y-109568739D01*
X144825443Y-109598260D01*
X144825948Y-109600801D01*
X145010500Y-109877001D01*
X145080218Y-109923585D01*
X145576403Y-110419771D01*
X145622988Y-110489490D01*
X145899188Y-110674041D01*
X146142752Y-110722489D01*
X146142755Y-110722489D01*
X146224988Y-110738846D01*
X146307221Y-110722489D01*
X149717268Y-110722489D01*
X149799501Y-110738846D01*
X149881734Y-110722489D01*
X149881738Y-110722489D01*
X150125302Y-110674041D01*
X150352114Y-110522490D01*
X150405374Y-110522490D01*
X150513848Y-110477559D01*
X150713720Y-110677431D01*
X150925131Y-110765000D01*
X130735000Y-110765000D01*
X130735000Y-109077002D01*
X130879415Y-109077002D01*
X130759414Y-109322588D01*
X130787050Y-109439220D01*
X131089433Y-109980961D01*
X131576114Y-110365748D01*
X132173000Y-110535000D01*
X132973000Y-110535000D01*
X132973000Y-109077000D01*
X133227000Y-109077000D01*
X133227000Y-110535000D01*
X134027000Y-110535000D01*
X134623886Y-110365748D01*
X135110567Y-109980961D01*
X135412950Y-109439220D01*
X135440586Y-109322588D01*
X135320584Y-109077000D01*
X133227000Y-109077000D01*
X132973000Y-109077000D01*
X132953000Y-109077000D01*
X132953000Y-108823000D01*
X132973000Y-108823000D01*
X132973000Y-107365000D01*
X133227000Y-107365000D01*
X133227000Y-108823000D01*
X135320584Y-108823000D01*
X135440586Y-108577412D01*
X135412950Y-108460780D01*
X135110567Y-107919039D01*
X134623886Y-107534252D01*
X134027000Y-107365000D01*
X133227000Y-107365000D01*
X132973000Y-107365000D01*
X132173000Y-107365000D01*
X131576114Y-107534252D01*
X131089433Y-107919039D01*
X130787050Y-108460780D01*
X130759414Y-108577412D01*
X130879415Y-108822998D01*
X130735000Y-108822998D01*
X130735000Y-105314289D01*
X131915000Y-105314289D01*
X131915000Y-105785711D01*
X132095405Y-106221249D01*
X132428751Y-106554595D01*
X132864289Y-106735000D01*
X133335711Y-106735000D01*
X133771249Y-106554595D01*
X134104595Y-106221249D01*
X134285000Y-105785711D01*
X134285000Y-105314289D01*
X134104595Y-104878751D01*
X133771249Y-104545405D01*
X133335711Y-104365000D01*
X132864289Y-104365000D01*
X132428751Y-104545405D01*
X132095405Y-104878751D01*
X131915000Y-105314289D01*
X130735000Y-105314289D01*
X130735000Y-97677002D01*
X130879415Y-97677002D01*
X130759414Y-97922588D01*
X130787050Y-98039220D01*
X131089433Y-98580961D01*
X131576114Y-98965748D01*
X132173000Y-99135000D01*
X132973000Y-99135000D01*
X132973000Y-97677000D01*
X133227000Y-97677000D01*
X133227000Y-99135000D01*
X134027000Y-99135000D01*
X134623886Y-98965748D01*
X135110567Y-98580961D01*
X135412950Y-98039220D01*
X135440586Y-97922588D01*
X135320584Y-97677000D01*
X133227000Y-97677000D01*
X132973000Y-97677000D01*
X132953000Y-97677000D01*
X132953000Y-97423000D01*
X132973000Y-97423000D01*
X132973000Y-95965000D01*
X133227000Y-95965000D01*
X133227000Y-97423000D01*
X135320584Y-97423000D01*
X135440586Y-97177412D01*
X135412950Y-97060780D01*
X135110567Y-96519039D01*
X134623886Y-96134252D01*
X134027000Y-95965000D01*
X133227000Y-95965000D01*
X132973000Y-95965000D01*
X132173000Y-95965000D01*
X131576114Y-96134252D01*
X131089433Y-96519039D01*
X130787050Y-97060780D01*
X130759414Y-97177412D01*
X130879415Y-97422998D01*
X130735000Y-97422998D01*
X130735000Y-95735000D01*
X143030553Y-95735000D01*
X142850897Y-95914657D01*
G36*
X150595533Y-98965008D02*
X150394105Y-98965008D01*
X150013699Y-99122577D01*
X149722548Y-99413728D01*
X149564979Y-99794134D01*
X149564979Y-100205882D01*
X149580269Y-100242795D01*
X149332293Y-100408487D01*
X149285709Y-100478206D01*
X148367718Y-101396197D01*
X148298000Y-101442781D01*
X148246492Y-101519868D01*
X148113448Y-101718982D01*
X148048643Y-102044782D01*
X148065001Y-102127020D01*
X148065000Y-104371289D01*
X148022569Y-104413720D01*
X147865000Y-104794126D01*
X147865000Y-105205874D01*
X148022569Y-105586280D01*
X148313720Y-105877431D01*
X148314031Y-105877560D01*
X148270000Y-105877560D01*
X148022235Y-105926843D01*
X147812191Y-106067191D01*
X147730132Y-106190000D01*
X147473250Y-106190000D01*
X147314500Y-106348750D01*
X147314500Y-107173000D01*
X147334500Y-107173000D01*
X147334500Y-107427000D01*
X147314500Y-107427000D01*
X147314500Y-107447000D01*
X147060500Y-107447000D01*
X147060500Y-107427000D01*
X147040500Y-107427000D01*
X147040500Y-107173000D01*
X147060500Y-107173000D01*
X147060500Y-106348750D01*
X146901750Y-106190000D01*
X146623691Y-106190000D01*
X146390302Y-106286673D01*
X146325031Y-106351943D01*
X146162727Y-106243495D01*
X146035000Y-106218088D01*
X146035000Y-105994126D01*
X145877431Y-105613720D01*
X145735000Y-105471289D01*
X145735000Y-102304446D01*
X148804446Y-99235001D01*
X148852615Y-99235001D01*
X148924999Y-99249399D01*
X148997383Y-99235001D01*
X148997387Y-99235001D01*
X149211782Y-99192355D01*
X149454904Y-99029906D01*
X149495910Y-98968536D01*
X149679103Y-98785343D01*
X149928744Y-98835000D01*
X150221256Y-98835000D01*
X150654418Y-98748839D01*
X151128418Y-98432122D01*
X150595533Y-98965008D01*
X150595533Y-98965008D01*
G37*
X150595533Y-98965008D02*
X150394105Y-98965008D01*
X150013699Y-99122577D01*
X149722548Y-99413728D01*
X149564979Y-99794134D01*
X149564979Y-100205882D01*
X149580269Y-100242795D01*
X149332293Y-100408487D01*
X149285709Y-100478206D01*
X148367718Y-101396197D01*
X148298000Y-101442781D01*
X148246492Y-101519868D01*
X148113448Y-101718982D01*
X148048643Y-102044782D01*
X148065001Y-102127020D01*
X148065000Y-104371289D01*
X148022569Y-104413720D01*
X147865000Y-104794126D01*
X147865000Y-105205874D01*
X148022569Y-105586280D01*
X148313720Y-105877431D01*
X148314031Y-105877560D01*
X148270000Y-105877560D01*
X148022235Y-105926843D01*
X147812191Y-106067191D01*
X147730132Y-106190000D01*
X147473250Y-106190000D01*
X147314500Y-106348750D01*
X147314500Y-107173000D01*
X147334500Y-107173000D01*
X147334500Y-107427000D01*
X147314500Y-107427000D01*
X147314500Y-107447000D01*
X147060500Y-107447000D01*
X147060500Y-107427000D01*
X147040500Y-107427000D01*
X147040500Y-107173000D01*
X147060500Y-107173000D01*
X147060500Y-106348750D01*
X146901750Y-106190000D01*
X146623691Y-106190000D01*
X146390302Y-106286673D01*
X146325031Y-106351943D01*
X146162727Y-106243495D01*
X146035000Y-106218088D01*
X146035000Y-105994126D01*
X145877431Y-105613720D01*
X145735000Y-105471289D01*
X145735000Y-102304446D01*
X148804446Y-99235001D01*
X148852615Y-99235001D01*
X148924999Y-99249399D01*
X148997383Y-99235001D01*
X148997387Y-99235001D01*
X149211782Y-99192355D01*
X149454904Y-99029906D01*
X149495910Y-98968536D01*
X149679103Y-98785343D01*
X149928744Y-98835000D01*
X150221256Y-98835000D01*
X150654418Y-98748839D01*
X151128418Y-98432122D01*
X150595533Y-98965008D01*
G36*
X155765000Y-95904343D02*
X155765000Y-96395657D01*
X155953018Y-96849571D01*
X156300429Y-97196982D01*
X156754343Y-97385000D01*
X157245657Y-97385000D01*
X157699571Y-97196982D01*
X158046982Y-96849571D01*
X158235000Y-96395657D01*
X158235000Y-95904343D01*
X158164856Y-95735000D01*
X158851775Y-95735000D01*
X158838846Y-95800000D01*
X158942458Y-96320891D01*
X159237519Y-96762481D01*
X159679109Y-97057542D01*
X159840501Y-97089645D01*
X159840500Y-97666956D01*
X159788000Y-97702036D01*
X159550727Y-97543495D01*
X159219250Y-97477560D01*
X158781750Y-97477560D01*
X158450273Y-97543495D01*
X158188000Y-97718740D01*
X157925727Y-97543495D01*
X157594250Y-97477560D01*
X157156750Y-97477560D01*
X156825273Y-97543495D01*
X156662969Y-97651943D01*
X156597698Y-97586673D01*
X156364309Y-97490000D01*
X156086250Y-97490000D01*
X155927500Y-97648750D01*
X155927500Y-98473000D01*
X155947500Y-98473000D01*
X155947500Y-98640010D01*
X155653500Y-98640010D01*
X155653500Y-98473000D01*
X155673500Y-98473000D01*
X155673500Y-97648750D01*
X155514750Y-97490000D01*
X155236691Y-97490000D01*
X155003302Y-97586673D01*
X154927617Y-97662357D01*
X154749727Y-97543495D01*
X154418250Y-97477560D01*
X153998411Y-97477560D01*
X154333790Y-97204185D01*
X154581980Y-96743550D01*
X154592716Y-96683329D01*
X154469374Y-96477000D01*
X153127000Y-96477000D01*
X153127000Y-96497000D01*
X152873000Y-96497000D01*
X152873000Y-96477000D01*
X152853000Y-96477000D01*
X152853000Y-96223000D01*
X152873000Y-96223000D01*
X152873000Y-96203000D01*
X153127000Y-96203000D01*
X153127000Y-96223000D01*
X154469374Y-96223000D01*
X154592716Y-96016671D01*
X154581980Y-95956450D01*
X154462663Y-95735000D01*
X155835144Y-95735000D01*
X155765000Y-95904343D01*
X155765000Y-95904343D01*
G37*
X155765000Y-95904343D02*
X155765000Y-96395657D01*
X155953018Y-96849571D01*
X156300429Y-97196982D01*
X156754343Y-97385000D01*
X157245657Y-97385000D01*
X157699571Y-97196982D01*
X158046982Y-96849571D01*
X158235000Y-96395657D01*
X158235000Y-95904343D01*
X158164856Y-95735000D01*
X158851775Y-95735000D01*
X158838846Y-95800000D01*
X158942458Y-96320891D01*
X159237519Y-96762481D01*
X159679109Y-97057542D01*
X159840501Y-97089645D01*
X159840500Y-97666956D01*
X159788000Y-97702036D01*
X159550727Y-97543495D01*
X159219250Y-97477560D01*
X158781750Y-97477560D01*
X158450273Y-97543495D01*
X158188000Y-97718740D01*
X157925727Y-97543495D01*
X157594250Y-97477560D01*
X157156750Y-97477560D01*
X156825273Y-97543495D01*
X156662969Y-97651943D01*
X156597698Y-97586673D01*
X156364309Y-97490000D01*
X156086250Y-97490000D01*
X155927500Y-97648750D01*
X155927500Y-98473000D01*
X155947500Y-98473000D01*
X155947500Y-98640010D01*
X155653500Y-98640010D01*
X155653500Y-98473000D01*
X155673500Y-98473000D01*
X155673500Y-97648750D01*
X155514750Y-97490000D01*
X155236691Y-97490000D01*
X155003302Y-97586673D01*
X154927617Y-97662357D01*
X154749727Y-97543495D01*
X154418250Y-97477560D01*
X153998411Y-97477560D01*
X154333790Y-97204185D01*
X154581980Y-96743550D01*
X154592716Y-96683329D01*
X154469374Y-96477000D01*
X153127000Y-96477000D01*
X153127000Y-96497000D01*
X152873000Y-96497000D01*
X152873000Y-96477000D01*
X152853000Y-96477000D01*
X152853000Y-96223000D01*
X152873000Y-96223000D01*
X152873000Y-96203000D01*
X153127000Y-96203000D01*
X153127000Y-96223000D01*
X154469374Y-96223000D01*
X154592716Y-96016671D01*
X154581980Y-95956450D01*
X154462663Y-95735000D01*
X155835144Y-95735000D01*
X155765000Y-95904343D01*
G36*
X147662000Y-97223000D02*
X147682000Y-97223000D01*
X147682000Y-97477000D01*
X147662000Y-97477000D01*
X147662000Y-97497000D01*
X147408000Y-97497000D01*
X147408000Y-97477000D01*
X147388000Y-97477000D01*
X147388000Y-97223000D01*
X147408000Y-97223000D01*
X147408000Y-97203000D01*
X147662000Y-97203000D01*
X147662000Y-97223000D01*
X147662000Y-97223000D01*
G37*
X147662000Y-97223000D02*
X147682000Y-97223000D01*
X147682000Y-97477000D01*
X147662000Y-97477000D01*
X147662000Y-97497000D01*
X147408000Y-97497000D01*
X147408000Y-97477000D01*
X147388000Y-97477000D01*
X147388000Y-97223000D01*
X147408000Y-97223000D01*
X147408000Y-97203000D01*
X147662000Y-97203000D01*
X147662000Y-97223000D01*
G04 #@! TD*
M02*
