G04 #@! TF.GenerationSoftware,KiCad,Pcbnew,5.0.1-33cea8e~68~ubuntu18.04.1*
G04 #@! TF.CreationDate,2018-11-08T21:15:48+01:00*
G04 #@! TF.ProjectId,audio_interface,617564696F5F696E746572666163652E,rev?*
G04 #@! TF.SameCoordinates,Original*
G04 #@! TF.FileFunction,Copper,L1,Top,Signal*
G04 #@! TF.FilePolarity,Positive*
%FSLAX46Y46*%
G04 Gerber Fmt 4.6, Leading zero omitted, Abs format (unit mm)*
G04 Created by KiCad (PCBNEW 5.0.1-33cea8e~68~ubuntu18.04.1) date Do 08 Nov 2018 21:15:48 CET*
%MOMM*%
%LPD*%
G01*
G04 APERTURE LIST*
G04 #@! TA.AperFunction,Conductor*
%ADD10C,0.100000*%
G04 #@! TD*
G04 #@! TA.AperFunction,SMDPad,CuDef*
%ADD11C,0.875000*%
G04 #@! TD*
G04 #@! TA.AperFunction,SMDPad,CuDef*
%ADD12R,2.500000X1.100000*%
G04 #@! TD*
G04 #@! TA.AperFunction,ComponentPad*
%ADD13O,3.500000X1.900000*%
G04 #@! TD*
G04 #@! TA.AperFunction,ComponentPad*
%ADD14O,2.000000X1.400000*%
G04 #@! TD*
G04 #@! TA.AperFunction,SMDPad,CuDef*
%ADD15C,4.100000*%
G04 #@! TD*
G04 #@! TA.AperFunction,SMDPad,CuDef*
%ADD16C,0.250000*%
G04 #@! TD*
G04 #@! TA.AperFunction,SMDPad,CuDef*
%ADD17R,0.900000X0.800000*%
G04 #@! TD*
G04 #@! TA.AperFunction,SMDPad,CuDef*
%ADD18R,1.500000X0.400000*%
G04 #@! TD*
G04 #@! TA.AperFunction,ViaPad*
%ADD19C,0.800000*%
G04 #@! TD*
G04 #@! TA.AperFunction,Conductor*
%ADD20C,0.200000*%
G04 #@! TD*
G04 #@! TA.AperFunction,Conductor*
%ADD21C,0.400000*%
G04 #@! TD*
G04 #@! TA.AperFunction,Conductor*
%ADD22C,0.254000*%
G04 #@! TD*
G04 APERTURE END LIST*
D10*
G04 #@! TO.N,GND*
G04 #@! TO.C,C1*
G36*
X136477691Y-109751053D02*
X136498926Y-109754203D01*
X136519750Y-109759419D01*
X136539962Y-109766651D01*
X136559368Y-109775830D01*
X136577781Y-109786866D01*
X136595024Y-109799654D01*
X136610930Y-109814070D01*
X136625346Y-109829976D01*
X136638134Y-109847219D01*
X136649170Y-109865632D01*
X136658349Y-109885038D01*
X136665581Y-109905250D01*
X136670797Y-109926074D01*
X136673947Y-109947309D01*
X136675000Y-109968750D01*
X136675000Y-110406250D01*
X136673947Y-110427691D01*
X136670797Y-110448926D01*
X136665581Y-110469750D01*
X136658349Y-110489962D01*
X136649170Y-110509368D01*
X136638134Y-110527781D01*
X136625346Y-110545024D01*
X136610930Y-110560930D01*
X136595024Y-110575346D01*
X136577781Y-110588134D01*
X136559368Y-110599170D01*
X136539962Y-110608349D01*
X136519750Y-110615581D01*
X136498926Y-110620797D01*
X136477691Y-110623947D01*
X136456250Y-110625000D01*
X135943750Y-110625000D01*
X135922309Y-110623947D01*
X135901074Y-110620797D01*
X135880250Y-110615581D01*
X135860038Y-110608349D01*
X135840632Y-110599170D01*
X135822219Y-110588134D01*
X135804976Y-110575346D01*
X135789070Y-110560930D01*
X135774654Y-110545024D01*
X135761866Y-110527781D01*
X135750830Y-110509368D01*
X135741651Y-110489962D01*
X135734419Y-110469750D01*
X135729203Y-110448926D01*
X135726053Y-110427691D01*
X135725000Y-110406250D01*
X135725000Y-109968750D01*
X135726053Y-109947309D01*
X135729203Y-109926074D01*
X135734419Y-109905250D01*
X135741651Y-109885038D01*
X135750830Y-109865632D01*
X135761866Y-109847219D01*
X135774654Y-109829976D01*
X135789070Y-109814070D01*
X135804976Y-109799654D01*
X135822219Y-109786866D01*
X135840632Y-109775830D01*
X135860038Y-109766651D01*
X135880250Y-109759419D01*
X135901074Y-109754203D01*
X135922309Y-109751053D01*
X135943750Y-109750000D01*
X136456250Y-109750000D01*
X136477691Y-109751053D01*
X136477691Y-109751053D01*
G37*
D11*
G04 #@! TD*
G04 #@! TO.P,C1,2*
G04 #@! TO.N,GND*
X136200000Y-110187500D03*
D10*
G04 #@! TO.N,VBUS*
G04 #@! TO.C,C1*
G36*
X136477691Y-108176053D02*
X136498926Y-108179203D01*
X136519750Y-108184419D01*
X136539962Y-108191651D01*
X136559368Y-108200830D01*
X136577781Y-108211866D01*
X136595024Y-108224654D01*
X136610930Y-108239070D01*
X136625346Y-108254976D01*
X136638134Y-108272219D01*
X136649170Y-108290632D01*
X136658349Y-108310038D01*
X136665581Y-108330250D01*
X136670797Y-108351074D01*
X136673947Y-108372309D01*
X136675000Y-108393750D01*
X136675000Y-108831250D01*
X136673947Y-108852691D01*
X136670797Y-108873926D01*
X136665581Y-108894750D01*
X136658349Y-108914962D01*
X136649170Y-108934368D01*
X136638134Y-108952781D01*
X136625346Y-108970024D01*
X136610930Y-108985930D01*
X136595024Y-109000346D01*
X136577781Y-109013134D01*
X136559368Y-109024170D01*
X136539962Y-109033349D01*
X136519750Y-109040581D01*
X136498926Y-109045797D01*
X136477691Y-109048947D01*
X136456250Y-109050000D01*
X135943750Y-109050000D01*
X135922309Y-109048947D01*
X135901074Y-109045797D01*
X135880250Y-109040581D01*
X135860038Y-109033349D01*
X135840632Y-109024170D01*
X135822219Y-109013134D01*
X135804976Y-109000346D01*
X135789070Y-108985930D01*
X135774654Y-108970024D01*
X135761866Y-108952781D01*
X135750830Y-108934368D01*
X135741651Y-108914962D01*
X135734419Y-108894750D01*
X135729203Y-108873926D01*
X135726053Y-108852691D01*
X135725000Y-108831250D01*
X135725000Y-108393750D01*
X135726053Y-108372309D01*
X135729203Y-108351074D01*
X135734419Y-108330250D01*
X135741651Y-108310038D01*
X135750830Y-108290632D01*
X135761866Y-108272219D01*
X135774654Y-108254976D01*
X135789070Y-108239070D01*
X135804976Y-108224654D01*
X135822219Y-108211866D01*
X135840632Y-108200830D01*
X135860038Y-108191651D01*
X135880250Y-108184419D01*
X135901074Y-108179203D01*
X135922309Y-108176053D01*
X135943750Y-108175000D01*
X136456250Y-108175000D01*
X136477691Y-108176053D01*
X136477691Y-108176053D01*
G37*
D11*
G04 #@! TD*
G04 #@! TO.P,C1,1*
G04 #@! TO.N,VBUS*
X136200000Y-108612500D03*
D10*
G04 #@! TO.N,+3V3*
G04 #@! TO.C,C2*
G36*
X141677691Y-108176053D02*
X141698926Y-108179203D01*
X141719750Y-108184419D01*
X141739962Y-108191651D01*
X141759368Y-108200830D01*
X141777781Y-108211866D01*
X141795024Y-108224654D01*
X141810930Y-108239070D01*
X141825346Y-108254976D01*
X141838134Y-108272219D01*
X141849170Y-108290632D01*
X141858349Y-108310038D01*
X141865581Y-108330250D01*
X141870797Y-108351074D01*
X141873947Y-108372309D01*
X141875000Y-108393750D01*
X141875000Y-108831250D01*
X141873947Y-108852691D01*
X141870797Y-108873926D01*
X141865581Y-108894750D01*
X141858349Y-108914962D01*
X141849170Y-108934368D01*
X141838134Y-108952781D01*
X141825346Y-108970024D01*
X141810930Y-108985930D01*
X141795024Y-109000346D01*
X141777781Y-109013134D01*
X141759368Y-109024170D01*
X141739962Y-109033349D01*
X141719750Y-109040581D01*
X141698926Y-109045797D01*
X141677691Y-109048947D01*
X141656250Y-109050000D01*
X141143750Y-109050000D01*
X141122309Y-109048947D01*
X141101074Y-109045797D01*
X141080250Y-109040581D01*
X141060038Y-109033349D01*
X141040632Y-109024170D01*
X141022219Y-109013134D01*
X141004976Y-109000346D01*
X140989070Y-108985930D01*
X140974654Y-108970024D01*
X140961866Y-108952781D01*
X140950830Y-108934368D01*
X140941651Y-108914962D01*
X140934419Y-108894750D01*
X140929203Y-108873926D01*
X140926053Y-108852691D01*
X140925000Y-108831250D01*
X140925000Y-108393750D01*
X140926053Y-108372309D01*
X140929203Y-108351074D01*
X140934419Y-108330250D01*
X140941651Y-108310038D01*
X140950830Y-108290632D01*
X140961866Y-108272219D01*
X140974654Y-108254976D01*
X140989070Y-108239070D01*
X141004976Y-108224654D01*
X141022219Y-108211866D01*
X141040632Y-108200830D01*
X141060038Y-108191651D01*
X141080250Y-108184419D01*
X141101074Y-108179203D01*
X141122309Y-108176053D01*
X141143750Y-108175000D01*
X141656250Y-108175000D01*
X141677691Y-108176053D01*
X141677691Y-108176053D01*
G37*
D11*
G04 #@! TD*
G04 #@! TO.P,C2,1*
G04 #@! TO.N,+3V3*
X141400000Y-108612500D03*
D10*
G04 #@! TO.N,GND*
G04 #@! TO.C,C2*
G36*
X141677691Y-109751053D02*
X141698926Y-109754203D01*
X141719750Y-109759419D01*
X141739962Y-109766651D01*
X141759368Y-109775830D01*
X141777781Y-109786866D01*
X141795024Y-109799654D01*
X141810930Y-109814070D01*
X141825346Y-109829976D01*
X141838134Y-109847219D01*
X141849170Y-109865632D01*
X141858349Y-109885038D01*
X141865581Y-109905250D01*
X141870797Y-109926074D01*
X141873947Y-109947309D01*
X141875000Y-109968750D01*
X141875000Y-110406250D01*
X141873947Y-110427691D01*
X141870797Y-110448926D01*
X141865581Y-110469750D01*
X141858349Y-110489962D01*
X141849170Y-110509368D01*
X141838134Y-110527781D01*
X141825346Y-110545024D01*
X141810930Y-110560930D01*
X141795024Y-110575346D01*
X141777781Y-110588134D01*
X141759368Y-110599170D01*
X141739962Y-110608349D01*
X141719750Y-110615581D01*
X141698926Y-110620797D01*
X141677691Y-110623947D01*
X141656250Y-110625000D01*
X141143750Y-110625000D01*
X141122309Y-110623947D01*
X141101074Y-110620797D01*
X141080250Y-110615581D01*
X141060038Y-110608349D01*
X141040632Y-110599170D01*
X141022219Y-110588134D01*
X141004976Y-110575346D01*
X140989070Y-110560930D01*
X140974654Y-110545024D01*
X140961866Y-110527781D01*
X140950830Y-110509368D01*
X140941651Y-110489962D01*
X140934419Y-110469750D01*
X140929203Y-110448926D01*
X140926053Y-110427691D01*
X140925000Y-110406250D01*
X140925000Y-109968750D01*
X140926053Y-109947309D01*
X140929203Y-109926074D01*
X140934419Y-109905250D01*
X140941651Y-109885038D01*
X140950830Y-109865632D01*
X140961866Y-109847219D01*
X140974654Y-109829976D01*
X140989070Y-109814070D01*
X141004976Y-109799654D01*
X141022219Y-109786866D01*
X141040632Y-109775830D01*
X141060038Y-109766651D01*
X141080250Y-109759419D01*
X141101074Y-109754203D01*
X141122309Y-109751053D01*
X141143750Y-109750000D01*
X141656250Y-109750000D01*
X141677691Y-109751053D01*
X141677691Y-109751053D01*
G37*
D11*
G04 #@! TD*
G04 #@! TO.P,C2,2*
G04 #@! TO.N,GND*
X141400000Y-110187500D03*
D10*
G04 #@! TO.N,GND*
G04 #@! TO.C,C3*
G36*
X143277691Y-109751053D02*
X143298926Y-109754203D01*
X143319750Y-109759419D01*
X143339962Y-109766651D01*
X143359368Y-109775830D01*
X143377781Y-109786866D01*
X143395024Y-109799654D01*
X143410930Y-109814070D01*
X143425346Y-109829976D01*
X143438134Y-109847219D01*
X143449170Y-109865632D01*
X143458349Y-109885038D01*
X143465581Y-109905250D01*
X143470797Y-109926074D01*
X143473947Y-109947309D01*
X143475000Y-109968750D01*
X143475000Y-110406250D01*
X143473947Y-110427691D01*
X143470797Y-110448926D01*
X143465581Y-110469750D01*
X143458349Y-110489962D01*
X143449170Y-110509368D01*
X143438134Y-110527781D01*
X143425346Y-110545024D01*
X143410930Y-110560930D01*
X143395024Y-110575346D01*
X143377781Y-110588134D01*
X143359368Y-110599170D01*
X143339962Y-110608349D01*
X143319750Y-110615581D01*
X143298926Y-110620797D01*
X143277691Y-110623947D01*
X143256250Y-110625000D01*
X142743750Y-110625000D01*
X142722309Y-110623947D01*
X142701074Y-110620797D01*
X142680250Y-110615581D01*
X142660038Y-110608349D01*
X142640632Y-110599170D01*
X142622219Y-110588134D01*
X142604976Y-110575346D01*
X142589070Y-110560930D01*
X142574654Y-110545024D01*
X142561866Y-110527781D01*
X142550830Y-110509368D01*
X142541651Y-110489962D01*
X142534419Y-110469750D01*
X142529203Y-110448926D01*
X142526053Y-110427691D01*
X142525000Y-110406250D01*
X142525000Y-109968750D01*
X142526053Y-109947309D01*
X142529203Y-109926074D01*
X142534419Y-109905250D01*
X142541651Y-109885038D01*
X142550830Y-109865632D01*
X142561866Y-109847219D01*
X142574654Y-109829976D01*
X142589070Y-109814070D01*
X142604976Y-109799654D01*
X142622219Y-109786866D01*
X142640632Y-109775830D01*
X142660038Y-109766651D01*
X142680250Y-109759419D01*
X142701074Y-109754203D01*
X142722309Y-109751053D01*
X142743750Y-109750000D01*
X143256250Y-109750000D01*
X143277691Y-109751053D01*
X143277691Y-109751053D01*
G37*
D11*
G04 #@! TD*
G04 #@! TO.P,C3,2*
G04 #@! TO.N,GND*
X143000000Y-110187500D03*
D10*
G04 #@! TO.N,+3V3*
G04 #@! TO.C,C3*
G36*
X143277691Y-108176053D02*
X143298926Y-108179203D01*
X143319750Y-108184419D01*
X143339962Y-108191651D01*
X143359368Y-108200830D01*
X143377781Y-108211866D01*
X143395024Y-108224654D01*
X143410930Y-108239070D01*
X143425346Y-108254976D01*
X143438134Y-108272219D01*
X143449170Y-108290632D01*
X143458349Y-108310038D01*
X143465581Y-108330250D01*
X143470797Y-108351074D01*
X143473947Y-108372309D01*
X143475000Y-108393750D01*
X143475000Y-108831250D01*
X143473947Y-108852691D01*
X143470797Y-108873926D01*
X143465581Y-108894750D01*
X143458349Y-108914962D01*
X143449170Y-108934368D01*
X143438134Y-108952781D01*
X143425346Y-108970024D01*
X143410930Y-108985930D01*
X143395024Y-109000346D01*
X143377781Y-109013134D01*
X143359368Y-109024170D01*
X143339962Y-109033349D01*
X143319750Y-109040581D01*
X143298926Y-109045797D01*
X143277691Y-109048947D01*
X143256250Y-109050000D01*
X142743750Y-109050000D01*
X142722309Y-109048947D01*
X142701074Y-109045797D01*
X142680250Y-109040581D01*
X142660038Y-109033349D01*
X142640632Y-109024170D01*
X142622219Y-109013134D01*
X142604976Y-109000346D01*
X142589070Y-108985930D01*
X142574654Y-108970024D01*
X142561866Y-108952781D01*
X142550830Y-108934368D01*
X142541651Y-108914962D01*
X142534419Y-108894750D01*
X142529203Y-108873926D01*
X142526053Y-108852691D01*
X142525000Y-108831250D01*
X142525000Y-108393750D01*
X142526053Y-108372309D01*
X142529203Y-108351074D01*
X142534419Y-108330250D01*
X142541651Y-108310038D01*
X142550830Y-108290632D01*
X142561866Y-108272219D01*
X142574654Y-108254976D01*
X142589070Y-108239070D01*
X142604976Y-108224654D01*
X142622219Y-108211866D01*
X142640632Y-108200830D01*
X142660038Y-108191651D01*
X142680250Y-108184419D01*
X142701074Y-108179203D01*
X142722309Y-108176053D01*
X142743750Y-108175000D01*
X143256250Y-108175000D01*
X143277691Y-108176053D01*
X143277691Y-108176053D01*
G37*
D11*
G04 #@! TD*
G04 #@! TO.P,C3,1*
G04 #@! TO.N,+3V3*
X143000000Y-108612500D03*
D10*
G04 #@! TO.N,GND*
G04 #@! TO.C,D1*
G36*
X159539691Y-102826053D02*
X159560926Y-102829203D01*
X159581750Y-102834419D01*
X159601962Y-102841651D01*
X159621368Y-102850830D01*
X159639781Y-102861866D01*
X159657024Y-102874654D01*
X159672930Y-102889070D01*
X159687346Y-102904976D01*
X159700134Y-102922219D01*
X159711170Y-102940632D01*
X159720349Y-102960038D01*
X159727581Y-102980250D01*
X159732797Y-103001074D01*
X159735947Y-103022309D01*
X159737000Y-103043750D01*
X159737000Y-103556250D01*
X159735947Y-103577691D01*
X159732797Y-103598926D01*
X159727581Y-103619750D01*
X159720349Y-103639962D01*
X159711170Y-103659368D01*
X159700134Y-103677781D01*
X159687346Y-103695024D01*
X159672930Y-103710930D01*
X159657024Y-103725346D01*
X159639781Y-103738134D01*
X159621368Y-103749170D01*
X159601962Y-103758349D01*
X159581750Y-103765581D01*
X159560926Y-103770797D01*
X159539691Y-103773947D01*
X159518250Y-103775000D01*
X159080750Y-103775000D01*
X159059309Y-103773947D01*
X159038074Y-103770797D01*
X159017250Y-103765581D01*
X158997038Y-103758349D01*
X158977632Y-103749170D01*
X158959219Y-103738134D01*
X158941976Y-103725346D01*
X158926070Y-103710930D01*
X158911654Y-103695024D01*
X158898866Y-103677781D01*
X158887830Y-103659368D01*
X158878651Y-103639962D01*
X158871419Y-103619750D01*
X158866203Y-103598926D01*
X158863053Y-103577691D01*
X158862000Y-103556250D01*
X158862000Y-103043750D01*
X158863053Y-103022309D01*
X158866203Y-103001074D01*
X158871419Y-102980250D01*
X158878651Y-102960038D01*
X158887830Y-102940632D01*
X158898866Y-102922219D01*
X158911654Y-102904976D01*
X158926070Y-102889070D01*
X158941976Y-102874654D01*
X158959219Y-102861866D01*
X158977632Y-102850830D01*
X158997038Y-102841651D01*
X159017250Y-102834419D01*
X159038074Y-102829203D01*
X159059309Y-102826053D01*
X159080750Y-102825000D01*
X159518250Y-102825000D01*
X159539691Y-102826053D01*
X159539691Y-102826053D01*
G37*
D11*
G04 #@! TD*
G04 #@! TO.P,D1,1*
G04 #@! TO.N,GND*
X159299500Y-103300000D03*
D10*
G04 #@! TO.N,Net-(D1-Pad2)*
G04 #@! TO.C,D1*
G36*
X157964691Y-102826053D02*
X157985926Y-102829203D01*
X158006750Y-102834419D01*
X158026962Y-102841651D01*
X158046368Y-102850830D01*
X158064781Y-102861866D01*
X158082024Y-102874654D01*
X158097930Y-102889070D01*
X158112346Y-102904976D01*
X158125134Y-102922219D01*
X158136170Y-102940632D01*
X158145349Y-102960038D01*
X158152581Y-102980250D01*
X158157797Y-103001074D01*
X158160947Y-103022309D01*
X158162000Y-103043750D01*
X158162000Y-103556250D01*
X158160947Y-103577691D01*
X158157797Y-103598926D01*
X158152581Y-103619750D01*
X158145349Y-103639962D01*
X158136170Y-103659368D01*
X158125134Y-103677781D01*
X158112346Y-103695024D01*
X158097930Y-103710930D01*
X158082024Y-103725346D01*
X158064781Y-103738134D01*
X158046368Y-103749170D01*
X158026962Y-103758349D01*
X158006750Y-103765581D01*
X157985926Y-103770797D01*
X157964691Y-103773947D01*
X157943250Y-103775000D01*
X157505750Y-103775000D01*
X157484309Y-103773947D01*
X157463074Y-103770797D01*
X157442250Y-103765581D01*
X157422038Y-103758349D01*
X157402632Y-103749170D01*
X157384219Y-103738134D01*
X157366976Y-103725346D01*
X157351070Y-103710930D01*
X157336654Y-103695024D01*
X157323866Y-103677781D01*
X157312830Y-103659368D01*
X157303651Y-103639962D01*
X157296419Y-103619750D01*
X157291203Y-103598926D01*
X157288053Y-103577691D01*
X157287000Y-103556250D01*
X157287000Y-103043750D01*
X157288053Y-103022309D01*
X157291203Y-103001074D01*
X157296419Y-102980250D01*
X157303651Y-102960038D01*
X157312830Y-102940632D01*
X157323866Y-102922219D01*
X157336654Y-102904976D01*
X157351070Y-102889070D01*
X157366976Y-102874654D01*
X157384219Y-102861866D01*
X157402632Y-102850830D01*
X157422038Y-102841651D01*
X157442250Y-102834419D01*
X157463074Y-102829203D01*
X157484309Y-102826053D01*
X157505750Y-102825000D01*
X157943250Y-102825000D01*
X157964691Y-102826053D01*
X157964691Y-102826053D01*
G37*
D11*
G04 #@! TD*
G04 #@! TO.P,D1,2*
G04 #@! TO.N,Net-(D1-Pad2)*
X157724500Y-103300000D03*
D10*
G04 #@! TO.N,Net-(D2-Pad2)*
G04 #@! TO.C,D2*
G36*
X144877691Y-108176053D02*
X144898926Y-108179203D01*
X144919750Y-108184419D01*
X144939962Y-108191651D01*
X144959368Y-108200830D01*
X144977781Y-108211866D01*
X144995024Y-108224654D01*
X145010930Y-108239070D01*
X145025346Y-108254976D01*
X145038134Y-108272219D01*
X145049170Y-108290632D01*
X145058349Y-108310038D01*
X145065581Y-108330250D01*
X145070797Y-108351074D01*
X145073947Y-108372309D01*
X145075000Y-108393750D01*
X145075000Y-108831250D01*
X145073947Y-108852691D01*
X145070797Y-108873926D01*
X145065581Y-108894750D01*
X145058349Y-108914962D01*
X145049170Y-108934368D01*
X145038134Y-108952781D01*
X145025346Y-108970024D01*
X145010930Y-108985930D01*
X144995024Y-109000346D01*
X144977781Y-109013134D01*
X144959368Y-109024170D01*
X144939962Y-109033349D01*
X144919750Y-109040581D01*
X144898926Y-109045797D01*
X144877691Y-109048947D01*
X144856250Y-109050000D01*
X144343750Y-109050000D01*
X144322309Y-109048947D01*
X144301074Y-109045797D01*
X144280250Y-109040581D01*
X144260038Y-109033349D01*
X144240632Y-109024170D01*
X144222219Y-109013134D01*
X144204976Y-109000346D01*
X144189070Y-108985930D01*
X144174654Y-108970024D01*
X144161866Y-108952781D01*
X144150830Y-108934368D01*
X144141651Y-108914962D01*
X144134419Y-108894750D01*
X144129203Y-108873926D01*
X144126053Y-108852691D01*
X144125000Y-108831250D01*
X144125000Y-108393750D01*
X144126053Y-108372309D01*
X144129203Y-108351074D01*
X144134419Y-108330250D01*
X144141651Y-108310038D01*
X144150830Y-108290632D01*
X144161866Y-108272219D01*
X144174654Y-108254976D01*
X144189070Y-108239070D01*
X144204976Y-108224654D01*
X144222219Y-108211866D01*
X144240632Y-108200830D01*
X144260038Y-108191651D01*
X144280250Y-108184419D01*
X144301074Y-108179203D01*
X144322309Y-108176053D01*
X144343750Y-108175000D01*
X144856250Y-108175000D01*
X144877691Y-108176053D01*
X144877691Y-108176053D01*
G37*
D11*
G04 #@! TD*
G04 #@! TO.P,D2,2*
G04 #@! TO.N,Net-(D2-Pad2)*
X144600000Y-108612500D03*
D10*
G04 #@! TO.N,GND*
G04 #@! TO.C,D2*
G36*
X144877691Y-109751053D02*
X144898926Y-109754203D01*
X144919750Y-109759419D01*
X144939962Y-109766651D01*
X144959368Y-109775830D01*
X144977781Y-109786866D01*
X144995024Y-109799654D01*
X145010930Y-109814070D01*
X145025346Y-109829976D01*
X145038134Y-109847219D01*
X145049170Y-109865632D01*
X145058349Y-109885038D01*
X145065581Y-109905250D01*
X145070797Y-109926074D01*
X145073947Y-109947309D01*
X145075000Y-109968750D01*
X145075000Y-110406250D01*
X145073947Y-110427691D01*
X145070797Y-110448926D01*
X145065581Y-110469750D01*
X145058349Y-110489962D01*
X145049170Y-110509368D01*
X145038134Y-110527781D01*
X145025346Y-110545024D01*
X145010930Y-110560930D01*
X144995024Y-110575346D01*
X144977781Y-110588134D01*
X144959368Y-110599170D01*
X144939962Y-110608349D01*
X144919750Y-110615581D01*
X144898926Y-110620797D01*
X144877691Y-110623947D01*
X144856250Y-110625000D01*
X144343750Y-110625000D01*
X144322309Y-110623947D01*
X144301074Y-110620797D01*
X144280250Y-110615581D01*
X144260038Y-110608349D01*
X144240632Y-110599170D01*
X144222219Y-110588134D01*
X144204976Y-110575346D01*
X144189070Y-110560930D01*
X144174654Y-110545024D01*
X144161866Y-110527781D01*
X144150830Y-110509368D01*
X144141651Y-110489962D01*
X144134419Y-110469750D01*
X144129203Y-110448926D01*
X144126053Y-110427691D01*
X144125000Y-110406250D01*
X144125000Y-109968750D01*
X144126053Y-109947309D01*
X144129203Y-109926074D01*
X144134419Y-109905250D01*
X144141651Y-109885038D01*
X144150830Y-109865632D01*
X144161866Y-109847219D01*
X144174654Y-109829976D01*
X144189070Y-109814070D01*
X144204976Y-109799654D01*
X144222219Y-109786866D01*
X144240632Y-109775830D01*
X144260038Y-109766651D01*
X144280250Y-109759419D01*
X144301074Y-109754203D01*
X144322309Y-109751053D01*
X144343750Y-109750000D01*
X144856250Y-109750000D01*
X144877691Y-109751053D01*
X144877691Y-109751053D01*
G37*
D11*
G04 #@! TD*
G04 #@! TO.P,D2,1*
G04 #@! TO.N,GND*
X144600000Y-110187500D03*
D12*
G04 #@! TO.P,J1,2*
G04 #@! TO.N,Net-(J1-Pad2)*
X135850000Y-104250000D03*
G04 #@! TO.P,J1,3*
G04 #@! TO.N,Net-(J1-Pad3)*
X135850000Y-102250000D03*
G04 #@! TO.P,J1,1*
G04 #@! TO.N,VBUS*
X135850000Y-106750000D03*
G04 #@! TO.P,J1,4*
G04 #@! TO.N,GND*
X135850000Y-99750000D03*
D13*
G04 #@! TO.P,J1,5*
X133100000Y-108950000D03*
X133100000Y-97550000D03*
G04 #@! TD*
D14*
G04 #@! TO.P,J3,R*
G04 #@! TO.N,GND*
X153000000Y-100950000D03*
G04 #@! TO.P,J3,S*
X153000000Y-96350000D03*
G04 #@! TO.P,J3,T*
G04 #@! TO.N,Net-(C6-Pad1)*
X160500000Y-101500000D03*
X160500000Y-95800000D03*
G04 #@! TD*
G04 #@! TO.P,J4,T*
G04 #@! TO.N,Net-(C4-Pad2)*
X160500000Y-105000000D03*
X160500000Y-110700000D03*
G04 #@! TO.P,J4,S*
G04 #@! TO.N,GND*
X153000000Y-105550000D03*
G04 #@! TO.P,J4,R*
X153000000Y-110150000D03*
G04 #@! TD*
D10*
G04 #@! TO.N,/USB_DP*
G04 #@! TO.C,R1*
G36*
X140227691Y-101926053D02*
X140248926Y-101929203D01*
X140269750Y-101934419D01*
X140289962Y-101941651D01*
X140309368Y-101950830D01*
X140327781Y-101961866D01*
X140345024Y-101974654D01*
X140360930Y-101989070D01*
X140375346Y-102004976D01*
X140388134Y-102022219D01*
X140399170Y-102040632D01*
X140408349Y-102060038D01*
X140415581Y-102080250D01*
X140420797Y-102101074D01*
X140423947Y-102122309D01*
X140425000Y-102143750D01*
X140425000Y-102656250D01*
X140423947Y-102677691D01*
X140420797Y-102698926D01*
X140415581Y-102719750D01*
X140408349Y-102739962D01*
X140399170Y-102759368D01*
X140388134Y-102777781D01*
X140375346Y-102795024D01*
X140360930Y-102810930D01*
X140345024Y-102825346D01*
X140327781Y-102838134D01*
X140309368Y-102849170D01*
X140289962Y-102858349D01*
X140269750Y-102865581D01*
X140248926Y-102870797D01*
X140227691Y-102873947D01*
X140206250Y-102875000D01*
X139768750Y-102875000D01*
X139747309Y-102873947D01*
X139726074Y-102870797D01*
X139705250Y-102865581D01*
X139685038Y-102858349D01*
X139665632Y-102849170D01*
X139647219Y-102838134D01*
X139629976Y-102825346D01*
X139614070Y-102810930D01*
X139599654Y-102795024D01*
X139586866Y-102777781D01*
X139575830Y-102759368D01*
X139566651Y-102739962D01*
X139559419Y-102719750D01*
X139554203Y-102698926D01*
X139551053Y-102677691D01*
X139550000Y-102656250D01*
X139550000Y-102143750D01*
X139551053Y-102122309D01*
X139554203Y-102101074D01*
X139559419Y-102080250D01*
X139566651Y-102060038D01*
X139575830Y-102040632D01*
X139586866Y-102022219D01*
X139599654Y-102004976D01*
X139614070Y-101989070D01*
X139629976Y-101974654D01*
X139647219Y-101961866D01*
X139665632Y-101950830D01*
X139685038Y-101941651D01*
X139705250Y-101934419D01*
X139726074Y-101929203D01*
X139747309Y-101926053D01*
X139768750Y-101925000D01*
X140206250Y-101925000D01*
X140227691Y-101926053D01*
X140227691Y-101926053D01*
G37*
D11*
G04 #@! TD*
G04 #@! TO.P,R1,1*
G04 #@! TO.N,/USB_DP*
X139987500Y-102400000D03*
D10*
G04 #@! TO.N,Net-(J1-Pad3)*
G04 #@! TO.C,R1*
G36*
X138652691Y-101926053D02*
X138673926Y-101929203D01*
X138694750Y-101934419D01*
X138714962Y-101941651D01*
X138734368Y-101950830D01*
X138752781Y-101961866D01*
X138770024Y-101974654D01*
X138785930Y-101989070D01*
X138800346Y-102004976D01*
X138813134Y-102022219D01*
X138824170Y-102040632D01*
X138833349Y-102060038D01*
X138840581Y-102080250D01*
X138845797Y-102101074D01*
X138848947Y-102122309D01*
X138850000Y-102143750D01*
X138850000Y-102656250D01*
X138848947Y-102677691D01*
X138845797Y-102698926D01*
X138840581Y-102719750D01*
X138833349Y-102739962D01*
X138824170Y-102759368D01*
X138813134Y-102777781D01*
X138800346Y-102795024D01*
X138785930Y-102810930D01*
X138770024Y-102825346D01*
X138752781Y-102838134D01*
X138734368Y-102849170D01*
X138714962Y-102858349D01*
X138694750Y-102865581D01*
X138673926Y-102870797D01*
X138652691Y-102873947D01*
X138631250Y-102875000D01*
X138193750Y-102875000D01*
X138172309Y-102873947D01*
X138151074Y-102870797D01*
X138130250Y-102865581D01*
X138110038Y-102858349D01*
X138090632Y-102849170D01*
X138072219Y-102838134D01*
X138054976Y-102825346D01*
X138039070Y-102810930D01*
X138024654Y-102795024D01*
X138011866Y-102777781D01*
X138000830Y-102759368D01*
X137991651Y-102739962D01*
X137984419Y-102719750D01*
X137979203Y-102698926D01*
X137976053Y-102677691D01*
X137975000Y-102656250D01*
X137975000Y-102143750D01*
X137976053Y-102122309D01*
X137979203Y-102101074D01*
X137984419Y-102080250D01*
X137991651Y-102060038D01*
X138000830Y-102040632D01*
X138011866Y-102022219D01*
X138024654Y-102004976D01*
X138039070Y-101989070D01*
X138054976Y-101974654D01*
X138072219Y-101961866D01*
X138090632Y-101950830D01*
X138110038Y-101941651D01*
X138130250Y-101934419D01*
X138151074Y-101929203D01*
X138172309Y-101926053D01*
X138193750Y-101925000D01*
X138631250Y-101925000D01*
X138652691Y-101926053D01*
X138652691Y-101926053D01*
G37*
D11*
G04 #@! TD*
G04 #@! TO.P,R1,2*
G04 #@! TO.N,Net-(J1-Pad3)*
X138412500Y-102400000D03*
D10*
G04 #@! TO.N,Net-(J1-Pad2)*
G04 #@! TO.C,R2*
G36*
X138652691Y-105126053D02*
X138673926Y-105129203D01*
X138694750Y-105134419D01*
X138714962Y-105141651D01*
X138734368Y-105150830D01*
X138752781Y-105161866D01*
X138770024Y-105174654D01*
X138785930Y-105189070D01*
X138800346Y-105204976D01*
X138813134Y-105222219D01*
X138824170Y-105240632D01*
X138833349Y-105260038D01*
X138840581Y-105280250D01*
X138845797Y-105301074D01*
X138848947Y-105322309D01*
X138850000Y-105343750D01*
X138850000Y-105856250D01*
X138848947Y-105877691D01*
X138845797Y-105898926D01*
X138840581Y-105919750D01*
X138833349Y-105939962D01*
X138824170Y-105959368D01*
X138813134Y-105977781D01*
X138800346Y-105995024D01*
X138785930Y-106010930D01*
X138770024Y-106025346D01*
X138752781Y-106038134D01*
X138734368Y-106049170D01*
X138714962Y-106058349D01*
X138694750Y-106065581D01*
X138673926Y-106070797D01*
X138652691Y-106073947D01*
X138631250Y-106075000D01*
X138193750Y-106075000D01*
X138172309Y-106073947D01*
X138151074Y-106070797D01*
X138130250Y-106065581D01*
X138110038Y-106058349D01*
X138090632Y-106049170D01*
X138072219Y-106038134D01*
X138054976Y-106025346D01*
X138039070Y-106010930D01*
X138024654Y-105995024D01*
X138011866Y-105977781D01*
X138000830Y-105959368D01*
X137991651Y-105939962D01*
X137984419Y-105919750D01*
X137979203Y-105898926D01*
X137976053Y-105877691D01*
X137975000Y-105856250D01*
X137975000Y-105343750D01*
X137976053Y-105322309D01*
X137979203Y-105301074D01*
X137984419Y-105280250D01*
X137991651Y-105260038D01*
X138000830Y-105240632D01*
X138011866Y-105222219D01*
X138024654Y-105204976D01*
X138039070Y-105189070D01*
X138054976Y-105174654D01*
X138072219Y-105161866D01*
X138090632Y-105150830D01*
X138110038Y-105141651D01*
X138130250Y-105134419D01*
X138151074Y-105129203D01*
X138172309Y-105126053D01*
X138193750Y-105125000D01*
X138631250Y-105125000D01*
X138652691Y-105126053D01*
X138652691Y-105126053D01*
G37*
D11*
G04 #@! TD*
G04 #@! TO.P,R2,2*
G04 #@! TO.N,Net-(J1-Pad2)*
X138412500Y-105600000D03*
D10*
G04 #@! TO.N,/USB_DM*
G04 #@! TO.C,R2*
G36*
X140227691Y-105126053D02*
X140248926Y-105129203D01*
X140269750Y-105134419D01*
X140289962Y-105141651D01*
X140309368Y-105150830D01*
X140327781Y-105161866D01*
X140345024Y-105174654D01*
X140360930Y-105189070D01*
X140375346Y-105204976D01*
X140388134Y-105222219D01*
X140399170Y-105240632D01*
X140408349Y-105260038D01*
X140415581Y-105280250D01*
X140420797Y-105301074D01*
X140423947Y-105322309D01*
X140425000Y-105343750D01*
X140425000Y-105856250D01*
X140423947Y-105877691D01*
X140420797Y-105898926D01*
X140415581Y-105919750D01*
X140408349Y-105939962D01*
X140399170Y-105959368D01*
X140388134Y-105977781D01*
X140375346Y-105995024D01*
X140360930Y-106010930D01*
X140345024Y-106025346D01*
X140327781Y-106038134D01*
X140309368Y-106049170D01*
X140289962Y-106058349D01*
X140269750Y-106065581D01*
X140248926Y-106070797D01*
X140227691Y-106073947D01*
X140206250Y-106075000D01*
X139768750Y-106075000D01*
X139747309Y-106073947D01*
X139726074Y-106070797D01*
X139705250Y-106065581D01*
X139685038Y-106058349D01*
X139665632Y-106049170D01*
X139647219Y-106038134D01*
X139629976Y-106025346D01*
X139614070Y-106010930D01*
X139599654Y-105995024D01*
X139586866Y-105977781D01*
X139575830Y-105959368D01*
X139566651Y-105939962D01*
X139559419Y-105919750D01*
X139554203Y-105898926D01*
X139551053Y-105877691D01*
X139550000Y-105856250D01*
X139550000Y-105343750D01*
X139551053Y-105322309D01*
X139554203Y-105301074D01*
X139559419Y-105280250D01*
X139566651Y-105260038D01*
X139575830Y-105240632D01*
X139586866Y-105222219D01*
X139599654Y-105204976D01*
X139614070Y-105189070D01*
X139629976Y-105174654D01*
X139647219Y-105161866D01*
X139665632Y-105150830D01*
X139685038Y-105141651D01*
X139705250Y-105134419D01*
X139726074Y-105129203D01*
X139747309Y-105126053D01*
X139768750Y-105125000D01*
X140206250Y-105125000D01*
X140227691Y-105126053D01*
X140227691Y-105126053D01*
G37*
D11*
G04 #@! TD*
G04 #@! TO.P,R2,1*
G04 #@! TO.N,/USB_DM*
X139987500Y-105600000D03*
D10*
G04 #@! TO.N,Net-(JP1-Pad2)*
G04 #@! TO.C,R3*
G36*
X146452691Y-106626053D02*
X146473926Y-106629203D01*
X146494750Y-106634419D01*
X146514962Y-106641651D01*
X146534368Y-106650830D01*
X146552781Y-106661866D01*
X146570024Y-106674654D01*
X146585930Y-106689070D01*
X146600346Y-106704976D01*
X146613134Y-106722219D01*
X146624170Y-106740632D01*
X146633349Y-106760038D01*
X146640581Y-106780250D01*
X146645797Y-106801074D01*
X146648947Y-106822309D01*
X146650000Y-106843750D01*
X146650000Y-107356250D01*
X146648947Y-107377691D01*
X146645797Y-107398926D01*
X146640581Y-107419750D01*
X146633349Y-107439962D01*
X146624170Y-107459368D01*
X146613134Y-107477781D01*
X146600346Y-107495024D01*
X146585930Y-107510930D01*
X146570024Y-107525346D01*
X146552781Y-107538134D01*
X146534368Y-107549170D01*
X146514962Y-107558349D01*
X146494750Y-107565581D01*
X146473926Y-107570797D01*
X146452691Y-107573947D01*
X146431250Y-107575000D01*
X145993750Y-107575000D01*
X145972309Y-107573947D01*
X145951074Y-107570797D01*
X145930250Y-107565581D01*
X145910038Y-107558349D01*
X145890632Y-107549170D01*
X145872219Y-107538134D01*
X145854976Y-107525346D01*
X145839070Y-107510930D01*
X145824654Y-107495024D01*
X145811866Y-107477781D01*
X145800830Y-107459368D01*
X145791651Y-107439962D01*
X145784419Y-107419750D01*
X145779203Y-107398926D01*
X145776053Y-107377691D01*
X145775000Y-107356250D01*
X145775000Y-106843750D01*
X145776053Y-106822309D01*
X145779203Y-106801074D01*
X145784419Y-106780250D01*
X145791651Y-106760038D01*
X145800830Y-106740632D01*
X145811866Y-106722219D01*
X145824654Y-106704976D01*
X145839070Y-106689070D01*
X145854976Y-106674654D01*
X145872219Y-106661866D01*
X145890632Y-106650830D01*
X145910038Y-106641651D01*
X145930250Y-106634419D01*
X145951074Y-106629203D01*
X145972309Y-106626053D01*
X145993750Y-106625000D01*
X146431250Y-106625000D01*
X146452691Y-106626053D01*
X146452691Y-106626053D01*
G37*
D11*
G04 #@! TD*
G04 #@! TO.P,R3,2*
G04 #@! TO.N,Net-(JP1-Pad2)*
X146212500Y-107100000D03*
D10*
G04 #@! TO.N,/BOOT0*
G04 #@! TO.C,R3*
G36*
X148027691Y-106626053D02*
X148048926Y-106629203D01*
X148069750Y-106634419D01*
X148089962Y-106641651D01*
X148109368Y-106650830D01*
X148127781Y-106661866D01*
X148145024Y-106674654D01*
X148160930Y-106689070D01*
X148175346Y-106704976D01*
X148188134Y-106722219D01*
X148199170Y-106740632D01*
X148208349Y-106760038D01*
X148215581Y-106780250D01*
X148220797Y-106801074D01*
X148223947Y-106822309D01*
X148225000Y-106843750D01*
X148225000Y-107356250D01*
X148223947Y-107377691D01*
X148220797Y-107398926D01*
X148215581Y-107419750D01*
X148208349Y-107439962D01*
X148199170Y-107459368D01*
X148188134Y-107477781D01*
X148175346Y-107495024D01*
X148160930Y-107510930D01*
X148145024Y-107525346D01*
X148127781Y-107538134D01*
X148109368Y-107549170D01*
X148089962Y-107558349D01*
X148069750Y-107565581D01*
X148048926Y-107570797D01*
X148027691Y-107573947D01*
X148006250Y-107575000D01*
X147568750Y-107575000D01*
X147547309Y-107573947D01*
X147526074Y-107570797D01*
X147505250Y-107565581D01*
X147485038Y-107558349D01*
X147465632Y-107549170D01*
X147447219Y-107538134D01*
X147429976Y-107525346D01*
X147414070Y-107510930D01*
X147399654Y-107495024D01*
X147386866Y-107477781D01*
X147375830Y-107459368D01*
X147366651Y-107439962D01*
X147359419Y-107419750D01*
X147354203Y-107398926D01*
X147351053Y-107377691D01*
X147350000Y-107356250D01*
X147350000Y-106843750D01*
X147351053Y-106822309D01*
X147354203Y-106801074D01*
X147359419Y-106780250D01*
X147366651Y-106760038D01*
X147375830Y-106740632D01*
X147386866Y-106722219D01*
X147399654Y-106704976D01*
X147414070Y-106689070D01*
X147429976Y-106674654D01*
X147447219Y-106661866D01*
X147465632Y-106650830D01*
X147485038Y-106641651D01*
X147505250Y-106634419D01*
X147526074Y-106629203D01*
X147547309Y-106626053D01*
X147568750Y-106625000D01*
X148006250Y-106625000D01*
X148027691Y-106626053D01*
X148027691Y-106626053D01*
G37*
D11*
G04 #@! TD*
G04 #@! TO.P,R3,1*
G04 #@! TO.N,/BOOT0*
X147787500Y-107100000D03*
D10*
G04 #@! TO.N,+3V3*
G04 #@! TO.C,R4*
G36*
X140227691Y-103526053D02*
X140248926Y-103529203D01*
X140269750Y-103534419D01*
X140289962Y-103541651D01*
X140309368Y-103550830D01*
X140327781Y-103561866D01*
X140345024Y-103574654D01*
X140360930Y-103589070D01*
X140375346Y-103604976D01*
X140388134Y-103622219D01*
X140399170Y-103640632D01*
X140408349Y-103660038D01*
X140415581Y-103680250D01*
X140420797Y-103701074D01*
X140423947Y-103722309D01*
X140425000Y-103743750D01*
X140425000Y-104256250D01*
X140423947Y-104277691D01*
X140420797Y-104298926D01*
X140415581Y-104319750D01*
X140408349Y-104339962D01*
X140399170Y-104359368D01*
X140388134Y-104377781D01*
X140375346Y-104395024D01*
X140360930Y-104410930D01*
X140345024Y-104425346D01*
X140327781Y-104438134D01*
X140309368Y-104449170D01*
X140289962Y-104458349D01*
X140269750Y-104465581D01*
X140248926Y-104470797D01*
X140227691Y-104473947D01*
X140206250Y-104475000D01*
X139768750Y-104475000D01*
X139747309Y-104473947D01*
X139726074Y-104470797D01*
X139705250Y-104465581D01*
X139685038Y-104458349D01*
X139665632Y-104449170D01*
X139647219Y-104438134D01*
X139629976Y-104425346D01*
X139614070Y-104410930D01*
X139599654Y-104395024D01*
X139586866Y-104377781D01*
X139575830Y-104359368D01*
X139566651Y-104339962D01*
X139559419Y-104319750D01*
X139554203Y-104298926D01*
X139551053Y-104277691D01*
X139550000Y-104256250D01*
X139550000Y-103743750D01*
X139551053Y-103722309D01*
X139554203Y-103701074D01*
X139559419Y-103680250D01*
X139566651Y-103660038D01*
X139575830Y-103640632D01*
X139586866Y-103622219D01*
X139599654Y-103604976D01*
X139614070Y-103589070D01*
X139629976Y-103574654D01*
X139647219Y-103561866D01*
X139665632Y-103550830D01*
X139685038Y-103541651D01*
X139705250Y-103534419D01*
X139726074Y-103529203D01*
X139747309Y-103526053D01*
X139768750Y-103525000D01*
X140206250Y-103525000D01*
X140227691Y-103526053D01*
X140227691Y-103526053D01*
G37*
D11*
G04 #@! TD*
G04 #@! TO.P,R4,1*
G04 #@! TO.N,+3V3*
X139987500Y-104000000D03*
D10*
G04 #@! TO.N,/USB_DP*
G04 #@! TO.C,R4*
G36*
X138652691Y-103526053D02*
X138673926Y-103529203D01*
X138694750Y-103534419D01*
X138714962Y-103541651D01*
X138734368Y-103550830D01*
X138752781Y-103561866D01*
X138770024Y-103574654D01*
X138785930Y-103589070D01*
X138800346Y-103604976D01*
X138813134Y-103622219D01*
X138824170Y-103640632D01*
X138833349Y-103660038D01*
X138840581Y-103680250D01*
X138845797Y-103701074D01*
X138848947Y-103722309D01*
X138850000Y-103743750D01*
X138850000Y-104256250D01*
X138848947Y-104277691D01*
X138845797Y-104298926D01*
X138840581Y-104319750D01*
X138833349Y-104339962D01*
X138824170Y-104359368D01*
X138813134Y-104377781D01*
X138800346Y-104395024D01*
X138785930Y-104410930D01*
X138770024Y-104425346D01*
X138752781Y-104438134D01*
X138734368Y-104449170D01*
X138714962Y-104458349D01*
X138694750Y-104465581D01*
X138673926Y-104470797D01*
X138652691Y-104473947D01*
X138631250Y-104475000D01*
X138193750Y-104475000D01*
X138172309Y-104473947D01*
X138151074Y-104470797D01*
X138130250Y-104465581D01*
X138110038Y-104458349D01*
X138090632Y-104449170D01*
X138072219Y-104438134D01*
X138054976Y-104425346D01*
X138039070Y-104410930D01*
X138024654Y-104395024D01*
X138011866Y-104377781D01*
X138000830Y-104359368D01*
X137991651Y-104339962D01*
X137984419Y-104319750D01*
X137979203Y-104298926D01*
X137976053Y-104277691D01*
X137975000Y-104256250D01*
X137975000Y-103743750D01*
X137976053Y-103722309D01*
X137979203Y-103701074D01*
X137984419Y-103680250D01*
X137991651Y-103660038D01*
X138000830Y-103640632D01*
X138011866Y-103622219D01*
X138024654Y-103604976D01*
X138039070Y-103589070D01*
X138054976Y-103574654D01*
X138072219Y-103561866D01*
X138090632Y-103550830D01*
X138110038Y-103541651D01*
X138130250Y-103534419D01*
X138151074Y-103529203D01*
X138172309Y-103526053D01*
X138193750Y-103525000D01*
X138631250Y-103525000D01*
X138652691Y-103526053D01*
X138652691Y-103526053D01*
G37*
D11*
G04 #@! TD*
G04 #@! TO.P,R4,2*
G04 #@! TO.N,/USB_DP*
X138412500Y-104000000D03*
D10*
G04 #@! TO.N,Net-(JP2-Pad2)*
G04 #@! TO.C,R5*
G36*
X138652691Y-100326053D02*
X138673926Y-100329203D01*
X138694750Y-100334419D01*
X138714962Y-100341651D01*
X138734368Y-100350830D01*
X138752781Y-100361866D01*
X138770024Y-100374654D01*
X138785930Y-100389070D01*
X138800346Y-100404976D01*
X138813134Y-100422219D01*
X138824170Y-100440632D01*
X138833349Y-100460038D01*
X138840581Y-100480250D01*
X138845797Y-100501074D01*
X138848947Y-100522309D01*
X138850000Y-100543750D01*
X138850000Y-101056250D01*
X138848947Y-101077691D01*
X138845797Y-101098926D01*
X138840581Y-101119750D01*
X138833349Y-101139962D01*
X138824170Y-101159368D01*
X138813134Y-101177781D01*
X138800346Y-101195024D01*
X138785930Y-101210930D01*
X138770024Y-101225346D01*
X138752781Y-101238134D01*
X138734368Y-101249170D01*
X138714962Y-101258349D01*
X138694750Y-101265581D01*
X138673926Y-101270797D01*
X138652691Y-101273947D01*
X138631250Y-101275000D01*
X138193750Y-101275000D01*
X138172309Y-101273947D01*
X138151074Y-101270797D01*
X138130250Y-101265581D01*
X138110038Y-101258349D01*
X138090632Y-101249170D01*
X138072219Y-101238134D01*
X138054976Y-101225346D01*
X138039070Y-101210930D01*
X138024654Y-101195024D01*
X138011866Y-101177781D01*
X138000830Y-101159368D01*
X137991651Y-101139962D01*
X137984419Y-101119750D01*
X137979203Y-101098926D01*
X137976053Y-101077691D01*
X137975000Y-101056250D01*
X137975000Y-100543750D01*
X137976053Y-100522309D01*
X137979203Y-100501074D01*
X137984419Y-100480250D01*
X137991651Y-100460038D01*
X138000830Y-100440632D01*
X138011866Y-100422219D01*
X138024654Y-100404976D01*
X138039070Y-100389070D01*
X138054976Y-100374654D01*
X138072219Y-100361866D01*
X138090632Y-100350830D01*
X138110038Y-100341651D01*
X138130250Y-100334419D01*
X138151074Y-100329203D01*
X138172309Y-100326053D01*
X138193750Y-100325000D01*
X138631250Y-100325000D01*
X138652691Y-100326053D01*
X138652691Y-100326053D01*
G37*
D11*
G04 #@! TD*
G04 #@! TO.P,R5,1*
G04 #@! TO.N,Net-(JP2-Pad2)*
X138412500Y-100800000D03*
D10*
G04 #@! TO.N,/BOOT1*
G04 #@! TO.C,R5*
G36*
X140227691Y-100326053D02*
X140248926Y-100329203D01*
X140269750Y-100334419D01*
X140289962Y-100341651D01*
X140309368Y-100350830D01*
X140327781Y-100361866D01*
X140345024Y-100374654D01*
X140360930Y-100389070D01*
X140375346Y-100404976D01*
X140388134Y-100422219D01*
X140399170Y-100440632D01*
X140408349Y-100460038D01*
X140415581Y-100480250D01*
X140420797Y-100501074D01*
X140423947Y-100522309D01*
X140425000Y-100543750D01*
X140425000Y-101056250D01*
X140423947Y-101077691D01*
X140420797Y-101098926D01*
X140415581Y-101119750D01*
X140408349Y-101139962D01*
X140399170Y-101159368D01*
X140388134Y-101177781D01*
X140375346Y-101195024D01*
X140360930Y-101210930D01*
X140345024Y-101225346D01*
X140327781Y-101238134D01*
X140309368Y-101249170D01*
X140289962Y-101258349D01*
X140269750Y-101265581D01*
X140248926Y-101270797D01*
X140227691Y-101273947D01*
X140206250Y-101275000D01*
X139768750Y-101275000D01*
X139747309Y-101273947D01*
X139726074Y-101270797D01*
X139705250Y-101265581D01*
X139685038Y-101258349D01*
X139665632Y-101249170D01*
X139647219Y-101238134D01*
X139629976Y-101225346D01*
X139614070Y-101210930D01*
X139599654Y-101195024D01*
X139586866Y-101177781D01*
X139575830Y-101159368D01*
X139566651Y-101139962D01*
X139559419Y-101119750D01*
X139554203Y-101098926D01*
X139551053Y-101077691D01*
X139550000Y-101056250D01*
X139550000Y-100543750D01*
X139551053Y-100522309D01*
X139554203Y-100501074D01*
X139559419Y-100480250D01*
X139566651Y-100460038D01*
X139575830Y-100440632D01*
X139586866Y-100422219D01*
X139599654Y-100404976D01*
X139614070Y-100389070D01*
X139629976Y-100374654D01*
X139647219Y-100361866D01*
X139665632Y-100350830D01*
X139685038Y-100341651D01*
X139705250Y-100334419D01*
X139726074Y-100329203D01*
X139747309Y-100326053D01*
X139768750Y-100325000D01*
X140206250Y-100325000D01*
X140227691Y-100326053D01*
X140227691Y-100326053D01*
G37*
D11*
G04 #@! TD*
G04 #@! TO.P,R5,2*
G04 #@! TO.N,/BOOT1*
X139987500Y-100800000D03*
D10*
G04 #@! TO.N,Net-(C4-Pad2)*
G04 #@! TO.C,R10*
G36*
X148077691Y-109751053D02*
X148098926Y-109754203D01*
X148119750Y-109759419D01*
X148139962Y-109766651D01*
X148159368Y-109775830D01*
X148177781Y-109786866D01*
X148195024Y-109799654D01*
X148210930Y-109814070D01*
X148225346Y-109829976D01*
X148238134Y-109847219D01*
X148249170Y-109865632D01*
X148258349Y-109885038D01*
X148265581Y-109905250D01*
X148270797Y-109926074D01*
X148273947Y-109947309D01*
X148275000Y-109968750D01*
X148275000Y-110406250D01*
X148273947Y-110427691D01*
X148270797Y-110448926D01*
X148265581Y-110469750D01*
X148258349Y-110489962D01*
X148249170Y-110509368D01*
X148238134Y-110527781D01*
X148225346Y-110545024D01*
X148210930Y-110560930D01*
X148195024Y-110575346D01*
X148177781Y-110588134D01*
X148159368Y-110599170D01*
X148139962Y-110608349D01*
X148119750Y-110615581D01*
X148098926Y-110620797D01*
X148077691Y-110623947D01*
X148056250Y-110625000D01*
X147543750Y-110625000D01*
X147522309Y-110623947D01*
X147501074Y-110620797D01*
X147480250Y-110615581D01*
X147460038Y-110608349D01*
X147440632Y-110599170D01*
X147422219Y-110588134D01*
X147404976Y-110575346D01*
X147389070Y-110560930D01*
X147374654Y-110545024D01*
X147361866Y-110527781D01*
X147350830Y-110509368D01*
X147341651Y-110489962D01*
X147334419Y-110469750D01*
X147329203Y-110448926D01*
X147326053Y-110427691D01*
X147325000Y-110406250D01*
X147325000Y-109968750D01*
X147326053Y-109947309D01*
X147329203Y-109926074D01*
X147334419Y-109905250D01*
X147341651Y-109885038D01*
X147350830Y-109865632D01*
X147361866Y-109847219D01*
X147374654Y-109829976D01*
X147389070Y-109814070D01*
X147404976Y-109799654D01*
X147422219Y-109786866D01*
X147440632Y-109775830D01*
X147460038Y-109766651D01*
X147480250Y-109759419D01*
X147501074Y-109754203D01*
X147522309Y-109751053D01*
X147543750Y-109750000D01*
X148056250Y-109750000D01*
X148077691Y-109751053D01*
X148077691Y-109751053D01*
G37*
D11*
G04 #@! TD*
G04 #@! TO.P,R10,2*
G04 #@! TO.N,Net-(C4-Pad2)*
X147800000Y-110187500D03*
D10*
G04 #@! TO.N,+3V3*
G04 #@! TO.C,R10*
G36*
X148077691Y-108176053D02*
X148098926Y-108179203D01*
X148119750Y-108184419D01*
X148139962Y-108191651D01*
X148159368Y-108200830D01*
X148177781Y-108211866D01*
X148195024Y-108224654D01*
X148210930Y-108239070D01*
X148225346Y-108254976D01*
X148238134Y-108272219D01*
X148249170Y-108290632D01*
X148258349Y-108310038D01*
X148265581Y-108330250D01*
X148270797Y-108351074D01*
X148273947Y-108372309D01*
X148275000Y-108393750D01*
X148275000Y-108831250D01*
X148273947Y-108852691D01*
X148270797Y-108873926D01*
X148265581Y-108894750D01*
X148258349Y-108914962D01*
X148249170Y-108934368D01*
X148238134Y-108952781D01*
X148225346Y-108970024D01*
X148210930Y-108985930D01*
X148195024Y-109000346D01*
X148177781Y-109013134D01*
X148159368Y-109024170D01*
X148139962Y-109033349D01*
X148119750Y-109040581D01*
X148098926Y-109045797D01*
X148077691Y-109048947D01*
X148056250Y-109050000D01*
X147543750Y-109050000D01*
X147522309Y-109048947D01*
X147501074Y-109045797D01*
X147480250Y-109040581D01*
X147460038Y-109033349D01*
X147440632Y-109024170D01*
X147422219Y-109013134D01*
X147404976Y-109000346D01*
X147389070Y-108985930D01*
X147374654Y-108970024D01*
X147361866Y-108952781D01*
X147350830Y-108934368D01*
X147341651Y-108914962D01*
X147334419Y-108894750D01*
X147329203Y-108873926D01*
X147326053Y-108852691D01*
X147325000Y-108831250D01*
X147325000Y-108393750D01*
X147326053Y-108372309D01*
X147329203Y-108351074D01*
X147334419Y-108330250D01*
X147341651Y-108310038D01*
X147350830Y-108290632D01*
X147361866Y-108272219D01*
X147374654Y-108254976D01*
X147389070Y-108239070D01*
X147404976Y-108224654D01*
X147422219Y-108211866D01*
X147440632Y-108200830D01*
X147460038Y-108191651D01*
X147480250Y-108184419D01*
X147501074Y-108179203D01*
X147522309Y-108176053D01*
X147543750Y-108175000D01*
X148056250Y-108175000D01*
X148077691Y-108176053D01*
X148077691Y-108176053D01*
G37*
D11*
G04 #@! TD*
G04 #@! TO.P,R10,1*
G04 #@! TO.N,+3V3*
X147800000Y-108612500D03*
D10*
G04 #@! TO.N,/LED1*
G04 #@! TO.C,R11*
G36*
X154964691Y-102826053D02*
X154985926Y-102829203D01*
X155006750Y-102834419D01*
X155026962Y-102841651D01*
X155046368Y-102850830D01*
X155064781Y-102861866D01*
X155082024Y-102874654D01*
X155097930Y-102889070D01*
X155112346Y-102904976D01*
X155125134Y-102922219D01*
X155136170Y-102940632D01*
X155145349Y-102960038D01*
X155152581Y-102980250D01*
X155157797Y-103001074D01*
X155160947Y-103022309D01*
X155162000Y-103043750D01*
X155162000Y-103556250D01*
X155160947Y-103577691D01*
X155157797Y-103598926D01*
X155152581Y-103619750D01*
X155145349Y-103639962D01*
X155136170Y-103659368D01*
X155125134Y-103677781D01*
X155112346Y-103695024D01*
X155097930Y-103710930D01*
X155082024Y-103725346D01*
X155064781Y-103738134D01*
X155046368Y-103749170D01*
X155026962Y-103758349D01*
X155006750Y-103765581D01*
X154985926Y-103770797D01*
X154964691Y-103773947D01*
X154943250Y-103775000D01*
X154505750Y-103775000D01*
X154484309Y-103773947D01*
X154463074Y-103770797D01*
X154442250Y-103765581D01*
X154422038Y-103758349D01*
X154402632Y-103749170D01*
X154384219Y-103738134D01*
X154366976Y-103725346D01*
X154351070Y-103710930D01*
X154336654Y-103695024D01*
X154323866Y-103677781D01*
X154312830Y-103659368D01*
X154303651Y-103639962D01*
X154296419Y-103619750D01*
X154291203Y-103598926D01*
X154288053Y-103577691D01*
X154287000Y-103556250D01*
X154287000Y-103043750D01*
X154288053Y-103022309D01*
X154291203Y-103001074D01*
X154296419Y-102980250D01*
X154303651Y-102960038D01*
X154312830Y-102940632D01*
X154323866Y-102922219D01*
X154336654Y-102904976D01*
X154351070Y-102889070D01*
X154366976Y-102874654D01*
X154384219Y-102861866D01*
X154402632Y-102850830D01*
X154422038Y-102841651D01*
X154442250Y-102834419D01*
X154463074Y-102829203D01*
X154484309Y-102826053D01*
X154505750Y-102825000D01*
X154943250Y-102825000D01*
X154964691Y-102826053D01*
X154964691Y-102826053D01*
G37*
D11*
G04 #@! TD*
G04 #@! TO.P,R11,2*
G04 #@! TO.N,/LED1*
X154724500Y-103300000D03*
D10*
G04 #@! TO.N,Net-(D1-Pad2)*
G04 #@! TO.C,R11*
G36*
X156539691Y-102826053D02*
X156560926Y-102829203D01*
X156581750Y-102834419D01*
X156601962Y-102841651D01*
X156621368Y-102850830D01*
X156639781Y-102861866D01*
X156657024Y-102874654D01*
X156672930Y-102889070D01*
X156687346Y-102904976D01*
X156700134Y-102922219D01*
X156711170Y-102940632D01*
X156720349Y-102960038D01*
X156727581Y-102980250D01*
X156732797Y-103001074D01*
X156735947Y-103022309D01*
X156737000Y-103043750D01*
X156737000Y-103556250D01*
X156735947Y-103577691D01*
X156732797Y-103598926D01*
X156727581Y-103619750D01*
X156720349Y-103639962D01*
X156711170Y-103659368D01*
X156700134Y-103677781D01*
X156687346Y-103695024D01*
X156672930Y-103710930D01*
X156657024Y-103725346D01*
X156639781Y-103738134D01*
X156621368Y-103749170D01*
X156601962Y-103758349D01*
X156581750Y-103765581D01*
X156560926Y-103770797D01*
X156539691Y-103773947D01*
X156518250Y-103775000D01*
X156080750Y-103775000D01*
X156059309Y-103773947D01*
X156038074Y-103770797D01*
X156017250Y-103765581D01*
X155997038Y-103758349D01*
X155977632Y-103749170D01*
X155959219Y-103738134D01*
X155941976Y-103725346D01*
X155926070Y-103710930D01*
X155911654Y-103695024D01*
X155898866Y-103677781D01*
X155887830Y-103659368D01*
X155878651Y-103639962D01*
X155871419Y-103619750D01*
X155866203Y-103598926D01*
X155863053Y-103577691D01*
X155862000Y-103556250D01*
X155862000Y-103043750D01*
X155863053Y-103022309D01*
X155866203Y-103001074D01*
X155871419Y-102980250D01*
X155878651Y-102960038D01*
X155887830Y-102940632D01*
X155898866Y-102922219D01*
X155911654Y-102904976D01*
X155926070Y-102889070D01*
X155941976Y-102874654D01*
X155959219Y-102861866D01*
X155977632Y-102850830D01*
X155997038Y-102841651D01*
X156017250Y-102834419D01*
X156038074Y-102829203D01*
X156059309Y-102826053D01*
X156080750Y-102825000D01*
X156518250Y-102825000D01*
X156539691Y-102826053D01*
X156539691Y-102826053D01*
G37*
D11*
G04 #@! TD*
G04 #@! TO.P,R11,1*
G04 #@! TO.N,Net-(D1-Pad2)*
X156299500Y-103300000D03*
D10*
G04 #@! TO.N,+3V3*
G04 #@! TO.C,R12*
G36*
X146477691Y-108176053D02*
X146498926Y-108179203D01*
X146519750Y-108184419D01*
X146539962Y-108191651D01*
X146559368Y-108200830D01*
X146577781Y-108211866D01*
X146595024Y-108224654D01*
X146610930Y-108239070D01*
X146625346Y-108254976D01*
X146638134Y-108272219D01*
X146649170Y-108290632D01*
X146658349Y-108310038D01*
X146665581Y-108330250D01*
X146670797Y-108351074D01*
X146673947Y-108372309D01*
X146675000Y-108393750D01*
X146675000Y-108831250D01*
X146673947Y-108852691D01*
X146670797Y-108873926D01*
X146665581Y-108894750D01*
X146658349Y-108914962D01*
X146649170Y-108934368D01*
X146638134Y-108952781D01*
X146625346Y-108970024D01*
X146610930Y-108985930D01*
X146595024Y-109000346D01*
X146577781Y-109013134D01*
X146559368Y-109024170D01*
X146539962Y-109033349D01*
X146519750Y-109040581D01*
X146498926Y-109045797D01*
X146477691Y-109048947D01*
X146456250Y-109050000D01*
X145943750Y-109050000D01*
X145922309Y-109048947D01*
X145901074Y-109045797D01*
X145880250Y-109040581D01*
X145860038Y-109033349D01*
X145840632Y-109024170D01*
X145822219Y-109013134D01*
X145804976Y-109000346D01*
X145789070Y-108985930D01*
X145774654Y-108970024D01*
X145761866Y-108952781D01*
X145750830Y-108934368D01*
X145741651Y-108914962D01*
X145734419Y-108894750D01*
X145729203Y-108873926D01*
X145726053Y-108852691D01*
X145725000Y-108831250D01*
X145725000Y-108393750D01*
X145726053Y-108372309D01*
X145729203Y-108351074D01*
X145734419Y-108330250D01*
X145741651Y-108310038D01*
X145750830Y-108290632D01*
X145761866Y-108272219D01*
X145774654Y-108254976D01*
X145789070Y-108239070D01*
X145804976Y-108224654D01*
X145822219Y-108211866D01*
X145840632Y-108200830D01*
X145860038Y-108191651D01*
X145880250Y-108184419D01*
X145901074Y-108179203D01*
X145922309Y-108176053D01*
X145943750Y-108175000D01*
X146456250Y-108175000D01*
X146477691Y-108176053D01*
X146477691Y-108176053D01*
G37*
D11*
G04 #@! TD*
G04 #@! TO.P,R12,2*
G04 #@! TO.N,+3V3*
X146200000Y-108612500D03*
D10*
G04 #@! TO.N,Net-(D2-Pad2)*
G04 #@! TO.C,R12*
G36*
X146477691Y-109751053D02*
X146498926Y-109754203D01*
X146519750Y-109759419D01*
X146539962Y-109766651D01*
X146559368Y-109775830D01*
X146577781Y-109786866D01*
X146595024Y-109799654D01*
X146610930Y-109814070D01*
X146625346Y-109829976D01*
X146638134Y-109847219D01*
X146649170Y-109865632D01*
X146658349Y-109885038D01*
X146665581Y-109905250D01*
X146670797Y-109926074D01*
X146673947Y-109947309D01*
X146675000Y-109968750D01*
X146675000Y-110406250D01*
X146673947Y-110427691D01*
X146670797Y-110448926D01*
X146665581Y-110469750D01*
X146658349Y-110489962D01*
X146649170Y-110509368D01*
X146638134Y-110527781D01*
X146625346Y-110545024D01*
X146610930Y-110560930D01*
X146595024Y-110575346D01*
X146577781Y-110588134D01*
X146559368Y-110599170D01*
X146539962Y-110608349D01*
X146519750Y-110615581D01*
X146498926Y-110620797D01*
X146477691Y-110623947D01*
X146456250Y-110625000D01*
X145943750Y-110625000D01*
X145922309Y-110623947D01*
X145901074Y-110620797D01*
X145880250Y-110615581D01*
X145860038Y-110608349D01*
X145840632Y-110599170D01*
X145822219Y-110588134D01*
X145804976Y-110575346D01*
X145789070Y-110560930D01*
X145774654Y-110545024D01*
X145761866Y-110527781D01*
X145750830Y-110509368D01*
X145741651Y-110489962D01*
X145734419Y-110469750D01*
X145729203Y-110448926D01*
X145726053Y-110427691D01*
X145725000Y-110406250D01*
X145725000Y-109968750D01*
X145726053Y-109947309D01*
X145729203Y-109926074D01*
X145734419Y-109905250D01*
X145741651Y-109885038D01*
X145750830Y-109865632D01*
X145761866Y-109847219D01*
X145774654Y-109829976D01*
X145789070Y-109814070D01*
X145804976Y-109799654D01*
X145822219Y-109786866D01*
X145840632Y-109775830D01*
X145860038Y-109766651D01*
X145880250Y-109759419D01*
X145901074Y-109754203D01*
X145922309Y-109751053D01*
X145943750Y-109750000D01*
X146456250Y-109750000D01*
X146477691Y-109751053D01*
X146477691Y-109751053D01*
G37*
D11*
G04 #@! TD*
G04 #@! TO.P,R12,1*
G04 #@! TO.N,Net-(D2-Pad2)*
X146200000Y-110187500D03*
D10*
G04 #@! TO.N,GND*
G04 #@! TO.C,U1*
G36*
X147824503Y-99951204D02*
X147848772Y-99954804D01*
X147872570Y-99960765D01*
X147895670Y-99969030D01*
X147917849Y-99979520D01*
X147938892Y-99992133D01*
X147958598Y-100006748D01*
X147976776Y-100023224D01*
X147993252Y-100041402D01*
X148007867Y-100061108D01*
X148020480Y-100082151D01*
X148030970Y-100104330D01*
X148039235Y-100127430D01*
X148045196Y-100151228D01*
X148048796Y-100175497D01*
X148050000Y-100200001D01*
X148050000Y-103799999D01*
X148048796Y-103824503D01*
X148045196Y-103848772D01*
X148039235Y-103872570D01*
X148030970Y-103895670D01*
X148020480Y-103917849D01*
X148007867Y-103938892D01*
X147993252Y-103958598D01*
X147976776Y-103976776D01*
X147958598Y-103993252D01*
X147938892Y-104007867D01*
X147917849Y-104020480D01*
X147895670Y-104030970D01*
X147872570Y-104039235D01*
X147848772Y-104045196D01*
X147824503Y-104048796D01*
X147799999Y-104050000D01*
X144200001Y-104050000D01*
X144175497Y-104048796D01*
X144151228Y-104045196D01*
X144127430Y-104039235D01*
X144104330Y-104030970D01*
X144082151Y-104020480D01*
X144061108Y-104007867D01*
X144041402Y-103993252D01*
X144023224Y-103976776D01*
X144006748Y-103958598D01*
X143992133Y-103938892D01*
X143979520Y-103917849D01*
X143969030Y-103895670D01*
X143960765Y-103872570D01*
X143954804Y-103848772D01*
X143951204Y-103824503D01*
X143950000Y-103799999D01*
X143950000Y-100200001D01*
X143951204Y-100175497D01*
X143954804Y-100151228D01*
X143960765Y-100127430D01*
X143969030Y-100104330D01*
X143979520Y-100082151D01*
X143992133Y-100061108D01*
X144006748Y-100041402D01*
X144023224Y-100023224D01*
X144041402Y-100006748D01*
X144061108Y-99992133D01*
X144082151Y-99979520D01*
X144104330Y-99969030D01*
X144127430Y-99960765D01*
X144151228Y-99954804D01*
X144175497Y-99951204D01*
X144200001Y-99950000D01*
X147799999Y-99950000D01*
X147824503Y-99951204D01*
X147824503Y-99951204D01*
G37*
D15*
G04 #@! TD*
G04 #@! TO.P,U1,37*
G04 #@! TO.N,GND*
X146000000Y-102000000D03*
D10*
G04 #@! TO.N,+3V3*
G04 #@! TO.C,U1*
G36*
X149318626Y-103875301D02*
X149324693Y-103876201D01*
X149330643Y-103877691D01*
X149336418Y-103879758D01*
X149341962Y-103882380D01*
X149347223Y-103885533D01*
X149352150Y-103889187D01*
X149356694Y-103893306D01*
X149360813Y-103897850D01*
X149364467Y-103902777D01*
X149367620Y-103908038D01*
X149370242Y-103913582D01*
X149372309Y-103919357D01*
X149373799Y-103925307D01*
X149374699Y-103931374D01*
X149375000Y-103937500D01*
X149375000Y-104062500D01*
X149374699Y-104068626D01*
X149373799Y-104074693D01*
X149372309Y-104080643D01*
X149370242Y-104086418D01*
X149367620Y-104091962D01*
X149364467Y-104097223D01*
X149360813Y-104102150D01*
X149356694Y-104106694D01*
X149352150Y-104110813D01*
X149347223Y-104114467D01*
X149341962Y-104117620D01*
X149336418Y-104120242D01*
X149330643Y-104122309D01*
X149324693Y-104123799D01*
X149318626Y-104124699D01*
X149312500Y-104125000D01*
X148362500Y-104125000D01*
X148356374Y-104124699D01*
X148350307Y-104123799D01*
X148344357Y-104122309D01*
X148338582Y-104120242D01*
X148333038Y-104117620D01*
X148327777Y-104114467D01*
X148322850Y-104110813D01*
X148318306Y-104106694D01*
X148314187Y-104102150D01*
X148310533Y-104097223D01*
X148307380Y-104091962D01*
X148304758Y-104086418D01*
X148302691Y-104080643D01*
X148301201Y-104074693D01*
X148300301Y-104068626D01*
X148300000Y-104062500D01*
X148300000Y-103937500D01*
X148300301Y-103931374D01*
X148301201Y-103925307D01*
X148302691Y-103919357D01*
X148304758Y-103913582D01*
X148307380Y-103908038D01*
X148310533Y-103902777D01*
X148314187Y-103897850D01*
X148318306Y-103893306D01*
X148322850Y-103889187D01*
X148327777Y-103885533D01*
X148333038Y-103882380D01*
X148338582Y-103879758D01*
X148344357Y-103877691D01*
X148350307Y-103876201D01*
X148356374Y-103875301D01*
X148362500Y-103875000D01*
X149312500Y-103875000D01*
X149318626Y-103875301D01*
X149318626Y-103875301D01*
G37*
D16*
G04 #@! TD*
G04 #@! TO.P,U1,1*
G04 #@! TO.N,+3V3*
X148837500Y-104000000D03*
D10*
G04 #@! TO.N,Net-(U1-Pad2)*
G04 #@! TO.C,U1*
G36*
X149318626Y-103375301D02*
X149324693Y-103376201D01*
X149330643Y-103377691D01*
X149336418Y-103379758D01*
X149341962Y-103382380D01*
X149347223Y-103385533D01*
X149352150Y-103389187D01*
X149356694Y-103393306D01*
X149360813Y-103397850D01*
X149364467Y-103402777D01*
X149367620Y-103408038D01*
X149370242Y-103413582D01*
X149372309Y-103419357D01*
X149373799Y-103425307D01*
X149374699Y-103431374D01*
X149375000Y-103437500D01*
X149375000Y-103562500D01*
X149374699Y-103568626D01*
X149373799Y-103574693D01*
X149372309Y-103580643D01*
X149370242Y-103586418D01*
X149367620Y-103591962D01*
X149364467Y-103597223D01*
X149360813Y-103602150D01*
X149356694Y-103606694D01*
X149352150Y-103610813D01*
X149347223Y-103614467D01*
X149341962Y-103617620D01*
X149336418Y-103620242D01*
X149330643Y-103622309D01*
X149324693Y-103623799D01*
X149318626Y-103624699D01*
X149312500Y-103625000D01*
X148362500Y-103625000D01*
X148356374Y-103624699D01*
X148350307Y-103623799D01*
X148344357Y-103622309D01*
X148338582Y-103620242D01*
X148333038Y-103617620D01*
X148327777Y-103614467D01*
X148322850Y-103610813D01*
X148318306Y-103606694D01*
X148314187Y-103602150D01*
X148310533Y-103597223D01*
X148307380Y-103591962D01*
X148304758Y-103586418D01*
X148302691Y-103580643D01*
X148301201Y-103574693D01*
X148300301Y-103568626D01*
X148300000Y-103562500D01*
X148300000Y-103437500D01*
X148300301Y-103431374D01*
X148301201Y-103425307D01*
X148302691Y-103419357D01*
X148304758Y-103413582D01*
X148307380Y-103408038D01*
X148310533Y-103402777D01*
X148314187Y-103397850D01*
X148318306Y-103393306D01*
X148322850Y-103389187D01*
X148327777Y-103385533D01*
X148333038Y-103382380D01*
X148338582Y-103379758D01*
X148344357Y-103377691D01*
X148350307Y-103376201D01*
X148356374Y-103375301D01*
X148362500Y-103375000D01*
X149312500Y-103375000D01*
X149318626Y-103375301D01*
X149318626Y-103375301D01*
G37*
D16*
G04 #@! TD*
G04 #@! TO.P,U1,2*
G04 #@! TO.N,Net-(U1-Pad2)*
X148837500Y-103500000D03*
D10*
G04 #@! TO.N,Net-(U1-Pad3)*
G04 #@! TO.C,U1*
G36*
X149318626Y-102875301D02*
X149324693Y-102876201D01*
X149330643Y-102877691D01*
X149336418Y-102879758D01*
X149341962Y-102882380D01*
X149347223Y-102885533D01*
X149352150Y-102889187D01*
X149356694Y-102893306D01*
X149360813Y-102897850D01*
X149364467Y-102902777D01*
X149367620Y-102908038D01*
X149370242Y-102913582D01*
X149372309Y-102919357D01*
X149373799Y-102925307D01*
X149374699Y-102931374D01*
X149375000Y-102937500D01*
X149375000Y-103062500D01*
X149374699Y-103068626D01*
X149373799Y-103074693D01*
X149372309Y-103080643D01*
X149370242Y-103086418D01*
X149367620Y-103091962D01*
X149364467Y-103097223D01*
X149360813Y-103102150D01*
X149356694Y-103106694D01*
X149352150Y-103110813D01*
X149347223Y-103114467D01*
X149341962Y-103117620D01*
X149336418Y-103120242D01*
X149330643Y-103122309D01*
X149324693Y-103123799D01*
X149318626Y-103124699D01*
X149312500Y-103125000D01*
X148362500Y-103125000D01*
X148356374Y-103124699D01*
X148350307Y-103123799D01*
X148344357Y-103122309D01*
X148338582Y-103120242D01*
X148333038Y-103117620D01*
X148327777Y-103114467D01*
X148322850Y-103110813D01*
X148318306Y-103106694D01*
X148314187Y-103102150D01*
X148310533Y-103097223D01*
X148307380Y-103091962D01*
X148304758Y-103086418D01*
X148302691Y-103080643D01*
X148301201Y-103074693D01*
X148300301Y-103068626D01*
X148300000Y-103062500D01*
X148300000Y-102937500D01*
X148300301Y-102931374D01*
X148301201Y-102925307D01*
X148302691Y-102919357D01*
X148304758Y-102913582D01*
X148307380Y-102908038D01*
X148310533Y-102902777D01*
X148314187Y-102897850D01*
X148318306Y-102893306D01*
X148322850Y-102889187D01*
X148327777Y-102885533D01*
X148333038Y-102882380D01*
X148338582Y-102879758D01*
X148344357Y-102877691D01*
X148350307Y-102876201D01*
X148356374Y-102875301D01*
X148362500Y-102875000D01*
X149312500Y-102875000D01*
X149318626Y-102875301D01*
X149318626Y-102875301D01*
G37*
D16*
G04 #@! TD*
G04 #@! TO.P,U1,3*
G04 #@! TO.N,Net-(U1-Pad3)*
X148837500Y-103000000D03*
D10*
G04 #@! TO.N,/~RESET*
G04 #@! TO.C,U1*
G36*
X149318626Y-102375301D02*
X149324693Y-102376201D01*
X149330643Y-102377691D01*
X149336418Y-102379758D01*
X149341962Y-102382380D01*
X149347223Y-102385533D01*
X149352150Y-102389187D01*
X149356694Y-102393306D01*
X149360813Y-102397850D01*
X149364467Y-102402777D01*
X149367620Y-102408038D01*
X149370242Y-102413582D01*
X149372309Y-102419357D01*
X149373799Y-102425307D01*
X149374699Y-102431374D01*
X149375000Y-102437500D01*
X149375000Y-102562500D01*
X149374699Y-102568626D01*
X149373799Y-102574693D01*
X149372309Y-102580643D01*
X149370242Y-102586418D01*
X149367620Y-102591962D01*
X149364467Y-102597223D01*
X149360813Y-102602150D01*
X149356694Y-102606694D01*
X149352150Y-102610813D01*
X149347223Y-102614467D01*
X149341962Y-102617620D01*
X149336418Y-102620242D01*
X149330643Y-102622309D01*
X149324693Y-102623799D01*
X149318626Y-102624699D01*
X149312500Y-102625000D01*
X148362500Y-102625000D01*
X148356374Y-102624699D01*
X148350307Y-102623799D01*
X148344357Y-102622309D01*
X148338582Y-102620242D01*
X148333038Y-102617620D01*
X148327777Y-102614467D01*
X148322850Y-102610813D01*
X148318306Y-102606694D01*
X148314187Y-102602150D01*
X148310533Y-102597223D01*
X148307380Y-102591962D01*
X148304758Y-102586418D01*
X148302691Y-102580643D01*
X148301201Y-102574693D01*
X148300301Y-102568626D01*
X148300000Y-102562500D01*
X148300000Y-102437500D01*
X148300301Y-102431374D01*
X148301201Y-102425307D01*
X148302691Y-102419357D01*
X148304758Y-102413582D01*
X148307380Y-102408038D01*
X148310533Y-102402777D01*
X148314187Y-102397850D01*
X148318306Y-102393306D01*
X148322850Y-102389187D01*
X148327777Y-102385533D01*
X148333038Y-102382380D01*
X148338582Y-102379758D01*
X148344357Y-102377691D01*
X148350307Y-102376201D01*
X148356374Y-102375301D01*
X148362500Y-102375000D01*
X149312500Y-102375000D01*
X149318626Y-102375301D01*
X149318626Y-102375301D01*
G37*
D16*
G04 #@! TD*
G04 #@! TO.P,U1,4*
G04 #@! TO.N,/~RESET*
X148837500Y-102500000D03*
D10*
G04 #@! TO.N,GND*
G04 #@! TO.C,U1*
G36*
X149318626Y-101875301D02*
X149324693Y-101876201D01*
X149330643Y-101877691D01*
X149336418Y-101879758D01*
X149341962Y-101882380D01*
X149347223Y-101885533D01*
X149352150Y-101889187D01*
X149356694Y-101893306D01*
X149360813Y-101897850D01*
X149364467Y-101902777D01*
X149367620Y-101908038D01*
X149370242Y-101913582D01*
X149372309Y-101919357D01*
X149373799Y-101925307D01*
X149374699Y-101931374D01*
X149375000Y-101937500D01*
X149375000Y-102062500D01*
X149374699Y-102068626D01*
X149373799Y-102074693D01*
X149372309Y-102080643D01*
X149370242Y-102086418D01*
X149367620Y-102091962D01*
X149364467Y-102097223D01*
X149360813Y-102102150D01*
X149356694Y-102106694D01*
X149352150Y-102110813D01*
X149347223Y-102114467D01*
X149341962Y-102117620D01*
X149336418Y-102120242D01*
X149330643Y-102122309D01*
X149324693Y-102123799D01*
X149318626Y-102124699D01*
X149312500Y-102125000D01*
X148362500Y-102125000D01*
X148356374Y-102124699D01*
X148350307Y-102123799D01*
X148344357Y-102122309D01*
X148338582Y-102120242D01*
X148333038Y-102117620D01*
X148327777Y-102114467D01*
X148322850Y-102110813D01*
X148318306Y-102106694D01*
X148314187Y-102102150D01*
X148310533Y-102097223D01*
X148307380Y-102091962D01*
X148304758Y-102086418D01*
X148302691Y-102080643D01*
X148301201Y-102074693D01*
X148300301Y-102068626D01*
X148300000Y-102062500D01*
X148300000Y-101937500D01*
X148300301Y-101931374D01*
X148301201Y-101925307D01*
X148302691Y-101919357D01*
X148304758Y-101913582D01*
X148307380Y-101908038D01*
X148310533Y-101902777D01*
X148314187Y-101897850D01*
X148318306Y-101893306D01*
X148322850Y-101889187D01*
X148327777Y-101885533D01*
X148333038Y-101882380D01*
X148338582Y-101879758D01*
X148344357Y-101877691D01*
X148350307Y-101876201D01*
X148356374Y-101875301D01*
X148362500Y-101875000D01*
X149312500Y-101875000D01*
X149318626Y-101875301D01*
X149318626Y-101875301D01*
G37*
D16*
G04 #@! TD*
G04 #@! TO.P,U1,5*
G04 #@! TO.N,GND*
X148837500Y-102000000D03*
D10*
G04 #@! TO.N,+3V3*
G04 #@! TO.C,U1*
G36*
X149318626Y-101375301D02*
X149324693Y-101376201D01*
X149330643Y-101377691D01*
X149336418Y-101379758D01*
X149341962Y-101382380D01*
X149347223Y-101385533D01*
X149352150Y-101389187D01*
X149356694Y-101393306D01*
X149360813Y-101397850D01*
X149364467Y-101402777D01*
X149367620Y-101408038D01*
X149370242Y-101413582D01*
X149372309Y-101419357D01*
X149373799Y-101425307D01*
X149374699Y-101431374D01*
X149375000Y-101437500D01*
X149375000Y-101562500D01*
X149374699Y-101568626D01*
X149373799Y-101574693D01*
X149372309Y-101580643D01*
X149370242Y-101586418D01*
X149367620Y-101591962D01*
X149364467Y-101597223D01*
X149360813Y-101602150D01*
X149356694Y-101606694D01*
X149352150Y-101610813D01*
X149347223Y-101614467D01*
X149341962Y-101617620D01*
X149336418Y-101620242D01*
X149330643Y-101622309D01*
X149324693Y-101623799D01*
X149318626Y-101624699D01*
X149312500Y-101625000D01*
X148362500Y-101625000D01*
X148356374Y-101624699D01*
X148350307Y-101623799D01*
X148344357Y-101622309D01*
X148338582Y-101620242D01*
X148333038Y-101617620D01*
X148327777Y-101614467D01*
X148322850Y-101610813D01*
X148318306Y-101606694D01*
X148314187Y-101602150D01*
X148310533Y-101597223D01*
X148307380Y-101591962D01*
X148304758Y-101586418D01*
X148302691Y-101580643D01*
X148301201Y-101574693D01*
X148300301Y-101568626D01*
X148300000Y-101562500D01*
X148300000Y-101437500D01*
X148300301Y-101431374D01*
X148301201Y-101425307D01*
X148302691Y-101419357D01*
X148304758Y-101413582D01*
X148307380Y-101408038D01*
X148310533Y-101402777D01*
X148314187Y-101397850D01*
X148318306Y-101393306D01*
X148322850Y-101389187D01*
X148327777Y-101385533D01*
X148333038Y-101382380D01*
X148338582Y-101379758D01*
X148344357Y-101377691D01*
X148350307Y-101376201D01*
X148356374Y-101375301D01*
X148362500Y-101375000D01*
X149312500Y-101375000D01*
X149318626Y-101375301D01*
X149318626Y-101375301D01*
G37*
D16*
G04 #@! TD*
G04 #@! TO.P,U1,6*
G04 #@! TO.N,+3V3*
X148837500Y-101500000D03*
D10*
G04 #@! TO.N,/LINE_OUT*
G04 #@! TO.C,U1*
G36*
X149318626Y-100875301D02*
X149324693Y-100876201D01*
X149330643Y-100877691D01*
X149336418Y-100879758D01*
X149341962Y-100882380D01*
X149347223Y-100885533D01*
X149352150Y-100889187D01*
X149356694Y-100893306D01*
X149360813Y-100897850D01*
X149364467Y-100902777D01*
X149367620Y-100908038D01*
X149370242Y-100913582D01*
X149372309Y-100919357D01*
X149373799Y-100925307D01*
X149374699Y-100931374D01*
X149375000Y-100937500D01*
X149375000Y-101062500D01*
X149374699Y-101068626D01*
X149373799Y-101074693D01*
X149372309Y-101080643D01*
X149370242Y-101086418D01*
X149367620Y-101091962D01*
X149364467Y-101097223D01*
X149360813Y-101102150D01*
X149356694Y-101106694D01*
X149352150Y-101110813D01*
X149347223Y-101114467D01*
X149341962Y-101117620D01*
X149336418Y-101120242D01*
X149330643Y-101122309D01*
X149324693Y-101123799D01*
X149318626Y-101124699D01*
X149312500Y-101125000D01*
X148362500Y-101125000D01*
X148356374Y-101124699D01*
X148350307Y-101123799D01*
X148344357Y-101122309D01*
X148338582Y-101120242D01*
X148333038Y-101117620D01*
X148327777Y-101114467D01*
X148322850Y-101110813D01*
X148318306Y-101106694D01*
X148314187Y-101102150D01*
X148310533Y-101097223D01*
X148307380Y-101091962D01*
X148304758Y-101086418D01*
X148302691Y-101080643D01*
X148301201Y-101074693D01*
X148300301Y-101068626D01*
X148300000Y-101062500D01*
X148300000Y-100937500D01*
X148300301Y-100931374D01*
X148301201Y-100925307D01*
X148302691Y-100919357D01*
X148304758Y-100913582D01*
X148307380Y-100908038D01*
X148310533Y-100902777D01*
X148314187Y-100897850D01*
X148318306Y-100893306D01*
X148322850Y-100889187D01*
X148327777Y-100885533D01*
X148333038Y-100882380D01*
X148338582Y-100879758D01*
X148344357Y-100877691D01*
X148350307Y-100876201D01*
X148356374Y-100875301D01*
X148362500Y-100875000D01*
X149312500Y-100875000D01*
X149318626Y-100875301D01*
X149318626Y-100875301D01*
G37*
D16*
G04 #@! TD*
G04 #@! TO.P,U1,7*
G04 #@! TO.N,/LINE_OUT*
X148837500Y-101000000D03*
D10*
G04 #@! TO.N,/MIC_IN*
G04 #@! TO.C,U1*
G36*
X149318626Y-100375301D02*
X149324693Y-100376201D01*
X149330643Y-100377691D01*
X149336418Y-100379758D01*
X149341962Y-100382380D01*
X149347223Y-100385533D01*
X149352150Y-100389187D01*
X149356694Y-100393306D01*
X149360813Y-100397850D01*
X149364467Y-100402777D01*
X149367620Y-100408038D01*
X149370242Y-100413582D01*
X149372309Y-100419357D01*
X149373799Y-100425307D01*
X149374699Y-100431374D01*
X149375000Y-100437500D01*
X149375000Y-100562500D01*
X149374699Y-100568626D01*
X149373799Y-100574693D01*
X149372309Y-100580643D01*
X149370242Y-100586418D01*
X149367620Y-100591962D01*
X149364467Y-100597223D01*
X149360813Y-100602150D01*
X149356694Y-100606694D01*
X149352150Y-100610813D01*
X149347223Y-100614467D01*
X149341962Y-100617620D01*
X149336418Y-100620242D01*
X149330643Y-100622309D01*
X149324693Y-100623799D01*
X149318626Y-100624699D01*
X149312500Y-100625000D01*
X148362500Y-100625000D01*
X148356374Y-100624699D01*
X148350307Y-100623799D01*
X148344357Y-100622309D01*
X148338582Y-100620242D01*
X148333038Y-100617620D01*
X148327777Y-100614467D01*
X148322850Y-100610813D01*
X148318306Y-100606694D01*
X148314187Y-100602150D01*
X148310533Y-100597223D01*
X148307380Y-100591962D01*
X148304758Y-100586418D01*
X148302691Y-100580643D01*
X148301201Y-100574693D01*
X148300301Y-100568626D01*
X148300000Y-100562500D01*
X148300000Y-100437500D01*
X148300301Y-100431374D01*
X148301201Y-100425307D01*
X148302691Y-100419357D01*
X148304758Y-100413582D01*
X148307380Y-100408038D01*
X148310533Y-100402777D01*
X148314187Y-100397850D01*
X148318306Y-100393306D01*
X148322850Y-100389187D01*
X148327777Y-100385533D01*
X148333038Y-100382380D01*
X148338582Y-100379758D01*
X148344357Y-100377691D01*
X148350307Y-100376201D01*
X148356374Y-100375301D01*
X148362500Y-100375000D01*
X149312500Y-100375000D01*
X149318626Y-100375301D01*
X149318626Y-100375301D01*
G37*
D16*
G04 #@! TD*
G04 #@! TO.P,U1,8*
G04 #@! TO.N,/MIC_IN*
X148837500Y-100500000D03*
D10*
G04 #@! TO.N,/LED1*
G04 #@! TO.C,U1*
G36*
X149318626Y-99875301D02*
X149324693Y-99876201D01*
X149330643Y-99877691D01*
X149336418Y-99879758D01*
X149341962Y-99882380D01*
X149347223Y-99885533D01*
X149352150Y-99889187D01*
X149356694Y-99893306D01*
X149360813Y-99897850D01*
X149364467Y-99902777D01*
X149367620Y-99908038D01*
X149370242Y-99913582D01*
X149372309Y-99919357D01*
X149373799Y-99925307D01*
X149374699Y-99931374D01*
X149375000Y-99937500D01*
X149375000Y-100062500D01*
X149374699Y-100068626D01*
X149373799Y-100074693D01*
X149372309Y-100080643D01*
X149370242Y-100086418D01*
X149367620Y-100091962D01*
X149364467Y-100097223D01*
X149360813Y-100102150D01*
X149356694Y-100106694D01*
X149352150Y-100110813D01*
X149347223Y-100114467D01*
X149341962Y-100117620D01*
X149336418Y-100120242D01*
X149330643Y-100122309D01*
X149324693Y-100123799D01*
X149318626Y-100124699D01*
X149312500Y-100125000D01*
X148362500Y-100125000D01*
X148356374Y-100124699D01*
X148350307Y-100123799D01*
X148344357Y-100122309D01*
X148338582Y-100120242D01*
X148333038Y-100117620D01*
X148327777Y-100114467D01*
X148322850Y-100110813D01*
X148318306Y-100106694D01*
X148314187Y-100102150D01*
X148310533Y-100097223D01*
X148307380Y-100091962D01*
X148304758Y-100086418D01*
X148302691Y-100080643D01*
X148301201Y-100074693D01*
X148300301Y-100068626D01*
X148300000Y-100062500D01*
X148300000Y-99937500D01*
X148300301Y-99931374D01*
X148301201Y-99925307D01*
X148302691Y-99919357D01*
X148304758Y-99913582D01*
X148307380Y-99908038D01*
X148310533Y-99902777D01*
X148314187Y-99897850D01*
X148318306Y-99893306D01*
X148322850Y-99889187D01*
X148327777Y-99885533D01*
X148333038Y-99882380D01*
X148338582Y-99879758D01*
X148344357Y-99877691D01*
X148350307Y-99876201D01*
X148356374Y-99875301D01*
X148362500Y-99875000D01*
X149312500Y-99875000D01*
X149318626Y-99875301D01*
X149318626Y-99875301D01*
G37*
D16*
G04 #@! TD*
G04 #@! TO.P,U1,9*
G04 #@! TO.N,/LED1*
X148837500Y-100000000D03*
D10*
G04 #@! TO.N,/LED2*
G04 #@! TO.C,U1*
G36*
X148068626Y-98625301D02*
X148074693Y-98626201D01*
X148080643Y-98627691D01*
X148086418Y-98629758D01*
X148091962Y-98632380D01*
X148097223Y-98635533D01*
X148102150Y-98639187D01*
X148106694Y-98643306D01*
X148110813Y-98647850D01*
X148114467Y-98652777D01*
X148117620Y-98658038D01*
X148120242Y-98663582D01*
X148122309Y-98669357D01*
X148123799Y-98675307D01*
X148124699Y-98681374D01*
X148125000Y-98687500D01*
X148125000Y-99637500D01*
X148124699Y-99643626D01*
X148123799Y-99649693D01*
X148122309Y-99655643D01*
X148120242Y-99661418D01*
X148117620Y-99666962D01*
X148114467Y-99672223D01*
X148110813Y-99677150D01*
X148106694Y-99681694D01*
X148102150Y-99685813D01*
X148097223Y-99689467D01*
X148091962Y-99692620D01*
X148086418Y-99695242D01*
X148080643Y-99697309D01*
X148074693Y-99698799D01*
X148068626Y-99699699D01*
X148062500Y-99700000D01*
X147937500Y-99700000D01*
X147931374Y-99699699D01*
X147925307Y-99698799D01*
X147919357Y-99697309D01*
X147913582Y-99695242D01*
X147908038Y-99692620D01*
X147902777Y-99689467D01*
X147897850Y-99685813D01*
X147893306Y-99681694D01*
X147889187Y-99677150D01*
X147885533Y-99672223D01*
X147882380Y-99666962D01*
X147879758Y-99661418D01*
X147877691Y-99655643D01*
X147876201Y-99649693D01*
X147875301Y-99643626D01*
X147875000Y-99637500D01*
X147875000Y-98687500D01*
X147875301Y-98681374D01*
X147876201Y-98675307D01*
X147877691Y-98669357D01*
X147879758Y-98663582D01*
X147882380Y-98658038D01*
X147885533Y-98652777D01*
X147889187Y-98647850D01*
X147893306Y-98643306D01*
X147897850Y-98639187D01*
X147902777Y-98635533D01*
X147908038Y-98632380D01*
X147913582Y-98629758D01*
X147919357Y-98627691D01*
X147925307Y-98626201D01*
X147931374Y-98625301D01*
X147937500Y-98625000D01*
X148062500Y-98625000D01*
X148068626Y-98625301D01*
X148068626Y-98625301D01*
G37*
D16*
G04 #@! TD*
G04 #@! TO.P,U1,10*
G04 #@! TO.N,/LED2*
X148000000Y-99162500D03*
D10*
G04 #@! TO.N,N/C*
G04 #@! TO.C,U1*
G36*
X147568626Y-98625301D02*
X147574693Y-98626201D01*
X147580643Y-98627691D01*
X147586418Y-98629758D01*
X147591962Y-98632380D01*
X147597223Y-98635533D01*
X147602150Y-98639187D01*
X147606694Y-98643306D01*
X147610813Y-98647850D01*
X147614467Y-98652777D01*
X147617620Y-98658038D01*
X147620242Y-98663582D01*
X147622309Y-98669357D01*
X147623799Y-98675307D01*
X147624699Y-98681374D01*
X147625000Y-98687500D01*
X147625000Y-99637500D01*
X147624699Y-99643626D01*
X147623799Y-99649693D01*
X147622309Y-99655643D01*
X147620242Y-99661418D01*
X147617620Y-99666962D01*
X147614467Y-99672223D01*
X147610813Y-99677150D01*
X147606694Y-99681694D01*
X147602150Y-99685813D01*
X147597223Y-99689467D01*
X147591962Y-99692620D01*
X147586418Y-99695242D01*
X147580643Y-99697309D01*
X147574693Y-99698799D01*
X147568626Y-99699699D01*
X147562500Y-99700000D01*
X147437500Y-99700000D01*
X147431374Y-99699699D01*
X147425307Y-99698799D01*
X147419357Y-99697309D01*
X147413582Y-99695242D01*
X147408038Y-99692620D01*
X147402777Y-99689467D01*
X147397850Y-99685813D01*
X147393306Y-99681694D01*
X147389187Y-99677150D01*
X147385533Y-99672223D01*
X147382380Y-99666962D01*
X147379758Y-99661418D01*
X147377691Y-99655643D01*
X147376201Y-99649693D01*
X147375301Y-99643626D01*
X147375000Y-99637500D01*
X147375000Y-98687500D01*
X147375301Y-98681374D01*
X147376201Y-98675307D01*
X147377691Y-98669357D01*
X147379758Y-98663582D01*
X147382380Y-98658038D01*
X147385533Y-98652777D01*
X147389187Y-98647850D01*
X147393306Y-98643306D01*
X147397850Y-98639187D01*
X147402777Y-98635533D01*
X147408038Y-98632380D01*
X147413582Y-98629758D01*
X147419357Y-98627691D01*
X147425307Y-98626201D01*
X147431374Y-98625301D01*
X147437500Y-98625000D01*
X147562500Y-98625000D01*
X147568626Y-98625301D01*
X147568626Y-98625301D01*
G37*
D16*
G04 #@! TD*
G04 #@! TO.P,U1,11*
G04 #@! TO.N,N/C*
X147500000Y-99162500D03*
D10*
G04 #@! TO.N,N/C*
G04 #@! TO.C,U1*
G36*
X147068626Y-98625301D02*
X147074693Y-98626201D01*
X147080643Y-98627691D01*
X147086418Y-98629758D01*
X147091962Y-98632380D01*
X147097223Y-98635533D01*
X147102150Y-98639187D01*
X147106694Y-98643306D01*
X147110813Y-98647850D01*
X147114467Y-98652777D01*
X147117620Y-98658038D01*
X147120242Y-98663582D01*
X147122309Y-98669357D01*
X147123799Y-98675307D01*
X147124699Y-98681374D01*
X147125000Y-98687500D01*
X147125000Y-99637500D01*
X147124699Y-99643626D01*
X147123799Y-99649693D01*
X147122309Y-99655643D01*
X147120242Y-99661418D01*
X147117620Y-99666962D01*
X147114467Y-99672223D01*
X147110813Y-99677150D01*
X147106694Y-99681694D01*
X147102150Y-99685813D01*
X147097223Y-99689467D01*
X147091962Y-99692620D01*
X147086418Y-99695242D01*
X147080643Y-99697309D01*
X147074693Y-99698799D01*
X147068626Y-99699699D01*
X147062500Y-99700000D01*
X146937500Y-99700000D01*
X146931374Y-99699699D01*
X146925307Y-99698799D01*
X146919357Y-99697309D01*
X146913582Y-99695242D01*
X146908038Y-99692620D01*
X146902777Y-99689467D01*
X146897850Y-99685813D01*
X146893306Y-99681694D01*
X146889187Y-99677150D01*
X146885533Y-99672223D01*
X146882380Y-99666962D01*
X146879758Y-99661418D01*
X146877691Y-99655643D01*
X146876201Y-99649693D01*
X146875301Y-99643626D01*
X146875000Y-99637500D01*
X146875000Y-98687500D01*
X146875301Y-98681374D01*
X146876201Y-98675307D01*
X146877691Y-98669357D01*
X146879758Y-98663582D01*
X146882380Y-98658038D01*
X146885533Y-98652777D01*
X146889187Y-98647850D01*
X146893306Y-98643306D01*
X146897850Y-98639187D01*
X146902777Y-98635533D01*
X146908038Y-98632380D01*
X146913582Y-98629758D01*
X146919357Y-98627691D01*
X146925307Y-98626201D01*
X146931374Y-98625301D01*
X146937500Y-98625000D01*
X147062500Y-98625000D01*
X147068626Y-98625301D01*
X147068626Y-98625301D01*
G37*
D16*
G04 #@! TD*
G04 #@! TO.P,U1,12*
G04 #@! TO.N,N/C*
X147000000Y-99162500D03*
D10*
G04 #@! TO.N,N/C*
G04 #@! TO.C,U1*
G36*
X146568626Y-98625301D02*
X146574693Y-98626201D01*
X146580643Y-98627691D01*
X146586418Y-98629758D01*
X146591962Y-98632380D01*
X146597223Y-98635533D01*
X146602150Y-98639187D01*
X146606694Y-98643306D01*
X146610813Y-98647850D01*
X146614467Y-98652777D01*
X146617620Y-98658038D01*
X146620242Y-98663582D01*
X146622309Y-98669357D01*
X146623799Y-98675307D01*
X146624699Y-98681374D01*
X146625000Y-98687500D01*
X146625000Y-99637500D01*
X146624699Y-99643626D01*
X146623799Y-99649693D01*
X146622309Y-99655643D01*
X146620242Y-99661418D01*
X146617620Y-99666962D01*
X146614467Y-99672223D01*
X146610813Y-99677150D01*
X146606694Y-99681694D01*
X146602150Y-99685813D01*
X146597223Y-99689467D01*
X146591962Y-99692620D01*
X146586418Y-99695242D01*
X146580643Y-99697309D01*
X146574693Y-99698799D01*
X146568626Y-99699699D01*
X146562500Y-99700000D01*
X146437500Y-99700000D01*
X146431374Y-99699699D01*
X146425307Y-99698799D01*
X146419357Y-99697309D01*
X146413582Y-99695242D01*
X146408038Y-99692620D01*
X146402777Y-99689467D01*
X146397850Y-99685813D01*
X146393306Y-99681694D01*
X146389187Y-99677150D01*
X146385533Y-99672223D01*
X146382380Y-99666962D01*
X146379758Y-99661418D01*
X146377691Y-99655643D01*
X146376201Y-99649693D01*
X146375301Y-99643626D01*
X146375000Y-99637500D01*
X146375000Y-98687500D01*
X146375301Y-98681374D01*
X146376201Y-98675307D01*
X146377691Y-98669357D01*
X146379758Y-98663582D01*
X146382380Y-98658038D01*
X146385533Y-98652777D01*
X146389187Y-98647850D01*
X146393306Y-98643306D01*
X146397850Y-98639187D01*
X146402777Y-98635533D01*
X146408038Y-98632380D01*
X146413582Y-98629758D01*
X146419357Y-98627691D01*
X146425307Y-98626201D01*
X146431374Y-98625301D01*
X146437500Y-98625000D01*
X146562500Y-98625000D01*
X146568626Y-98625301D01*
X146568626Y-98625301D01*
G37*
D16*
G04 #@! TD*
G04 #@! TO.P,U1,13*
G04 #@! TO.N,N/C*
X146500000Y-99162500D03*
D10*
G04 #@! TO.N,N/C*
G04 #@! TO.C,U1*
G36*
X146068626Y-98625301D02*
X146074693Y-98626201D01*
X146080643Y-98627691D01*
X146086418Y-98629758D01*
X146091962Y-98632380D01*
X146097223Y-98635533D01*
X146102150Y-98639187D01*
X146106694Y-98643306D01*
X146110813Y-98647850D01*
X146114467Y-98652777D01*
X146117620Y-98658038D01*
X146120242Y-98663582D01*
X146122309Y-98669357D01*
X146123799Y-98675307D01*
X146124699Y-98681374D01*
X146125000Y-98687500D01*
X146125000Y-99637500D01*
X146124699Y-99643626D01*
X146123799Y-99649693D01*
X146122309Y-99655643D01*
X146120242Y-99661418D01*
X146117620Y-99666962D01*
X146114467Y-99672223D01*
X146110813Y-99677150D01*
X146106694Y-99681694D01*
X146102150Y-99685813D01*
X146097223Y-99689467D01*
X146091962Y-99692620D01*
X146086418Y-99695242D01*
X146080643Y-99697309D01*
X146074693Y-99698799D01*
X146068626Y-99699699D01*
X146062500Y-99700000D01*
X145937500Y-99700000D01*
X145931374Y-99699699D01*
X145925307Y-99698799D01*
X145919357Y-99697309D01*
X145913582Y-99695242D01*
X145908038Y-99692620D01*
X145902777Y-99689467D01*
X145897850Y-99685813D01*
X145893306Y-99681694D01*
X145889187Y-99677150D01*
X145885533Y-99672223D01*
X145882380Y-99666962D01*
X145879758Y-99661418D01*
X145877691Y-99655643D01*
X145876201Y-99649693D01*
X145875301Y-99643626D01*
X145875000Y-99637500D01*
X145875000Y-98687500D01*
X145875301Y-98681374D01*
X145876201Y-98675307D01*
X145877691Y-98669357D01*
X145879758Y-98663582D01*
X145882380Y-98658038D01*
X145885533Y-98652777D01*
X145889187Y-98647850D01*
X145893306Y-98643306D01*
X145897850Y-98639187D01*
X145902777Y-98635533D01*
X145908038Y-98632380D01*
X145913582Y-98629758D01*
X145919357Y-98627691D01*
X145925307Y-98626201D01*
X145931374Y-98625301D01*
X145937500Y-98625000D01*
X146062500Y-98625000D01*
X146068626Y-98625301D01*
X146068626Y-98625301D01*
G37*
D16*
G04 #@! TD*
G04 #@! TO.P,U1,14*
G04 #@! TO.N,N/C*
X146000000Y-99162500D03*
D10*
G04 #@! TO.N,N/C*
G04 #@! TO.C,U1*
G36*
X145568626Y-98625301D02*
X145574693Y-98626201D01*
X145580643Y-98627691D01*
X145586418Y-98629758D01*
X145591962Y-98632380D01*
X145597223Y-98635533D01*
X145602150Y-98639187D01*
X145606694Y-98643306D01*
X145610813Y-98647850D01*
X145614467Y-98652777D01*
X145617620Y-98658038D01*
X145620242Y-98663582D01*
X145622309Y-98669357D01*
X145623799Y-98675307D01*
X145624699Y-98681374D01*
X145625000Y-98687500D01*
X145625000Y-99637500D01*
X145624699Y-99643626D01*
X145623799Y-99649693D01*
X145622309Y-99655643D01*
X145620242Y-99661418D01*
X145617620Y-99666962D01*
X145614467Y-99672223D01*
X145610813Y-99677150D01*
X145606694Y-99681694D01*
X145602150Y-99685813D01*
X145597223Y-99689467D01*
X145591962Y-99692620D01*
X145586418Y-99695242D01*
X145580643Y-99697309D01*
X145574693Y-99698799D01*
X145568626Y-99699699D01*
X145562500Y-99700000D01*
X145437500Y-99700000D01*
X145431374Y-99699699D01*
X145425307Y-99698799D01*
X145419357Y-99697309D01*
X145413582Y-99695242D01*
X145408038Y-99692620D01*
X145402777Y-99689467D01*
X145397850Y-99685813D01*
X145393306Y-99681694D01*
X145389187Y-99677150D01*
X145385533Y-99672223D01*
X145382380Y-99666962D01*
X145379758Y-99661418D01*
X145377691Y-99655643D01*
X145376201Y-99649693D01*
X145375301Y-99643626D01*
X145375000Y-99637500D01*
X145375000Y-98687500D01*
X145375301Y-98681374D01*
X145376201Y-98675307D01*
X145377691Y-98669357D01*
X145379758Y-98663582D01*
X145382380Y-98658038D01*
X145385533Y-98652777D01*
X145389187Y-98647850D01*
X145393306Y-98643306D01*
X145397850Y-98639187D01*
X145402777Y-98635533D01*
X145408038Y-98632380D01*
X145413582Y-98629758D01*
X145419357Y-98627691D01*
X145425307Y-98626201D01*
X145431374Y-98625301D01*
X145437500Y-98625000D01*
X145562500Y-98625000D01*
X145568626Y-98625301D01*
X145568626Y-98625301D01*
G37*
D16*
G04 #@! TD*
G04 #@! TO.P,U1,15*
G04 #@! TO.N,N/C*
X145500000Y-99162500D03*
D10*
G04 #@! TO.N,N/C*
G04 #@! TO.C,U1*
G36*
X145068626Y-98625301D02*
X145074693Y-98626201D01*
X145080643Y-98627691D01*
X145086418Y-98629758D01*
X145091962Y-98632380D01*
X145097223Y-98635533D01*
X145102150Y-98639187D01*
X145106694Y-98643306D01*
X145110813Y-98647850D01*
X145114467Y-98652777D01*
X145117620Y-98658038D01*
X145120242Y-98663582D01*
X145122309Y-98669357D01*
X145123799Y-98675307D01*
X145124699Y-98681374D01*
X145125000Y-98687500D01*
X145125000Y-99637500D01*
X145124699Y-99643626D01*
X145123799Y-99649693D01*
X145122309Y-99655643D01*
X145120242Y-99661418D01*
X145117620Y-99666962D01*
X145114467Y-99672223D01*
X145110813Y-99677150D01*
X145106694Y-99681694D01*
X145102150Y-99685813D01*
X145097223Y-99689467D01*
X145091962Y-99692620D01*
X145086418Y-99695242D01*
X145080643Y-99697309D01*
X145074693Y-99698799D01*
X145068626Y-99699699D01*
X145062500Y-99700000D01*
X144937500Y-99700000D01*
X144931374Y-99699699D01*
X144925307Y-99698799D01*
X144919357Y-99697309D01*
X144913582Y-99695242D01*
X144908038Y-99692620D01*
X144902777Y-99689467D01*
X144897850Y-99685813D01*
X144893306Y-99681694D01*
X144889187Y-99677150D01*
X144885533Y-99672223D01*
X144882380Y-99666962D01*
X144879758Y-99661418D01*
X144877691Y-99655643D01*
X144876201Y-99649693D01*
X144875301Y-99643626D01*
X144875000Y-99637500D01*
X144875000Y-98687500D01*
X144875301Y-98681374D01*
X144876201Y-98675307D01*
X144877691Y-98669357D01*
X144879758Y-98663582D01*
X144882380Y-98658038D01*
X144885533Y-98652777D01*
X144889187Y-98647850D01*
X144893306Y-98643306D01*
X144897850Y-98639187D01*
X144902777Y-98635533D01*
X144908038Y-98632380D01*
X144913582Y-98629758D01*
X144919357Y-98627691D01*
X144925307Y-98626201D01*
X144931374Y-98625301D01*
X144937500Y-98625000D01*
X145062500Y-98625000D01*
X145068626Y-98625301D01*
X145068626Y-98625301D01*
G37*
D16*
G04 #@! TD*
G04 #@! TO.P,U1,16*
G04 #@! TO.N,N/C*
X145000000Y-99162500D03*
D10*
G04 #@! TO.N,/BOOT1*
G04 #@! TO.C,U1*
G36*
X144568626Y-98625301D02*
X144574693Y-98626201D01*
X144580643Y-98627691D01*
X144586418Y-98629758D01*
X144591962Y-98632380D01*
X144597223Y-98635533D01*
X144602150Y-98639187D01*
X144606694Y-98643306D01*
X144610813Y-98647850D01*
X144614467Y-98652777D01*
X144617620Y-98658038D01*
X144620242Y-98663582D01*
X144622309Y-98669357D01*
X144623799Y-98675307D01*
X144624699Y-98681374D01*
X144625000Y-98687500D01*
X144625000Y-99637500D01*
X144624699Y-99643626D01*
X144623799Y-99649693D01*
X144622309Y-99655643D01*
X144620242Y-99661418D01*
X144617620Y-99666962D01*
X144614467Y-99672223D01*
X144610813Y-99677150D01*
X144606694Y-99681694D01*
X144602150Y-99685813D01*
X144597223Y-99689467D01*
X144591962Y-99692620D01*
X144586418Y-99695242D01*
X144580643Y-99697309D01*
X144574693Y-99698799D01*
X144568626Y-99699699D01*
X144562500Y-99700000D01*
X144437500Y-99700000D01*
X144431374Y-99699699D01*
X144425307Y-99698799D01*
X144419357Y-99697309D01*
X144413582Y-99695242D01*
X144408038Y-99692620D01*
X144402777Y-99689467D01*
X144397850Y-99685813D01*
X144393306Y-99681694D01*
X144389187Y-99677150D01*
X144385533Y-99672223D01*
X144382380Y-99666962D01*
X144379758Y-99661418D01*
X144377691Y-99655643D01*
X144376201Y-99649693D01*
X144375301Y-99643626D01*
X144375000Y-99637500D01*
X144375000Y-98687500D01*
X144375301Y-98681374D01*
X144376201Y-98675307D01*
X144377691Y-98669357D01*
X144379758Y-98663582D01*
X144382380Y-98658038D01*
X144385533Y-98652777D01*
X144389187Y-98647850D01*
X144393306Y-98643306D01*
X144397850Y-98639187D01*
X144402777Y-98635533D01*
X144408038Y-98632380D01*
X144413582Y-98629758D01*
X144419357Y-98627691D01*
X144425307Y-98626201D01*
X144431374Y-98625301D01*
X144437500Y-98625000D01*
X144562500Y-98625000D01*
X144568626Y-98625301D01*
X144568626Y-98625301D01*
G37*
D16*
G04 #@! TD*
G04 #@! TO.P,U1,17*
G04 #@! TO.N,/BOOT1*
X144500000Y-99162500D03*
D10*
G04 #@! TO.N,GND*
G04 #@! TO.C,U1*
G36*
X144068626Y-98625301D02*
X144074693Y-98626201D01*
X144080643Y-98627691D01*
X144086418Y-98629758D01*
X144091962Y-98632380D01*
X144097223Y-98635533D01*
X144102150Y-98639187D01*
X144106694Y-98643306D01*
X144110813Y-98647850D01*
X144114467Y-98652777D01*
X144117620Y-98658038D01*
X144120242Y-98663582D01*
X144122309Y-98669357D01*
X144123799Y-98675307D01*
X144124699Y-98681374D01*
X144125000Y-98687500D01*
X144125000Y-99637500D01*
X144124699Y-99643626D01*
X144123799Y-99649693D01*
X144122309Y-99655643D01*
X144120242Y-99661418D01*
X144117620Y-99666962D01*
X144114467Y-99672223D01*
X144110813Y-99677150D01*
X144106694Y-99681694D01*
X144102150Y-99685813D01*
X144097223Y-99689467D01*
X144091962Y-99692620D01*
X144086418Y-99695242D01*
X144080643Y-99697309D01*
X144074693Y-99698799D01*
X144068626Y-99699699D01*
X144062500Y-99700000D01*
X143937500Y-99700000D01*
X143931374Y-99699699D01*
X143925307Y-99698799D01*
X143919357Y-99697309D01*
X143913582Y-99695242D01*
X143908038Y-99692620D01*
X143902777Y-99689467D01*
X143897850Y-99685813D01*
X143893306Y-99681694D01*
X143889187Y-99677150D01*
X143885533Y-99672223D01*
X143882380Y-99666962D01*
X143879758Y-99661418D01*
X143877691Y-99655643D01*
X143876201Y-99649693D01*
X143875301Y-99643626D01*
X143875000Y-99637500D01*
X143875000Y-98687500D01*
X143875301Y-98681374D01*
X143876201Y-98675307D01*
X143877691Y-98669357D01*
X143879758Y-98663582D01*
X143882380Y-98658038D01*
X143885533Y-98652777D01*
X143889187Y-98647850D01*
X143893306Y-98643306D01*
X143897850Y-98639187D01*
X143902777Y-98635533D01*
X143908038Y-98632380D01*
X143913582Y-98629758D01*
X143919357Y-98627691D01*
X143925307Y-98626201D01*
X143931374Y-98625301D01*
X143937500Y-98625000D01*
X144062500Y-98625000D01*
X144068626Y-98625301D01*
X144068626Y-98625301D01*
G37*
D16*
G04 #@! TD*
G04 #@! TO.P,U1,18*
G04 #@! TO.N,GND*
X144000000Y-99162500D03*
D10*
G04 #@! TO.N,+3V3*
G04 #@! TO.C,U1*
G36*
X143643626Y-99875301D02*
X143649693Y-99876201D01*
X143655643Y-99877691D01*
X143661418Y-99879758D01*
X143666962Y-99882380D01*
X143672223Y-99885533D01*
X143677150Y-99889187D01*
X143681694Y-99893306D01*
X143685813Y-99897850D01*
X143689467Y-99902777D01*
X143692620Y-99908038D01*
X143695242Y-99913582D01*
X143697309Y-99919357D01*
X143698799Y-99925307D01*
X143699699Y-99931374D01*
X143700000Y-99937500D01*
X143700000Y-100062500D01*
X143699699Y-100068626D01*
X143698799Y-100074693D01*
X143697309Y-100080643D01*
X143695242Y-100086418D01*
X143692620Y-100091962D01*
X143689467Y-100097223D01*
X143685813Y-100102150D01*
X143681694Y-100106694D01*
X143677150Y-100110813D01*
X143672223Y-100114467D01*
X143666962Y-100117620D01*
X143661418Y-100120242D01*
X143655643Y-100122309D01*
X143649693Y-100123799D01*
X143643626Y-100124699D01*
X143637500Y-100125000D01*
X142687500Y-100125000D01*
X142681374Y-100124699D01*
X142675307Y-100123799D01*
X142669357Y-100122309D01*
X142663582Y-100120242D01*
X142658038Y-100117620D01*
X142652777Y-100114467D01*
X142647850Y-100110813D01*
X142643306Y-100106694D01*
X142639187Y-100102150D01*
X142635533Y-100097223D01*
X142632380Y-100091962D01*
X142629758Y-100086418D01*
X142627691Y-100080643D01*
X142626201Y-100074693D01*
X142625301Y-100068626D01*
X142625000Y-100062500D01*
X142625000Y-99937500D01*
X142625301Y-99931374D01*
X142626201Y-99925307D01*
X142627691Y-99919357D01*
X142629758Y-99913582D01*
X142632380Y-99908038D01*
X142635533Y-99902777D01*
X142639187Y-99897850D01*
X142643306Y-99893306D01*
X142647850Y-99889187D01*
X142652777Y-99885533D01*
X142658038Y-99882380D01*
X142663582Y-99879758D01*
X142669357Y-99877691D01*
X142675307Y-99876201D01*
X142681374Y-99875301D01*
X142687500Y-99875000D01*
X143637500Y-99875000D01*
X143643626Y-99875301D01*
X143643626Y-99875301D01*
G37*
D16*
G04 #@! TD*
G04 #@! TO.P,U1,19*
G04 #@! TO.N,+3V3*
X143162500Y-100000000D03*
D10*
G04 #@! TO.N,N/C*
G04 #@! TO.C,U1*
G36*
X143643626Y-100375301D02*
X143649693Y-100376201D01*
X143655643Y-100377691D01*
X143661418Y-100379758D01*
X143666962Y-100382380D01*
X143672223Y-100385533D01*
X143677150Y-100389187D01*
X143681694Y-100393306D01*
X143685813Y-100397850D01*
X143689467Y-100402777D01*
X143692620Y-100408038D01*
X143695242Y-100413582D01*
X143697309Y-100419357D01*
X143698799Y-100425307D01*
X143699699Y-100431374D01*
X143700000Y-100437500D01*
X143700000Y-100562500D01*
X143699699Y-100568626D01*
X143698799Y-100574693D01*
X143697309Y-100580643D01*
X143695242Y-100586418D01*
X143692620Y-100591962D01*
X143689467Y-100597223D01*
X143685813Y-100602150D01*
X143681694Y-100606694D01*
X143677150Y-100610813D01*
X143672223Y-100614467D01*
X143666962Y-100617620D01*
X143661418Y-100620242D01*
X143655643Y-100622309D01*
X143649693Y-100623799D01*
X143643626Y-100624699D01*
X143637500Y-100625000D01*
X142687500Y-100625000D01*
X142681374Y-100624699D01*
X142675307Y-100623799D01*
X142669357Y-100622309D01*
X142663582Y-100620242D01*
X142658038Y-100617620D01*
X142652777Y-100614467D01*
X142647850Y-100610813D01*
X142643306Y-100606694D01*
X142639187Y-100602150D01*
X142635533Y-100597223D01*
X142632380Y-100591962D01*
X142629758Y-100586418D01*
X142627691Y-100580643D01*
X142626201Y-100574693D01*
X142625301Y-100568626D01*
X142625000Y-100562500D01*
X142625000Y-100437500D01*
X142625301Y-100431374D01*
X142626201Y-100425307D01*
X142627691Y-100419357D01*
X142629758Y-100413582D01*
X142632380Y-100408038D01*
X142635533Y-100402777D01*
X142639187Y-100397850D01*
X142643306Y-100393306D01*
X142647850Y-100389187D01*
X142652777Y-100385533D01*
X142658038Y-100382380D01*
X142663582Y-100379758D01*
X142669357Y-100377691D01*
X142675307Y-100376201D01*
X142681374Y-100375301D01*
X142687500Y-100375000D01*
X143637500Y-100375000D01*
X143643626Y-100375301D01*
X143643626Y-100375301D01*
G37*
D16*
G04 #@! TD*
G04 #@! TO.P,U1,20*
G04 #@! TO.N,N/C*
X143162500Y-100500000D03*
D10*
G04 #@! TO.N,N/C*
G04 #@! TO.C,U1*
G36*
X143643626Y-100875301D02*
X143649693Y-100876201D01*
X143655643Y-100877691D01*
X143661418Y-100879758D01*
X143666962Y-100882380D01*
X143672223Y-100885533D01*
X143677150Y-100889187D01*
X143681694Y-100893306D01*
X143685813Y-100897850D01*
X143689467Y-100902777D01*
X143692620Y-100908038D01*
X143695242Y-100913582D01*
X143697309Y-100919357D01*
X143698799Y-100925307D01*
X143699699Y-100931374D01*
X143700000Y-100937500D01*
X143700000Y-101062500D01*
X143699699Y-101068626D01*
X143698799Y-101074693D01*
X143697309Y-101080643D01*
X143695242Y-101086418D01*
X143692620Y-101091962D01*
X143689467Y-101097223D01*
X143685813Y-101102150D01*
X143681694Y-101106694D01*
X143677150Y-101110813D01*
X143672223Y-101114467D01*
X143666962Y-101117620D01*
X143661418Y-101120242D01*
X143655643Y-101122309D01*
X143649693Y-101123799D01*
X143643626Y-101124699D01*
X143637500Y-101125000D01*
X142687500Y-101125000D01*
X142681374Y-101124699D01*
X142675307Y-101123799D01*
X142669357Y-101122309D01*
X142663582Y-101120242D01*
X142658038Y-101117620D01*
X142652777Y-101114467D01*
X142647850Y-101110813D01*
X142643306Y-101106694D01*
X142639187Y-101102150D01*
X142635533Y-101097223D01*
X142632380Y-101091962D01*
X142629758Y-101086418D01*
X142627691Y-101080643D01*
X142626201Y-101074693D01*
X142625301Y-101068626D01*
X142625000Y-101062500D01*
X142625000Y-100937500D01*
X142625301Y-100931374D01*
X142626201Y-100925307D01*
X142627691Y-100919357D01*
X142629758Y-100913582D01*
X142632380Y-100908038D01*
X142635533Y-100902777D01*
X142639187Y-100897850D01*
X142643306Y-100893306D01*
X142647850Y-100889187D01*
X142652777Y-100885533D01*
X142658038Y-100882380D01*
X142663582Y-100879758D01*
X142669357Y-100877691D01*
X142675307Y-100876201D01*
X142681374Y-100875301D01*
X142687500Y-100875000D01*
X143637500Y-100875000D01*
X143643626Y-100875301D01*
X143643626Y-100875301D01*
G37*
D16*
G04 #@! TD*
G04 #@! TO.P,U1,21*
G04 #@! TO.N,N/C*
X143162500Y-101000000D03*
D10*
G04 #@! TO.N,N/C*
G04 #@! TO.C,U1*
G36*
X143643626Y-101375301D02*
X143649693Y-101376201D01*
X143655643Y-101377691D01*
X143661418Y-101379758D01*
X143666962Y-101382380D01*
X143672223Y-101385533D01*
X143677150Y-101389187D01*
X143681694Y-101393306D01*
X143685813Y-101397850D01*
X143689467Y-101402777D01*
X143692620Y-101408038D01*
X143695242Y-101413582D01*
X143697309Y-101419357D01*
X143698799Y-101425307D01*
X143699699Y-101431374D01*
X143700000Y-101437500D01*
X143700000Y-101562500D01*
X143699699Y-101568626D01*
X143698799Y-101574693D01*
X143697309Y-101580643D01*
X143695242Y-101586418D01*
X143692620Y-101591962D01*
X143689467Y-101597223D01*
X143685813Y-101602150D01*
X143681694Y-101606694D01*
X143677150Y-101610813D01*
X143672223Y-101614467D01*
X143666962Y-101617620D01*
X143661418Y-101620242D01*
X143655643Y-101622309D01*
X143649693Y-101623799D01*
X143643626Y-101624699D01*
X143637500Y-101625000D01*
X142687500Y-101625000D01*
X142681374Y-101624699D01*
X142675307Y-101623799D01*
X142669357Y-101622309D01*
X142663582Y-101620242D01*
X142658038Y-101617620D01*
X142652777Y-101614467D01*
X142647850Y-101610813D01*
X142643306Y-101606694D01*
X142639187Y-101602150D01*
X142635533Y-101597223D01*
X142632380Y-101591962D01*
X142629758Y-101586418D01*
X142627691Y-101580643D01*
X142626201Y-101574693D01*
X142625301Y-101568626D01*
X142625000Y-101562500D01*
X142625000Y-101437500D01*
X142625301Y-101431374D01*
X142626201Y-101425307D01*
X142627691Y-101419357D01*
X142629758Y-101413582D01*
X142632380Y-101408038D01*
X142635533Y-101402777D01*
X142639187Y-101397850D01*
X142643306Y-101393306D01*
X142647850Y-101389187D01*
X142652777Y-101385533D01*
X142658038Y-101382380D01*
X142663582Y-101379758D01*
X142669357Y-101377691D01*
X142675307Y-101376201D01*
X142681374Y-101375301D01*
X142687500Y-101375000D01*
X143637500Y-101375000D01*
X143643626Y-101375301D01*
X143643626Y-101375301D01*
G37*
D16*
G04 #@! TD*
G04 #@! TO.P,U1,22*
G04 #@! TO.N,N/C*
X143162500Y-101500000D03*
D10*
G04 #@! TO.N,/USB_DM*
G04 #@! TO.C,U1*
G36*
X143643626Y-101875301D02*
X143649693Y-101876201D01*
X143655643Y-101877691D01*
X143661418Y-101879758D01*
X143666962Y-101882380D01*
X143672223Y-101885533D01*
X143677150Y-101889187D01*
X143681694Y-101893306D01*
X143685813Y-101897850D01*
X143689467Y-101902777D01*
X143692620Y-101908038D01*
X143695242Y-101913582D01*
X143697309Y-101919357D01*
X143698799Y-101925307D01*
X143699699Y-101931374D01*
X143700000Y-101937500D01*
X143700000Y-102062500D01*
X143699699Y-102068626D01*
X143698799Y-102074693D01*
X143697309Y-102080643D01*
X143695242Y-102086418D01*
X143692620Y-102091962D01*
X143689467Y-102097223D01*
X143685813Y-102102150D01*
X143681694Y-102106694D01*
X143677150Y-102110813D01*
X143672223Y-102114467D01*
X143666962Y-102117620D01*
X143661418Y-102120242D01*
X143655643Y-102122309D01*
X143649693Y-102123799D01*
X143643626Y-102124699D01*
X143637500Y-102125000D01*
X142687500Y-102125000D01*
X142681374Y-102124699D01*
X142675307Y-102123799D01*
X142669357Y-102122309D01*
X142663582Y-102120242D01*
X142658038Y-102117620D01*
X142652777Y-102114467D01*
X142647850Y-102110813D01*
X142643306Y-102106694D01*
X142639187Y-102102150D01*
X142635533Y-102097223D01*
X142632380Y-102091962D01*
X142629758Y-102086418D01*
X142627691Y-102080643D01*
X142626201Y-102074693D01*
X142625301Y-102068626D01*
X142625000Y-102062500D01*
X142625000Y-101937500D01*
X142625301Y-101931374D01*
X142626201Y-101925307D01*
X142627691Y-101919357D01*
X142629758Y-101913582D01*
X142632380Y-101908038D01*
X142635533Y-101902777D01*
X142639187Y-101897850D01*
X142643306Y-101893306D01*
X142647850Y-101889187D01*
X142652777Y-101885533D01*
X142658038Y-101882380D01*
X142663582Y-101879758D01*
X142669357Y-101877691D01*
X142675307Y-101876201D01*
X142681374Y-101875301D01*
X142687500Y-101875000D01*
X143637500Y-101875000D01*
X143643626Y-101875301D01*
X143643626Y-101875301D01*
G37*
D16*
G04 #@! TD*
G04 #@! TO.P,U1,23*
G04 #@! TO.N,/USB_DM*
X143162500Y-102000000D03*
D10*
G04 #@! TO.N,/USB_DP*
G04 #@! TO.C,U1*
G36*
X143643626Y-102375301D02*
X143649693Y-102376201D01*
X143655643Y-102377691D01*
X143661418Y-102379758D01*
X143666962Y-102382380D01*
X143672223Y-102385533D01*
X143677150Y-102389187D01*
X143681694Y-102393306D01*
X143685813Y-102397850D01*
X143689467Y-102402777D01*
X143692620Y-102408038D01*
X143695242Y-102413582D01*
X143697309Y-102419357D01*
X143698799Y-102425307D01*
X143699699Y-102431374D01*
X143700000Y-102437500D01*
X143700000Y-102562500D01*
X143699699Y-102568626D01*
X143698799Y-102574693D01*
X143697309Y-102580643D01*
X143695242Y-102586418D01*
X143692620Y-102591962D01*
X143689467Y-102597223D01*
X143685813Y-102602150D01*
X143681694Y-102606694D01*
X143677150Y-102610813D01*
X143672223Y-102614467D01*
X143666962Y-102617620D01*
X143661418Y-102620242D01*
X143655643Y-102622309D01*
X143649693Y-102623799D01*
X143643626Y-102624699D01*
X143637500Y-102625000D01*
X142687500Y-102625000D01*
X142681374Y-102624699D01*
X142675307Y-102623799D01*
X142669357Y-102622309D01*
X142663582Y-102620242D01*
X142658038Y-102617620D01*
X142652777Y-102614467D01*
X142647850Y-102610813D01*
X142643306Y-102606694D01*
X142639187Y-102602150D01*
X142635533Y-102597223D01*
X142632380Y-102591962D01*
X142629758Y-102586418D01*
X142627691Y-102580643D01*
X142626201Y-102574693D01*
X142625301Y-102568626D01*
X142625000Y-102562500D01*
X142625000Y-102437500D01*
X142625301Y-102431374D01*
X142626201Y-102425307D01*
X142627691Y-102419357D01*
X142629758Y-102413582D01*
X142632380Y-102408038D01*
X142635533Y-102402777D01*
X142639187Y-102397850D01*
X142643306Y-102393306D01*
X142647850Y-102389187D01*
X142652777Y-102385533D01*
X142658038Y-102382380D01*
X142663582Y-102379758D01*
X142669357Y-102377691D01*
X142675307Y-102376201D01*
X142681374Y-102375301D01*
X142687500Y-102375000D01*
X143637500Y-102375000D01*
X143643626Y-102375301D01*
X143643626Y-102375301D01*
G37*
D16*
G04 #@! TD*
G04 #@! TO.P,U1,24*
G04 #@! TO.N,/USB_DP*
X143162500Y-102500000D03*
D10*
G04 #@! TO.N,/SWDIO*
G04 #@! TO.C,U1*
G36*
X143643626Y-102875301D02*
X143649693Y-102876201D01*
X143655643Y-102877691D01*
X143661418Y-102879758D01*
X143666962Y-102882380D01*
X143672223Y-102885533D01*
X143677150Y-102889187D01*
X143681694Y-102893306D01*
X143685813Y-102897850D01*
X143689467Y-102902777D01*
X143692620Y-102908038D01*
X143695242Y-102913582D01*
X143697309Y-102919357D01*
X143698799Y-102925307D01*
X143699699Y-102931374D01*
X143700000Y-102937500D01*
X143700000Y-103062500D01*
X143699699Y-103068626D01*
X143698799Y-103074693D01*
X143697309Y-103080643D01*
X143695242Y-103086418D01*
X143692620Y-103091962D01*
X143689467Y-103097223D01*
X143685813Y-103102150D01*
X143681694Y-103106694D01*
X143677150Y-103110813D01*
X143672223Y-103114467D01*
X143666962Y-103117620D01*
X143661418Y-103120242D01*
X143655643Y-103122309D01*
X143649693Y-103123799D01*
X143643626Y-103124699D01*
X143637500Y-103125000D01*
X142687500Y-103125000D01*
X142681374Y-103124699D01*
X142675307Y-103123799D01*
X142669357Y-103122309D01*
X142663582Y-103120242D01*
X142658038Y-103117620D01*
X142652777Y-103114467D01*
X142647850Y-103110813D01*
X142643306Y-103106694D01*
X142639187Y-103102150D01*
X142635533Y-103097223D01*
X142632380Y-103091962D01*
X142629758Y-103086418D01*
X142627691Y-103080643D01*
X142626201Y-103074693D01*
X142625301Y-103068626D01*
X142625000Y-103062500D01*
X142625000Y-102937500D01*
X142625301Y-102931374D01*
X142626201Y-102925307D01*
X142627691Y-102919357D01*
X142629758Y-102913582D01*
X142632380Y-102908038D01*
X142635533Y-102902777D01*
X142639187Y-102897850D01*
X142643306Y-102893306D01*
X142647850Y-102889187D01*
X142652777Y-102885533D01*
X142658038Y-102882380D01*
X142663582Y-102879758D01*
X142669357Y-102877691D01*
X142675307Y-102876201D01*
X142681374Y-102875301D01*
X142687500Y-102875000D01*
X143637500Y-102875000D01*
X143643626Y-102875301D01*
X143643626Y-102875301D01*
G37*
D16*
G04 #@! TD*
G04 #@! TO.P,U1,25*
G04 #@! TO.N,/SWDIO*
X143162500Y-103000000D03*
D10*
G04 #@! TO.N,GND*
G04 #@! TO.C,U1*
G36*
X143643626Y-103375301D02*
X143649693Y-103376201D01*
X143655643Y-103377691D01*
X143661418Y-103379758D01*
X143666962Y-103382380D01*
X143672223Y-103385533D01*
X143677150Y-103389187D01*
X143681694Y-103393306D01*
X143685813Y-103397850D01*
X143689467Y-103402777D01*
X143692620Y-103408038D01*
X143695242Y-103413582D01*
X143697309Y-103419357D01*
X143698799Y-103425307D01*
X143699699Y-103431374D01*
X143700000Y-103437500D01*
X143700000Y-103562500D01*
X143699699Y-103568626D01*
X143698799Y-103574693D01*
X143697309Y-103580643D01*
X143695242Y-103586418D01*
X143692620Y-103591962D01*
X143689467Y-103597223D01*
X143685813Y-103602150D01*
X143681694Y-103606694D01*
X143677150Y-103610813D01*
X143672223Y-103614467D01*
X143666962Y-103617620D01*
X143661418Y-103620242D01*
X143655643Y-103622309D01*
X143649693Y-103623799D01*
X143643626Y-103624699D01*
X143637500Y-103625000D01*
X142687500Y-103625000D01*
X142681374Y-103624699D01*
X142675307Y-103623799D01*
X142669357Y-103622309D01*
X142663582Y-103620242D01*
X142658038Y-103617620D01*
X142652777Y-103614467D01*
X142647850Y-103610813D01*
X142643306Y-103606694D01*
X142639187Y-103602150D01*
X142635533Y-103597223D01*
X142632380Y-103591962D01*
X142629758Y-103586418D01*
X142627691Y-103580643D01*
X142626201Y-103574693D01*
X142625301Y-103568626D01*
X142625000Y-103562500D01*
X142625000Y-103437500D01*
X142625301Y-103431374D01*
X142626201Y-103425307D01*
X142627691Y-103419357D01*
X142629758Y-103413582D01*
X142632380Y-103408038D01*
X142635533Y-103402777D01*
X142639187Y-103397850D01*
X142643306Y-103393306D01*
X142647850Y-103389187D01*
X142652777Y-103385533D01*
X142658038Y-103382380D01*
X142663582Y-103379758D01*
X142669357Y-103377691D01*
X142675307Y-103376201D01*
X142681374Y-103375301D01*
X142687500Y-103375000D01*
X143637500Y-103375000D01*
X143643626Y-103375301D01*
X143643626Y-103375301D01*
G37*
D16*
G04 #@! TD*
G04 #@! TO.P,U1,26*
G04 #@! TO.N,GND*
X143162500Y-103500000D03*
D10*
G04 #@! TO.N,+3V3*
G04 #@! TO.C,U1*
G36*
X143643626Y-103875301D02*
X143649693Y-103876201D01*
X143655643Y-103877691D01*
X143661418Y-103879758D01*
X143666962Y-103882380D01*
X143672223Y-103885533D01*
X143677150Y-103889187D01*
X143681694Y-103893306D01*
X143685813Y-103897850D01*
X143689467Y-103902777D01*
X143692620Y-103908038D01*
X143695242Y-103913582D01*
X143697309Y-103919357D01*
X143698799Y-103925307D01*
X143699699Y-103931374D01*
X143700000Y-103937500D01*
X143700000Y-104062500D01*
X143699699Y-104068626D01*
X143698799Y-104074693D01*
X143697309Y-104080643D01*
X143695242Y-104086418D01*
X143692620Y-104091962D01*
X143689467Y-104097223D01*
X143685813Y-104102150D01*
X143681694Y-104106694D01*
X143677150Y-104110813D01*
X143672223Y-104114467D01*
X143666962Y-104117620D01*
X143661418Y-104120242D01*
X143655643Y-104122309D01*
X143649693Y-104123799D01*
X143643626Y-104124699D01*
X143637500Y-104125000D01*
X142687500Y-104125000D01*
X142681374Y-104124699D01*
X142675307Y-104123799D01*
X142669357Y-104122309D01*
X142663582Y-104120242D01*
X142658038Y-104117620D01*
X142652777Y-104114467D01*
X142647850Y-104110813D01*
X142643306Y-104106694D01*
X142639187Y-104102150D01*
X142635533Y-104097223D01*
X142632380Y-104091962D01*
X142629758Y-104086418D01*
X142627691Y-104080643D01*
X142626201Y-104074693D01*
X142625301Y-104068626D01*
X142625000Y-104062500D01*
X142625000Y-103937500D01*
X142625301Y-103931374D01*
X142626201Y-103925307D01*
X142627691Y-103919357D01*
X142629758Y-103913582D01*
X142632380Y-103908038D01*
X142635533Y-103902777D01*
X142639187Y-103897850D01*
X142643306Y-103893306D01*
X142647850Y-103889187D01*
X142652777Y-103885533D01*
X142658038Y-103882380D01*
X142663582Y-103879758D01*
X142669357Y-103877691D01*
X142675307Y-103876201D01*
X142681374Y-103875301D01*
X142687500Y-103875000D01*
X143637500Y-103875000D01*
X143643626Y-103875301D01*
X143643626Y-103875301D01*
G37*
D16*
G04 #@! TD*
G04 #@! TO.P,U1,27*
G04 #@! TO.N,+3V3*
X143162500Y-104000000D03*
D10*
G04 #@! TO.N,/SWCLK*
G04 #@! TO.C,U1*
G36*
X144068626Y-104300301D02*
X144074693Y-104301201D01*
X144080643Y-104302691D01*
X144086418Y-104304758D01*
X144091962Y-104307380D01*
X144097223Y-104310533D01*
X144102150Y-104314187D01*
X144106694Y-104318306D01*
X144110813Y-104322850D01*
X144114467Y-104327777D01*
X144117620Y-104333038D01*
X144120242Y-104338582D01*
X144122309Y-104344357D01*
X144123799Y-104350307D01*
X144124699Y-104356374D01*
X144125000Y-104362500D01*
X144125000Y-105312500D01*
X144124699Y-105318626D01*
X144123799Y-105324693D01*
X144122309Y-105330643D01*
X144120242Y-105336418D01*
X144117620Y-105341962D01*
X144114467Y-105347223D01*
X144110813Y-105352150D01*
X144106694Y-105356694D01*
X144102150Y-105360813D01*
X144097223Y-105364467D01*
X144091962Y-105367620D01*
X144086418Y-105370242D01*
X144080643Y-105372309D01*
X144074693Y-105373799D01*
X144068626Y-105374699D01*
X144062500Y-105375000D01*
X143937500Y-105375000D01*
X143931374Y-105374699D01*
X143925307Y-105373799D01*
X143919357Y-105372309D01*
X143913582Y-105370242D01*
X143908038Y-105367620D01*
X143902777Y-105364467D01*
X143897850Y-105360813D01*
X143893306Y-105356694D01*
X143889187Y-105352150D01*
X143885533Y-105347223D01*
X143882380Y-105341962D01*
X143879758Y-105336418D01*
X143877691Y-105330643D01*
X143876201Y-105324693D01*
X143875301Y-105318626D01*
X143875000Y-105312500D01*
X143875000Y-104362500D01*
X143875301Y-104356374D01*
X143876201Y-104350307D01*
X143877691Y-104344357D01*
X143879758Y-104338582D01*
X143882380Y-104333038D01*
X143885533Y-104327777D01*
X143889187Y-104322850D01*
X143893306Y-104318306D01*
X143897850Y-104314187D01*
X143902777Y-104310533D01*
X143908038Y-104307380D01*
X143913582Y-104304758D01*
X143919357Y-104302691D01*
X143925307Y-104301201D01*
X143931374Y-104300301D01*
X143937500Y-104300000D01*
X144062500Y-104300000D01*
X144068626Y-104300301D01*
X144068626Y-104300301D01*
G37*
D16*
G04 #@! TD*
G04 #@! TO.P,U1,28*
G04 #@! TO.N,/SWCLK*
X144000000Y-104837500D03*
D10*
G04 #@! TO.N,N/C*
G04 #@! TO.C,U1*
G36*
X144568626Y-104300301D02*
X144574693Y-104301201D01*
X144580643Y-104302691D01*
X144586418Y-104304758D01*
X144591962Y-104307380D01*
X144597223Y-104310533D01*
X144602150Y-104314187D01*
X144606694Y-104318306D01*
X144610813Y-104322850D01*
X144614467Y-104327777D01*
X144617620Y-104333038D01*
X144620242Y-104338582D01*
X144622309Y-104344357D01*
X144623799Y-104350307D01*
X144624699Y-104356374D01*
X144625000Y-104362500D01*
X144625000Y-105312500D01*
X144624699Y-105318626D01*
X144623799Y-105324693D01*
X144622309Y-105330643D01*
X144620242Y-105336418D01*
X144617620Y-105341962D01*
X144614467Y-105347223D01*
X144610813Y-105352150D01*
X144606694Y-105356694D01*
X144602150Y-105360813D01*
X144597223Y-105364467D01*
X144591962Y-105367620D01*
X144586418Y-105370242D01*
X144580643Y-105372309D01*
X144574693Y-105373799D01*
X144568626Y-105374699D01*
X144562500Y-105375000D01*
X144437500Y-105375000D01*
X144431374Y-105374699D01*
X144425307Y-105373799D01*
X144419357Y-105372309D01*
X144413582Y-105370242D01*
X144408038Y-105367620D01*
X144402777Y-105364467D01*
X144397850Y-105360813D01*
X144393306Y-105356694D01*
X144389187Y-105352150D01*
X144385533Y-105347223D01*
X144382380Y-105341962D01*
X144379758Y-105336418D01*
X144377691Y-105330643D01*
X144376201Y-105324693D01*
X144375301Y-105318626D01*
X144375000Y-105312500D01*
X144375000Y-104362500D01*
X144375301Y-104356374D01*
X144376201Y-104350307D01*
X144377691Y-104344357D01*
X144379758Y-104338582D01*
X144382380Y-104333038D01*
X144385533Y-104327777D01*
X144389187Y-104322850D01*
X144393306Y-104318306D01*
X144397850Y-104314187D01*
X144402777Y-104310533D01*
X144408038Y-104307380D01*
X144413582Y-104304758D01*
X144419357Y-104302691D01*
X144425307Y-104301201D01*
X144431374Y-104300301D01*
X144437500Y-104300000D01*
X144562500Y-104300000D01*
X144568626Y-104300301D01*
X144568626Y-104300301D01*
G37*
D16*
G04 #@! TD*
G04 #@! TO.P,U1,29*
G04 #@! TO.N,N/C*
X144500000Y-104837500D03*
D10*
G04 #@! TO.N,/SWO*
G04 #@! TO.C,U1*
G36*
X145068626Y-104300301D02*
X145074693Y-104301201D01*
X145080643Y-104302691D01*
X145086418Y-104304758D01*
X145091962Y-104307380D01*
X145097223Y-104310533D01*
X145102150Y-104314187D01*
X145106694Y-104318306D01*
X145110813Y-104322850D01*
X145114467Y-104327777D01*
X145117620Y-104333038D01*
X145120242Y-104338582D01*
X145122309Y-104344357D01*
X145123799Y-104350307D01*
X145124699Y-104356374D01*
X145125000Y-104362500D01*
X145125000Y-105312500D01*
X145124699Y-105318626D01*
X145123799Y-105324693D01*
X145122309Y-105330643D01*
X145120242Y-105336418D01*
X145117620Y-105341962D01*
X145114467Y-105347223D01*
X145110813Y-105352150D01*
X145106694Y-105356694D01*
X145102150Y-105360813D01*
X145097223Y-105364467D01*
X145091962Y-105367620D01*
X145086418Y-105370242D01*
X145080643Y-105372309D01*
X145074693Y-105373799D01*
X145068626Y-105374699D01*
X145062500Y-105375000D01*
X144937500Y-105375000D01*
X144931374Y-105374699D01*
X144925307Y-105373799D01*
X144919357Y-105372309D01*
X144913582Y-105370242D01*
X144908038Y-105367620D01*
X144902777Y-105364467D01*
X144897850Y-105360813D01*
X144893306Y-105356694D01*
X144889187Y-105352150D01*
X144885533Y-105347223D01*
X144882380Y-105341962D01*
X144879758Y-105336418D01*
X144877691Y-105330643D01*
X144876201Y-105324693D01*
X144875301Y-105318626D01*
X144875000Y-105312500D01*
X144875000Y-104362500D01*
X144875301Y-104356374D01*
X144876201Y-104350307D01*
X144877691Y-104344357D01*
X144879758Y-104338582D01*
X144882380Y-104333038D01*
X144885533Y-104327777D01*
X144889187Y-104322850D01*
X144893306Y-104318306D01*
X144897850Y-104314187D01*
X144902777Y-104310533D01*
X144908038Y-104307380D01*
X144913582Y-104304758D01*
X144919357Y-104302691D01*
X144925307Y-104301201D01*
X144931374Y-104300301D01*
X144937500Y-104300000D01*
X145062500Y-104300000D01*
X145068626Y-104300301D01*
X145068626Y-104300301D01*
G37*
D16*
G04 #@! TD*
G04 #@! TO.P,U1,30*
G04 #@! TO.N,/SWO*
X145000000Y-104837500D03*
D10*
G04 #@! TO.N,N/C*
G04 #@! TO.C,U1*
G36*
X145568626Y-104300301D02*
X145574693Y-104301201D01*
X145580643Y-104302691D01*
X145586418Y-104304758D01*
X145591962Y-104307380D01*
X145597223Y-104310533D01*
X145602150Y-104314187D01*
X145606694Y-104318306D01*
X145610813Y-104322850D01*
X145614467Y-104327777D01*
X145617620Y-104333038D01*
X145620242Y-104338582D01*
X145622309Y-104344357D01*
X145623799Y-104350307D01*
X145624699Y-104356374D01*
X145625000Y-104362500D01*
X145625000Y-105312500D01*
X145624699Y-105318626D01*
X145623799Y-105324693D01*
X145622309Y-105330643D01*
X145620242Y-105336418D01*
X145617620Y-105341962D01*
X145614467Y-105347223D01*
X145610813Y-105352150D01*
X145606694Y-105356694D01*
X145602150Y-105360813D01*
X145597223Y-105364467D01*
X145591962Y-105367620D01*
X145586418Y-105370242D01*
X145580643Y-105372309D01*
X145574693Y-105373799D01*
X145568626Y-105374699D01*
X145562500Y-105375000D01*
X145437500Y-105375000D01*
X145431374Y-105374699D01*
X145425307Y-105373799D01*
X145419357Y-105372309D01*
X145413582Y-105370242D01*
X145408038Y-105367620D01*
X145402777Y-105364467D01*
X145397850Y-105360813D01*
X145393306Y-105356694D01*
X145389187Y-105352150D01*
X145385533Y-105347223D01*
X145382380Y-105341962D01*
X145379758Y-105336418D01*
X145377691Y-105330643D01*
X145376201Y-105324693D01*
X145375301Y-105318626D01*
X145375000Y-105312500D01*
X145375000Y-104362500D01*
X145375301Y-104356374D01*
X145376201Y-104350307D01*
X145377691Y-104344357D01*
X145379758Y-104338582D01*
X145382380Y-104333038D01*
X145385533Y-104327777D01*
X145389187Y-104322850D01*
X145393306Y-104318306D01*
X145397850Y-104314187D01*
X145402777Y-104310533D01*
X145408038Y-104307380D01*
X145413582Y-104304758D01*
X145419357Y-104302691D01*
X145425307Y-104301201D01*
X145431374Y-104300301D01*
X145437500Y-104300000D01*
X145562500Y-104300000D01*
X145568626Y-104300301D01*
X145568626Y-104300301D01*
G37*
D16*
G04 #@! TD*
G04 #@! TO.P,U1,31*
G04 #@! TO.N,N/C*
X145500000Y-104837500D03*
D10*
G04 #@! TO.N,N/C*
G04 #@! TO.C,U1*
G36*
X146068626Y-104300301D02*
X146074693Y-104301201D01*
X146080643Y-104302691D01*
X146086418Y-104304758D01*
X146091962Y-104307380D01*
X146097223Y-104310533D01*
X146102150Y-104314187D01*
X146106694Y-104318306D01*
X146110813Y-104322850D01*
X146114467Y-104327777D01*
X146117620Y-104333038D01*
X146120242Y-104338582D01*
X146122309Y-104344357D01*
X146123799Y-104350307D01*
X146124699Y-104356374D01*
X146125000Y-104362500D01*
X146125000Y-105312500D01*
X146124699Y-105318626D01*
X146123799Y-105324693D01*
X146122309Y-105330643D01*
X146120242Y-105336418D01*
X146117620Y-105341962D01*
X146114467Y-105347223D01*
X146110813Y-105352150D01*
X146106694Y-105356694D01*
X146102150Y-105360813D01*
X146097223Y-105364467D01*
X146091962Y-105367620D01*
X146086418Y-105370242D01*
X146080643Y-105372309D01*
X146074693Y-105373799D01*
X146068626Y-105374699D01*
X146062500Y-105375000D01*
X145937500Y-105375000D01*
X145931374Y-105374699D01*
X145925307Y-105373799D01*
X145919357Y-105372309D01*
X145913582Y-105370242D01*
X145908038Y-105367620D01*
X145902777Y-105364467D01*
X145897850Y-105360813D01*
X145893306Y-105356694D01*
X145889187Y-105352150D01*
X145885533Y-105347223D01*
X145882380Y-105341962D01*
X145879758Y-105336418D01*
X145877691Y-105330643D01*
X145876201Y-105324693D01*
X145875301Y-105318626D01*
X145875000Y-105312500D01*
X145875000Y-104362500D01*
X145875301Y-104356374D01*
X145876201Y-104350307D01*
X145877691Y-104344357D01*
X145879758Y-104338582D01*
X145882380Y-104333038D01*
X145885533Y-104327777D01*
X145889187Y-104322850D01*
X145893306Y-104318306D01*
X145897850Y-104314187D01*
X145902777Y-104310533D01*
X145908038Y-104307380D01*
X145913582Y-104304758D01*
X145919357Y-104302691D01*
X145925307Y-104301201D01*
X145931374Y-104300301D01*
X145937500Y-104300000D01*
X146062500Y-104300000D01*
X146068626Y-104300301D01*
X146068626Y-104300301D01*
G37*
D16*
G04 #@! TD*
G04 #@! TO.P,U1,32*
G04 #@! TO.N,N/C*
X146000000Y-104837500D03*
D10*
G04 #@! TO.N,N/C*
G04 #@! TO.C,U1*
G36*
X146568626Y-104300301D02*
X146574693Y-104301201D01*
X146580643Y-104302691D01*
X146586418Y-104304758D01*
X146591962Y-104307380D01*
X146597223Y-104310533D01*
X146602150Y-104314187D01*
X146606694Y-104318306D01*
X146610813Y-104322850D01*
X146614467Y-104327777D01*
X146617620Y-104333038D01*
X146620242Y-104338582D01*
X146622309Y-104344357D01*
X146623799Y-104350307D01*
X146624699Y-104356374D01*
X146625000Y-104362500D01*
X146625000Y-105312500D01*
X146624699Y-105318626D01*
X146623799Y-105324693D01*
X146622309Y-105330643D01*
X146620242Y-105336418D01*
X146617620Y-105341962D01*
X146614467Y-105347223D01*
X146610813Y-105352150D01*
X146606694Y-105356694D01*
X146602150Y-105360813D01*
X146597223Y-105364467D01*
X146591962Y-105367620D01*
X146586418Y-105370242D01*
X146580643Y-105372309D01*
X146574693Y-105373799D01*
X146568626Y-105374699D01*
X146562500Y-105375000D01*
X146437500Y-105375000D01*
X146431374Y-105374699D01*
X146425307Y-105373799D01*
X146419357Y-105372309D01*
X146413582Y-105370242D01*
X146408038Y-105367620D01*
X146402777Y-105364467D01*
X146397850Y-105360813D01*
X146393306Y-105356694D01*
X146389187Y-105352150D01*
X146385533Y-105347223D01*
X146382380Y-105341962D01*
X146379758Y-105336418D01*
X146377691Y-105330643D01*
X146376201Y-105324693D01*
X146375301Y-105318626D01*
X146375000Y-105312500D01*
X146375000Y-104362500D01*
X146375301Y-104356374D01*
X146376201Y-104350307D01*
X146377691Y-104344357D01*
X146379758Y-104338582D01*
X146382380Y-104333038D01*
X146385533Y-104327777D01*
X146389187Y-104322850D01*
X146393306Y-104318306D01*
X146397850Y-104314187D01*
X146402777Y-104310533D01*
X146408038Y-104307380D01*
X146413582Y-104304758D01*
X146419357Y-104302691D01*
X146425307Y-104301201D01*
X146431374Y-104300301D01*
X146437500Y-104300000D01*
X146562500Y-104300000D01*
X146568626Y-104300301D01*
X146568626Y-104300301D01*
G37*
D16*
G04 #@! TD*
G04 #@! TO.P,U1,33*
G04 #@! TO.N,N/C*
X146500000Y-104837500D03*
D10*
G04 #@! TO.N,N/C*
G04 #@! TO.C,U1*
G36*
X147068626Y-104300301D02*
X147074693Y-104301201D01*
X147080643Y-104302691D01*
X147086418Y-104304758D01*
X147091962Y-104307380D01*
X147097223Y-104310533D01*
X147102150Y-104314187D01*
X147106694Y-104318306D01*
X147110813Y-104322850D01*
X147114467Y-104327777D01*
X147117620Y-104333038D01*
X147120242Y-104338582D01*
X147122309Y-104344357D01*
X147123799Y-104350307D01*
X147124699Y-104356374D01*
X147125000Y-104362500D01*
X147125000Y-105312500D01*
X147124699Y-105318626D01*
X147123799Y-105324693D01*
X147122309Y-105330643D01*
X147120242Y-105336418D01*
X147117620Y-105341962D01*
X147114467Y-105347223D01*
X147110813Y-105352150D01*
X147106694Y-105356694D01*
X147102150Y-105360813D01*
X147097223Y-105364467D01*
X147091962Y-105367620D01*
X147086418Y-105370242D01*
X147080643Y-105372309D01*
X147074693Y-105373799D01*
X147068626Y-105374699D01*
X147062500Y-105375000D01*
X146937500Y-105375000D01*
X146931374Y-105374699D01*
X146925307Y-105373799D01*
X146919357Y-105372309D01*
X146913582Y-105370242D01*
X146908038Y-105367620D01*
X146902777Y-105364467D01*
X146897850Y-105360813D01*
X146893306Y-105356694D01*
X146889187Y-105352150D01*
X146885533Y-105347223D01*
X146882380Y-105341962D01*
X146879758Y-105336418D01*
X146877691Y-105330643D01*
X146876201Y-105324693D01*
X146875301Y-105318626D01*
X146875000Y-105312500D01*
X146875000Y-104362500D01*
X146875301Y-104356374D01*
X146876201Y-104350307D01*
X146877691Y-104344357D01*
X146879758Y-104338582D01*
X146882380Y-104333038D01*
X146885533Y-104327777D01*
X146889187Y-104322850D01*
X146893306Y-104318306D01*
X146897850Y-104314187D01*
X146902777Y-104310533D01*
X146908038Y-104307380D01*
X146913582Y-104304758D01*
X146919357Y-104302691D01*
X146925307Y-104301201D01*
X146931374Y-104300301D01*
X146937500Y-104300000D01*
X147062500Y-104300000D01*
X147068626Y-104300301D01*
X147068626Y-104300301D01*
G37*
D16*
G04 #@! TD*
G04 #@! TO.P,U1,34*
G04 #@! TO.N,N/C*
X147000000Y-104837500D03*
D10*
G04 #@! TO.N,/BOOT0*
G04 #@! TO.C,U1*
G36*
X147568626Y-104300301D02*
X147574693Y-104301201D01*
X147580643Y-104302691D01*
X147586418Y-104304758D01*
X147591962Y-104307380D01*
X147597223Y-104310533D01*
X147602150Y-104314187D01*
X147606694Y-104318306D01*
X147610813Y-104322850D01*
X147614467Y-104327777D01*
X147617620Y-104333038D01*
X147620242Y-104338582D01*
X147622309Y-104344357D01*
X147623799Y-104350307D01*
X147624699Y-104356374D01*
X147625000Y-104362500D01*
X147625000Y-105312500D01*
X147624699Y-105318626D01*
X147623799Y-105324693D01*
X147622309Y-105330643D01*
X147620242Y-105336418D01*
X147617620Y-105341962D01*
X147614467Y-105347223D01*
X147610813Y-105352150D01*
X147606694Y-105356694D01*
X147602150Y-105360813D01*
X147597223Y-105364467D01*
X147591962Y-105367620D01*
X147586418Y-105370242D01*
X147580643Y-105372309D01*
X147574693Y-105373799D01*
X147568626Y-105374699D01*
X147562500Y-105375000D01*
X147437500Y-105375000D01*
X147431374Y-105374699D01*
X147425307Y-105373799D01*
X147419357Y-105372309D01*
X147413582Y-105370242D01*
X147408038Y-105367620D01*
X147402777Y-105364467D01*
X147397850Y-105360813D01*
X147393306Y-105356694D01*
X147389187Y-105352150D01*
X147385533Y-105347223D01*
X147382380Y-105341962D01*
X147379758Y-105336418D01*
X147377691Y-105330643D01*
X147376201Y-105324693D01*
X147375301Y-105318626D01*
X147375000Y-105312500D01*
X147375000Y-104362500D01*
X147375301Y-104356374D01*
X147376201Y-104350307D01*
X147377691Y-104344357D01*
X147379758Y-104338582D01*
X147382380Y-104333038D01*
X147385533Y-104327777D01*
X147389187Y-104322850D01*
X147393306Y-104318306D01*
X147397850Y-104314187D01*
X147402777Y-104310533D01*
X147408038Y-104307380D01*
X147413582Y-104304758D01*
X147419357Y-104302691D01*
X147425307Y-104301201D01*
X147431374Y-104300301D01*
X147437500Y-104300000D01*
X147562500Y-104300000D01*
X147568626Y-104300301D01*
X147568626Y-104300301D01*
G37*
D16*
G04 #@! TD*
G04 #@! TO.P,U1,35*
G04 #@! TO.N,/BOOT0*
X147500000Y-104837500D03*
D10*
G04 #@! TO.N,GND*
G04 #@! TO.C,U1*
G36*
X148068626Y-104300301D02*
X148074693Y-104301201D01*
X148080643Y-104302691D01*
X148086418Y-104304758D01*
X148091962Y-104307380D01*
X148097223Y-104310533D01*
X148102150Y-104314187D01*
X148106694Y-104318306D01*
X148110813Y-104322850D01*
X148114467Y-104327777D01*
X148117620Y-104333038D01*
X148120242Y-104338582D01*
X148122309Y-104344357D01*
X148123799Y-104350307D01*
X148124699Y-104356374D01*
X148125000Y-104362500D01*
X148125000Y-105312500D01*
X148124699Y-105318626D01*
X148123799Y-105324693D01*
X148122309Y-105330643D01*
X148120242Y-105336418D01*
X148117620Y-105341962D01*
X148114467Y-105347223D01*
X148110813Y-105352150D01*
X148106694Y-105356694D01*
X148102150Y-105360813D01*
X148097223Y-105364467D01*
X148091962Y-105367620D01*
X148086418Y-105370242D01*
X148080643Y-105372309D01*
X148074693Y-105373799D01*
X148068626Y-105374699D01*
X148062500Y-105375000D01*
X147937500Y-105375000D01*
X147931374Y-105374699D01*
X147925307Y-105373799D01*
X147919357Y-105372309D01*
X147913582Y-105370242D01*
X147908038Y-105367620D01*
X147902777Y-105364467D01*
X147897850Y-105360813D01*
X147893306Y-105356694D01*
X147889187Y-105352150D01*
X147885533Y-105347223D01*
X147882380Y-105341962D01*
X147879758Y-105336418D01*
X147877691Y-105330643D01*
X147876201Y-105324693D01*
X147875301Y-105318626D01*
X147875000Y-105312500D01*
X147875000Y-104362500D01*
X147875301Y-104356374D01*
X147876201Y-104350307D01*
X147877691Y-104344357D01*
X147879758Y-104338582D01*
X147882380Y-104333038D01*
X147885533Y-104327777D01*
X147889187Y-104322850D01*
X147893306Y-104318306D01*
X147897850Y-104314187D01*
X147902777Y-104310533D01*
X147908038Y-104307380D01*
X147913582Y-104304758D01*
X147919357Y-104302691D01*
X147925307Y-104301201D01*
X147931374Y-104300301D01*
X147937500Y-104300000D01*
X148062500Y-104300000D01*
X148068626Y-104300301D01*
X148068626Y-104300301D01*
G37*
D16*
G04 #@! TD*
G04 #@! TO.P,U1,36*
G04 #@! TO.N,GND*
X148000000Y-104837500D03*
D17*
G04 #@! TO.P,U2,1*
G04 #@! TO.N,GND*
X139800000Y-110550000D03*
G04 #@! TO.P,U2,2*
G04 #@! TO.N,+3V3*
X139800000Y-108650000D03*
G04 #@! TO.P,U2,3*
G04 #@! TO.N,VBUS*
X137800000Y-109600000D03*
G04 #@! TD*
D18*
G04 #@! TO.P,Y1,1*
G04 #@! TO.N,Net-(U1-Pad2)*
X150800000Y-105400000D03*
G04 #@! TO.P,Y1,2*
G04 #@! TO.N,GND*
X150800000Y-104200000D03*
G04 #@! TO.P,Y1,3*
G04 #@! TO.N,Net-(U1-Pad3)*
X150800000Y-103000000D03*
G04 #@! TD*
D10*
G04 #@! TO.N,GND*
G04 #@! TO.C,D3*
G36*
X144052691Y-96926053D02*
X144073926Y-96929203D01*
X144094750Y-96934419D01*
X144114962Y-96941651D01*
X144134368Y-96950830D01*
X144152781Y-96961866D01*
X144170024Y-96974654D01*
X144185930Y-96989070D01*
X144200346Y-97004976D01*
X144213134Y-97022219D01*
X144224170Y-97040632D01*
X144233349Y-97060038D01*
X144240581Y-97080250D01*
X144245797Y-97101074D01*
X144248947Y-97122309D01*
X144250000Y-97143750D01*
X144250000Y-97656250D01*
X144248947Y-97677691D01*
X144245797Y-97698926D01*
X144240581Y-97719750D01*
X144233349Y-97739962D01*
X144224170Y-97759368D01*
X144213134Y-97777781D01*
X144200346Y-97795024D01*
X144185930Y-97810930D01*
X144170024Y-97825346D01*
X144152781Y-97838134D01*
X144134368Y-97849170D01*
X144114962Y-97858349D01*
X144094750Y-97865581D01*
X144073926Y-97870797D01*
X144052691Y-97873947D01*
X144031250Y-97875000D01*
X143593750Y-97875000D01*
X143572309Y-97873947D01*
X143551074Y-97870797D01*
X143530250Y-97865581D01*
X143510038Y-97858349D01*
X143490632Y-97849170D01*
X143472219Y-97838134D01*
X143454976Y-97825346D01*
X143439070Y-97810930D01*
X143424654Y-97795024D01*
X143411866Y-97777781D01*
X143400830Y-97759368D01*
X143391651Y-97739962D01*
X143384419Y-97719750D01*
X143379203Y-97698926D01*
X143376053Y-97677691D01*
X143375000Y-97656250D01*
X143375000Y-97143750D01*
X143376053Y-97122309D01*
X143379203Y-97101074D01*
X143384419Y-97080250D01*
X143391651Y-97060038D01*
X143400830Y-97040632D01*
X143411866Y-97022219D01*
X143424654Y-97004976D01*
X143439070Y-96989070D01*
X143454976Y-96974654D01*
X143472219Y-96961866D01*
X143490632Y-96950830D01*
X143510038Y-96941651D01*
X143530250Y-96934419D01*
X143551074Y-96929203D01*
X143572309Y-96926053D01*
X143593750Y-96925000D01*
X144031250Y-96925000D01*
X144052691Y-96926053D01*
X144052691Y-96926053D01*
G37*
D11*
G04 #@! TD*
G04 #@! TO.P,D3,1*
G04 #@! TO.N,GND*
X143812500Y-97400000D03*
D10*
G04 #@! TO.N,Net-(D3-Pad2)*
G04 #@! TO.C,D3*
G36*
X145627691Y-96926053D02*
X145648926Y-96929203D01*
X145669750Y-96934419D01*
X145689962Y-96941651D01*
X145709368Y-96950830D01*
X145727781Y-96961866D01*
X145745024Y-96974654D01*
X145760930Y-96989070D01*
X145775346Y-97004976D01*
X145788134Y-97022219D01*
X145799170Y-97040632D01*
X145808349Y-97060038D01*
X145815581Y-97080250D01*
X145820797Y-97101074D01*
X145823947Y-97122309D01*
X145825000Y-97143750D01*
X145825000Y-97656250D01*
X145823947Y-97677691D01*
X145820797Y-97698926D01*
X145815581Y-97719750D01*
X145808349Y-97739962D01*
X145799170Y-97759368D01*
X145788134Y-97777781D01*
X145775346Y-97795024D01*
X145760930Y-97810930D01*
X145745024Y-97825346D01*
X145727781Y-97838134D01*
X145709368Y-97849170D01*
X145689962Y-97858349D01*
X145669750Y-97865581D01*
X145648926Y-97870797D01*
X145627691Y-97873947D01*
X145606250Y-97875000D01*
X145168750Y-97875000D01*
X145147309Y-97873947D01*
X145126074Y-97870797D01*
X145105250Y-97865581D01*
X145085038Y-97858349D01*
X145065632Y-97849170D01*
X145047219Y-97838134D01*
X145029976Y-97825346D01*
X145014070Y-97810930D01*
X144999654Y-97795024D01*
X144986866Y-97777781D01*
X144975830Y-97759368D01*
X144966651Y-97739962D01*
X144959419Y-97719750D01*
X144954203Y-97698926D01*
X144951053Y-97677691D01*
X144950000Y-97656250D01*
X144950000Y-97143750D01*
X144951053Y-97122309D01*
X144954203Y-97101074D01*
X144959419Y-97080250D01*
X144966651Y-97060038D01*
X144975830Y-97040632D01*
X144986866Y-97022219D01*
X144999654Y-97004976D01*
X145014070Y-96989070D01*
X145029976Y-96974654D01*
X145047219Y-96961866D01*
X145065632Y-96950830D01*
X145085038Y-96941651D01*
X145105250Y-96934419D01*
X145126074Y-96929203D01*
X145147309Y-96926053D01*
X145168750Y-96925000D01*
X145606250Y-96925000D01*
X145627691Y-96926053D01*
X145627691Y-96926053D01*
G37*
D11*
G04 #@! TD*
G04 #@! TO.P,D3,2*
G04 #@! TO.N,Net-(D3-Pad2)*
X145387500Y-97400000D03*
D10*
G04 #@! TO.N,Net-(D3-Pad2)*
G04 #@! TO.C,R13*
G36*
X147152691Y-96926053D02*
X147173926Y-96929203D01*
X147194750Y-96934419D01*
X147214962Y-96941651D01*
X147234368Y-96950830D01*
X147252781Y-96961866D01*
X147270024Y-96974654D01*
X147285930Y-96989070D01*
X147300346Y-97004976D01*
X147313134Y-97022219D01*
X147324170Y-97040632D01*
X147333349Y-97060038D01*
X147340581Y-97080250D01*
X147345797Y-97101074D01*
X147348947Y-97122309D01*
X147350000Y-97143750D01*
X147350000Y-97656250D01*
X147348947Y-97677691D01*
X147345797Y-97698926D01*
X147340581Y-97719750D01*
X147333349Y-97739962D01*
X147324170Y-97759368D01*
X147313134Y-97777781D01*
X147300346Y-97795024D01*
X147285930Y-97810930D01*
X147270024Y-97825346D01*
X147252781Y-97838134D01*
X147234368Y-97849170D01*
X147214962Y-97858349D01*
X147194750Y-97865581D01*
X147173926Y-97870797D01*
X147152691Y-97873947D01*
X147131250Y-97875000D01*
X146693750Y-97875000D01*
X146672309Y-97873947D01*
X146651074Y-97870797D01*
X146630250Y-97865581D01*
X146610038Y-97858349D01*
X146590632Y-97849170D01*
X146572219Y-97838134D01*
X146554976Y-97825346D01*
X146539070Y-97810930D01*
X146524654Y-97795024D01*
X146511866Y-97777781D01*
X146500830Y-97759368D01*
X146491651Y-97739962D01*
X146484419Y-97719750D01*
X146479203Y-97698926D01*
X146476053Y-97677691D01*
X146475000Y-97656250D01*
X146475000Y-97143750D01*
X146476053Y-97122309D01*
X146479203Y-97101074D01*
X146484419Y-97080250D01*
X146491651Y-97060038D01*
X146500830Y-97040632D01*
X146511866Y-97022219D01*
X146524654Y-97004976D01*
X146539070Y-96989070D01*
X146554976Y-96974654D01*
X146572219Y-96961866D01*
X146590632Y-96950830D01*
X146610038Y-96941651D01*
X146630250Y-96934419D01*
X146651074Y-96929203D01*
X146672309Y-96926053D01*
X146693750Y-96925000D01*
X147131250Y-96925000D01*
X147152691Y-96926053D01*
X147152691Y-96926053D01*
G37*
D11*
G04 #@! TD*
G04 #@! TO.P,R13,1*
G04 #@! TO.N,Net-(D3-Pad2)*
X146912500Y-97400000D03*
D10*
G04 #@! TO.N,/LED2*
G04 #@! TO.C,R13*
G36*
X148727691Y-96926053D02*
X148748926Y-96929203D01*
X148769750Y-96934419D01*
X148789962Y-96941651D01*
X148809368Y-96950830D01*
X148827781Y-96961866D01*
X148845024Y-96974654D01*
X148860930Y-96989070D01*
X148875346Y-97004976D01*
X148888134Y-97022219D01*
X148899170Y-97040632D01*
X148908349Y-97060038D01*
X148915581Y-97080250D01*
X148920797Y-97101074D01*
X148923947Y-97122309D01*
X148925000Y-97143750D01*
X148925000Y-97656250D01*
X148923947Y-97677691D01*
X148920797Y-97698926D01*
X148915581Y-97719750D01*
X148908349Y-97739962D01*
X148899170Y-97759368D01*
X148888134Y-97777781D01*
X148875346Y-97795024D01*
X148860930Y-97810930D01*
X148845024Y-97825346D01*
X148827781Y-97838134D01*
X148809368Y-97849170D01*
X148789962Y-97858349D01*
X148769750Y-97865581D01*
X148748926Y-97870797D01*
X148727691Y-97873947D01*
X148706250Y-97875000D01*
X148268750Y-97875000D01*
X148247309Y-97873947D01*
X148226074Y-97870797D01*
X148205250Y-97865581D01*
X148185038Y-97858349D01*
X148165632Y-97849170D01*
X148147219Y-97838134D01*
X148129976Y-97825346D01*
X148114070Y-97810930D01*
X148099654Y-97795024D01*
X148086866Y-97777781D01*
X148075830Y-97759368D01*
X148066651Y-97739962D01*
X148059419Y-97719750D01*
X148054203Y-97698926D01*
X148051053Y-97677691D01*
X148050000Y-97656250D01*
X148050000Y-97143750D01*
X148051053Y-97122309D01*
X148054203Y-97101074D01*
X148059419Y-97080250D01*
X148066651Y-97060038D01*
X148075830Y-97040632D01*
X148086866Y-97022219D01*
X148099654Y-97004976D01*
X148114070Y-96989070D01*
X148129976Y-96974654D01*
X148147219Y-96961866D01*
X148165632Y-96950830D01*
X148185038Y-96941651D01*
X148205250Y-96934419D01*
X148226074Y-96929203D01*
X148247309Y-96926053D01*
X148268750Y-96925000D01*
X148706250Y-96925000D01*
X148727691Y-96926053D01*
X148727691Y-96926053D01*
G37*
D11*
G04 #@! TD*
G04 #@! TO.P,R13,2*
G04 #@! TO.N,/LED2*
X148487500Y-97400000D03*
D19*
G04 #@! TO.N,GND*
X131000000Y-96000000D03*
X163000000Y-96000000D03*
X163000000Y-110500000D03*
X131000000Y-110500000D03*
X147400000Y-103400000D03*
X144600000Y-100600000D03*
X146000000Y-102000000D03*
G04 #@! TO.N,+3V3*
X150199500Y-109487490D03*
X141700000Y-100200000D03*
X141196482Y-104467488D03*
X148900000Y-105000000D03*
X150499979Y-101010488D03*
G04 #@! TO.N,Net-(C4-Pad2)*
X151300000Y-109800000D03*
G04 #@! TO.N,/SWDIO*
X141080370Y-103452215D03*
G04 #@! TO.N,/~RESET*
X150159680Y-102199826D03*
G04 #@! TO.N,/SWCLK*
X143100000Y-105000000D03*
G04 #@! TO.N,/SWO*
X145000000Y-106200000D03*
G04 #@! TO.N,Net-(JP1-Pad2)*
X142300000Y-107100000D03*
G04 #@! TO.N,Net-(JP2-Pad2)*
X135000000Y-101000000D03*
G04 #@! TO.N,/USB_DM*
X139262707Y-106399990D03*
X142045451Y-102014065D03*
G04 #@! TO.N,/MIC_IN*
X151462737Y-102163229D03*
G04 #@! TO.N,/LINE_OUT*
X150599979Y-100000008D03*
G04 #@! TD*
D20*
G04 #@! TO.N,GND*
X144000000Y-100000000D02*
X144600000Y-100600000D01*
X144000000Y-99162500D02*
X144000000Y-100000000D01*
X148837500Y-102000000D02*
X146000000Y-102000000D01*
X148000000Y-104000000D02*
X147400000Y-103400000D01*
X148000000Y-104837500D02*
X148000000Y-104000000D01*
X144500000Y-103500000D02*
X146000000Y-102000000D01*
X143162500Y-103500000D02*
X144500000Y-103500000D01*
X147400000Y-103400000D02*
X146000000Y-102000000D01*
X144600000Y-100600000D02*
X146000000Y-102000000D01*
D21*
X141037500Y-110550000D02*
X141400000Y-110187500D01*
X139800000Y-110550000D02*
X141037500Y-110550000D01*
X145437510Y-111025010D02*
X145061612Y-110649112D01*
X145061612Y-110649112D02*
X144600000Y-110187500D01*
X151824990Y-111025010D02*
X145437510Y-111025010D01*
X152700000Y-110150000D02*
X151824990Y-111025010D01*
X153000000Y-110150000D02*
X152700000Y-110150000D01*
X136562500Y-110550000D02*
X136200000Y-110187500D01*
X139800000Y-110550000D02*
X136562500Y-110550000D01*
G04 #@! TO.N,VBUS*
X137187500Y-109600000D02*
X136200000Y-108612500D01*
X137800000Y-109600000D02*
X137187500Y-109600000D01*
X136200000Y-107100000D02*
X135850000Y-106750000D01*
X136200000Y-108612500D02*
X136200000Y-107100000D01*
G04 #@! TO.N,+3V3*
X141362500Y-108650000D02*
X141400000Y-108612500D01*
X139800000Y-108650000D02*
X141362500Y-108650000D01*
X141400000Y-108612500D02*
X143000000Y-108612500D01*
X145738388Y-108150888D02*
X146200000Y-108612500D01*
X145362490Y-107774990D02*
X145738388Y-108150888D01*
X143837510Y-107774990D02*
X145362490Y-107774990D01*
X143000000Y-108612500D02*
X143837510Y-107774990D01*
X146200000Y-108612500D02*
X147800000Y-108612500D01*
X149324510Y-108612500D02*
X149799501Y-109087491D01*
X149799501Y-109087491D02*
X150199500Y-109487490D01*
X147800000Y-108612500D02*
X149324510Y-108612500D01*
D20*
X143162500Y-100000000D02*
X141900000Y-100000000D01*
X141900000Y-100000000D02*
X141700000Y-100200000D01*
D21*
X139987500Y-104000000D02*
X140454988Y-104467488D01*
D20*
X143162500Y-104000000D02*
X141663970Y-104000000D01*
D21*
X140454988Y-104467488D02*
X140630797Y-104467488D01*
D20*
X141663970Y-104000000D02*
X141596481Y-104067489D01*
D21*
X140630797Y-104467488D02*
X141196482Y-104467488D01*
X141400000Y-104671006D02*
X141196482Y-104467488D01*
X141400000Y-108612500D02*
X141400000Y-104671006D01*
D20*
X141596481Y-104067489D02*
X141196482Y-104467488D01*
D21*
X149324510Y-108612500D02*
X149324510Y-105424510D01*
X149324510Y-105424510D02*
X148900000Y-105000000D01*
D20*
X148837500Y-104937500D02*
X148900000Y-105000000D01*
X148837500Y-104000000D02*
X148837500Y-104937500D01*
X150010467Y-101500000D02*
X150099980Y-101410487D01*
X150099980Y-101410487D02*
X150499979Y-101010488D01*
X148837500Y-101500000D02*
X150010467Y-101500000D01*
G04 #@! TO.N,Net-(C4-Pad2)*
X147800000Y-110187500D02*
X150912500Y-110187500D01*
X150912500Y-110187500D02*
X151300000Y-109800000D01*
G04 #@! TO.N,Net-(D1-Pad2)*
X156299500Y-103300000D02*
X157724500Y-103300000D01*
G04 #@! TO.N,Net-(D2-Pad2)*
X146175000Y-110187500D02*
X146200000Y-110187500D01*
X144600000Y-108612500D02*
X146175000Y-110187500D01*
G04 #@! TO.N,Net-(J1-Pad2)*
X135850000Y-105000000D02*
X135850000Y-104250000D01*
X136450000Y-105600000D02*
X135850000Y-105000000D01*
X138412500Y-105600000D02*
X136450000Y-105600000D01*
G04 #@! TO.N,Net-(J1-Pad3)*
X138262500Y-102250000D02*
X138412500Y-102400000D01*
X135850000Y-102250000D02*
X138262500Y-102250000D01*
G04 #@! TO.N,/SWDIO*
X143162500Y-103000000D02*
X143087510Y-103074990D01*
X143087510Y-103074990D02*
X142537342Y-103074990D01*
X142160117Y-103452215D02*
X141646055Y-103452215D01*
X142537342Y-103074990D02*
X142160117Y-103452215D01*
X141646055Y-103452215D02*
X141080370Y-103452215D01*
G04 #@! TO.N,/~RESET*
X148837500Y-102500000D02*
X149859506Y-102500000D01*
X149859506Y-102500000D02*
X150159680Y-102199826D01*
G04 #@! TO.N,/SWCLK*
X143837500Y-105000000D02*
X144000000Y-104837500D01*
X143100000Y-105000000D02*
X143837500Y-105000000D01*
G04 #@! TO.N,/SWO*
X145000000Y-104837500D02*
X145000000Y-106200000D01*
G04 #@! TO.N,Net-(JP1-Pad2)*
X146212500Y-107100000D02*
X142300000Y-107100000D01*
G04 #@! TO.N,Net-(JP2-Pad2)*
X138412500Y-100800000D02*
X135200000Y-100800000D01*
X135200000Y-100800000D02*
X135000000Y-101000000D01*
G04 #@! TO.N,/USB_DP*
X139987500Y-102425000D02*
X139987500Y-102400000D01*
X138412500Y-104000000D02*
X139987500Y-102425000D01*
X140525000Y-102400000D02*
X139987500Y-102400000D01*
X142371653Y-102674979D02*
X142328039Y-102718593D01*
X143162500Y-102500000D02*
X142593302Y-102500000D01*
X142593302Y-102500000D02*
X142418323Y-102674979D01*
X142328039Y-102718593D02*
X141702707Y-102718593D01*
X142418323Y-102674979D02*
X142371653Y-102674979D01*
X141384114Y-102400000D02*
X140525000Y-102400000D01*
X141702707Y-102718593D02*
X141384114Y-102400000D01*
G04 #@! TO.N,/USB_DM*
X139987500Y-105600000D02*
X139262707Y-106324793D01*
X139262707Y-106324793D02*
X139262707Y-106399990D01*
X142059516Y-102000000D02*
X142045451Y-102014065D01*
X143162500Y-102000000D02*
X142059516Y-102000000D01*
G04 #@! TO.N,/BOOT0*
X147500000Y-106812500D02*
X147787500Y-107100000D01*
X147500000Y-104837500D02*
X147500000Y-106812500D01*
G04 #@! TO.N,/BOOT1*
X142462510Y-98324990D02*
X140449112Y-100338388D01*
X144299990Y-98324990D02*
X142462510Y-98324990D01*
X140449112Y-100338388D02*
X139987500Y-100800000D01*
X144500000Y-98525000D02*
X144299990Y-98324990D01*
X144500000Y-99162500D02*
X144500000Y-98525000D01*
G04 #@! TO.N,/MIC_IN*
X150163998Y-99299998D02*
X150936002Y-99299998D01*
X151299989Y-99663985D02*
X151299989Y-102000481D01*
X149409300Y-100500000D02*
X149799998Y-100109302D01*
X148837500Y-100500000D02*
X149409300Y-100500000D01*
X151299989Y-102000481D02*
X151462737Y-102163229D01*
X149799998Y-99663998D02*
X150163998Y-99299998D01*
X150936002Y-99299998D02*
X151299989Y-99663985D01*
X149799998Y-100109302D02*
X149799998Y-99663998D01*
G04 #@! TO.N,/LINE_OUT*
X148837500Y-101000000D02*
X149475000Y-101000000D01*
X150474992Y-100000008D02*
X150599979Y-100000008D01*
X149475000Y-101000000D02*
X150474992Y-100000008D01*
G04 #@! TO.N,Net-(U1-Pad2)*
X149475000Y-103500000D02*
X148837500Y-103500000D01*
X149675010Y-104825010D02*
X149675010Y-103700010D01*
X149675010Y-103700010D02*
X149475000Y-103500000D01*
X150250000Y-105400000D02*
X149675010Y-104825010D01*
X150800000Y-105400000D02*
X150250000Y-105400000D01*
G04 #@! TO.N,Net-(U1-Pad3)*
X148837500Y-103000000D02*
X150800000Y-103000000D01*
G04 #@! TO.N,Net-(D3-Pad2)*
X145387500Y-97400000D02*
X146912500Y-97400000D01*
G04 #@! TO.N,/LED1*
X153635773Y-103300000D02*
X151700000Y-101364227D01*
X154724500Y-103300000D02*
X153635773Y-103300000D01*
X151700000Y-101364227D02*
X151700000Y-99400000D01*
X151700000Y-99400000D02*
X151100000Y-98800000D01*
X150037500Y-98800000D02*
X148837500Y-100000000D01*
X151100000Y-98800000D02*
X150037500Y-98800000D01*
G04 #@! TO.N,/LED2*
X148000000Y-97887500D02*
X148487500Y-97400000D01*
X148000000Y-99162500D02*
X148000000Y-97887500D01*
G04 #@! TD*
D22*
G04 #@! TO.N,GND*
G36*
X138873750Y-110423000D02*
X139673000Y-110423000D01*
X139673000Y-110403000D01*
X139927000Y-110403000D01*
X139927000Y-110423000D01*
X139947000Y-110423000D01*
X139947000Y-110677000D01*
X139927000Y-110677000D01*
X139927000Y-110697000D01*
X139673000Y-110697000D01*
X139673000Y-110677000D01*
X138873750Y-110677000D01*
X138785750Y-110765000D01*
X137304329Y-110765000D01*
X137310000Y-110751309D01*
X137310000Y-110639484D01*
X137350000Y-110647440D01*
X138250000Y-110647440D01*
X138497765Y-110598157D01*
X138707809Y-110457809D01*
X138788219Y-110337469D01*
X138873750Y-110423000D01*
X138873750Y-110423000D01*
G37*
X138873750Y-110423000D02*
X139673000Y-110423000D01*
X139673000Y-110403000D01*
X139927000Y-110403000D01*
X139927000Y-110423000D01*
X139947000Y-110423000D01*
X139947000Y-110677000D01*
X139927000Y-110677000D01*
X139927000Y-110697000D01*
X139673000Y-110697000D01*
X139673000Y-110677000D01*
X138873750Y-110677000D01*
X138785750Y-110765000D01*
X137304329Y-110765000D01*
X137310000Y-110751309D01*
X137310000Y-110639484D01*
X137350000Y-110647440D01*
X138250000Y-110647440D01*
X138497765Y-110598157D01*
X138707809Y-110457809D01*
X138788219Y-110337469D01*
X138873750Y-110423000D01*
G36*
X151418020Y-95956450D02*
X151407284Y-96016671D01*
X151530626Y-96223000D01*
X152873000Y-96223000D01*
X152873000Y-96203000D01*
X153127000Y-96203000D01*
X153127000Y-96223000D01*
X154469374Y-96223000D01*
X154592716Y-96016671D01*
X154581980Y-95956450D01*
X154462663Y-95735000D01*
X155835144Y-95735000D01*
X155765000Y-95904343D01*
X155765000Y-96395657D01*
X155953018Y-96849571D01*
X156300429Y-97196982D01*
X156754343Y-97385000D01*
X157245657Y-97385000D01*
X157699571Y-97196982D01*
X158046982Y-96849571D01*
X158235000Y-96395657D01*
X158235000Y-95904343D01*
X158164856Y-95735000D01*
X158851775Y-95735000D01*
X158838846Y-95800000D01*
X158942458Y-96320891D01*
X159237519Y-96762481D01*
X159679109Y-97057542D01*
X160068515Y-97135000D01*
X160931485Y-97135000D01*
X161320891Y-97057542D01*
X161762481Y-96762481D01*
X162057542Y-96320891D01*
X162161154Y-95800000D01*
X162148225Y-95735000D01*
X163265000Y-95735000D01*
X163265001Y-110765000D01*
X162148225Y-110765000D01*
X162161154Y-110700000D01*
X162057542Y-110179109D01*
X161762481Y-109737519D01*
X161320891Y-109442458D01*
X160931485Y-109365000D01*
X160068515Y-109365000D01*
X159679109Y-109442458D01*
X159237519Y-109737519D01*
X158942458Y-110179109D01*
X158838846Y-110700000D01*
X158851775Y-110765000D01*
X158164856Y-110765000D01*
X158235000Y-110595657D01*
X158235000Y-110104343D01*
X158046982Y-109650429D01*
X157699571Y-109303018D01*
X157245657Y-109115000D01*
X156754343Y-109115000D01*
X156300429Y-109303018D01*
X155953018Y-109650429D01*
X155765000Y-110104343D01*
X155765000Y-110595657D01*
X155835144Y-110765000D01*
X154462663Y-110765000D01*
X154581980Y-110543550D01*
X154592716Y-110483329D01*
X154469374Y-110277000D01*
X153127000Y-110277000D01*
X153127000Y-110297000D01*
X152873000Y-110297000D01*
X152873000Y-110277000D01*
X152853000Y-110277000D01*
X152853000Y-110023000D01*
X152873000Y-110023000D01*
X152873000Y-108815000D01*
X153127000Y-108815000D01*
X153127000Y-110023000D01*
X154469374Y-110023000D01*
X154592716Y-109816671D01*
X154581980Y-109756450D01*
X154333790Y-109295815D01*
X153928215Y-108965222D01*
X153427000Y-108815000D01*
X153127000Y-108815000D01*
X152873000Y-108815000D01*
X152573000Y-108815000D01*
X152071785Y-108965222D01*
X151993084Y-109029373D01*
X151886280Y-108922569D01*
X151505874Y-108765000D01*
X151094126Y-108765000D01*
X150985652Y-108809931D01*
X150785780Y-108610059D01*
X150405374Y-108452490D01*
X150345367Y-108452490D01*
X150159510Y-108266633D01*
X150159510Y-106247440D01*
X151550000Y-106247440D01*
X151578682Y-106241735D01*
X151666210Y-106404185D01*
X152071785Y-106734778D01*
X152573000Y-106885000D01*
X152873000Y-106885000D01*
X152873000Y-105677000D01*
X153127000Y-105677000D01*
X153127000Y-106885000D01*
X153427000Y-106885000D01*
X153928215Y-106734778D01*
X154333790Y-106404185D01*
X154581980Y-105943550D01*
X154592716Y-105883329D01*
X154469374Y-105677000D01*
X153127000Y-105677000D01*
X152873000Y-105677000D01*
X152853000Y-105677000D01*
X152853000Y-105423000D01*
X152873000Y-105423000D01*
X152873000Y-104215000D01*
X153127000Y-104215000D01*
X153127000Y-105423000D01*
X154469374Y-105423000D01*
X154592716Y-105216671D01*
X154581980Y-105156450D01*
X154333790Y-104695815D01*
X153928215Y-104365222D01*
X153427000Y-104215000D01*
X153127000Y-104215000D01*
X152873000Y-104215000D01*
X152573000Y-104215000D01*
X152086932Y-104360682D01*
X152026250Y-104300000D01*
X150927000Y-104300000D01*
X150927000Y-104347000D01*
X150673000Y-104347000D01*
X150673000Y-104300000D01*
X150653000Y-104300000D01*
X150653000Y-104100000D01*
X150673000Y-104100000D01*
X150673000Y-104053000D01*
X150927000Y-104053000D01*
X150927000Y-104100000D01*
X152026250Y-104100000D01*
X152185000Y-103941250D01*
X152185000Y-103873691D01*
X152088327Y-103640302D01*
X152047073Y-103599047D01*
X152148157Y-103447765D01*
X152197440Y-103200000D01*
X152197440Y-102901114D01*
X153064863Y-103768537D01*
X153105868Y-103829905D01*
X153348990Y-103992354D01*
X153563385Y-104035000D01*
X153563388Y-104035000D01*
X153635772Y-104049398D01*
X153708156Y-104035000D01*
X153803900Y-104035000D01*
X153893261Y-104168739D01*
X154174273Y-104356505D01*
X154505750Y-104422440D01*
X154943250Y-104422440D01*
X155274727Y-104356505D01*
X155512000Y-104197964D01*
X155749273Y-104356505D01*
X156080750Y-104422440D01*
X156181007Y-104422440D01*
X155953018Y-104650429D01*
X155765000Y-105104343D01*
X155765000Y-105595657D01*
X155953018Y-106049571D01*
X156300429Y-106396982D01*
X156754343Y-106585000D01*
X157245657Y-106585000D01*
X157699571Y-106396982D01*
X158046982Y-106049571D01*
X158235000Y-105595657D01*
X158235000Y-105104343D01*
X158046982Y-104650429D01*
X157818993Y-104422440D01*
X157943250Y-104422440D01*
X158274727Y-104356505D01*
X158437031Y-104248057D01*
X158502302Y-104313327D01*
X158735691Y-104410000D01*
X158988635Y-104410000D01*
X158942458Y-104479109D01*
X158838846Y-105000000D01*
X158942458Y-105520891D01*
X159237519Y-105962481D01*
X159679109Y-106257542D01*
X160068515Y-106335000D01*
X160931485Y-106335000D01*
X161320891Y-106257542D01*
X161762481Y-105962481D01*
X162057542Y-105520891D01*
X162161154Y-105000000D01*
X162057542Y-104479109D01*
X161762481Y-104037519D01*
X161320891Y-103742458D01*
X160931485Y-103665000D01*
X160372000Y-103665000D01*
X160372000Y-103585750D01*
X160213250Y-103427000D01*
X159426500Y-103427000D01*
X159426500Y-103447000D01*
X159172500Y-103447000D01*
X159172500Y-103427000D01*
X159152500Y-103427000D01*
X159152500Y-103173000D01*
X159172500Y-103173000D01*
X159172500Y-103153000D01*
X159426500Y-103153000D01*
X159426500Y-103173000D01*
X160213250Y-103173000D01*
X160372000Y-103014250D01*
X160372000Y-102835000D01*
X160931485Y-102835000D01*
X161320891Y-102757542D01*
X161762481Y-102462481D01*
X162057542Y-102020891D01*
X162161154Y-101500000D01*
X162057542Y-100979109D01*
X161762481Y-100537519D01*
X161320891Y-100242458D01*
X160931485Y-100165000D01*
X160068515Y-100165000D01*
X159679109Y-100242458D01*
X159237519Y-100537519D01*
X158942458Y-100979109D01*
X158838846Y-101500000D01*
X158942458Y-102020891D01*
X159139429Y-102315679D01*
X159013750Y-102190000D01*
X158735691Y-102190000D01*
X158502302Y-102286673D01*
X158437031Y-102351943D01*
X158274727Y-102243495D01*
X157943250Y-102177560D01*
X157718993Y-102177560D01*
X158046982Y-101849571D01*
X158235000Y-101395657D01*
X158235000Y-100904343D01*
X158046982Y-100450429D01*
X157699571Y-100103018D01*
X157245657Y-99915000D01*
X156754343Y-99915000D01*
X156300429Y-100103018D01*
X155953018Y-100450429D01*
X155765000Y-100904343D01*
X155765000Y-101395657D01*
X155953018Y-101849571D01*
X156281007Y-102177560D01*
X156080750Y-102177560D01*
X155749273Y-102243495D01*
X155512000Y-102402036D01*
X155274727Y-102243495D01*
X154943250Y-102177560D01*
X154505750Y-102177560D01*
X154174273Y-102243495D01*
X153893261Y-102431261D01*
X153858502Y-102483282D01*
X153606439Y-102231219D01*
X153928215Y-102134778D01*
X154333790Y-101804185D01*
X154581980Y-101343550D01*
X154592716Y-101283329D01*
X154469374Y-101077000D01*
X153127000Y-101077000D01*
X153127000Y-101097000D01*
X152873000Y-101097000D01*
X152873000Y-101077000D01*
X152853000Y-101077000D01*
X152853000Y-100823000D01*
X152873000Y-100823000D01*
X152873000Y-99615000D01*
X153127000Y-99615000D01*
X153127000Y-100823000D01*
X154469374Y-100823000D01*
X154592716Y-100616671D01*
X154581980Y-100556450D01*
X154333790Y-100095815D01*
X153928215Y-99765222D01*
X153427000Y-99615000D01*
X153127000Y-99615000D01*
X152873000Y-99615000D01*
X152573000Y-99615000D01*
X152435000Y-99656361D01*
X152435000Y-99472383D01*
X152449398Y-99399999D01*
X152435000Y-99327615D01*
X152435000Y-99327612D01*
X152392354Y-99113217D01*
X152229905Y-98870095D01*
X152168537Y-98829090D01*
X151670911Y-98331465D01*
X151629905Y-98270095D01*
X151386783Y-98107646D01*
X151172388Y-98065000D01*
X151172384Y-98065000D01*
X151100000Y-98050602D01*
X151027616Y-98065000D01*
X150109883Y-98065000D01*
X150037499Y-98050602D01*
X149965115Y-98065000D01*
X149965112Y-98065000D01*
X149750717Y-98107646D01*
X149507595Y-98270095D01*
X149466590Y-98331463D01*
X148772440Y-99025614D01*
X148772440Y-98687500D01*
X148738338Y-98516057D01*
X149037727Y-98456505D01*
X149318739Y-98268739D01*
X149506505Y-97987727D01*
X149572440Y-97656250D01*
X149572440Y-97143750D01*
X149506505Y-96812273D01*
X149420348Y-96683329D01*
X151407284Y-96683329D01*
X151418020Y-96743550D01*
X151666210Y-97204185D01*
X152071785Y-97534778D01*
X152573000Y-97685000D01*
X152873000Y-97685000D01*
X152873000Y-96477000D01*
X153127000Y-96477000D01*
X153127000Y-97685000D01*
X153427000Y-97685000D01*
X153928215Y-97534778D01*
X154333790Y-97204185D01*
X154581980Y-96743550D01*
X154592716Y-96683329D01*
X154469374Y-96477000D01*
X153127000Y-96477000D01*
X152873000Y-96477000D01*
X151530626Y-96477000D01*
X151407284Y-96683329D01*
X149420348Y-96683329D01*
X149318739Y-96531261D01*
X149037727Y-96343495D01*
X148706250Y-96277560D01*
X148268750Y-96277560D01*
X147937273Y-96343495D01*
X147700000Y-96502036D01*
X147462727Y-96343495D01*
X147131250Y-96277560D01*
X146693750Y-96277560D01*
X146362273Y-96343495D01*
X146150000Y-96485331D01*
X145937727Y-96343495D01*
X145606250Y-96277560D01*
X145168750Y-96277560D01*
X144837273Y-96343495D01*
X144674969Y-96451943D01*
X144609698Y-96386673D01*
X144376309Y-96290000D01*
X144098250Y-96290000D01*
X143939500Y-96448750D01*
X143939500Y-97273000D01*
X143959500Y-97273000D01*
X143959500Y-97527000D01*
X143939500Y-97527000D01*
X143939500Y-97547000D01*
X143685500Y-97547000D01*
X143685500Y-97527000D01*
X142898750Y-97527000D01*
X142835760Y-97589990D01*
X142534898Y-97589990D01*
X142462510Y-97575591D01*
X142390122Y-97589990D01*
X142175727Y-97632636D01*
X141932605Y-97795085D01*
X141891600Y-97856453D01*
X140070494Y-99677560D01*
X139768750Y-99677560D01*
X139437273Y-99743495D01*
X139200000Y-99902036D01*
X138962727Y-99743495D01*
X138631250Y-99677560D01*
X138193750Y-99677560D01*
X137862273Y-99743495D01*
X137610784Y-99911534D01*
X137576250Y-99877000D01*
X135977000Y-99877000D01*
X135977000Y-99897000D01*
X135723000Y-99897000D01*
X135723000Y-99877000D01*
X134123750Y-99877000D01*
X133965000Y-100035750D01*
X133965000Y-100139156D01*
X133771249Y-99945405D01*
X133335711Y-99765000D01*
X132864289Y-99765000D01*
X132428751Y-99945405D01*
X132095405Y-100278751D01*
X131915000Y-100714289D01*
X131915000Y-101185711D01*
X132095405Y-101621249D01*
X132428751Y-101954595D01*
X132864289Y-102135000D01*
X133335711Y-102135000D01*
X133771249Y-101954595D01*
X133952560Y-101773284D01*
X133952560Y-102800000D01*
X134001843Y-103047765D01*
X134136973Y-103250000D01*
X134001843Y-103452235D01*
X133952560Y-103700000D01*
X133952560Y-104726716D01*
X133771249Y-104545405D01*
X133335711Y-104365000D01*
X132864289Y-104365000D01*
X132428751Y-104545405D01*
X132095405Y-104878751D01*
X131915000Y-105314289D01*
X131915000Y-105785711D01*
X132095405Y-106221249D01*
X132428751Y-106554595D01*
X132864289Y-106735000D01*
X133335711Y-106735000D01*
X133771249Y-106554595D01*
X133952560Y-106373284D01*
X133952560Y-107300000D01*
X133965489Y-107365000D01*
X133227000Y-107365000D01*
X133227000Y-108823000D01*
X133247000Y-108823000D01*
X133247000Y-109077000D01*
X133227000Y-109077000D01*
X133227000Y-110535000D01*
X134027000Y-110535000D01*
X134623886Y-110365748D01*
X135110567Y-109980961D01*
X135131575Y-109943325D01*
X135248750Y-110060500D01*
X136073000Y-110060500D01*
X136073000Y-110040500D01*
X136327000Y-110040500D01*
X136327000Y-110060500D01*
X136347000Y-110060500D01*
X136347000Y-110314500D01*
X136327000Y-110314500D01*
X136327000Y-110334500D01*
X136073000Y-110334500D01*
X136073000Y-110314500D01*
X135248750Y-110314500D01*
X135090000Y-110473250D01*
X135090000Y-110751309D01*
X135095671Y-110765000D01*
X130735000Y-110765000D01*
X130735000Y-109077002D01*
X130879415Y-109077002D01*
X130759414Y-109322588D01*
X130787050Y-109439220D01*
X131089433Y-109980961D01*
X131576114Y-110365748D01*
X132173000Y-110535000D01*
X132973000Y-110535000D01*
X132973000Y-109077000D01*
X132953000Y-109077000D01*
X132953000Y-108823000D01*
X132973000Y-108823000D01*
X132973000Y-107365000D01*
X132173000Y-107365000D01*
X131576114Y-107534252D01*
X131089433Y-107919039D01*
X130787050Y-108460780D01*
X130759414Y-108577412D01*
X130879415Y-108822998D01*
X130735000Y-108822998D01*
X130735000Y-97677002D01*
X130879415Y-97677002D01*
X130759414Y-97922588D01*
X130787050Y-98039220D01*
X131089433Y-98580961D01*
X131576114Y-98965748D01*
X132173000Y-99135000D01*
X132973000Y-99135000D01*
X132973000Y-97677000D01*
X133227000Y-97677000D01*
X133227000Y-99135000D01*
X133965000Y-99135000D01*
X133965000Y-99464250D01*
X134123750Y-99623000D01*
X135723000Y-99623000D01*
X135723000Y-98723750D01*
X135977000Y-98723750D01*
X135977000Y-99623000D01*
X137576250Y-99623000D01*
X137735000Y-99464250D01*
X137735000Y-99073690D01*
X137638327Y-98840301D01*
X137459698Y-98661673D01*
X137226309Y-98565000D01*
X136135750Y-98565000D01*
X135977000Y-98723750D01*
X135723000Y-98723750D01*
X135564250Y-98565000D01*
X135119476Y-98565000D01*
X135412950Y-98039220D01*
X135440586Y-97922588D01*
X135320584Y-97677000D01*
X133227000Y-97677000D01*
X132973000Y-97677000D01*
X132953000Y-97677000D01*
X132953000Y-97423000D01*
X132973000Y-97423000D01*
X132973000Y-95965000D01*
X133227000Y-95965000D01*
X133227000Y-97423000D01*
X135320584Y-97423000D01*
X135440586Y-97177412D01*
X135412950Y-97060780D01*
X135266660Y-96798690D01*
X142740000Y-96798690D01*
X142740000Y-97114250D01*
X142898750Y-97273000D01*
X143685500Y-97273000D01*
X143685500Y-96448750D01*
X143526750Y-96290000D01*
X143248691Y-96290000D01*
X143015302Y-96386673D01*
X142836673Y-96565301D01*
X142740000Y-96798690D01*
X135266660Y-96798690D01*
X135110567Y-96519039D01*
X134623886Y-96134252D01*
X134027000Y-95965000D01*
X133227000Y-95965000D01*
X132973000Y-95965000D01*
X132173000Y-95965000D01*
X131576114Y-96134252D01*
X131089433Y-96519039D01*
X130787050Y-97060780D01*
X130759414Y-97177412D01*
X130879415Y-97422998D01*
X130735000Y-97422998D01*
X130735000Y-95735000D01*
X151537337Y-95735000D01*
X151418020Y-95956450D01*
X151418020Y-95956450D01*
G37*
X151418020Y-95956450D02*
X151407284Y-96016671D01*
X151530626Y-96223000D01*
X152873000Y-96223000D01*
X152873000Y-96203000D01*
X153127000Y-96203000D01*
X153127000Y-96223000D01*
X154469374Y-96223000D01*
X154592716Y-96016671D01*
X154581980Y-95956450D01*
X154462663Y-95735000D01*
X155835144Y-95735000D01*
X155765000Y-95904343D01*
X155765000Y-96395657D01*
X155953018Y-96849571D01*
X156300429Y-97196982D01*
X156754343Y-97385000D01*
X157245657Y-97385000D01*
X157699571Y-97196982D01*
X158046982Y-96849571D01*
X158235000Y-96395657D01*
X158235000Y-95904343D01*
X158164856Y-95735000D01*
X158851775Y-95735000D01*
X158838846Y-95800000D01*
X158942458Y-96320891D01*
X159237519Y-96762481D01*
X159679109Y-97057542D01*
X160068515Y-97135000D01*
X160931485Y-97135000D01*
X161320891Y-97057542D01*
X161762481Y-96762481D01*
X162057542Y-96320891D01*
X162161154Y-95800000D01*
X162148225Y-95735000D01*
X163265000Y-95735000D01*
X163265001Y-110765000D01*
X162148225Y-110765000D01*
X162161154Y-110700000D01*
X162057542Y-110179109D01*
X161762481Y-109737519D01*
X161320891Y-109442458D01*
X160931485Y-109365000D01*
X160068515Y-109365000D01*
X159679109Y-109442458D01*
X159237519Y-109737519D01*
X158942458Y-110179109D01*
X158838846Y-110700000D01*
X158851775Y-110765000D01*
X158164856Y-110765000D01*
X158235000Y-110595657D01*
X158235000Y-110104343D01*
X158046982Y-109650429D01*
X157699571Y-109303018D01*
X157245657Y-109115000D01*
X156754343Y-109115000D01*
X156300429Y-109303018D01*
X155953018Y-109650429D01*
X155765000Y-110104343D01*
X155765000Y-110595657D01*
X155835144Y-110765000D01*
X154462663Y-110765000D01*
X154581980Y-110543550D01*
X154592716Y-110483329D01*
X154469374Y-110277000D01*
X153127000Y-110277000D01*
X153127000Y-110297000D01*
X152873000Y-110297000D01*
X152873000Y-110277000D01*
X152853000Y-110277000D01*
X152853000Y-110023000D01*
X152873000Y-110023000D01*
X152873000Y-108815000D01*
X153127000Y-108815000D01*
X153127000Y-110023000D01*
X154469374Y-110023000D01*
X154592716Y-109816671D01*
X154581980Y-109756450D01*
X154333790Y-109295815D01*
X153928215Y-108965222D01*
X153427000Y-108815000D01*
X153127000Y-108815000D01*
X152873000Y-108815000D01*
X152573000Y-108815000D01*
X152071785Y-108965222D01*
X151993084Y-109029373D01*
X151886280Y-108922569D01*
X151505874Y-108765000D01*
X151094126Y-108765000D01*
X150985652Y-108809931D01*
X150785780Y-108610059D01*
X150405374Y-108452490D01*
X150345367Y-108452490D01*
X150159510Y-108266633D01*
X150159510Y-106247440D01*
X151550000Y-106247440D01*
X151578682Y-106241735D01*
X151666210Y-106404185D01*
X152071785Y-106734778D01*
X152573000Y-106885000D01*
X152873000Y-106885000D01*
X152873000Y-105677000D01*
X153127000Y-105677000D01*
X153127000Y-106885000D01*
X153427000Y-106885000D01*
X153928215Y-106734778D01*
X154333790Y-106404185D01*
X154581980Y-105943550D01*
X154592716Y-105883329D01*
X154469374Y-105677000D01*
X153127000Y-105677000D01*
X152873000Y-105677000D01*
X152853000Y-105677000D01*
X152853000Y-105423000D01*
X152873000Y-105423000D01*
X152873000Y-104215000D01*
X153127000Y-104215000D01*
X153127000Y-105423000D01*
X154469374Y-105423000D01*
X154592716Y-105216671D01*
X154581980Y-105156450D01*
X154333790Y-104695815D01*
X153928215Y-104365222D01*
X153427000Y-104215000D01*
X153127000Y-104215000D01*
X152873000Y-104215000D01*
X152573000Y-104215000D01*
X152086932Y-104360682D01*
X152026250Y-104300000D01*
X150927000Y-104300000D01*
X150927000Y-104347000D01*
X150673000Y-104347000D01*
X150673000Y-104300000D01*
X150653000Y-104300000D01*
X150653000Y-104100000D01*
X150673000Y-104100000D01*
X150673000Y-104053000D01*
X150927000Y-104053000D01*
X150927000Y-104100000D01*
X152026250Y-104100000D01*
X152185000Y-103941250D01*
X152185000Y-103873691D01*
X152088327Y-103640302D01*
X152047073Y-103599047D01*
X152148157Y-103447765D01*
X152197440Y-103200000D01*
X152197440Y-102901114D01*
X153064863Y-103768537D01*
X153105868Y-103829905D01*
X153348990Y-103992354D01*
X153563385Y-104035000D01*
X153563388Y-104035000D01*
X153635772Y-104049398D01*
X153708156Y-104035000D01*
X153803900Y-104035000D01*
X153893261Y-104168739D01*
X154174273Y-104356505D01*
X154505750Y-104422440D01*
X154943250Y-104422440D01*
X155274727Y-104356505D01*
X155512000Y-104197964D01*
X155749273Y-104356505D01*
X156080750Y-104422440D01*
X156181007Y-104422440D01*
X155953018Y-104650429D01*
X155765000Y-105104343D01*
X155765000Y-105595657D01*
X155953018Y-106049571D01*
X156300429Y-106396982D01*
X156754343Y-106585000D01*
X157245657Y-106585000D01*
X157699571Y-106396982D01*
X158046982Y-106049571D01*
X158235000Y-105595657D01*
X158235000Y-105104343D01*
X158046982Y-104650429D01*
X157818993Y-104422440D01*
X157943250Y-104422440D01*
X158274727Y-104356505D01*
X158437031Y-104248057D01*
X158502302Y-104313327D01*
X158735691Y-104410000D01*
X158988635Y-104410000D01*
X158942458Y-104479109D01*
X158838846Y-105000000D01*
X158942458Y-105520891D01*
X159237519Y-105962481D01*
X159679109Y-106257542D01*
X160068515Y-106335000D01*
X160931485Y-106335000D01*
X161320891Y-106257542D01*
X161762481Y-105962481D01*
X162057542Y-105520891D01*
X162161154Y-105000000D01*
X162057542Y-104479109D01*
X161762481Y-104037519D01*
X161320891Y-103742458D01*
X160931485Y-103665000D01*
X160372000Y-103665000D01*
X160372000Y-103585750D01*
X160213250Y-103427000D01*
X159426500Y-103427000D01*
X159426500Y-103447000D01*
X159172500Y-103447000D01*
X159172500Y-103427000D01*
X159152500Y-103427000D01*
X159152500Y-103173000D01*
X159172500Y-103173000D01*
X159172500Y-103153000D01*
X159426500Y-103153000D01*
X159426500Y-103173000D01*
X160213250Y-103173000D01*
X160372000Y-103014250D01*
X160372000Y-102835000D01*
X160931485Y-102835000D01*
X161320891Y-102757542D01*
X161762481Y-102462481D01*
X162057542Y-102020891D01*
X162161154Y-101500000D01*
X162057542Y-100979109D01*
X161762481Y-100537519D01*
X161320891Y-100242458D01*
X160931485Y-100165000D01*
X160068515Y-100165000D01*
X159679109Y-100242458D01*
X159237519Y-100537519D01*
X158942458Y-100979109D01*
X158838846Y-101500000D01*
X158942458Y-102020891D01*
X159139429Y-102315679D01*
X159013750Y-102190000D01*
X158735691Y-102190000D01*
X158502302Y-102286673D01*
X158437031Y-102351943D01*
X158274727Y-102243495D01*
X157943250Y-102177560D01*
X157718993Y-102177560D01*
X158046982Y-101849571D01*
X158235000Y-101395657D01*
X158235000Y-100904343D01*
X158046982Y-100450429D01*
X157699571Y-100103018D01*
X157245657Y-99915000D01*
X156754343Y-99915000D01*
X156300429Y-100103018D01*
X155953018Y-100450429D01*
X155765000Y-100904343D01*
X155765000Y-101395657D01*
X155953018Y-101849571D01*
X156281007Y-102177560D01*
X156080750Y-102177560D01*
X155749273Y-102243495D01*
X155512000Y-102402036D01*
X155274727Y-102243495D01*
X154943250Y-102177560D01*
X154505750Y-102177560D01*
X154174273Y-102243495D01*
X153893261Y-102431261D01*
X153858502Y-102483282D01*
X153606439Y-102231219D01*
X153928215Y-102134778D01*
X154333790Y-101804185D01*
X154581980Y-101343550D01*
X154592716Y-101283329D01*
X154469374Y-101077000D01*
X153127000Y-101077000D01*
X153127000Y-101097000D01*
X152873000Y-101097000D01*
X152873000Y-101077000D01*
X152853000Y-101077000D01*
X152853000Y-100823000D01*
X152873000Y-100823000D01*
X152873000Y-99615000D01*
X153127000Y-99615000D01*
X153127000Y-100823000D01*
X154469374Y-100823000D01*
X154592716Y-100616671D01*
X154581980Y-100556450D01*
X154333790Y-100095815D01*
X153928215Y-99765222D01*
X153427000Y-99615000D01*
X153127000Y-99615000D01*
X152873000Y-99615000D01*
X152573000Y-99615000D01*
X152435000Y-99656361D01*
X152435000Y-99472383D01*
X152449398Y-99399999D01*
X152435000Y-99327615D01*
X152435000Y-99327612D01*
X152392354Y-99113217D01*
X152229905Y-98870095D01*
X152168537Y-98829090D01*
X151670911Y-98331465D01*
X151629905Y-98270095D01*
X151386783Y-98107646D01*
X151172388Y-98065000D01*
X151172384Y-98065000D01*
X151100000Y-98050602D01*
X151027616Y-98065000D01*
X150109883Y-98065000D01*
X150037499Y-98050602D01*
X149965115Y-98065000D01*
X149965112Y-98065000D01*
X149750717Y-98107646D01*
X149507595Y-98270095D01*
X149466590Y-98331463D01*
X148772440Y-99025614D01*
X148772440Y-98687500D01*
X148738338Y-98516057D01*
X149037727Y-98456505D01*
X149318739Y-98268739D01*
X149506505Y-97987727D01*
X149572440Y-97656250D01*
X149572440Y-97143750D01*
X149506505Y-96812273D01*
X149420348Y-96683329D01*
X151407284Y-96683329D01*
X151418020Y-96743550D01*
X151666210Y-97204185D01*
X152071785Y-97534778D01*
X152573000Y-97685000D01*
X152873000Y-97685000D01*
X152873000Y-96477000D01*
X153127000Y-96477000D01*
X153127000Y-97685000D01*
X153427000Y-97685000D01*
X153928215Y-97534778D01*
X154333790Y-97204185D01*
X154581980Y-96743550D01*
X154592716Y-96683329D01*
X154469374Y-96477000D01*
X153127000Y-96477000D01*
X152873000Y-96477000D01*
X151530626Y-96477000D01*
X151407284Y-96683329D01*
X149420348Y-96683329D01*
X149318739Y-96531261D01*
X149037727Y-96343495D01*
X148706250Y-96277560D01*
X148268750Y-96277560D01*
X147937273Y-96343495D01*
X147700000Y-96502036D01*
X147462727Y-96343495D01*
X147131250Y-96277560D01*
X146693750Y-96277560D01*
X146362273Y-96343495D01*
X146150000Y-96485331D01*
X145937727Y-96343495D01*
X145606250Y-96277560D01*
X145168750Y-96277560D01*
X144837273Y-96343495D01*
X144674969Y-96451943D01*
X144609698Y-96386673D01*
X144376309Y-96290000D01*
X144098250Y-96290000D01*
X143939500Y-96448750D01*
X143939500Y-97273000D01*
X143959500Y-97273000D01*
X143959500Y-97527000D01*
X143939500Y-97527000D01*
X143939500Y-97547000D01*
X143685500Y-97547000D01*
X143685500Y-97527000D01*
X142898750Y-97527000D01*
X142835760Y-97589990D01*
X142534898Y-97589990D01*
X142462510Y-97575591D01*
X142390122Y-97589990D01*
X142175727Y-97632636D01*
X141932605Y-97795085D01*
X141891600Y-97856453D01*
X140070494Y-99677560D01*
X139768750Y-99677560D01*
X139437273Y-99743495D01*
X139200000Y-99902036D01*
X138962727Y-99743495D01*
X138631250Y-99677560D01*
X138193750Y-99677560D01*
X137862273Y-99743495D01*
X137610784Y-99911534D01*
X137576250Y-99877000D01*
X135977000Y-99877000D01*
X135977000Y-99897000D01*
X135723000Y-99897000D01*
X135723000Y-99877000D01*
X134123750Y-99877000D01*
X133965000Y-100035750D01*
X133965000Y-100139156D01*
X133771249Y-99945405D01*
X133335711Y-99765000D01*
X132864289Y-99765000D01*
X132428751Y-99945405D01*
X132095405Y-100278751D01*
X131915000Y-100714289D01*
X131915000Y-101185711D01*
X132095405Y-101621249D01*
X132428751Y-101954595D01*
X132864289Y-102135000D01*
X133335711Y-102135000D01*
X133771249Y-101954595D01*
X133952560Y-101773284D01*
X133952560Y-102800000D01*
X134001843Y-103047765D01*
X134136973Y-103250000D01*
X134001843Y-103452235D01*
X133952560Y-103700000D01*
X133952560Y-104726716D01*
X133771249Y-104545405D01*
X133335711Y-104365000D01*
X132864289Y-104365000D01*
X132428751Y-104545405D01*
X132095405Y-104878751D01*
X131915000Y-105314289D01*
X131915000Y-105785711D01*
X132095405Y-106221249D01*
X132428751Y-106554595D01*
X132864289Y-106735000D01*
X133335711Y-106735000D01*
X133771249Y-106554595D01*
X133952560Y-106373284D01*
X133952560Y-107300000D01*
X133965489Y-107365000D01*
X133227000Y-107365000D01*
X133227000Y-108823000D01*
X133247000Y-108823000D01*
X133247000Y-109077000D01*
X133227000Y-109077000D01*
X133227000Y-110535000D01*
X134027000Y-110535000D01*
X134623886Y-110365748D01*
X135110567Y-109980961D01*
X135131575Y-109943325D01*
X135248750Y-110060500D01*
X136073000Y-110060500D01*
X136073000Y-110040500D01*
X136327000Y-110040500D01*
X136327000Y-110060500D01*
X136347000Y-110060500D01*
X136347000Y-110314500D01*
X136327000Y-110314500D01*
X136327000Y-110334500D01*
X136073000Y-110334500D01*
X136073000Y-110314500D01*
X135248750Y-110314500D01*
X135090000Y-110473250D01*
X135090000Y-110751309D01*
X135095671Y-110765000D01*
X130735000Y-110765000D01*
X130735000Y-109077002D01*
X130879415Y-109077002D01*
X130759414Y-109322588D01*
X130787050Y-109439220D01*
X131089433Y-109980961D01*
X131576114Y-110365748D01*
X132173000Y-110535000D01*
X132973000Y-110535000D01*
X132973000Y-109077000D01*
X132953000Y-109077000D01*
X132953000Y-108823000D01*
X132973000Y-108823000D01*
X132973000Y-107365000D01*
X132173000Y-107365000D01*
X131576114Y-107534252D01*
X131089433Y-107919039D01*
X130787050Y-108460780D01*
X130759414Y-108577412D01*
X130879415Y-108822998D01*
X130735000Y-108822998D01*
X130735000Y-97677002D01*
X130879415Y-97677002D01*
X130759414Y-97922588D01*
X130787050Y-98039220D01*
X131089433Y-98580961D01*
X131576114Y-98965748D01*
X132173000Y-99135000D01*
X132973000Y-99135000D01*
X132973000Y-97677000D01*
X133227000Y-97677000D01*
X133227000Y-99135000D01*
X133965000Y-99135000D01*
X133965000Y-99464250D01*
X134123750Y-99623000D01*
X135723000Y-99623000D01*
X135723000Y-98723750D01*
X135977000Y-98723750D01*
X135977000Y-99623000D01*
X137576250Y-99623000D01*
X137735000Y-99464250D01*
X137735000Y-99073690D01*
X137638327Y-98840301D01*
X137459698Y-98661673D01*
X137226309Y-98565000D01*
X136135750Y-98565000D01*
X135977000Y-98723750D01*
X135723000Y-98723750D01*
X135564250Y-98565000D01*
X135119476Y-98565000D01*
X135412950Y-98039220D01*
X135440586Y-97922588D01*
X135320584Y-97677000D01*
X133227000Y-97677000D01*
X132973000Y-97677000D01*
X132953000Y-97677000D01*
X132953000Y-97423000D01*
X132973000Y-97423000D01*
X132973000Y-95965000D01*
X133227000Y-95965000D01*
X133227000Y-97423000D01*
X135320584Y-97423000D01*
X135440586Y-97177412D01*
X135412950Y-97060780D01*
X135266660Y-96798690D01*
X142740000Y-96798690D01*
X142740000Y-97114250D01*
X142898750Y-97273000D01*
X143685500Y-97273000D01*
X143685500Y-96448750D01*
X143526750Y-96290000D01*
X143248691Y-96290000D01*
X143015302Y-96386673D01*
X142836673Y-96565301D01*
X142740000Y-96798690D01*
X135266660Y-96798690D01*
X135110567Y-96519039D01*
X134623886Y-96134252D01*
X134027000Y-95965000D01*
X133227000Y-95965000D01*
X132973000Y-95965000D01*
X132173000Y-95965000D01*
X131576114Y-96134252D01*
X131089433Y-96519039D01*
X130787050Y-97060780D01*
X130759414Y-97177412D01*
X130879415Y-97422998D01*
X130735000Y-97422998D01*
X130735000Y-95735000D01*
X151537337Y-95735000D01*
X151418020Y-95956450D01*
G36*
X141527000Y-110060500D02*
X142873000Y-110060500D01*
X142873000Y-110040500D01*
X143127000Y-110040500D01*
X143127000Y-110060500D01*
X144473000Y-110060500D01*
X144473000Y-110040500D01*
X144727000Y-110040500D01*
X144727000Y-110060500D01*
X144747000Y-110060500D01*
X144747000Y-110314500D01*
X144727000Y-110314500D01*
X144727000Y-110334500D01*
X144473000Y-110334500D01*
X144473000Y-110314500D01*
X143127000Y-110314500D01*
X143127000Y-110334500D01*
X142873000Y-110334500D01*
X142873000Y-110314500D01*
X141527000Y-110314500D01*
X141527000Y-110334500D01*
X141273000Y-110334500D01*
X141273000Y-110314500D01*
X141253000Y-110314500D01*
X141253000Y-110060500D01*
X141273000Y-110060500D01*
X141273000Y-110040500D01*
X141527000Y-110040500D01*
X141527000Y-110060500D01*
X141527000Y-110060500D01*
G37*
X141527000Y-110060500D02*
X142873000Y-110060500D01*
X142873000Y-110040500D01*
X143127000Y-110040500D01*
X143127000Y-110060500D01*
X144473000Y-110060500D01*
X144473000Y-110040500D01*
X144727000Y-110040500D01*
X144727000Y-110060500D01*
X144747000Y-110060500D01*
X144747000Y-110314500D01*
X144727000Y-110314500D01*
X144727000Y-110334500D01*
X144473000Y-110334500D01*
X144473000Y-110314500D01*
X143127000Y-110314500D01*
X143127000Y-110334500D01*
X142873000Y-110334500D01*
X142873000Y-110314500D01*
X141527000Y-110314500D01*
X141527000Y-110334500D01*
X141273000Y-110334500D01*
X141273000Y-110314500D01*
X141253000Y-110314500D01*
X141253000Y-110060500D01*
X141273000Y-110060500D01*
X141273000Y-110040500D01*
X141527000Y-110040500D01*
X141527000Y-110060500D01*
G36*
X146127000Y-101873000D02*
X146147000Y-101873000D01*
X146147000Y-102127000D01*
X146127000Y-102127000D01*
X146127000Y-102147000D01*
X145873000Y-102147000D01*
X145873000Y-102127000D01*
X145853000Y-102127000D01*
X145853000Y-101873000D01*
X145873000Y-101873000D01*
X145873000Y-101853000D01*
X146127000Y-101853000D01*
X146127000Y-101873000D01*
X146127000Y-101873000D01*
G37*
X146127000Y-101873000D02*
X146147000Y-101873000D01*
X146147000Y-102127000D01*
X146127000Y-102127000D01*
X146127000Y-102147000D01*
X145873000Y-102147000D01*
X145873000Y-102127000D01*
X145853000Y-102127000D01*
X145853000Y-101873000D01*
X145873000Y-101873000D01*
X145873000Y-101853000D01*
X146127000Y-101853000D01*
X146127000Y-101873000D01*
G04 #@! TD*
M02*
