G04 #@! TF.FileFunction,Copper,L1,Top,Signal*
%FSLAX46Y46*%
G04 Gerber Fmt 4.6, Leading zero omitted, Abs format (unit mm)*
G04 Created by KiCad (PCBNEW 0.201604121231+6687~43~ubuntu15.10.1-product) date Mi 13 Apr 2016 13:49:14 CEST*
%MOMM*%
G01*
G04 APERTURE LIST*
%ADD10C,0.100000*%
%ADD11C,2.000000*%
%ADD12C,1.800000*%
%ADD13C,1.500000*%
%ADD14C,3.000000*%
%ADD15R,0.698500X1.998980*%
%ADD16R,1.200000X0.900000*%
%ADD17R,0.900000X1.200000*%
%ADD18R,0.800100X0.800100*%
%ADD19R,2.032000X2.032000*%
%ADD20O,2.032000X2.032000*%
%ADD21R,2.000000X2.000000*%
%ADD22R,1.200000X0.750000*%
%ADD23C,0.500000*%
%ADD24C,0.600000*%
%ADD25C,0.249800*%
%ADD26C,0.450000*%
%ADD27C,0.250000*%
G04 APERTURE END LIST*
D10*
D11*
X163392800Y-109108800D03*
X163392800Y-111648800D03*
X163392800Y-109743800D03*
X163392800Y-111013800D03*
X163392800Y-110378800D03*
D12*
X138292800Y-105008800D03*
X138292800Y-115808800D03*
D13*
X134792800Y-113920800D03*
X134792800Y-111380800D03*
X134792800Y-109348800D03*
X134792800Y-106808800D03*
D14*
X132125800Y-116968800D03*
X132125800Y-103760800D03*
D15*
X140494380Y-115908840D03*
X141492600Y-115908840D03*
X142493360Y-115908840D03*
D16*
X154592800Y-109908800D03*
X152392800Y-109908800D03*
X157492800Y-116108800D03*
X159692800Y-116108800D03*
D17*
X151292800Y-115208800D03*
X151292800Y-113008800D03*
D16*
X154592800Y-111408800D03*
X152392800Y-111408800D03*
D17*
X150592800Y-108908800D03*
X150592800Y-111108800D03*
D16*
X155692800Y-104808800D03*
X153492800Y-104808800D03*
X139392800Y-108808800D03*
X137192800Y-108808800D03*
X139392800Y-112008800D03*
X137192800Y-112008800D03*
X139392800Y-113608800D03*
X137192800Y-113608800D03*
D17*
X149292800Y-113008800D03*
X149292800Y-115208800D03*
D18*
X152842800Y-115509560D03*
X154742800Y-115509560D03*
X153792800Y-113510580D03*
X152642800Y-108309560D03*
X154542800Y-108309560D03*
X153592800Y-106310580D03*
D19*
X157252800Y-112208800D03*
D20*
X159792800Y-112208800D03*
D19*
X157292800Y-108708800D03*
D20*
X159832800Y-108708800D03*
D10*
G36*
X141899208Y-111384495D02*
X141722431Y-111207718D01*
X142217406Y-110712743D01*
X142394183Y-110889520D01*
X141899208Y-111384495D01*
X141899208Y-111384495D01*
G37*
G36*
X142252761Y-111738049D02*
X142075984Y-111561272D01*
X142570959Y-111066297D01*
X142747736Y-111243074D01*
X142252761Y-111738049D01*
X142252761Y-111738049D01*
G37*
G36*
X142606315Y-112091602D02*
X142429538Y-111914825D01*
X142924513Y-111419850D01*
X143101290Y-111596627D01*
X142606315Y-112091602D01*
X142606315Y-112091602D01*
G37*
G36*
X142959868Y-112445156D02*
X142783091Y-112268379D01*
X143278066Y-111773404D01*
X143454843Y-111950181D01*
X142959868Y-112445156D01*
X142959868Y-112445156D01*
G37*
G36*
X143313421Y-112798709D02*
X143136644Y-112621932D01*
X143631619Y-112126957D01*
X143808396Y-112303734D01*
X143313421Y-112798709D01*
X143313421Y-112798709D01*
G37*
G36*
X143666975Y-113152262D02*
X143490198Y-112975485D01*
X143985173Y-112480510D01*
X144161950Y-112657287D01*
X143666975Y-113152262D01*
X143666975Y-113152262D01*
G37*
G36*
X144020528Y-113505816D02*
X143843751Y-113329039D01*
X144338726Y-112834064D01*
X144515503Y-113010841D01*
X144020528Y-113505816D01*
X144020528Y-113505816D01*
G37*
G36*
X144374082Y-113859369D02*
X144197305Y-113682592D01*
X144692280Y-113187617D01*
X144869057Y-113364394D01*
X144374082Y-113859369D01*
X144374082Y-113859369D01*
G37*
G36*
X145788295Y-113682592D02*
X145611518Y-113859369D01*
X145116543Y-113364394D01*
X145293320Y-113187617D01*
X145788295Y-113682592D01*
X145788295Y-113682592D01*
G37*
G36*
X146141849Y-113329039D02*
X145965072Y-113505816D01*
X145470097Y-113010841D01*
X145646874Y-112834064D01*
X146141849Y-113329039D01*
X146141849Y-113329039D01*
G37*
G36*
X146495402Y-112975485D02*
X146318625Y-113152262D01*
X145823650Y-112657287D01*
X146000427Y-112480510D01*
X146495402Y-112975485D01*
X146495402Y-112975485D01*
G37*
G36*
X146848956Y-112621932D02*
X146672179Y-112798709D01*
X146177204Y-112303734D01*
X146353981Y-112126957D01*
X146848956Y-112621932D01*
X146848956Y-112621932D01*
G37*
G36*
X147202509Y-112268379D02*
X147025732Y-112445156D01*
X146530757Y-111950181D01*
X146707534Y-111773404D01*
X147202509Y-112268379D01*
X147202509Y-112268379D01*
G37*
G36*
X147556062Y-111914825D02*
X147379285Y-112091602D01*
X146884310Y-111596627D01*
X147061087Y-111419850D01*
X147556062Y-111914825D01*
X147556062Y-111914825D01*
G37*
G36*
X147909616Y-111561272D02*
X147732839Y-111738049D01*
X147237864Y-111243074D01*
X147414641Y-111066297D01*
X147909616Y-111561272D01*
X147909616Y-111561272D01*
G37*
G36*
X148263169Y-111207718D02*
X148086392Y-111384495D01*
X147591417Y-110889520D01*
X147768194Y-110712743D01*
X148263169Y-111207718D01*
X148263169Y-111207718D01*
G37*
G36*
X147768194Y-110465257D02*
X147591417Y-110288480D01*
X148086392Y-109793505D01*
X148263169Y-109970282D01*
X147768194Y-110465257D01*
X147768194Y-110465257D01*
G37*
G36*
X147414641Y-110111703D02*
X147237864Y-109934926D01*
X147732839Y-109439951D01*
X147909616Y-109616728D01*
X147414641Y-110111703D01*
X147414641Y-110111703D01*
G37*
G36*
X147061087Y-109758150D02*
X146884310Y-109581373D01*
X147379285Y-109086398D01*
X147556062Y-109263175D01*
X147061087Y-109758150D01*
X147061087Y-109758150D01*
G37*
G36*
X146707534Y-109404596D02*
X146530757Y-109227819D01*
X147025732Y-108732844D01*
X147202509Y-108909621D01*
X146707534Y-109404596D01*
X146707534Y-109404596D01*
G37*
G36*
X146353981Y-109051043D02*
X146177204Y-108874266D01*
X146672179Y-108379291D01*
X146848956Y-108556068D01*
X146353981Y-109051043D01*
X146353981Y-109051043D01*
G37*
G36*
X146000427Y-108697490D02*
X145823650Y-108520713D01*
X146318625Y-108025738D01*
X146495402Y-108202515D01*
X146000427Y-108697490D01*
X146000427Y-108697490D01*
G37*
G36*
X145646874Y-108343936D02*
X145470097Y-108167159D01*
X145965072Y-107672184D01*
X146141849Y-107848961D01*
X145646874Y-108343936D01*
X145646874Y-108343936D01*
G37*
G36*
X145293320Y-107990383D02*
X145116543Y-107813606D01*
X145611518Y-107318631D01*
X145788295Y-107495408D01*
X145293320Y-107990383D01*
X145293320Y-107990383D01*
G37*
G36*
X144869057Y-107813606D02*
X144692280Y-107990383D01*
X144197305Y-107495408D01*
X144374082Y-107318631D01*
X144869057Y-107813606D01*
X144869057Y-107813606D01*
G37*
G36*
X144515503Y-108167159D02*
X144338726Y-108343936D01*
X143843751Y-107848961D01*
X144020528Y-107672184D01*
X144515503Y-108167159D01*
X144515503Y-108167159D01*
G37*
G36*
X144161950Y-108520713D02*
X143985173Y-108697490D01*
X143490198Y-108202515D01*
X143666975Y-108025738D01*
X144161950Y-108520713D01*
X144161950Y-108520713D01*
G37*
G36*
X143808396Y-108874266D02*
X143631619Y-109051043D01*
X143136644Y-108556068D01*
X143313421Y-108379291D01*
X143808396Y-108874266D01*
X143808396Y-108874266D01*
G37*
G36*
X143454843Y-109227819D02*
X143278066Y-109404596D01*
X142783091Y-108909621D01*
X142959868Y-108732844D01*
X143454843Y-109227819D01*
X143454843Y-109227819D01*
G37*
G36*
X143101290Y-109581373D02*
X142924513Y-109758150D01*
X142429538Y-109263175D01*
X142606315Y-109086398D01*
X143101290Y-109581373D01*
X143101290Y-109581373D01*
G37*
G36*
X142747736Y-109934926D02*
X142570959Y-110111703D01*
X142075984Y-109616728D01*
X142252761Y-109439951D01*
X142747736Y-109934926D01*
X142747736Y-109934926D01*
G37*
G36*
X142394183Y-110288480D02*
X142217406Y-110465257D01*
X141722431Y-109970282D01*
X141899208Y-109793505D01*
X142394183Y-110288480D01*
X142394183Y-110288480D01*
G37*
G36*
X146212559Y-111808759D02*
X144992800Y-110589000D01*
X146212559Y-109369241D01*
X147432318Y-110589000D01*
X146212559Y-111808759D01*
X146212559Y-111808759D01*
G37*
G36*
X144992800Y-110589000D02*
X143773041Y-109369241D01*
X144992800Y-108149482D01*
X146212559Y-109369241D01*
X144992800Y-110589000D01*
X144992800Y-110589000D01*
G37*
G36*
X144992800Y-113028518D02*
X143773041Y-111808759D01*
X144992800Y-110589000D01*
X146212559Y-111808759D01*
X144992800Y-113028518D01*
X144992800Y-113028518D01*
G37*
G36*
X143773041Y-111808759D02*
X142553282Y-110589000D01*
X143773041Y-109369241D01*
X144992800Y-110589000D01*
X143773041Y-111808759D01*
X143773041Y-111808759D01*
G37*
D21*
X150292800Y-105708800D03*
D11*
X147752800Y-105708800D03*
D22*
X157592800Y-114608800D03*
X159492800Y-114608800D03*
X159442800Y-106308800D03*
X157542800Y-106308800D03*
X159442800Y-104808800D03*
X157542800Y-104808800D03*
X137342800Y-110408800D03*
X139242800Y-110408800D03*
X137292800Y-107208800D03*
X139192800Y-107208800D03*
X137300000Y-89200000D03*
X139200000Y-89200000D03*
X137350000Y-92400000D03*
X139250000Y-92400000D03*
X159450000Y-86800000D03*
X157550000Y-86800000D03*
X159450000Y-88300000D03*
X157550000Y-88300000D03*
X157600000Y-96600000D03*
X159500000Y-96600000D03*
D21*
X150300000Y-87700000D03*
D11*
X147760000Y-87700000D03*
D10*
G36*
X141906408Y-93375695D02*
X141729631Y-93198918D01*
X142224606Y-92703943D01*
X142401383Y-92880720D01*
X141906408Y-93375695D01*
X141906408Y-93375695D01*
G37*
G36*
X142259961Y-93729249D02*
X142083184Y-93552472D01*
X142578159Y-93057497D01*
X142754936Y-93234274D01*
X142259961Y-93729249D01*
X142259961Y-93729249D01*
G37*
G36*
X142613515Y-94082802D02*
X142436738Y-93906025D01*
X142931713Y-93411050D01*
X143108490Y-93587827D01*
X142613515Y-94082802D01*
X142613515Y-94082802D01*
G37*
G36*
X142967068Y-94436356D02*
X142790291Y-94259579D01*
X143285266Y-93764604D01*
X143462043Y-93941381D01*
X142967068Y-94436356D01*
X142967068Y-94436356D01*
G37*
G36*
X143320621Y-94789909D02*
X143143844Y-94613132D01*
X143638819Y-94118157D01*
X143815596Y-94294934D01*
X143320621Y-94789909D01*
X143320621Y-94789909D01*
G37*
G36*
X143674175Y-95143462D02*
X143497398Y-94966685D01*
X143992373Y-94471710D01*
X144169150Y-94648487D01*
X143674175Y-95143462D01*
X143674175Y-95143462D01*
G37*
G36*
X144027728Y-95497016D02*
X143850951Y-95320239D01*
X144345926Y-94825264D01*
X144522703Y-95002041D01*
X144027728Y-95497016D01*
X144027728Y-95497016D01*
G37*
G36*
X144381282Y-95850569D02*
X144204505Y-95673792D01*
X144699480Y-95178817D01*
X144876257Y-95355594D01*
X144381282Y-95850569D01*
X144381282Y-95850569D01*
G37*
G36*
X145795495Y-95673792D02*
X145618718Y-95850569D01*
X145123743Y-95355594D01*
X145300520Y-95178817D01*
X145795495Y-95673792D01*
X145795495Y-95673792D01*
G37*
G36*
X146149049Y-95320239D02*
X145972272Y-95497016D01*
X145477297Y-95002041D01*
X145654074Y-94825264D01*
X146149049Y-95320239D01*
X146149049Y-95320239D01*
G37*
G36*
X146502602Y-94966685D02*
X146325825Y-95143462D01*
X145830850Y-94648487D01*
X146007627Y-94471710D01*
X146502602Y-94966685D01*
X146502602Y-94966685D01*
G37*
G36*
X146856156Y-94613132D02*
X146679379Y-94789909D01*
X146184404Y-94294934D01*
X146361181Y-94118157D01*
X146856156Y-94613132D01*
X146856156Y-94613132D01*
G37*
G36*
X147209709Y-94259579D02*
X147032932Y-94436356D01*
X146537957Y-93941381D01*
X146714734Y-93764604D01*
X147209709Y-94259579D01*
X147209709Y-94259579D01*
G37*
G36*
X147563262Y-93906025D02*
X147386485Y-94082802D01*
X146891510Y-93587827D01*
X147068287Y-93411050D01*
X147563262Y-93906025D01*
X147563262Y-93906025D01*
G37*
G36*
X147916816Y-93552472D02*
X147740039Y-93729249D01*
X147245064Y-93234274D01*
X147421841Y-93057497D01*
X147916816Y-93552472D01*
X147916816Y-93552472D01*
G37*
G36*
X148270369Y-93198918D02*
X148093592Y-93375695D01*
X147598617Y-92880720D01*
X147775394Y-92703943D01*
X148270369Y-93198918D01*
X148270369Y-93198918D01*
G37*
G36*
X147775394Y-92456457D02*
X147598617Y-92279680D01*
X148093592Y-91784705D01*
X148270369Y-91961482D01*
X147775394Y-92456457D01*
X147775394Y-92456457D01*
G37*
G36*
X147421841Y-92102903D02*
X147245064Y-91926126D01*
X147740039Y-91431151D01*
X147916816Y-91607928D01*
X147421841Y-92102903D01*
X147421841Y-92102903D01*
G37*
G36*
X147068287Y-91749350D02*
X146891510Y-91572573D01*
X147386485Y-91077598D01*
X147563262Y-91254375D01*
X147068287Y-91749350D01*
X147068287Y-91749350D01*
G37*
G36*
X146714734Y-91395796D02*
X146537957Y-91219019D01*
X147032932Y-90724044D01*
X147209709Y-90900821D01*
X146714734Y-91395796D01*
X146714734Y-91395796D01*
G37*
G36*
X146361181Y-91042243D02*
X146184404Y-90865466D01*
X146679379Y-90370491D01*
X146856156Y-90547268D01*
X146361181Y-91042243D01*
X146361181Y-91042243D01*
G37*
G36*
X146007627Y-90688690D02*
X145830850Y-90511913D01*
X146325825Y-90016938D01*
X146502602Y-90193715D01*
X146007627Y-90688690D01*
X146007627Y-90688690D01*
G37*
G36*
X145654074Y-90335136D02*
X145477297Y-90158359D01*
X145972272Y-89663384D01*
X146149049Y-89840161D01*
X145654074Y-90335136D01*
X145654074Y-90335136D01*
G37*
G36*
X145300520Y-89981583D02*
X145123743Y-89804806D01*
X145618718Y-89309831D01*
X145795495Y-89486608D01*
X145300520Y-89981583D01*
X145300520Y-89981583D01*
G37*
G36*
X144876257Y-89804806D02*
X144699480Y-89981583D01*
X144204505Y-89486608D01*
X144381282Y-89309831D01*
X144876257Y-89804806D01*
X144876257Y-89804806D01*
G37*
G36*
X144522703Y-90158359D02*
X144345926Y-90335136D01*
X143850951Y-89840161D01*
X144027728Y-89663384D01*
X144522703Y-90158359D01*
X144522703Y-90158359D01*
G37*
G36*
X144169150Y-90511913D02*
X143992373Y-90688690D01*
X143497398Y-90193715D01*
X143674175Y-90016938D01*
X144169150Y-90511913D01*
X144169150Y-90511913D01*
G37*
G36*
X143815596Y-90865466D02*
X143638819Y-91042243D01*
X143143844Y-90547268D01*
X143320621Y-90370491D01*
X143815596Y-90865466D01*
X143815596Y-90865466D01*
G37*
G36*
X143462043Y-91219019D02*
X143285266Y-91395796D01*
X142790291Y-90900821D01*
X142967068Y-90724044D01*
X143462043Y-91219019D01*
X143462043Y-91219019D01*
G37*
G36*
X143108490Y-91572573D02*
X142931713Y-91749350D01*
X142436738Y-91254375D01*
X142613515Y-91077598D01*
X143108490Y-91572573D01*
X143108490Y-91572573D01*
G37*
G36*
X142754936Y-91926126D02*
X142578159Y-92102903D01*
X142083184Y-91607928D01*
X142259961Y-91431151D01*
X142754936Y-91926126D01*
X142754936Y-91926126D01*
G37*
G36*
X142401383Y-92279680D02*
X142224606Y-92456457D01*
X141729631Y-91961482D01*
X141906408Y-91784705D01*
X142401383Y-92279680D01*
X142401383Y-92279680D01*
G37*
G36*
X146219759Y-93799959D02*
X145000000Y-92580200D01*
X146219759Y-91360441D01*
X147439518Y-92580200D01*
X146219759Y-93799959D01*
X146219759Y-93799959D01*
G37*
G36*
X145000000Y-92580200D02*
X143780241Y-91360441D01*
X145000000Y-90140682D01*
X146219759Y-91360441D01*
X145000000Y-92580200D01*
X145000000Y-92580200D01*
G37*
G36*
X145000000Y-95019718D02*
X143780241Y-93799959D01*
X145000000Y-92580200D01*
X146219759Y-93799959D01*
X145000000Y-95019718D01*
X145000000Y-95019718D01*
G37*
G36*
X143780241Y-93799959D02*
X142560482Y-92580200D01*
X143780241Y-91360441D01*
X145000000Y-92580200D01*
X143780241Y-93799959D01*
X143780241Y-93799959D01*
G37*
D19*
X157300000Y-90700000D03*
D20*
X159840000Y-90700000D03*
D19*
X157260000Y-94200000D03*
D20*
X159800000Y-94200000D03*
D18*
X152650000Y-90300760D03*
X154550000Y-90300760D03*
X153600000Y-88301780D03*
X152850000Y-97500760D03*
X154750000Y-97500760D03*
X153800000Y-95501780D03*
D17*
X149300000Y-95000000D03*
X149300000Y-97200000D03*
D16*
X139400000Y-95600000D03*
X137200000Y-95600000D03*
X139400000Y-94000000D03*
X137200000Y-94000000D03*
X139400000Y-90800000D03*
X137200000Y-90800000D03*
X155700000Y-86800000D03*
X153500000Y-86800000D03*
D17*
X150600000Y-90900000D03*
X150600000Y-93100000D03*
D16*
X154600000Y-93400000D03*
X152400000Y-93400000D03*
D17*
X151300000Y-97200000D03*
X151300000Y-95000000D03*
D16*
X157500000Y-98100000D03*
X159700000Y-98100000D03*
X154600000Y-91900000D03*
X152400000Y-91900000D03*
D15*
X140501580Y-97900040D03*
X141499800Y-97900040D03*
X142500560Y-97900040D03*
D13*
X134800000Y-95912000D03*
X134800000Y-93372000D03*
X134800000Y-91340000D03*
X134800000Y-88800000D03*
D14*
X132133000Y-98960000D03*
X132133000Y-85752000D03*
D23*
X148200000Y-99150000D03*
X149200000Y-99150000D03*
X150200000Y-99150000D03*
X151200000Y-99150000D03*
X152200000Y-99150000D03*
X153200000Y-99150000D03*
X154200000Y-99150000D03*
X155200000Y-99150000D03*
X156200000Y-99150000D03*
X157200000Y-99150000D03*
X158200000Y-99150000D03*
X158200000Y-103650000D03*
X157200000Y-103650000D03*
X156200000Y-103650000D03*
X155200000Y-103650000D03*
X154200000Y-103650000D03*
X153200000Y-103650000D03*
X152200000Y-103650000D03*
X151200000Y-103650000D03*
X150200000Y-103650000D03*
X149200000Y-103650000D03*
X148200000Y-103650000D03*
D12*
X138300000Y-87000000D03*
X138300000Y-97800000D03*
D11*
X163400000Y-91100000D03*
X163400000Y-93640000D03*
X163400000Y-91735000D03*
X163400000Y-93005000D03*
X163400000Y-92370000D03*
D24*
X150021214Y-111993473D03*
X143143330Y-114472402D03*
X140760124Y-111238407D03*
X140767324Y-93229607D03*
X143150530Y-96463602D03*
X150028414Y-93984673D03*
X141142800Y-114458800D03*
X155488100Y-108429500D03*
X155647900Y-115589300D03*
X136292800Y-110208800D03*
X142992800Y-105508800D03*
X140292800Y-105508800D03*
X142092800Y-112708800D03*
X140292800Y-106983810D03*
X140300000Y-88975010D03*
X142100000Y-94700000D03*
X140300000Y-87500000D03*
X143000000Y-87500000D03*
X141150000Y-96450000D03*
X136300000Y-92200000D03*
X155655100Y-97580500D03*
X155495300Y-90420700D03*
X148908218Y-111302969D03*
X148915418Y-93294169D03*
X148866943Y-110460345D03*
X148874143Y-92451545D03*
X149088400Y-109407500D03*
X149095600Y-91398700D03*
X149021600Y-108446600D03*
X150292800Y-113971300D03*
X150300000Y-95962500D03*
X149028800Y-90437800D03*
X147821600Y-107652700D03*
X153536700Y-107660800D03*
X153543900Y-89652000D03*
X147828800Y-89643900D03*
X140798700Y-108853100D03*
X144689000Y-106876000D03*
X144696200Y-88867200D03*
X140805900Y-90844300D03*
X141625000Y-104653100D03*
X140998400Y-107783820D03*
X141005600Y-89775020D03*
X141632200Y-86644300D03*
D25*
X142411900Y-109775800D02*
X142193900Y-109993800D01*
D26*
X151792800Y-109908800D02*
X150592800Y-111108800D01*
X152392800Y-109908800D02*
X151792800Y-109908800D01*
X150321213Y-111693474D02*
X150021214Y-111993473D01*
X150592800Y-111421887D02*
X150321213Y-111693474D01*
X151292800Y-113008800D02*
X151292800Y-112840795D01*
X150592800Y-111108800D02*
X150592800Y-111421887D01*
X151292800Y-112840795D02*
X150445478Y-111993473D01*
X150445478Y-111993473D02*
X150021214Y-111993473D01*
X137192800Y-107308800D02*
X137292800Y-107208800D01*
X137192800Y-108808800D02*
X137192800Y-107308800D01*
X135192800Y-107208800D02*
X134792800Y-106808800D01*
X137292800Y-107208800D02*
X135192800Y-107208800D01*
X143143330Y-114472402D02*
X143143330Y-113409330D01*
X143143330Y-113409330D02*
X142842800Y-113108800D01*
D27*
X142800770Y-112427477D02*
X143118967Y-112109280D01*
X142800770Y-113066770D02*
X142800770Y-112427477D01*
X142842800Y-113108800D02*
X142800770Y-113066770D01*
D26*
X141060123Y-110938408D02*
X140760124Y-111238407D01*
X142004731Y-109993800D02*
X141060123Y-110938408D01*
X142193900Y-109993800D02*
X142004731Y-109993800D01*
X142201100Y-91985000D02*
X142011931Y-91985000D01*
X142011931Y-91985000D02*
X141067323Y-92929608D01*
X141067323Y-92929608D02*
X140767324Y-93229607D01*
D27*
X142850000Y-95100000D02*
X142807970Y-95057970D01*
X142807970Y-95057970D02*
X142807970Y-94418677D01*
X142807970Y-94418677D02*
X143126167Y-94100480D01*
D26*
X143150530Y-95400530D02*
X142850000Y-95100000D01*
X143150530Y-96463602D02*
X143150530Y-95400530D01*
X137300000Y-89200000D02*
X135200000Y-89200000D01*
X135200000Y-89200000D02*
X134800000Y-88800000D01*
X137200000Y-90800000D02*
X137200000Y-89300000D01*
X137200000Y-89300000D02*
X137300000Y-89200000D01*
X150452678Y-93984673D02*
X150028414Y-93984673D01*
X151300000Y-94831995D02*
X150452678Y-93984673D01*
X150600000Y-93100000D02*
X150600000Y-93413087D01*
X151300000Y-95000000D02*
X151300000Y-94831995D01*
X150600000Y-93413087D02*
X150328413Y-93684674D01*
X150328413Y-93684674D02*
X150028414Y-93984673D01*
X152400000Y-91900000D02*
X151800000Y-91900000D01*
X151800000Y-91900000D02*
X150600000Y-93100000D01*
D25*
X142419100Y-91767000D02*
X142201100Y-91985000D01*
D26*
X141492600Y-114808600D02*
X141142800Y-114458800D01*
X141492600Y-115908840D02*
X141492600Y-114808600D01*
D25*
X143472500Y-108715200D02*
X142995100Y-108237700D01*
X142622100Y-107864700D02*
X142995100Y-108237700D01*
D26*
X155488100Y-108429500D02*
X155368200Y-108309600D01*
X154542800Y-108309600D02*
X155368200Y-108309600D01*
X160848799Y-107692801D02*
X159832800Y-108708800D01*
X160848799Y-105989799D02*
X160848799Y-107692801D01*
X159667800Y-104808800D02*
X160848799Y-105989799D01*
X159442800Y-104808800D02*
X159667800Y-104808800D01*
X154822540Y-115589300D02*
X154742800Y-115509560D01*
X155647900Y-115589300D02*
X154822540Y-115589300D01*
X136492800Y-110408800D02*
X136292800Y-110208800D01*
X137342800Y-110408800D02*
X136492800Y-110408800D01*
X142992800Y-105508800D02*
X142568536Y-105508800D01*
X142568536Y-105508800D02*
X140292800Y-105508800D01*
D27*
X142765414Y-111755726D02*
X142092800Y-112428340D01*
X142092800Y-112428340D02*
X142092800Y-112708800D01*
D26*
X142622100Y-107864700D02*
X141741210Y-106983810D01*
X140292800Y-107158800D02*
X140292800Y-106983810D01*
X141741210Y-106983810D02*
X140717064Y-106983810D01*
X140717064Y-106983810D02*
X140292800Y-106983810D01*
X139192800Y-107208800D02*
X140242800Y-107208800D01*
X140242800Y-107208800D02*
X140292800Y-107158800D01*
X140250000Y-89200000D02*
X140300000Y-89150000D01*
X139200000Y-89200000D02*
X140250000Y-89200000D01*
X140724264Y-88975010D02*
X140300000Y-88975010D01*
X141748410Y-88975010D02*
X140724264Y-88975010D01*
X140300000Y-89150000D02*
X140300000Y-88975010D01*
X142629300Y-89855900D02*
X141748410Y-88975010D01*
D27*
X142100000Y-94419540D02*
X142100000Y-94700000D01*
X142772614Y-93746926D02*
X142100000Y-94419540D01*
D26*
X142575736Y-87500000D02*
X140300000Y-87500000D01*
X143000000Y-87500000D02*
X142575736Y-87500000D01*
X141499800Y-97900040D02*
X141499800Y-96799800D01*
X141499800Y-96799800D02*
X141150000Y-96450000D01*
X137350000Y-92400000D02*
X136500000Y-92400000D01*
X136500000Y-92400000D02*
X136300000Y-92200000D01*
X155655100Y-97580500D02*
X154829740Y-97580500D01*
X154829740Y-97580500D02*
X154750000Y-97500760D01*
X159450000Y-86800000D02*
X159675000Y-86800000D01*
X159675000Y-86800000D02*
X160855999Y-87980999D01*
X160855999Y-87980999D02*
X160855999Y-89684001D01*
X160855999Y-89684001D02*
X159840000Y-90700000D01*
X154550000Y-90300800D02*
X155375400Y-90300800D01*
X155495300Y-90420700D02*
X155375400Y-90300800D01*
D25*
X142629300Y-89855900D02*
X143002300Y-90228900D01*
X143479700Y-90706400D02*
X143002300Y-90228900D01*
D27*
X143507877Y-108043417D02*
X143826074Y-108361614D01*
X143507877Y-107972645D02*
X143507877Y-108043417D01*
X138267799Y-106573799D02*
X138482798Y-106358800D01*
X139242800Y-110408800D02*
X139017800Y-110408800D01*
X141894032Y-106358800D02*
X143507877Y-107972645D01*
X138482798Y-106358800D02*
X141894032Y-106358800D01*
X138267799Y-109658799D02*
X138267799Y-106573799D01*
X139017800Y-110408800D02*
X138267799Y-109658799D01*
X139025000Y-92400000D02*
X138274999Y-91649999D01*
X138274999Y-91649999D02*
X138274999Y-88564999D01*
X138489998Y-88350000D02*
X141901232Y-88350000D01*
X141901232Y-88350000D02*
X143515077Y-89963845D01*
X139250000Y-92400000D02*
X139025000Y-92400000D01*
X138274999Y-88564999D02*
X138489998Y-88350000D01*
X143515077Y-89963845D02*
X143515077Y-90034617D01*
X143515077Y-90034617D02*
X143833274Y-90352814D01*
X157542800Y-106308800D02*
X157542800Y-104808800D01*
X155692800Y-104808800D02*
X157542800Y-104808800D01*
X155700000Y-86800000D02*
X157550000Y-86800000D01*
X157550000Y-88300000D02*
X157550000Y-86800000D01*
X159217800Y-106308800D02*
X159442800Y-106308800D01*
X157292800Y-108233800D02*
X159217800Y-106308800D01*
X157292800Y-108708800D02*
X157292800Y-108233800D01*
X157300000Y-90700000D02*
X157300000Y-90225000D01*
X157300000Y-90225000D02*
X159225000Y-88300000D01*
X159225000Y-88300000D02*
X159450000Y-88300000D01*
X156742800Y-114608800D02*
X157592800Y-114608800D01*
X153093510Y-114608800D02*
X156742800Y-114608800D01*
X152842800Y-114859510D02*
X153093510Y-114608800D01*
X152842800Y-115509560D02*
X152842800Y-114859510D01*
X157817800Y-114608800D02*
X157592800Y-114608800D01*
X159317800Y-116108800D02*
X157817800Y-114608800D01*
X159692800Y-116108800D02*
X159317800Y-116108800D01*
X159700000Y-98100000D02*
X159325000Y-98100000D01*
X159325000Y-98100000D02*
X157825000Y-96600000D01*
X157825000Y-96600000D02*
X157600000Y-96600000D01*
X152850000Y-97500760D02*
X152850000Y-96850710D01*
X152850000Y-96850710D02*
X153100710Y-96600000D01*
X153100710Y-96600000D02*
X156750000Y-96600000D01*
X156750000Y-96600000D02*
X157600000Y-96600000D01*
X157252800Y-112208800D02*
X157252800Y-111728000D01*
X157717800Y-112208800D02*
X157252800Y-112208800D01*
X157252800Y-111718800D02*
X157252800Y-112208800D01*
X159442800Y-114608800D02*
X159492800Y-114608800D01*
X154742800Y-109908800D02*
X154592800Y-109908800D01*
X157042800Y-112208800D02*
X154742800Y-109908800D01*
X157252800Y-112208800D02*
X157042800Y-112208800D01*
X157252800Y-112593800D02*
X157252800Y-112208800D01*
X159267800Y-114608800D02*
X157252800Y-112593800D01*
X159492800Y-114608800D02*
X159267800Y-114608800D01*
X159500000Y-96600000D02*
X159275000Y-96600000D01*
X159275000Y-96600000D02*
X157260000Y-94585000D01*
X157260000Y-94585000D02*
X157260000Y-94200000D01*
X157260000Y-94200000D02*
X157050000Y-94200000D01*
X157050000Y-94200000D02*
X154750000Y-91900000D01*
X154750000Y-91900000D02*
X154600000Y-91900000D01*
X159450000Y-96600000D02*
X159500000Y-96600000D01*
X157260000Y-93710000D02*
X157260000Y-94200000D01*
X157725000Y-94200000D02*
X157260000Y-94200000D01*
X157260000Y-94200000D02*
X157260000Y-93719200D01*
X148752799Y-106708799D02*
X147752800Y-105708800D01*
X149292800Y-111843391D02*
X149533220Y-111602971D01*
X149533220Y-111602971D02*
X149533220Y-111471840D01*
X149533220Y-111471840D02*
X149715100Y-111289960D01*
X149292800Y-113008800D02*
X149292800Y-111843391D01*
X149715100Y-107671100D02*
X148752799Y-106708799D01*
X149715100Y-111289960D02*
X149715100Y-107671100D01*
X149722300Y-93281160D02*
X149722300Y-89662300D01*
X149722300Y-89662300D02*
X148759999Y-88699999D01*
X149300000Y-95000000D02*
X149300000Y-93834591D01*
X149540420Y-93463040D02*
X149722300Y-93281160D01*
X149540420Y-93594171D02*
X149540420Y-93463040D01*
X149300000Y-93834591D02*
X149540420Y-93594171D01*
X148759999Y-88699999D02*
X147760000Y-87700000D01*
X140494400Y-115908800D02*
X140494400Y-112612500D01*
X140494400Y-112612500D02*
X142058300Y-111048600D01*
X140501600Y-94603700D02*
X142065500Y-93039800D01*
X140501600Y-97900000D02*
X140501600Y-94603700D01*
X142411900Y-111402200D02*
X141934300Y-111879800D01*
X141292800Y-112521300D02*
X141934300Y-111879800D01*
X141292800Y-113458790D02*
X141292800Y-112521300D01*
X142493360Y-114659350D02*
X141292800Y-113458790D01*
X142493360Y-115908840D02*
X142493360Y-114659350D01*
X142500560Y-97900040D02*
X142500560Y-96650550D01*
X142500560Y-96650550D02*
X141300000Y-95449990D01*
X141300000Y-95449990D02*
X141300000Y-94512500D01*
X141300000Y-94512500D02*
X141941500Y-93871000D01*
X142419100Y-93393400D02*
X141941500Y-93871000D01*
X148608219Y-111602968D02*
X148908218Y-111302969D01*
X148490817Y-111720370D02*
X148608219Y-111602968D01*
X147891937Y-111720370D02*
X148490817Y-111720370D01*
X147573740Y-111402173D02*
X147891937Y-111720370D01*
X147580940Y-93393373D02*
X147899137Y-93711570D01*
X147899137Y-93711570D02*
X148498017Y-93711570D01*
X148498017Y-93711570D02*
X148615419Y-93594168D01*
X148615419Y-93594168D02*
X148915418Y-93294169D01*
X147927300Y-111048600D02*
X147927300Y-110975724D01*
X147927300Y-110975724D02*
X148442679Y-110460345D01*
X148442679Y-110460345D02*
X148866943Y-110460345D01*
X148449879Y-92451545D02*
X148874143Y-92451545D01*
X147934500Y-92966924D02*
X148449879Y-92451545D01*
X147934500Y-93039800D02*
X147934500Y-92966924D01*
X147927300Y-110129400D02*
X148404800Y-109651900D01*
X149088400Y-109407500D02*
X148844000Y-109651900D01*
X148844000Y-109651900D02*
X148404800Y-109651900D01*
X148851200Y-91643100D02*
X148412000Y-91643100D01*
X149095600Y-91398700D02*
X148851200Y-91643100D01*
X147934500Y-92120600D02*
X148412000Y-91643100D01*
X148051300Y-109298200D02*
X148902900Y-108446600D01*
X148902900Y-108446600D02*
X149021600Y-108446600D01*
X147573700Y-109775800D02*
X148051300Y-109298200D01*
X149292800Y-114971300D02*
X150292800Y-113971300D01*
X149292800Y-115208800D02*
X149292800Y-114971300D01*
X149300000Y-97200000D02*
X149300000Y-96962500D01*
X149300000Y-96962500D02*
X150300000Y-95962500D01*
X147580900Y-91767000D02*
X148058500Y-91289400D01*
X148910100Y-90437800D02*
X149028800Y-90437800D01*
X148058500Y-91289400D02*
X148910100Y-90437800D01*
X147821600Y-107652700D02*
X147575600Y-107652700D01*
X147575600Y-107652700D02*
X146513100Y-108715200D01*
X154317851Y-106879649D02*
X153836699Y-107360801D01*
X154317851Y-105483851D02*
X154317851Y-106879649D01*
X153642800Y-104808800D02*
X154317851Y-105483851D01*
X153836699Y-107360801D02*
X153536700Y-107660800D01*
X153492800Y-104808800D02*
X153642800Y-104808800D01*
X153500000Y-86800000D02*
X153650000Y-86800000D01*
X153843899Y-89352001D02*
X153543900Y-89652000D01*
X153650000Y-86800000D02*
X154325051Y-87475051D01*
X154325051Y-87475051D02*
X154325051Y-88870849D01*
X154325051Y-88870849D02*
X153843899Y-89352001D01*
X147582800Y-89643900D02*
X146520300Y-90706400D01*
X147828800Y-89643900D02*
X147582800Y-89643900D01*
X152092800Y-106310600D02*
X152092800Y-104998000D01*
X152092800Y-104998000D02*
X151478200Y-104383400D01*
X151478200Y-104383400D02*
X147139700Y-104383400D01*
X147139700Y-104383400D02*
X146411000Y-105112100D01*
X146411000Y-105112100D02*
X146411000Y-107536000D01*
X152092800Y-106310600D02*
X152867500Y-106310600D01*
X153592800Y-106310600D02*
X152867500Y-106310600D01*
X152092800Y-106558800D02*
X152092800Y-106310600D01*
X150592800Y-108058800D02*
X152092800Y-106558800D01*
X150592800Y-108908800D02*
X150592800Y-108058800D01*
X146477723Y-108043417D02*
X146159526Y-108361614D01*
X146477723Y-107725200D02*
X146477723Y-108043417D01*
X146427799Y-105072799D02*
X146427799Y-107675276D01*
X147116799Y-104383799D02*
X146427799Y-105072799D01*
X146427799Y-107675276D02*
X146477723Y-107725200D01*
X151552801Y-104383799D02*
X147116799Y-104383799D01*
X152092800Y-104923798D02*
X151552801Y-104383799D01*
X152092800Y-106310600D02*
X152092800Y-104923798D01*
X152100000Y-88301800D02*
X152100000Y-86914998D01*
X152100000Y-86914998D02*
X151560001Y-86374999D01*
X151560001Y-86374999D02*
X147123999Y-86374999D01*
X146434999Y-89666476D02*
X146484923Y-89716400D01*
X147123999Y-86374999D02*
X146434999Y-87063999D01*
X146434999Y-87063999D02*
X146434999Y-89666476D01*
X146484923Y-89716400D02*
X146484923Y-90034617D01*
X146484923Y-90034617D02*
X146166726Y-90352814D01*
X150600000Y-90900000D02*
X150600000Y-90050000D01*
X150600000Y-90050000D02*
X152100000Y-88550000D01*
X152100000Y-88550000D02*
X152100000Y-88301800D01*
X153600000Y-88301800D02*
X152874700Y-88301800D01*
X152100000Y-88301800D02*
X152874700Y-88301800D01*
X146418200Y-87103300D02*
X146418200Y-89527200D01*
X147146900Y-86374600D02*
X146418200Y-87103300D01*
X151485400Y-86374600D02*
X147146900Y-86374600D01*
X152100000Y-86989200D02*
X151485400Y-86374600D01*
X152100000Y-88301800D02*
X152100000Y-86989200D01*
X139437100Y-108853100D02*
X139392800Y-108808800D01*
X140798700Y-108853100D02*
X139437100Y-108853100D01*
X144689000Y-106891088D02*
X145452419Y-107654507D01*
X144689000Y-106876000D02*
X144689000Y-106891088D01*
X144696200Y-88867200D02*
X144696200Y-88882288D01*
X144696200Y-88882288D02*
X145459619Y-89645707D01*
X140805900Y-90844300D02*
X139444300Y-90844300D01*
X139444300Y-90844300D02*
X139400000Y-90800000D01*
X139392800Y-113608800D02*
X139392800Y-114384100D01*
X139392800Y-114384100D02*
X136029700Y-114384100D01*
X136029700Y-114384100D02*
X135354700Y-115059100D01*
X135354700Y-115059100D02*
X134386400Y-115059100D01*
X134386400Y-115059100D02*
X133695900Y-114368600D01*
X133695900Y-114368600D02*
X133695900Y-106381400D01*
X133695900Y-106381400D02*
X136329600Y-103747700D01*
X136329600Y-103747700D02*
X140719600Y-103747700D01*
X140719600Y-103747700D02*
X141625000Y-104653100D01*
X142479000Y-108428700D02*
X141643280Y-108428700D01*
X141298399Y-108083819D02*
X140998400Y-107783820D01*
X141643280Y-108428700D02*
X141298399Y-108083819D01*
X143119000Y-109068700D02*
X142479000Y-108428700D01*
X143126200Y-91059900D02*
X142486200Y-90419900D01*
X141650480Y-90419900D02*
X141305599Y-90075019D01*
X141305599Y-90075019D02*
X141005600Y-89775020D01*
X142486200Y-90419900D02*
X141650480Y-90419900D01*
X140726800Y-85738900D02*
X141632200Y-86644300D01*
X136336800Y-85738900D02*
X140726800Y-85738900D01*
X133703100Y-88372600D02*
X136336800Y-85738900D01*
X133703100Y-96359800D02*
X133703100Y-88372600D01*
X134393600Y-97050300D02*
X133703100Y-96359800D01*
X135361900Y-97050300D02*
X134393600Y-97050300D01*
X136036900Y-96375300D02*
X135361900Y-97050300D01*
X139400000Y-96375300D02*
X136036900Y-96375300D01*
X139400000Y-95600000D02*
X139400000Y-96375300D01*
X140135123Y-110938406D02*
X142128729Y-108944800D01*
X140135123Y-111266477D02*
X140135123Y-110938406D01*
X139392800Y-112008800D02*
X140135123Y-111266477D01*
X142287900Y-108944800D02*
X142765400Y-109422300D01*
X142128729Y-108944800D02*
X142287900Y-108944800D01*
X142135929Y-90936000D02*
X142295100Y-90936000D01*
X142295100Y-90936000D02*
X142772600Y-91413500D01*
X139400000Y-94000000D02*
X140142323Y-93257677D01*
X140142323Y-93257677D02*
X140142323Y-92929606D01*
X140142323Y-92929606D02*
X142135929Y-90936000D01*
X135542799Y-112130799D02*
X134792800Y-111380800D01*
X137020800Y-113608800D02*
X135542799Y-112130799D01*
X137192800Y-113608800D02*
X137020800Y-113608800D01*
X137200000Y-95600000D02*
X137028000Y-95600000D01*
X137028000Y-95600000D02*
X135549999Y-94121999D01*
X135549999Y-94121999D02*
X134800000Y-93372000D01*
X134792800Y-109758800D02*
X134792800Y-109348800D01*
X137042800Y-112008800D02*
X134792800Y-109758800D01*
X137192800Y-112008800D02*
X137042800Y-112008800D01*
X137200000Y-94000000D02*
X137050000Y-94000000D01*
X137050000Y-94000000D02*
X134800000Y-91750000D01*
X134800000Y-91750000D02*
X134800000Y-91340000D01*
X153317801Y-108334511D02*
X153292850Y-108309560D01*
X153292850Y-108309560D02*
X152642800Y-108309560D01*
X153317801Y-110283801D02*
X153317801Y-108334511D01*
X154442800Y-111408800D02*
X153317801Y-110283801D01*
X154592800Y-111408800D02*
X154442800Y-111408800D01*
X154600000Y-93400000D02*
X154450000Y-93400000D01*
X154450000Y-93400000D02*
X153325001Y-92275001D01*
X153325001Y-92275001D02*
X153325001Y-90325711D01*
X153300050Y-90300760D02*
X152650000Y-90300760D01*
X153325001Y-90325711D02*
X153300050Y-90300760D01*
X151292800Y-115317900D02*
X152840500Y-113770200D01*
X152840500Y-113770200D02*
X152840600Y-113770200D01*
X152840600Y-113770200D02*
X152840600Y-113737500D01*
X152840600Y-113737500D02*
X153067500Y-113510600D01*
X151292800Y-115208800D02*
X151292800Y-115317900D01*
X151292800Y-115671400D02*
X151292800Y-116134100D01*
X151292800Y-115671400D02*
X151292800Y-115317900D01*
X157492800Y-116108800D02*
X156567500Y-116108800D01*
X156567500Y-116108800D02*
X156417000Y-116259300D01*
X156417000Y-116259300D02*
X151418000Y-116259300D01*
X152392800Y-111408800D02*
X152392800Y-112184100D01*
X152392800Y-112184100D02*
X153067500Y-112858800D01*
X153067500Y-112858800D02*
X153067500Y-113510600D01*
X153792800Y-113510600D02*
X153067500Y-113510600D01*
X151418000Y-116259300D02*
X151292800Y-116134100D01*
X151425200Y-98250500D02*
X151300000Y-98125300D01*
X153800000Y-95501800D02*
X153074700Y-95501800D01*
X153074700Y-94850000D02*
X153074700Y-95501800D01*
X152400000Y-94175300D02*
X153074700Y-94850000D01*
X152400000Y-93400000D02*
X152400000Y-94175300D01*
X156424200Y-98250500D02*
X151425200Y-98250500D01*
X156574700Y-98100000D02*
X156424200Y-98250500D01*
X157500000Y-98100000D02*
X156574700Y-98100000D01*
X151300000Y-97662600D02*
X151300000Y-97309100D01*
X151300000Y-97662600D02*
X151300000Y-98125300D01*
X151300000Y-97200000D02*
X151300000Y-97309100D01*
X152847800Y-95728700D02*
X153074700Y-95501800D01*
X152847800Y-95761400D02*
X152847800Y-95728700D01*
X152847700Y-95761400D02*
X152847800Y-95761400D01*
X151300000Y-97309100D02*
X152847700Y-95761400D01*
M02*
