G04 #@! TF.FileFunction,Profile,NP*
%FSLAX46Y46*%
G04 Gerber Fmt 4.6, Leading zero omitted, Abs format (unit mm)*
G04 Created by KiCad (PCBNEW 0.201604121231+6687~43~ubuntu15.10.1-product) date Mi 13 Apr 2016 13:49:14 CEST*
%MOMM*%
G01*
G04 APERTURE LIST*
%ADD10C,0.100000*%
G04 APERTURE END LIST*
D10*
X130763450Y-85403461D02*
X130201005Y-85403461D01*
X131326209Y-85403461D02*
X130763450Y-85403461D01*
X131888643Y-85403461D02*
X131326209Y-85403461D01*
X132451213Y-85403461D02*
X131888643Y-85403461D01*
X133013679Y-85403461D02*
X132451213Y-85403461D01*
X133576120Y-85403461D02*
X133013679Y-85403461D01*
X134138531Y-85403461D02*
X133576120Y-85403461D01*
X134701108Y-85403461D02*
X134138531Y-85403461D01*
X135263651Y-85403461D02*
X134701108Y-85403461D01*
X135826008Y-85403461D02*
X135263651Y-85403461D01*
X136388598Y-85403461D02*
X135826008Y-85403461D01*
X136951003Y-85403461D02*
X136388598Y-85403461D01*
X137513400Y-85403461D02*
X136951003Y-85403461D01*
X138076018Y-85403461D02*
X137513400Y-85403461D01*
X138638597Y-85403461D02*
X138076018Y-85403461D01*
X139201381Y-85403461D02*
X138638597Y-85403461D01*
X139764003Y-85403461D02*
X139201381Y-85403461D01*
X140326502Y-85403461D02*
X139764003Y-85403461D01*
X140889049Y-85403461D02*
X140326502Y-85403461D01*
X141451510Y-85403461D02*
X140889049Y-85403461D01*
X142013944Y-85403461D02*
X141451510Y-85403461D01*
X142576589Y-85403461D02*
X142013944Y-85403461D01*
X143138996Y-85403461D02*
X142576589Y-85403461D01*
X143701369Y-85403461D02*
X143138996Y-85403461D01*
X143835021Y-85903701D02*
X143701369Y-85403461D01*
X144201135Y-86270003D02*
X143835021Y-85903701D01*
X144701274Y-86403917D02*
X144201135Y-86270003D01*
X145201430Y-86269993D02*
X144701274Y-86403917D01*
X145567536Y-85903684D02*
X145201430Y-86269993D01*
X145701178Y-85403461D02*
X145567536Y-85903684D01*
X146256441Y-85403461D02*
X145701178Y-85403461D01*
X146812046Y-85403461D02*
X146256441Y-85403461D01*
X147367493Y-85403461D02*
X146812046Y-85403461D01*
X147923292Y-85403461D02*
X147367493Y-85403461D01*
X148478642Y-85403461D02*
X147923292Y-85403461D01*
X149034236Y-85403461D02*
X148478642Y-85403461D01*
X149589843Y-85403461D02*
X149034236Y-85403461D01*
X150145264Y-85403461D02*
X149589843Y-85403461D01*
X150700853Y-85403461D02*
X150145264Y-85403461D01*
X151256101Y-85403461D02*
X150700853Y-85403461D01*
X151811613Y-85403461D02*
X151256101Y-85403461D01*
X152367256Y-85403461D02*
X151811613Y-85403461D01*
X152922936Y-85403461D02*
X152367256Y-85403461D01*
X153478658Y-85403461D02*
X152922936Y-85403461D01*
X154034055Y-85403461D02*
X153478658Y-85403461D01*
X154589545Y-85403461D02*
X154034055Y-85403461D01*
X155145352Y-85403461D02*
X154589545Y-85403461D01*
X155700780Y-85403461D02*
X155145352Y-85403461D01*
X156256411Y-85403461D02*
X155700780Y-85403461D01*
X156812206Y-85403461D02*
X156256411Y-85403461D01*
X157367903Y-85403461D02*
X156812206Y-85403461D01*
X157923644Y-85403461D02*
X157367903Y-85403461D01*
X158479203Y-85403461D02*
X157923644Y-85403461D01*
X159034711Y-85403461D02*
X158479203Y-85403461D01*
X159590246Y-85403461D02*
X159034711Y-85403461D01*
X160145816Y-85403461D02*
X159590246Y-85403461D01*
X160701398Y-85403461D02*
X160145816Y-85403461D01*
X161110583Y-85767231D02*
X160701398Y-85403461D01*
X161519655Y-86130900D02*
X161110583Y-85767231D01*
X161928689Y-86494537D02*
X161519655Y-86130900D01*
X162337862Y-86858296D02*
X161928689Y-86494537D01*
X162746721Y-87221776D02*
X162337862Y-86858296D01*
X163155627Y-87585298D02*
X162746721Y-87221776D01*
X163564640Y-87948915D02*
X163155627Y-87585298D01*
X163973633Y-88312515D02*
X163564640Y-87948915D01*
X164382673Y-88676156D02*
X163973633Y-88312515D01*
X164791732Y-89039814D02*
X164382673Y-88676156D01*
X165200969Y-89403630D02*
X164791732Y-89039814D01*
X165200969Y-89949260D02*
X165200969Y-89403630D01*
X165200969Y-90494739D02*
X165200969Y-89949260D01*
X165200969Y-91040169D02*
X165200969Y-90494739D01*
X165200969Y-91585783D02*
X165200969Y-91040169D01*
X165200969Y-92130978D02*
X165200969Y-91585783D01*
X165200969Y-92676236D02*
X165200969Y-92130978D01*
X165200969Y-93221636D02*
X165200969Y-92676236D01*
X165200969Y-93767011D02*
X165200969Y-93221636D01*
X165200969Y-94312448D02*
X165200969Y-93767011D01*
X165200969Y-94857909D02*
X165200969Y-94312448D01*
X165200969Y-95403609D02*
X165200969Y-94857909D01*
X164791784Y-95767378D02*
X165200969Y-95403609D01*
X164382712Y-96131048D02*
X164791784Y-95767378D01*
X163973678Y-96494684D02*
X164382712Y-96131048D01*
X163564505Y-96858444D02*
X163973678Y-96494684D01*
X163155646Y-97221924D02*
X163564505Y-96858444D01*
X162746740Y-97585446D02*
X163155646Y-97221924D01*
X162337727Y-97949063D02*
X162746740Y-97585446D01*
X161928734Y-98312663D02*
X162337727Y-97949063D01*
X161519694Y-98676304D02*
X161928734Y-98312663D01*
X161110635Y-99039962D02*
X161519694Y-98676304D01*
X160701398Y-99403778D02*
X161110635Y-99039962D01*
X160201267Y-99403778D02*
X160701398Y-99403778D01*
X159701441Y-99403778D02*
X160201267Y-99403778D01*
X159201298Y-99403778D02*
X159701441Y-99403778D01*
X158701038Y-99403778D02*
X159201298Y-99403778D01*
X158701038Y-99903482D02*
X158701038Y-99403778D01*
X158701038Y-100403542D02*
X158701038Y-99903482D01*
X158701038Y-100903659D02*
X158701038Y-100403542D01*
X158701038Y-101403467D02*
X158701038Y-100903659D01*
X158701038Y-101903486D02*
X158701038Y-101403467D01*
X158701038Y-102403620D02*
X158701038Y-101903486D01*
X158701038Y-102903417D02*
X158701038Y-102403620D01*
X158701038Y-103403397D02*
X158701038Y-102903417D01*
X159201032Y-103403397D02*
X158701038Y-103403397D01*
X159700720Y-103403397D02*
X159201032Y-103403397D01*
X160200726Y-103403397D02*
X159700720Y-103403397D01*
X160700848Y-103403397D02*
X160200726Y-103403397D01*
X161110082Y-103767166D02*
X160700848Y-103403397D01*
X161519205Y-104130836D02*
X161110082Y-103767166D01*
X161928289Y-104494472D02*
X161519205Y-104130836D01*
X162337512Y-104858231D02*
X161928289Y-104494472D01*
X162746421Y-105221711D02*
X162337512Y-104858231D01*
X163155377Y-105585233D02*
X162746421Y-105221711D01*
X163564439Y-105948849D02*
X163155377Y-105585233D01*
X163973483Y-106312449D02*
X163564439Y-105948849D01*
X164382573Y-106676090D02*
X163973483Y-106312449D01*
X164791682Y-107039748D02*
X164382573Y-106676090D01*
X165200969Y-107403564D02*
X164791682Y-107039748D01*
X165200969Y-107949193D02*
X165200969Y-107403564D01*
X165200969Y-108494673D02*
X165200969Y-107949193D01*
X165200969Y-109040103D02*
X165200969Y-108494673D01*
X165200969Y-109585717D02*
X165200969Y-109040103D01*
X165200969Y-110130912D02*
X165200969Y-109585717D01*
X165200969Y-110676170D02*
X165200969Y-110130912D01*
X165200969Y-111221570D02*
X165200969Y-110676170D01*
X165200969Y-111766945D02*
X165200969Y-111221570D01*
X165200969Y-112312382D02*
X165200969Y-111766945D01*
X165200969Y-112857844D02*
X165200969Y-112312382D01*
X165200969Y-113403543D02*
X165200969Y-112857844D01*
X164791734Y-113767313D02*
X165200969Y-113403543D01*
X164382612Y-114130983D02*
X164791734Y-113767313D01*
X163973528Y-114494619D02*
X164382612Y-114130983D01*
X163564304Y-114858379D02*
X163973528Y-114494619D01*
X163155396Y-115221859D02*
X163564304Y-114858379D01*
X162746440Y-115585381D02*
X163155396Y-115221859D01*
X162337377Y-115948998D02*
X162746440Y-115585381D01*
X161928334Y-116312598D02*
X162337377Y-115948998D01*
X161519244Y-116676239D02*
X161928334Y-116312598D01*
X161110135Y-117039897D02*
X161519244Y-116676239D01*
X160700848Y-117403713D02*
X161110135Y-117039897D01*
X160145606Y-117403713D02*
X160700848Y-117403713D01*
X159590020Y-117403713D02*
X160145606Y-117403713D01*
X159034594Y-117403713D02*
X159590020Y-117403713D01*
X158478816Y-117403713D02*
X159034594Y-117403713D01*
X157923486Y-117403713D02*
X158478816Y-117403713D01*
X157367912Y-117403713D02*
X157923486Y-117403713D01*
X156812326Y-117403713D02*
X157367912Y-117403713D01*
X156256926Y-117403713D02*
X156812326Y-117403713D01*
X155701356Y-117403713D02*
X156256926Y-117403713D01*
X155146129Y-117403713D02*
X155701356Y-117403713D01*
X154590637Y-117403713D02*
X155146129Y-117403713D01*
X154035014Y-117403713D02*
X154590637Y-117403713D01*
X153479355Y-117403713D02*
X154035014Y-117403713D01*
X152923654Y-117403713D02*
X153479355Y-117403713D01*
X152368277Y-117403713D02*
X152923654Y-117403713D01*
X151812807Y-117403713D02*
X152368277Y-117403713D01*
X151257020Y-117403713D02*
X151812807Y-117403713D01*
X150701613Y-117403713D02*
X151257020Y-117403713D01*
X150146002Y-117403713D02*
X150701613Y-117403713D01*
X149590227Y-117403713D02*
X150146002Y-117403713D01*
X149034552Y-117403713D02*
X149590227Y-117403713D01*
X148478830Y-117403713D02*
X149034552Y-117403713D01*
X147923292Y-117403713D02*
X148478830Y-117403713D01*
X147367804Y-117403713D02*
X147923292Y-117403713D01*
X146812290Y-117403713D02*
X147367804Y-117403713D01*
X146256740Y-117403713D02*
X146812290Y-117403713D01*
X145701178Y-117403713D02*
X146256740Y-117403713D01*
X145567344Y-116903713D02*
X145701178Y-117403713D01*
X145201250Y-116537631D02*
X145567344Y-116903713D01*
X144701274Y-116403808D02*
X145201250Y-116537631D01*
X144201279Y-116537641D02*
X144701274Y-116403808D01*
X143835193Y-116903731D02*
X144201279Y-116537641D01*
X143701369Y-117403713D02*
X143835193Y-116903731D01*
X143138923Y-117403713D02*
X143701369Y-117403713D01*
X142576165Y-117403713D02*
X143138923Y-117403713D01*
X142013731Y-117403713D02*
X142576165Y-117403713D01*
X141451161Y-117403713D02*
X142013731Y-117403713D01*
X140888695Y-117403713D02*
X141451161Y-117403713D01*
X140326254Y-117403713D02*
X140888695Y-117403713D01*
X139763842Y-117403713D02*
X140326254Y-117403713D01*
X139201266Y-117403713D02*
X139763842Y-117403713D01*
X138638722Y-117403713D02*
X139201266Y-117403713D01*
X138076366Y-117403713D02*
X138638722Y-117403713D01*
X137513775Y-117403713D02*
X138076366Y-117403713D01*
X136951371Y-117403713D02*
X137513775Y-117403713D01*
X136388974Y-117403713D02*
X136951371Y-117403713D01*
X135826356Y-117403713D02*
X136388974Y-117403713D01*
X135263777Y-117403713D02*
X135826356Y-117403713D01*
X134700992Y-117403713D02*
X135263777Y-117403713D01*
X134138370Y-117403713D02*
X134700992Y-117403713D01*
X133575872Y-117403713D02*
X134138370Y-117403713D01*
X133013324Y-117403713D02*
X133575872Y-117403713D01*
X132450864Y-117403713D02*
X133013324Y-117403713D01*
X131888430Y-117403713D02*
X132450864Y-117403713D01*
X131325785Y-117403713D02*
X131888430Y-117403713D01*
X130763377Y-117403713D02*
X131325785Y-117403713D01*
X130201005Y-117403713D02*
X130763377Y-117403713D01*
X130067170Y-116903726D02*
X130201005Y-117403713D01*
X129701076Y-116537637D02*
X130067170Y-116903726D01*
X129201100Y-116403808D02*
X129701076Y-116537637D01*
X129201100Y-115858426D02*
X129201100Y-116403808D01*
X129201100Y-115312893D02*
X129201100Y-115858426D01*
X129201100Y-114767020D02*
X129201100Y-115312893D01*
X129201100Y-114221400D02*
X129201100Y-114767020D01*
X129201100Y-113676086D02*
X129201100Y-114221400D01*
X129201100Y-113130417D02*
X129201100Y-113676086D01*
X129201100Y-112585150D02*
X129201100Y-113130417D01*
X129201100Y-112039887D02*
X129201100Y-112585150D01*
X129201100Y-111494475D02*
X129201100Y-112039887D01*
X129201100Y-110949181D02*
X129201100Y-111494475D01*
X129201100Y-110403833D02*
X129201100Y-110949181D01*
X129201100Y-109858573D02*
X129201100Y-110403833D01*
X129201100Y-109313038D02*
X129201100Y-109858573D01*
X129201100Y-108767644D02*
X129201100Y-109313038D01*
X129201100Y-108222272D02*
X129201100Y-108767644D01*
X129201100Y-107676775D02*
X129201100Y-108222272D01*
X129201100Y-107131371D02*
X129201100Y-107676775D01*
X129201100Y-106585778D02*
X129201100Y-107131371D01*
X129201100Y-106040260D02*
X129201100Y-106585778D01*
X129201100Y-105494828D02*
X129201100Y-106040260D01*
X129201100Y-104949168D02*
X129201100Y-105494828D01*
X129201100Y-104403852D02*
X129201100Y-104949168D01*
X129701256Y-104269935D02*
X129201100Y-104403852D01*
X130067363Y-103903613D02*
X129701256Y-104269935D01*
X130201005Y-103403397D02*
X130067363Y-103903613D01*
X130763450Y-103403397D02*
X130201005Y-103403397D01*
X131326209Y-103403397D02*
X130763450Y-103403397D01*
X131888643Y-103403397D02*
X131326209Y-103403397D01*
X132451213Y-103403397D02*
X131888643Y-103403397D01*
X133013679Y-103403397D02*
X132451213Y-103403397D01*
X133576120Y-103403397D02*
X133013679Y-103403397D01*
X134138531Y-103403397D02*
X133576120Y-103403397D01*
X134701108Y-103403397D02*
X134138531Y-103403397D01*
X135263651Y-103403397D02*
X134701108Y-103403397D01*
X135826008Y-103403397D02*
X135263651Y-103403397D01*
X136388598Y-103403397D02*
X135826008Y-103403397D01*
X136951003Y-103403397D02*
X136388598Y-103403397D01*
X137513400Y-103403397D02*
X136951003Y-103403397D01*
X138076018Y-103403397D02*
X137513400Y-103403397D01*
X138638597Y-103403397D02*
X138076018Y-103403397D01*
X139201381Y-103403397D02*
X138638597Y-103403397D01*
X139764003Y-103403397D02*
X139201381Y-103403397D01*
X140326502Y-103403397D02*
X139764003Y-103403397D01*
X140889049Y-103403397D02*
X140326502Y-103403397D01*
X141451510Y-103403397D02*
X140889049Y-103403397D01*
X142013944Y-103403397D02*
X141451510Y-103403397D01*
X142576589Y-103403397D02*
X142013944Y-103403397D01*
X143138996Y-103403397D02*
X142576589Y-103403397D01*
X143701369Y-103403397D02*
X143138996Y-103403397D01*
X143835021Y-103903637D02*
X143701369Y-103403397D01*
X144201135Y-104269939D02*
X143835021Y-103903637D01*
X144701274Y-104403852D02*
X144201135Y-104269939D01*
X145201430Y-104269928D02*
X144701274Y-104403852D01*
X145567537Y-103903619D02*
X145201430Y-104269928D01*
X145701178Y-103403397D02*
X145567537Y-103903619D01*
X146201172Y-103403397D02*
X145701178Y-103403397D01*
X146700860Y-103403397D02*
X146201172Y-103403397D01*
X147200866Y-103403397D02*
X146700860Y-103403397D01*
X147700987Y-103403397D02*
X147200866Y-103403397D01*
X147700987Y-102903693D02*
X147700987Y-103403397D01*
X147700987Y-102403632D02*
X147700987Y-102903693D01*
X147700987Y-101903516D02*
X147700987Y-102403632D01*
X147700987Y-101403708D02*
X147700987Y-101903516D01*
X147700987Y-100903689D02*
X147700987Y-101403708D01*
X147700987Y-100403555D02*
X147700987Y-100903689D01*
X147700987Y-99903758D02*
X147700987Y-100403555D01*
X147700987Y-99403778D02*
X147700987Y-99903758D01*
X147200994Y-99403778D02*
X147700987Y-99403778D01*
X146701306Y-99403778D02*
X147200994Y-99403778D01*
X146201300Y-99403778D02*
X146701306Y-99403778D01*
X145701178Y-99403778D02*
X146201300Y-99403778D01*
X145567344Y-98903778D02*
X145701178Y-99403778D01*
X145201250Y-98537696D02*
X145567344Y-98903778D01*
X144701274Y-98403873D02*
X145201250Y-98537696D01*
X144201280Y-98537706D02*
X144701274Y-98403873D01*
X143835193Y-98903796D02*
X144201280Y-98537706D01*
X143701369Y-99403778D02*
X143835193Y-98903796D01*
X143138923Y-99403778D02*
X143701369Y-99403778D01*
X142576165Y-99403778D02*
X143138923Y-99403778D01*
X142013731Y-99403778D02*
X142576165Y-99403778D01*
X141451161Y-99403778D02*
X142013731Y-99403778D01*
X140888695Y-99403778D02*
X141451161Y-99403778D01*
X140326254Y-99403778D02*
X140888695Y-99403778D01*
X139763842Y-99403778D02*
X140326254Y-99403778D01*
X139201266Y-99403778D02*
X139763842Y-99403778D01*
X138638722Y-99403778D02*
X139201266Y-99403778D01*
X138076366Y-99403778D02*
X138638722Y-99403778D01*
X137513775Y-99403778D02*
X138076366Y-99403778D01*
X136951371Y-99403778D02*
X137513775Y-99403778D01*
X136388974Y-99403778D02*
X136951371Y-99403778D01*
X135826356Y-99403778D02*
X136388974Y-99403778D01*
X135263777Y-99403778D02*
X135826356Y-99403778D01*
X134700992Y-99403778D02*
X135263777Y-99403778D01*
X134138370Y-99403778D02*
X134700992Y-99403778D01*
X133575872Y-99403778D02*
X134138370Y-99403778D01*
X133013324Y-99403778D02*
X133575872Y-99403778D01*
X132450864Y-99403778D02*
X133013324Y-99403778D01*
X131888430Y-99403778D02*
X132450864Y-99403778D01*
X131325785Y-99403778D02*
X131888430Y-99403778D01*
X130763377Y-99403778D02*
X131325785Y-99403778D01*
X130201005Y-99403778D02*
X130763377Y-99403778D01*
X130067170Y-98903791D02*
X130201005Y-99403778D01*
X129701076Y-98537702D02*
X130067170Y-98903791D01*
X129201100Y-98403873D02*
X129701076Y-98537702D01*
X129201100Y-97858491D02*
X129201100Y-98403873D01*
X129201100Y-97312958D02*
X129201100Y-97858491D01*
X129201100Y-96767085D02*
X129201100Y-97312958D01*
X129201100Y-96221465D02*
X129201100Y-96767085D01*
X129201100Y-95676151D02*
X129201100Y-96221465D01*
X129201100Y-95130482D02*
X129201100Y-95676151D01*
X129201100Y-94585215D02*
X129201100Y-95130482D01*
X129201100Y-94039952D02*
X129201100Y-94585215D01*
X129201100Y-93494540D02*
X129201100Y-94039952D01*
X129201100Y-92949246D02*
X129201100Y-93494540D01*
X129201100Y-92403898D02*
X129201100Y-92949246D01*
X129201100Y-91858638D02*
X129201100Y-92403898D01*
X129201100Y-91313103D02*
X129201100Y-91858638D01*
X129201100Y-90767709D02*
X129201100Y-91313103D01*
X129201100Y-90222337D02*
X129201100Y-90767709D01*
X129201100Y-89676840D02*
X129201100Y-90222337D01*
X129201100Y-89131436D02*
X129201100Y-89676840D01*
X129201100Y-88585843D02*
X129201100Y-89131436D01*
X129201100Y-88040325D02*
X129201100Y-88585843D01*
X129201100Y-87494893D02*
X129201100Y-88040325D01*
X129201100Y-86949233D02*
X129201100Y-87494893D01*
X129201100Y-86403917D02*
X129201100Y-86949233D01*
X129701256Y-86270000D02*
X129201100Y-86403917D01*
X130067363Y-85903677D02*
X129701256Y-86270000D01*
X130201005Y-85403461D02*
X130067363Y-85903677D01*
M02*
