M48
INCH,TZ
T1C0.016
T2C0.020
T3C0.039
T4C0.039
T5C0.040
T6C0.071
T7C0.079
T8C0.091
%
G90
G05
T1
X53659Y-43389
X53661Y-36299
X55233Y-41539
X55233Y-42120
X55236Y-34449
X55236Y-35030
X55417Y-43795
X55420Y-36705
X55433Y-42856
X55435Y-35765
X55511Y-42435
X55514Y-35344
X55568Y-45063
X55571Y-37972
X55758Y-41202
X55761Y-34112
X55942Y-44374
X55945Y-37283
X56296Y-41539
X56299Y-34449
X56356Y-45068
X56358Y-37978
X56964Y-42077
X56967Y-34987
X58197Y-42383
X58200Y-35293
X58609Y-43488
X58612Y-36398
X58625Y-43820
X58628Y-36730
X58670Y-42696
X58673Y-35605
X58696Y-43074
X58699Y-35984
X59063Y-44092
X59066Y-37002
X59170Y-44871
X59173Y-37781
X60448Y-42386
X60450Y-35296
X61216Y-42689
X61219Y-35599
X61279Y-45508
X61282Y-38418
T2
X58346Y-39035
X58346Y-40807
X58740Y-39035
X58740Y-40807
X59134Y-39035
X59134Y-40807
X59528Y-39035
X59528Y-40807
X59921Y-39035
X59921Y-40807
X60315Y-39035
X60315Y-40807
X60709Y-39035
X60709Y-40807
X61102Y-39035
X61102Y-40807
X61496Y-39035
X61496Y-40807
X61890Y-39035
X61890Y-40807
X62283Y-39035
X62283Y-40807
T3
X53068Y-42051
X53068Y-43051
X53068Y-43851
X53068Y-44851
X53071Y-34961
X53071Y-35961
X53071Y-36761
X53071Y-37761
T4
X58170Y-41618
X58173Y-34528
X59170Y-41618
X59173Y-34528
T5
X61911Y-44177
X61913Y-37087
X61926Y-42799
X61929Y-35709
X62911Y-44177
X62913Y-37087
X62926Y-42799
X62929Y-35709
T6
X54446Y-41342
X54446Y-45594
X54449Y-34252
X54449Y-38504
T7
X64328Y-42956
X64328Y-43206
X64328Y-43456
X64328Y-43706
X64328Y-43956
X64331Y-35866
X64331Y-36116
X64331Y-36366
X64331Y-36616
X64331Y-36866
T8
X52018Y-40851
X52018Y-46051
X52021Y-33761
X52021Y-38961
T0
M30
