G04 #@! TF.FileFunction,Legend,Bot*
%FSLAX46Y46*%
G04 Gerber Fmt 4.6, Leading zero omitted, Abs format (unit mm)*
G04 Created by KiCad (PCBNEW 0.201604121231+6687~43~ubuntu15.10.1-product) date Mi 13 Apr 2016 13:49:14 CEST*
%MOMM*%
G01*
G04 APERTURE LIST*
%ADD10C,0.100000*%
%ADD11C,0.300000*%
G04 APERTURE END LIST*
D10*
D11*
X140275000Y-113730714D02*
X140275000Y-113016428D01*
X139846428Y-113873571D02*
X141346428Y-113373571D01*
X139846428Y-112873571D01*
X141346428Y-112373571D02*
X140132142Y-112373571D01*
X139989285Y-112302142D01*
X139917857Y-112230714D01*
X139846428Y-112087857D01*
X139846428Y-111802142D01*
X139917857Y-111659285D01*
X139989285Y-111587857D01*
X140132142Y-111516428D01*
X141346428Y-111516428D01*
X139846428Y-110802142D02*
X141346428Y-110802142D01*
X141346428Y-110445000D01*
X141275000Y-110230714D01*
X141132142Y-110087857D01*
X140989285Y-110016428D01*
X140703571Y-109945000D01*
X140489285Y-109945000D01*
X140203571Y-110016428D01*
X140060714Y-110087857D01*
X139917857Y-110230714D01*
X139846428Y-110445000D01*
X139846428Y-110802142D01*
X139846428Y-109302142D02*
X141346428Y-109302142D01*
X141346428Y-108302142D02*
X141346428Y-108016428D01*
X141275000Y-107873571D01*
X141132142Y-107730714D01*
X140846428Y-107659285D01*
X140346428Y-107659285D01*
X140060714Y-107730714D01*
X139917857Y-107873571D01*
X139846428Y-108016428D01*
X139846428Y-108302142D01*
X139917857Y-108445000D01*
X140060714Y-108587857D01*
X140346428Y-108659285D01*
X140846428Y-108659285D01*
X141132142Y-108587857D01*
X141275000Y-108445000D01*
X141346428Y-108302142D01*
X137296428Y-112266428D02*
X138796428Y-112266428D01*
X138867857Y-110480714D02*
X136939285Y-111766428D01*
X138796428Y-109695000D02*
X138796428Y-109409285D01*
X138725000Y-109266428D01*
X138582142Y-109123571D01*
X138296428Y-109052142D01*
X137796428Y-109052142D01*
X137510714Y-109123571D01*
X137367857Y-109266428D01*
X137296428Y-109409285D01*
X137296428Y-109695000D01*
X137367857Y-109837857D01*
X137510714Y-109980714D01*
X137796428Y-110052142D01*
X138296428Y-110052142D01*
X138582142Y-109980714D01*
X138725000Y-109837857D01*
X138796428Y-109695000D01*
X140275000Y-95680714D02*
X140275000Y-94966428D01*
X139846428Y-95823571D02*
X141346428Y-95323571D01*
X139846428Y-94823571D01*
X141346428Y-94323571D02*
X140132142Y-94323571D01*
X139989285Y-94252142D01*
X139917857Y-94180714D01*
X139846428Y-94037857D01*
X139846428Y-93752142D01*
X139917857Y-93609285D01*
X139989285Y-93537857D01*
X140132142Y-93466428D01*
X141346428Y-93466428D01*
X139846428Y-92752142D02*
X141346428Y-92752142D01*
X141346428Y-92395000D01*
X141275000Y-92180714D01*
X141132142Y-92037857D01*
X140989285Y-91966428D01*
X140703571Y-91895000D01*
X140489285Y-91895000D01*
X140203571Y-91966428D01*
X140060714Y-92037857D01*
X139917857Y-92180714D01*
X139846428Y-92395000D01*
X139846428Y-92752142D01*
X139846428Y-91252142D02*
X141346428Y-91252142D01*
X141346428Y-90252142D02*
X141346428Y-89966428D01*
X141275000Y-89823571D01*
X141132142Y-89680714D01*
X140846428Y-89609285D01*
X140346428Y-89609285D01*
X140060714Y-89680714D01*
X139917857Y-89823571D01*
X139846428Y-89966428D01*
X139846428Y-90252142D01*
X139917857Y-90395000D01*
X140060714Y-90537857D01*
X140346428Y-90609285D01*
X140846428Y-90609285D01*
X141132142Y-90537857D01*
X141275000Y-90395000D01*
X141346428Y-90252142D01*
X137296428Y-94216428D02*
X138796428Y-94216428D01*
X138867857Y-92430714D02*
X136939285Y-93716428D01*
X138796428Y-91645000D02*
X138796428Y-91359285D01*
X138725000Y-91216428D01*
X138582142Y-91073571D01*
X138296428Y-91002142D01*
X137796428Y-91002142D01*
X137510714Y-91073571D01*
X137367857Y-91216428D01*
X137296428Y-91359285D01*
X137296428Y-91645000D01*
X137367857Y-91787857D01*
X137510714Y-91930714D01*
X137796428Y-92002142D01*
X138296428Y-92002142D01*
X138582142Y-91930714D01*
X138725000Y-91787857D01*
X138796428Y-91645000D01*
X161016428Y-115678571D02*
X161016428Y-114178571D01*
X160159285Y-115678571D02*
X160802142Y-114821428D01*
X160159285Y-114178571D02*
X161016428Y-115035714D01*
X158873571Y-115678571D02*
X158873571Y-114892857D01*
X158945000Y-114750000D01*
X159087857Y-114678571D01*
X159373571Y-114678571D01*
X159516428Y-114750000D01*
X158873571Y-115607142D02*
X159016428Y-115678571D01*
X159373571Y-115678571D01*
X159516428Y-115607142D01*
X159587857Y-115464285D01*
X159587857Y-115321428D01*
X159516428Y-115178571D01*
X159373571Y-115107142D01*
X159016428Y-115107142D01*
X158873571Y-115035714D01*
X158159285Y-115678571D02*
X158159285Y-114678571D01*
X158159285Y-114178571D02*
X158230714Y-114250000D01*
X158159285Y-114321428D01*
X158087857Y-114250000D01*
X158159285Y-114178571D01*
X158159285Y-114321428D01*
X156945000Y-114892857D02*
X156730714Y-114964285D01*
X156659285Y-115035714D01*
X156587857Y-115178571D01*
X156587857Y-115392857D01*
X156659285Y-115535714D01*
X156730714Y-115607142D01*
X156873571Y-115678571D01*
X157445000Y-115678571D01*
X157445000Y-114178571D01*
X156945000Y-114178571D01*
X156802142Y-114250000D01*
X156730714Y-114321428D01*
X156659285Y-114464285D01*
X156659285Y-114607142D01*
X156730714Y-114750000D01*
X156802142Y-114821428D01*
X156945000Y-114892857D01*
X157445000Y-114892857D01*
X155302142Y-115678571D02*
X155302142Y-114892857D01*
X155373571Y-114750000D01*
X155516428Y-114678571D01*
X155802142Y-114678571D01*
X155945000Y-114750000D01*
X155302142Y-115607142D02*
X155445000Y-115678571D01*
X155802142Y-115678571D01*
X155945000Y-115607142D01*
X156016428Y-115464285D01*
X156016428Y-115321428D01*
X155945000Y-115178571D01*
X155802142Y-115107142D01*
X155445000Y-115107142D01*
X155302142Y-115035714D01*
X153945000Y-115678571D02*
X153945000Y-114178571D01*
X153945000Y-115607142D02*
X154087857Y-115678571D01*
X154373571Y-115678571D01*
X154516428Y-115607142D01*
X154587857Y-115535714D01*
X154659285Y-115392857D01*
X154659285Y-114964285D01*
X154587857Y-114821428D01*
X154516428Y-114750000D01*
X154373571Y-114678571D01*
X154087857Y-114678571D01*
X153945000Y-114750000D01*
X152659285Y-115607142D02*
X152802142Y-115678571D01*
X153087857Y-115678571D01*
X153230714Y-115607142D01*
X153302142Y-115464285D01*
X153302142Y-114892857D01*
X153230714Y-114750000D01*
X153087857Y-114678571D01*
X152802142Y-114678571D01*
X152659285Y-114750000D01*
X152587857Y-114892857D01*
X152587857Y-115035714D01*
X153302142Y-115178571D01*
X151945000Y-115678571D02*
X151945000Y-114678571D01*
X151945000Y-114964285D02*
X151873571Y-114821428D01*
X151802142Y-114750000D01*
X151659285Y-114678571D01*
X151516428Y-114678571D01*
X151016428Y-115535714D02*
X150945000Y-115607142D01*
X151016428Y-115678571D01*
X151087857Y-115607142D01*
X151016428Y-115535714D01*
X151016428Y-115678571D01*
X149659285Y-115678571D02*
X149659285Y-114178571D01*
X149659285Y-115607142D02*
X149802142Y-115678571D01*
X150087857Y-115678571D01*
X150230714Y-115607142D01*
X150302142Y-115535714D01*
X150373571Y-115392857D01*
X150373571Y-114964285D01*
X150302142Y-114821428D01*
X150230714Y-114750000D01*
X150087857Y-114678571D01*
X149802142Y-114678571D01*
X149659285Y-114750000D01*
X148373571Y-115607142D02*
X148516428Y-115678571D01*
X148802142Y-115678571D01*
X148945000Y-115607142D01*
X149016428Y-115464285D01*
X149016428Y-114892857D01*
X148945000Y-114750000D01*
X148802142Y-114678571D01*
X148516428Y-114678571D01*
X148373571Y-114750000D01*
X148302142Y-114892857D01*
X148302142Y-115035714D01*
X149016428Y-115178571D01*
X161016428Y-97678571D02*
X161016428Y-96178571D01*
X160159285Y-97678571D02*
X160802142Y-96821428D01*
X160159285Y-96178571D02*
X161016428Y-97035714D01*
X158873571Y-97678571D02*
X158873571Y-96892857D01*
X158945000Y-96750000D01*
X159087857Y-96678571D01*
X159373571Y-96678571D01*
X159516428Y-96750000D01*
X158873571Y-97607142D02*
X159016428Y-97678571D01*
X159373571Y-97678571D01*
X159516428Y-97607142D01*
X159587857Y-97464285D01*
X159587857Y-97321428D01*
X159516428Y-97178571D01*
X159373571Y-97107142D01*
X159016428Y-97107142D01*
X158873571Y-97035714D01*
X158159285Y-97678571D02*
X158159285Y-96678571D01*
X158159285Y-96178571D02*
X158230714Y-96250000D01*
X158159285Y-96321428D01*
X158087857Y-96250000D01*
X158159285Y-96178571D01*
X158159285Y-96321428D01*
X156945000Y-96892857D02*
X156730714Y-96964285D01*
X156659285Y-97035714D01*
X156587857Y-97178571D01*
X156587857Y-97392857D01*
X156659285Y-97535714D01*
X156730714Y-97607142D01*
X156873571Y-97678571D01*
X157445000Y-97678571D01*
X157445000Y-96178571D01*
X156945000Y-96178571D01*
X156802142Y-96250000D01*
X156730714Y-96321428D01*
X156659285Y-96464285D01*
X156659285Y-96607142D01*
X156730714Y-96750000D01*
X156802142Y-96821428D01*
X156945000Y-96892857D01*
X157445000Y-96892857D01*
X155302142Y-97678571D02*
X155302142Y-96892857D01*
X155373571Y-96750000D01*
X155516428Y-96678571D01*
X155802142Y-96678571D01*
X155945000Y-96750000D01*
X155302142Y-97607142D02*
X155445000Y-97678571D01*
X155802142Y-97678571D01*
X155945000Y-97607142D01*
X156016428Y-97464285D01*
X156016428Y-97321428D01*
X155945000Y-97178571D01*
X155802142Y-97107142D01*
X155445000Y-97107142D01*
X155302142Y-97035714D01*
X153945000Y-97678571D02*
X153945000Y-96178571D01*
X153945000Y-97607142D02*
X154087857Y-97678571D01*
X154373571Y-97678571D01*
X154516428Y-97607142D01*
X154587857Y-97535714D01*
X154659285Y-97392857D01*
X154659285Y-96964285D01*
X154587857Y-96821428D01*
X154516428Y-96750000D01*
X154373571Y-96678571D01*
X154087857Y-96678571D01*
X153945000Y-96750000D01*
X152659285Y-97607142D02*
X152802142Y-97678571D01*
X153087857Y-97678571D01*
X153230714Y-97607142D01*
X153302142Y-97464285D01*
X153302142Y-96892857D01*
X153230714Y-96750000D01*
X153087857Y-96678571D01*
X152802142Y-96678571D01*
X152659285Y-96750000D01*
X152587857Y-96892857D01*
X152587857Y-97035714D01*
X153302142Y-97178571D01*
X151945000Y-97678571D02*
X151945000Y-96678571D01*
X151945000Y-96964285D02*
X151873571Y-96821428D01*
X151802142Y-96750000D01*
X151659285Y-96678571D01*
X151516428Y-96678571D01*
X151016428Y-97535714D02*
X150945000Y-97607142D01*
X151016428Y-97678571D01*
X151087857Y-97607142D01*
X151016428Y-97535714D01*
X151016428Y-97678571D01*
X149659285Y-97678571D02*
X149659285Y-96178571D01*
X149659285Y-97607142D02*
X149802142Y-97678571D01*
X150087857Y-97678571D01*
X150230714Y-97607142D01*
X150302142Y-97535714D01*
X150373571Y-97392857D01*
X150373571Y-96964285D01*
X150302142Y-96821428D01*
X150230714Y-96750000D01*
X150087857Y-96678571D01*
X149802142Y-96678571D01*
X149659285Y-96750000D01*
X148373571Y-97607142D02*
X148516428Y-97678571D01*
X148802142Y-97678571D01*
X148945000Y-97607142D01*
X149016428Y-97464285D01*
X149016428Y-96892857D01*
X148945000Y-96750000D01*
X148802142Y-96678571D01*
X148516428Y-96678571D01*
X148373571Y-96750000D01*
X148302142Y-96892857D01*
X148302142Y-97035714D01*
X149016428Y-97178571D01*
M02*
