G04 #@! TF.FileFunction,Copper,L2,Bot,Signal*
%FSLAX46Y46*%
G04 Gerber Fmt 4.6, Leading zero omitted, Abs format (unit mm)*
G04 Created by KiCad (PCBNEW 0.201604121231+6687~43~ubuntu15.10.1-product) date Mi 13 Apr 2016 13:49:14 CEST*
%MOMM*%
G01*
G04 APERTURE LIST*
%ADD10C,0.100000*%
%ADD11C,2.000000*%
%ADD12C,1.800000*%
%ADD13C,1.500000*%
%ADD14C,3.000000*%
%ADD15R,2.032000X2.032000*%
%ADD16O,2.032000X2.032000*%
%ADD17R,1.727200X1.727200*%
%ADD18O,1.727200X1.727200*%
%ADD19R,2.000000X2.000000*%
%ADD20C,0.500000*%
%ADD21C,0.600000*%
%ADD22C,0.450000*%
%ADD23C,0.250000*%
%ADD24C,0.254000*%
G04 APERTURE END LIST*
D10*
D11*
X163392800Y-109108800D03*
X163392800Y-111648800D03*
X163392800Y-109743800D03*
X163392800Y-111013800D03*
X163392800Y-110378800D03*
D12*
X138292800Y-105008800D03*
X138292800Y-115808800D03*
D13*
X134792800Y-113920800D03*
X134792800Y-111380800D03*
X134792800Y-109348800D03*
X134792800Y-106808800D03*
D14*
X132125800Y-116968800D03*
X132125800Y-103760800D03*
D15*
X157252800Y-112208800D03*
D16*
X159792800Y-112208800D03*
D15*
X157292800Y-108708800D03*
D16*
X159832800Y-108708800D03*
D17*
X143652800Y-113108800D03*
D18*
X146192800Y-113108800D03*
X143652800Y-110568800D03*
X146192800Y-110568800D03*
X143652800Y-108028800D03*
X146192800Y-108028800D03*
D19*
X150292800Y-105708800D03*
D11*
X147752800Y-105708800D03*
D19*
X150300000Y-87700000D03*
D11*
X147760000Y-87700000D03*
D17*
X143660000Y-95100000D03*
D18*
X146200000Y-95100000D03*
X143660000Y-92560000D03*
X146200000Y-92560000D03*
X143660000Y-90020000D03*
X146200000Y-90020000D03*
D15*
X157300000Y-90700000D03*
D16*
X159840000Y-90700000D03*
D15*
X157260000Y-94200000D03*
D16*
X159800000Y-94200000D03*
D13*
X134800000Y-95912000D03*
X134800000Y-93372000D03*
X134800000Y-91340000D03*
X134800000Y-88800000D03*
D14*
X132133000Y-98960000D03*
X132133000Y-85752000D03*
D20*
X148200000Y-99150000D03*
X149200000Y-99150000D03*
X150200000Y-99150000D03*
X151200000Y-99150000D03*
X152200000Y-99150000D03*
X153200000Y-99150000D03*
X154200000Y-99150000D03*
X155200000Y-99150000D03*
X156200000Y-99150000D03*
X157200000Y-99150000D03*
X158200000Y-99150000D03*
X158200000Y-103650000D03*
X157200000Y-103650000D03*
X156200000Y-103650000D03*
X155200000Y-103650000D03*
X154200000Y-103650000D03*
X153200000Y-103650000D03*
X152200000Y-103650000D03*
X151200000Y-103650000D03*
X150200000Y-103650000D03*
X149200000Y-103650000D03*
X148200000Y-103650000D03*
D12*
X138300000Y-87000000D03*
X138300000Y-97800000D03*
D11*
X163400000Y-91100000D03*
X163400000Y-93640000D03*
X163400000Y-91735000D03*
X163400000Y-93005000D03*
X163400000Y-92370000D03*
D21*
X150021214Y-111993473D03*
X143143330Y-114472402D03*
X140760124Y-111238407D03*
X140767324Y-93229607D03*
X143150530Y-96463602D03*
X150028414Y-93984673D03*
X141142800Y-114458800D03*
X155488100Y-108429500D03*
X155647900Y-115589300D03*
X136292800Y-110208800D03*
X142992800Y-105508800D03*
X140292800Y-105508800D03*
X142092800Y-112708800D03*
X140292800Y-106983810D03*
X140300000Y-88975010D03*
X142100000Y-94700000D03*
X140300000Y-87500000D03*
X143000000Y-87500000D03*
X141150000Y-96450000D03*
X136300000Y-92200000D03*
X155655100Y-97580500D03*
X155495300Y-90420700D03*
X148908218Y-111302969D03*
X148915418Y-93294169D03*
X148866943Y-110460345D03*
X148874143Y-92451545D03*
X149088400Y-109407500D03*
X149095600Y-91398700D03*
X149021600Y-108446600D03*
X150292800Y-113971300D03*
X150300000Y-95962500D03*
X149028800Y-90437800D03*
X147821600Y-107652700D03*
X153536700Y-107660800D03*
X153543900Y-89652000D03*
X147828800Y-89643900D03*
X140798700Y-108853100D03*
X144689000Y-106876000D03*
X144696200Y-88867200D03*
X140805900Y-90844300D03*
X141625000Y-104653100D03*
X140998400Y-107783820D03*
X141005600Y-89775020D03*
X141632200Y-86644300D03*
D22*
X140149700Y-111995700D02*
X142577500Y-114423500D01*
X140149700Y-111995700D02*
X134962800Y-106808800D01*
X134962800Y-106808800D02*
X134792800Y-106808800D01*
X143094428Y-114423500D02*
X143143330Y-114472402D01*
X142577500Y-114423500D02*
X143094428Y-114423500D01*
X140460125Y-111538406D02*
X140760124Y-111238407D01*
X140149700Y-111995700D02*
X140149700Y-111848831D01*
X140149700Y-111848831D02*
X140460125Y-111538406D01*
X148905887Y-113108800D02*
X150021214Y-111993473D01*
X146192800Y-113108800D02*
X148905887Y-113108800D01*
X144829198Y-114472402D02*
X143143330Y-114472402D01*
X146192800Y-113108800D02*
X144829198Y-114472402D01*
X146200000Y-95100000D02*
X144836398Y-96463602D01*
X144836398Y-96463602D02*
X143150530Y-96463602D01*
X146200000Y-95100000D02*
X148913087Y-95100000D01*
X148913087Y-95100000D02*
X150028414Y-93984673D01*
X140156900Y-93840031D02*
X140467325Y-93529606D01*
X140156900Y-93986900D02*
X140156900Y-93840031D01*
X140467325Y-93529606D02*
X140767324Y-93229607D01*
X142584700Y-96414700D02*
X143101628Y-96414700D01*
X143101628Y-96414700D02*
X143150530Y-96463602D01*
X134970000Y-88800000D02*
X134800000Y-88800000D01*
X140156900Y-93986900D02*
X134970000Y-88800000D01*
X140156900Y-93986900D02*
X142584700Y-96414700D01*
X130625801Y-115468801D02*
X132125800Y-116968800D01*
X130625801Y-105260799D02*
X130625801Y-115468801D01*
X132125800Y-103760800D02*
X130625801Y-105260799D01*
X136292800Y-112420800D02*
X134792800Y-113920800D01*
X136292800Y-110208800D02*
X136292800Y-112420800D01*
X146192800Y-106807486D02*
X144844114Y-105458800D01*
X146192800Y-108028800D02*
X146192800Y-106807486D01*
X143042800Y-105458800D02*
X142992800Y-105508800D01*
X144844114Y-105458800D02*
X143042800Y-105458800D01*
X142092800Y-111545763D02*
X139242800Y-108695763D01*
X142092800Y-112708800D02*
X142092800Y-111545763D01*
X139242800Y-108695763D02*
X139242800Y-107258800D01*
X140292800Y-105508800D02*
X140292800Y-106983810D01*
X140300000Y-87500000D02*
X140300000Y-88975010D01*
X139250000Y-90686963D02*
X139250000Y-89250000D01*
X142100000Y-94700000D02*
X142100000Y-93536963D01*
X142100000Y-93536963D02*
X139250000Y-90686963D01*
X144851314Y-87450000D02*
X143050000Y-87450000D01*
X143050000Y-87450000D02*
X143000000Y-87500000D01*
X146200000Y-90020000D02*
X146200000Y-88798686D01*
X146200000Y-88798686D02*
X144851314Y-87450000D01*
X132133000Y-85752000D02*
X130633001Y-87251999D01*
X130633001Y-87251999D02*
X130633001Y-97460001D01*
X130633001Y-97460001D02*
X132133000Y-98960000D01*
X136300000Y-92200000D02*
X136300000Y-94412000D01*
X136300000Y-94412000D02*
X134800000Y-95912000D01*
D23*
X148029522Y-111757401D02*
X144841401Y-111757401D01*
X144841401Y-111757401D02*
X144516399Y-111432399D01*
X148483954Y-111302969D02*
X148029522Y-111757401D01*
X144516399Y-111432399D02*
X143652800Y-110568800D01*
X148908218Y-111302969D02*
X148483954Y-111302969D01*
X148915418Y-93294169D02*
X148491154Y-93294169D01*
X144523599Y-93423599D02*
X143660000Y-92560000D01*
X148491154Y-93294169D02*
X148036722Y-93748601D01*
X144848601Y-93748601D02*
X144523599Y-93423599D01*
X148036722Y-93748601D02*
X144848601Y-93748601D01*
X146301255Y-110460345D02*
X146192800Y-110568800D01*
X148866943Y-110460345D02*
X146301255Y-110460345D01*
X148874143Y-92451545D02*
X146308455Y-92451545D01*
X146308455Y-92451545D02*
X146200000Y-92560000D01*
X148664136Y-109407500D02*
X149088400Y-109407500D01*
X148636835Y-109380199D02*
X148664136Y-109407500D01*
X143082271Y-109380199D02*
X148636835Y-109380199D01*
X142464199Y-109998271D02*
X143082271Y-109380199D01*
X142464199Y-111139329D02*
X142464199Y-109998271D01*
X143652800Y-112327930D02*
X142464199Y-111139329D01*
X143652800Y-113108800D02*
X143652800Y-112327930D01*
X143660000Y-95100000D02*
X143660000Y-94319130D01*
X143660000Y-94319130D02*
X142471399Y-93130529D01*
X142471399Y-93130529D02*
X142471399Y-91989471D01*
X142471399Y-91989471D02*
X143089471Y-91371399D01*
X143089471Y-91371399D02*
X148644035Y-91371399D01*
X148644035Y-91371399D02*
X148671336Y-91398700D01*
X148671336Y-91398700D02*
X149095600Y-91398700D01*
X150292800Y-113971300D02*
X150646215Y-113617885D01*
X150646215Y-113617885D02*
X150646215Y-110071215D01*
X150646215Y-110071215D02*
X149321599Y-108746599D01*
X149321599Y-108746599D02*
X149021600Y-108446600D01*
X149328799Y-90737799D02*
X149028800Y-90437800D01*
X150653415Y-92062415D02*
X149328799Y-90737799D01*
X150653415Y-95609085D02*
X150653415Y-92062415D01*
X150300000Y-95962500D02*
X150653415Y-95609085D01*
X147829700Y-107660800D02*
X147821600Y-107652700D01*
X153536700Y-107660800D02*
X147829700Y-107660800D01*
X153543900Y-89652000D02*
X147836900Y-89652000D01*
X147836900Y-89652000D02*
X147828800Y-89643900D01*
X143652800Y-108028800D02*
X143652800Y-107434300D01*
X144652900Y-106839900D02*
X144689000Y-106876000D01*
X143652800Y-107912200D02*
X144689000Y-106876000D01*
X143652800Y-108028800D02*
X143652800Y-107912200D01*
X143272779Y-108408821D02*
X143652800Y-108028800D01*
X140798700Y-108853100D02*
X142828500Y-108853100D01*
X142828500Y-108853100D02*
X143272779Y-108408821D01*
X142835700Y-90844300D02*
X143279979Y-90400021D01*
X140805900Y-90844300D02*
X142835700Y-90844300D01*
X143279979Y-90400021D02*
X143660000Y-90020000D01*
X143660000Y-90020000D02*
X143660000Y-89903400D01*
X143660000Y-89903400D02*
X144696200Y-88867200D01*
X144660100Y-88831100D02*
X144696200Y-88867200D01*
X143660000Y-90020000D02*
X143660000Y-89425500D01*
X141625000Y-104653100D02*
X141625000Y-107157220D01*
X141298399Y-107483821D02*
X140998400Y-107783820D01*
X141625000Y-107157220D02*
X141298399Y-107483821D01*
X141632200Y-89148420D02*
X141305599Y-89475021D01*
X141305599Y-89475021D02*
X141005600Y-89775020D01*
X141632200Y-86644300D02*
X141632200Y-89148420D01*
D24*
G36*
X130798635Y-87265970D02*
X130958418Y-87584739D01*
X131749187Y-87894723D01*
X132598387Y-87878497D01*
X133307582Y-87584739D01*
X133467365Y-87265970D01*
X132289856Y-86088461D01*
X132649066Y-86088461D01*
X133646970Y-87086365D01*
X133965739Y-86926582D01*
X134275723Y-86135813D01*
X134274818Y-86088461D01*
X137040417Y-86088461D01*
X136999449Y-86129357D01*
X136765267Y-86693330D01*
X136764735Y-87303991D01*
X136997932Y-87868371D01*
X137429357Y-88300551D01*
X137993330Y-88534733D01*
X138603991Y-88535265D01*
X139168371Y-88302068D01*
X139600551Y-87870643D01*
X139834733Y-87306670D01*
X139835265Y-86696009D01*
X139602068Y-86131629D01*
X139558975Y-86088461D01*
X140865565Y-86088461D01*
X140840008Y-86113973D01*
X140697362Y-86457501D01*
X140697038Y-86829467D01*
X140839083Y-87173243D01*
X140872200Y-87206418D01*
X140872200Y-88833618D01*
X140865920Y-88839898D01*
X140820433Y-88839858D01*
X140476657Y-88981903D01*
X140213408Y-89244693D01*
X140070762Y-89588221D01*
X140070438Y-89960187D01*
X140157365Y-90170567D01*
X140013708Y-90313973D01*
X139871062Y-90657501D01*
X139870738Y-91029467D01*
X140012783Y-91373243D01*
X140275573Y-91636492D01*
X140619101Y-91779138D01*
X140991067Y-91779462D01*
X141334843Y-91637417D01*
X141368018Y-91604300D01*
X141832281Y-91604300D01*
X141769251Y-91698632D01*
X141711399Y-91989471D01*
X141711399Y-93130529D01*
X141769251Y-93421368D01*
X141933998Y-93667930D01*
X142220858Y-93954790D01*
X142198243Y-93988635D01*
X142148960Y-94236400D01*
X142148960Y-94762736D01*
X141352657Y-93966433D01*
X141559516Y-93759934D01*
X141702162Y-93416406D01*
X141702486Y-93044440D01*
X141560441Y-92700664D01*
X141297651Y-92437415D01*
X140954123Y-92294769D01*
X140582157Y-92294445D01*
X140238381Y-92436490D01*
X140030366Y-92644142D01*
X136185002Y-88798778D01*
X136185240Y-88525715D01*
X135974831Y-88016485D01*
X135585564Y-87626539D01*
X135076702Y-87415241D01*
X134525715Y-87414760D01*
X134016485Y-87625169D01*
X133626539Y-88014436D01*
X133415241Y-88523298D01*
X133414760Y-89074285D01*
X133625169Y-89583515D01*
X134014436Y-89973461D01*
X134246870Y-90069976D01*
X134016485Y-90165169D01*
X133626539Y-90554436D01*
X133415241Y-91063298D01*
X133414760Y-91614285D01*
X133625169Y-92123515D01*
X133857313Y-92356064D01*
X133626539Y-92586436D01*
X133415241Y-93095298D01*
X133414760Y-93646285D01*
X133625169Y-94155515D01*
X134014436Y-94545461D01*
X134230979Y-94635377D01*
X134076077Y-94699540D01*
X134008088Y-94940483D01*
X134800000Y-95732395D01*
X135591912Y-94940483D01*
X135523923Y-94699540D01*
X135357379Y-94640268D01*
X135583515Y-94546831D01*
X135973461Y-94157564D01*
X136184759Y-93648702D01*
X136185240Y-93097715D01*
X135974831Y-92588485D01*
X135742687Y-92355936D01*
X135973461Y-92125564D01*
X136184759Y-91616702D01*
X136185095Y-91231319D01*
X141976588Y-97022812D01*
X142255593Y-97209237D01*
X142584700Y-97274700D01*
X142665733Y-97274700D01*
X142963731Y-97398440D01*
X143335697Y-97398764D01*
X143517603Y-97323602D01*
X144836398Y-97323602D01*
X145165506Y-97258138D01*
X145444510Y-97071714D01*
X145959602Y-96556622D01*
X146170641Y-96598600D01*
X146229359Y-96598600D01*
X146802848Y-96484526D01*
X147289029Y-96159670D01*
X147422444Y-95960000D01*
X148913087Y-95960000D01*
X149242195Y-95894536D01*
X149365130Y-95812394D01*
X149364838Y-96147667D01*
X149506883Y-96491443D01*
X149769673Y-96754692D01*
X150113201Y-96897338D01*
X150485167Y-96897662D01*
X150828943Y-96755617D01*
X151092192Y-96492827D01*
X151234838Y-96149299D01*
X151234898Y-96080513D01*
X151355563Y-95899925D01*
X151413415Y-95609085D01*
X151413415Y-93184000D01*
X155596560Y-93184000D01*
X155596560Y-95216000D01*
X155645843Y-95463765D01*
X155786191Y-95673809D01*
X155996235Y-95814157D01*
X156244000Y-95863440D01*
X158276000Y-95863440D01*
X158523765Y-95814157D01*
X158733809Y-95673809D01*
X158838662Y-95516887D01*
X158935182Y-95606385D01*
X159417056Y-95805975D01*
X159673000Y-95686836D01*
X159673000Y-94327000D01*
X159927000Y-94327000D01*
X159927000Y-95686836D01*
X160182944Y-95805975D01*
X160664818Y-95606385D01*
X161137188Y-95168379D01*
X161405983Y-94582946D01*
X161287367Y-94327000D01*
X159927000Y-94327000D01*
X159673000Y-94327000D01*
X159653000Y-94327000D01*
X159653000Y-94073000D01*
X159673000Y-94073000D01*
X159673000Y-92713164D01*
X159927000Y-92713164D01*
X159927000Y-94073000D01*
X161287367Y-94073000D01*
X161405983Y-93817054D01*
X161137188Y-93231621D01*
X160664818Y-92793615D01*
X160182944Y-92594025D01*
X159927000Y-92713164D01*
X159673000Y-92713164D01*
X159417056Y-92594025D01*
X158935182Y-92793615D01*
X158838662Y-92883113D01*
X158733809Y-92726191D01*
X158523765Y-92585843D01*
X158276000Y-92536560D01*
X156244000Y-92536560D01*
X155996235Y-92585843D01*
X155786191Y-92726191D01*
X155645843Y-92936235D01*
X155596560Y-93184000D01*
X151413415Y-93184000D01*
X151413415Y-92062415D01*
X151355563Y-91771576D01*
X151190816Y-91525014D01*
X150077802Y-90412000D01*
X152981437Y-90412000D01*
X153013573Y-90444192D01*
X153357101Y-90586838D01*
X153729067Y-90587162D01*
X154072843Y-90445117D01*
X154336092Y-90182327D01*
X154478738Y-89838799D01*
X154478872Y-89684000D01*
X155636560Y-89684000D01*
X155636560Y-91716000D01*
X155685843Y-91963765D01*
X155826191Y-92173809D01*
X156036235Y-92314157D01*
X156284000Y-92363440D01*
X158316000Y-92363440D01*
X158563765Y-92314157D01*
X158773809Y-92173809D01*
X158878662Y-92016887D01*
X158975182Y-92106385D01*
X159457056Y-92305975D01*
X159713000Y-92186836D01*
X159713000Y-90827000D01*
X159967000Y-90827000D01*
X159967000Y-92186836D01*
X160222944Y-92305975D01*
X160704818Y-92106385D01*
X161177188Y-91668379D01*
X161445983Y-91082946D01*
X161327367Y-90827000D01*
X159967000Y-90827000D01*
X159713000Y-90827000D01*
X159693000Y-90827000D01*
X159693000Y-90573000D01*
X159713000Y-90573000D01*
X159713000Y-89213164D01*
X159967000Y-89213164D01*
X159967000Y-90573000D01*
X161327367Y-90573000D01*
X161445983Y-90317054D01*
X161177188Y-89731621D01*
X160704818Y-89293615D01*
X160222944Y-89094025D01*
X159967000Y-89213164D01*
X159713000Y-89213164D01*
X159457056Y-89094025D01*
X158975182Y-89293615D01*
X158878662Y-89383113D01*
X158773809Y-89226191D01*
X158563765Y-89085843D01*
X158316000Y-89036560D01*
X156284000Y-89036560D01*
X156036235Y-89085843D01*
X155826191Y-89226191D01*
X155685843Y-89436235D01*
X155636560Y-89684000D01*
X154478872Y-89684000D01*
X154479062Y-89466833D01*
X154337017Y-89123057D01*
X154074227Y-88859808D01*
X153730699Y-88717162D01*
X153358733Y-88716838D01*
X153014957Y-88858883D01*
X152981782Y-88892000D01*
X151907790Y-88892000D01*
X151935000Y-88826309D01*
X151935000Y-87985750D01*
X151776250Y-87827000D01*
X150427000Y-87827000D01*
X150427000Y-87847000D01*
X150173000Y-87847000D01*
X150173000Y-87827000D01*
X150153000Y-87827000D01*
X150153000Y-87573000D01*
X150173000Y-87573000D01*
X150173000Y-87553000D01*
X150427000Y-87553000D01*
X150427000Y-87573000D01*
X151776250Y-87573000D01*
X151935000Y-87414250D01*
X151935000Y-86573691D01*
X151838327Y-86340302D01*
X151659699Y-86161673D01*
X151482950Y-86088461D01*
X160440935Y-86088461D01*
X160655457Y-86279173D01*
X160655459Y-86279176D01*
X161064530Y-86642844D01*
X161473562Y-87006479D01*
X161473565Y-87006482D01*
X161882738Y-87370240D01*
X162291597Y-87733720D01*
X162700503Y-88097242D01*
X163109513Y-88460856D01*
X163109515Y-88460859D01*
X163518508Y-88824459D01*
X163518511Y-88824461D01*
X163927549Y-89188100D01*
X164336608Y-89551758D01*
X164515969Y-89711212D01*
X164515969Y-89903658D01*
X164327363Y-89714722D01*
X163726648Y-89465284D01*
X163076205Y-89464716D01*
X162475057Y-89713106D01*
X162014722Y-90172637D01*
X161765284Y-90773352D01*
X161764716Y-91423795D01*
X161765269Y-91425134D01*
X161764716Y-92058795D01*
X161765269Y-92060134D01*
X161764716Y-92693795D01*
X161765269Y-92695134D01*
X161764716Y-93328795D01*
X161765269Y-93330134D01*
X161764716Y-93963795D01*
X162013106Y-94564943D01*
X162472637Y-95025278D01*
X163073352Y-95274716D01*
X163723795Y-95275284D01*
X164324943Y-95026894D01*
X164515969Y-94836202D01*
X164515969Y-95096027D01*
X164336662Y-95255432D01*
X164336659Y-95255434D01*
X163927590Y-95619102D01*
X163927587Y-95619104D01*
X163518554Y-95982740D01*
X163109380Y-96346500D01*
X163109378Y-96346503D01*
X162700522Y-96709980D01*
X162291616Y-97073502D01*
X161882605Y-97437117D01*
X161882602Y-97437119D01*
X161473609Y-97800719D01*
X161473607Y-97800722D01*
X161064570Y-98164360D01*
X160655514Y-98528015D01*
X160655511Y-98528017D01*
X160440935Y-98718778D01*
X158979394Y-98718778D01*
X158950704Y-98649343D01*
X158701967Y-98400171D01*
X158376810Y-98265154D01*
X158024735Y-98264847D01*
X157699602Y-98399189D01*
X157376810Y-98265154D01*
X157024735Y-98264847D01*
X156699602Y-98399189D01*
X156376810Y-98265154D01*
X156024735Y-98264847D01*
X155699602Y-98399189D01*
X155376810Y-98265154D01*
X155024735Y-98264847D01*
X154699602Y-98399189D01*
X154376810Y-98265154D01*
X154024735Y-98264847D01*
X153699602Y-98399189D01*
X153376810Y-98265154D01*
X153024735Y-98264847D01*
X152699602Y-98399189D01*
X152376810Y-98265154D01*
X152024735Y-98264847D01*
X151699602Y-98399189D01*
X151376810Y-98265154D01*
X151024735Y-98264847D01*
X150699602Y-98399189D01*
X150376810Y-98265154D01*
X150024735Y-98264847D01*
X149699602Y-98399189D01*
X149376810Y-98265154D01*
X149024735Y-98264847D01*
X148699602Y-98399189D01*
X148376810Y-98265154D01*
X148024735Y-98264847D01*
X147699343Y-98399296D01*
X147450171Y-98648033D01*
X147420795Y-98718778D01*
X146225165Y-98718778D01*
X146209032Y-98686041D01*
X146200197Y-98641630D01*
X146150468Y-98567208D01*
X146110900Y-98486919D01*
X146076862Y-98457053D01*
X146051704Y-98419402D01*
X145685610Y-98053320D01*
X145647964Y-98028167D01*
X145618104Y-97994137D01*
X145537811Y-97954567D01*
X145463378Y-97904835D01*
X145418974Y-97896003D01*
X145378362Y-97875989D01*
X144878386Y-97742166D01*
X144833475Y-97739235D01*
X144790862Y-97724757D01*
X144701268Y-97730605D01*
X144611680Y-97724758D01*
X144569070Y-97739235D01*
X144524156Y-97742167D01*
X144024162Y-97876001D01*
X143983548Y-97896016D01*
X143939139Y-97904850D01*
X143864712Y-97954581D01*
X143784421Y-97994150D01*
X143754558Y-98028184D01*
X143716910Y-98053340D01*
X143350823Y-98419430D01*
X143325668Y-98457078D01*
X143291633Y-98486942D01*
X143252064Y-98567236D01*
X143202335Y-98641661D01*
X143193502Y-98686069D01*
X143177383Y-98718778D01*
X139552332Y-98718778D01*
X139600551Y-98670643D01*
X139834733Y-98106670D01*
X139835265Y-97496009D01*
X139602068Y-96931629D01*
X139170643Y-96499449D01*
X138606670Y-96265267D01*
X137996009Y-96264735D01*
X137431629Y-96497932D01*
X136999449Y-96929357D01*
X136765267Y-97493330D01*
X136764735Y-98103991D01*
X136997932Y-98668371D01*
X137048251Y-98718778D01*
X134263780Y-98718778D01*
X134259497Y-98494613D01*
X133965739Y-97785418D01*
X133646970Y-97625635D01*
X132553827Y-98718778D01*
X132194617Y-98718778D01*
X133467365Y-97446030D01*
X133307582Y-97127261D01*
X132685792Y-96883517D01*
X134008088Y-96883517D01*
X134076077Y-97124460D01*
X134595171Y-97309201D01*
X135145448Y-97281230D01*
X135523923Y-97124460D01*
X135591912Y-96883517D01*
X134800000Y-96091605D01*
X134008088Y-96883517D01*
X132685792Y-96883517D01*
X132516813Y-96817277D01*
X131667613Y-96833503D01*
X130958418Y-97127261D01*
X130798635Y-97446030D01*
X132071383Y-98718778D01*
X131712173Y-98718778D01*
X130619030Y-97625635D01*
X130300261Y-97785418D01*
X130192479Y-98060369D01*
X130185441Y-98053331D01*
X130147796Y-98028178D01*
X130117936Y-97994147D01*
X130037642Y-97954576D01*
X129963210Y-97904843D01*
X129918805Y-97896011D01*
X129886100Y-97879893D01*
X129886100Y-95707171D01*
X133402799Y-95707171D01*
X133430770Y-96257448D01*
X133587540Y-96635923D01*
X133828483Y-96703912D01*
X134620395Y-95912000D01*
X134979605Y-95912000D01*
X135771517Y-96703912D01*
X136012460Y-96635923D01*
X136197201Y-96116829D01*
X136169230Y-95566552D01*
X136012460Y-95188077D01*
X135771517Y-95120088D01*
X134979605Y-95912000D01*
X134620395Y-95912000D01*
X133828483Y-95120088D01*
X133587540Y-95188077D01*
X133402799Y-95707171D01*
X129886100Y-95707171D01*
X129886100Y-86927908D01*
X129919102Y-86911641D01*
X129963581Y-86902780D01*
X130037934Y-86853067D01*
X130118157Y-86813524D01*
X130148066Y-86779432D01*
X130185767Y-86754225D01*
X130216239Y-86723735D01*
X130300261Y-86926582D01*
X130619030Y-87086365D01*
X131616934Y-86088461D01*
X131976144Y-86088461D01*
X130798635Y-87265970D01*
X130798635Y-87265970D01*
G37*
X130798635Y-87265970D02*
X130958418Y-87584739D01*
X131749187Y-87894723D01*
X132598387Y-87878497D01*
X133307582Y-87584739D01*
X133467365Y-87265970D01*
X132289856Y-86088461D01*
X132649066Y-86088461D01*
X133646970Y-87086365D01*
X133965739Y-86926582D01*
X134275723Y-86135813D01*
X134274818Y-86088461D01*
X137040417Y-86088461D01*
X136999449Y-86129357D01*
X136765267Y-86693330D01*
X136764735Y-87303991D01*
X136997932Y-87868371D01*
X137429357Y-88300551D01*
X137993330Y-88534733D01*
X138603991Y-88535265D01*
X139168371Y-88302068D01*
X139600551Y-87870643D01*
X139834733Y-87306670D01*
X139835265Y-86696009D01*
X139602068Y-86131629D01*
X139558975Y-86088461D01*
X140865565Y-86088461D01*
X140840008Y-86113973D01*
X140697362Y-86457501D01*
X140697038Y-86829467D01*
X140839083Y-87173243D01*
X140872200Y-87206418D01*
X140872200Y-88833618D01*
X140865920Y-88839898D01*
X140820433Y-88839858D01*
X140476657Y-88981903D01*
X140213408Y-89244693D01*
X140070762Y-89588221D01*
X140070438Y-89960187D01*
X140157365Y-90170567D01*
X140013708Y-90313973D01*
X139871062Y-90657501D01*
X139870738Y-91029467D01*
X140012783Y-91373243D01*
X140275573Y-91636492D01*
X140619101Y-91779138D01*
X140991067Y-91779462D01*
X141334843Y-91637417D01*
X141368018Y-91604300D01*
X141832281Y-91604300D01*
X141769251Y-91698632D01*
X141711399Y-91989471D01*
X141711399Y-93130529D01*
X141769251Y-93421368D01*
X141933998Y-93667930D01*
X142220858Y-93954790D01*
X142198243Y-93988635D01*
X142148960Y-94236400D01*
X142148960Y-94762736D01*
X141352657Y-93966433D01*
X141559516Y-93759934D01*
X141702162Y-93416406D01*
X141702486Y-93044440D01*
X141560441Y-92700664D01*
X141297651Y-92437415D01*
X140954123Y-92294769D01*
X140582157Y-92294445D01*
X140238381Y-92436490D01*
X140030366Y-92644142D01*
X136185002Y-88798778D01*
X136185240Y-88525715D01*
X135974831Y-88016485D01*
X135585564Y-87626539D01*
X135076702Y-87415241D01*
X134525715Y-87414760D01*
X134016485Y-87625169D01*
X133626539Y-88014436D01*
X133415241Y-88523298D01*
X133414760Y-89074285D01*
X133625169Y-89583515D01*
X134014436Y-89973461D01*
X134246870Y-90069976D01*
X134016485Y-90165169D01*
X133626539Y-90554436D01*
X133415241Y-91063298D01*
X133414760Y-91614285D01*
X133625169Y-92123515D01*
X133857313Y-92356064D01*
X133626539Y-92586436D01*
X133415241Y-93095298D01*
X133414760Y-93646285D01*
X133625169Y-94155515D01*
X134014436Y-94545461D01*
X134230979Y-94635377D01*
X134076077Y-94699540D01*
X134008088Y-94940483D01*
X134800000Y-95732395D01*
X135591912Y-94940483D01*
X135523923Y-94699540D01*
X135357379Y-94640268D01*
X135583515Y-94546831D01*
X135973461Y-94157564D01*
X136184759Y-93648702D01*
X136185240Y-93097715D01*
X135974831Y-92588485D01*
X135742687Y-92355936D01*
X135973461Y-92125564D01*
X136184759Y-91616702D01*
X136185095Y-91231319D01*
X141976588Y-97022812D01*
X142255593Y-97209237D01*
X142584700Y-97274700D01*
X142665733Y-97274700D01*
X142963731Y-97398440D01*
X143335697Y-97398764D01*
X143517603Y-97323602D01*
X144836398Y-97323602D01*
X145165506Y-97258138D01*
X145444510Y-97071714D01*
X145959602Y-96556622D01*
X146170641Y-96598600D01*
X146229359Y-96598600D01*
X146802848Y-96484526D01*
X147289029Y-96159670D01*
X147422444Y-95960000D01*
X148913087Y-95960000D01*
X149242195Y-95894536D01*
X149365130Y-95812394D01*
X149364838Y-96147667D01*
X149506883Y-96491443D01*
X149769673Y-96754692D01*
X150113201Y-96897338D01*
X150485167Y-96897662D01*
X150828943Y-96755617D01*
X151092192Y-96492827D01*
X151234838Y-96149299D01*
X151234898Y-96080513D01*
X151355563Y-95899925D01*
X151413415Y-95609085D01*
X151413415Y-93184000D01*
X155596560Y-93184000D01*
X155596560Y-95216000D01*
X155645843Y-95463765D01*
X155786191Y-95673809D01*
X155996235Y-95814157D01*
X156244000Y-95863440D01*
X158276000Y-95863440D01*
X158523765Y-95814157D01*
X158733809Y-95673809D01*
X158838662Y-95516887D01*
X158935182Y-95606385D01*
X159417056Y-95805975D01*
X159673000Y-95686836D01*
X159673000Y-94327000D01*
X159927000Y-94327000D01*
X159927000Y-95686836D01*
X160182944Y-95805975D01*
X160664818Y-95606385D01*
X161137188Y-95168379D01*
X161405983Y-94582946D01*
X161287367Y-94327000D01*
X159927000Y-94327000D01*
X159673000Y-94327000D01*
X159653000Y-94327000D01*
X159653000Y-94073000D01*
X159673000Y-94073000D01*
X159673000Y-92713164D01*
X159927000Y-92713164D01*
X159927000Y-94073000D01*
X161287367Y-94073000D01*
X161405983Y-93817054D01*
X161137188Y-93231621D01*
X160664818Y-92793615D01*
X160182944Y-92594025D01*
X159927000Y-92713164D01*
X159673000Y-92713164D01*
X159417056Y-92594025D01*
X158935182Y-92793615D01*
X158838662Y-92883113D01*
X158733809Y-92726191D01*
X158523765Y-92585843D01*
X158276000Y-92536560D01*
X156244000Y-92536560D01*
X155996235Y-92585843D01*
X155786191Y-92726191D01*
X155645843Y-92936235D01*
X155596560Y-93184000D01*
X151413415Y-93184000D01*
X151413415Y-92062415D01*
X151355563Y-91771576D01*
X151190816Y-91525014D01*
X150077802Y-90412000D01*
X152981437Y-90412000D01*
X153013573Y-90444192D01*
X153357101Y-90586838D01*
X153729067Y-90587162D01*
X154072843Y-90445117D01*
X154336092Y-90182327D01*
X154478738Y-89838799D01*
X154478872Y-89684000D01*
X155636560Y-89684000D01*
X155636560Y-91716000D01*
X155685843Y-91963765D01*
X155826191Y-92173809D01*
X156036235Y-92314157D01*
X156284000Y-92363440D01*
X158316000Y-92363440D01*
X158563765Y-92314157D01*
X158773809Y-92173809D01*
X158878662Y-92016887D01*
X158975182Y-92106385D01*
X159457056Y-92305975D01*
X159713000Y-92186836D01*
X159713000Y-90827000D01*
X159967000Y-90827000D01*
X159967000Y-92186836D01*
X160222944Y-92305975D01*
X160704818Y-92106385D01*
X161177188Y-91668379D01*
X161445983Y-91082946D01*
X161327367Y-90827000D01*
X159967000Y-90827000D01*
X159713000Y-90827000D01*
X159693000Y-90827000D01*
X159693000Y-90573000D01*
X159713000Y-90573000D01*
X159713000Y-89213164D01*
X159967000Y-89213164D01*
X159967000Y-90573000D01*
X161327367Y-90573000D01*
X161445983Y-90317054D01*
X161177188Y-89731621D01*
X160704818Y-89293615D01*
X160222944Y-89094025D01*
X159967000Y-89213164D01*
X159713000Y-89213164D01*
X159457056Y-89094025D01*
X158975182Y-89293615D01*
X158878662Y-89383113D01*
X158773809Y-89226191D01*
X158563765Y-89085843D01*
X158316000Y-89036560D01*
X156284000Y-89036560D01*
X156036235Y-89085843D01*
X155826191Y-89226191D01*
X155685843Y-89436235D01*
X155636560Y-89684000D01*
X154478872Y-89684000D01*
X154479062Y-89466833D01*
X154337017Y-89123057D01*
X154074227Y-88859808D01*
X153730699Y-88717162D01*
X153358733Y-88716838D01*
X153014957Y-88858883D01*
X152981782Y-88892000D01*
X151907790Y-88892000D01*
X151935000Y-88826309D01*
X151935000Y-87985750D01*
X151776250Y-87827000D01*
X150427000Y-87827000D01*
X150427000Y-87847000D01*
X150173000Y-87847000D01*
X150173000Y-87827000D01*
X150153000Y-87827000D01*
X150153000Y-87573000D01*
X150173000Y-87573000D01*
X150173000Y-87553000D01*
X150427000Y-87553000D01*
X150427000Y-87573000D01*
X151776250Y-87573000D01*
X151935000Y-87414250D01*
X151935000Y-86573691D01*
X151838327Y-86340302D01*
X151659699Y-86161673D01*
X151482950Y-86088461D01*
X160440935Y-86088461D01*
X160655457Y-86279173D01*
X160655459Y-86279176D01*
X161064530Y-86642844D01*
X161473562Y-87006479D01*
X161473565Y-87006482D01*
X161882738Y-87370240D01*
X162291597Y-87733720D01*
X162700503Y-88097242D01*
X163109513Y-88460856D01*
X163109515Y-88460859D01*
X163518508Y-88824459D01*
X163518511Y-88824461D01*
X163927549Y-89188100D01*
X164336608Y-89551758D01*
X164515969Y-89711212D01*
X164515969Y-89903658D01*
X164327363Y-89714722D01*
X163726648Y-89465284D01*
X163076205Y-89464716D01*
X162475057Y-89713106D01*
X162014722Y-90172637D01*
X161765284Y-90773352D01*
X161764716Y-91423795D01*
X161765269Y-91425134D01*
X161764716Y-92058795D01*
X161765269Y-92060134D01*
X161764716Y-92693795D01*
X161765269Y-92695134D01*
X161764716Y-93328795D01*
X161765269Y-93330134D01*
X161764716Y-93963795D01*
X162013106Y-94564943D01*
X162472637Y-95025278D01*
X163073352Y-95274716D01*
X163723795Y-95275284D01*
X164324943Y-95026894D01*
X164515969Y-94836202D01*
X164515969Y-95096027D01*
X164336662Y-95255432D01*
X164336659Y-95255434D01*
X163927590Y-95619102D01*
X163927587Y-95619104D01*
X163518554Y-95982740D01*
X163109380Y-96346500D01*
X163109378Y-96346503D01*
X162700522Y-96709980D01*
X162291616Y-97073502D01*
X161882605Y-97437117D01*
X161882602Y-97437119D01*
X161473609Y-97800719D01*
X161473607Y-97800722D01*
X161064570Y-98164360D01*
X160655514Y-98528015D01*
X160655511Y-98528017D01*
X160440935Y-98718778D01*
X158979394Y-98718778D01*
X158950704Y-98649343D01*
X158701967Y-98400171D01*
X158376810Y-98265154D01*
X158024735Y-98264847D01*
X157699602Y-98399189D01*
X157376810Y-98265154D01*
X157024735Y-98264847D01*
X156699602Y-98399189D01*
X156376810Y-98265154D01*
X156024735Y-98264847D01*
X155699602Y-98399189D01*
X155376810Y-98265154D01*
X155024735Y-98264847D01*
X154699602Y-98399189D01*
X154376810Y-98265154D01*
X154024735Y-98264847D01*
X153699602Y-98399189D01*
X153376810Y-98265154D01*
X153024735Y-98264847D01*
X152699602Y-98399189D01*
X152376810Y-98265154D01*
X152024735Y-98264847D01*
X151699602Y-98399189D01*
X151376810Y-98265154D01*
X151024735Y-98264847D01*
X150699602Y-98399189D01*
X150376810Y-98265154D01*
X150024735Y-98264847D01*
X149699602Y-98399189D01*
X149376810Y-98265154D01*
X149024735Y-98264847D01*
X148699602Y-98399189D01*
X148376810Y-98265154D01*
X148024735Y-98264847D01*
X147699343Y-98399296D01*
X147450171Y-98648033D01*
X147420795Y-98718778D01*
X146225165Y-98718778D01*
X146209032Y-98686041D01*
X146200197Y-98641630D01*
X146150468Y-98567208D01*
X146110900Y-98486919D01*
X146076862Y-98457053D01*
X146051704Y-98419402D01*
X145685610Y-98053320D01*
X145647964Y-98028167D01*
X145618104Y-97994137D01*
X145537811Y-97954567D01*
X145463378Y-97904835D01*
X145418974Y-97896003D01*
X145378362Y-97875989D01*
X144878386Y-97742166D01*
X144833475Y-97739235D01*
X144790862Y-97724757D01*
X144701268Y-97730605D01*
X144611680Y-97724758D01*
X144569070Y-97739235D01*
X144524156Y-97742167D01*
X144024162Y-97876001D01*
X143983548Y-97896016D01*
X143939139Y-97904850D01*
X143864712Y-97954581D01*
X143784421Y-97994150D01*
X143754558Y-98028184D01*
X143716910Y-98053340D01*
X143350823Y-98419430D01*
X143325668Y-98457078D01*
X143291633Y-98486942D01*
X143252064Y-98567236D01*
X143202335Y-98641661D01*
X143193502Y-98686069D01*
X143177383Y-98718778D01*
X139552332Y-98718778D01*
X139600551Y-98670643D01*
X139834733Y-98106670D01*
X139835265Y-97496009D01*
X139602068Y-96931629D01*
X139170643Y-96499449D01*
X138606670Y-96265267D01*
X137996009Y-96264735D01*
X137431629Y-96497932D01*
X136999449Y-96929357D01*
X136765267Y-97493330D01*
X136764735Y-98103991D01*
X136997932Y-98668371D01*
X137048251Y-98718778D01*
X134263780Y-98718778D01*
X134259497Y-98494613D01*
X133965739Y-97785418D01*
X133646970Y-97625635D01*
X132553827Y-98718778D01*
X132194617Y-98718778D01*
X133467365Y-97446030D01*
X133307582Y-97127261D01*
X132685792Y-96883517D01*
X134008088Y-96883517D01*
X134076077Y-97124460D01*
X134595171Y-97309201D01*
X135145448Y-97281230D01*
X135523923Y-97124460D01*
X135591912Y-96883517D01*
X134800000Y-96091605D01*
X134008088Y-96883517D01*
X132685792Y-96883517D01*
X132516813Y-96817277D01*
X131667613Y-96833503D01*
X130958418Y-97127261D01*
X130798635Y-97446030D01*
X132071383Y-98718778D01*
X131712173Y-98718778D01*
X130619030Y-97625635D01*
X130300261Y-97785418D01*
X130192479Y-98060369D01*
X130185441Y-98053331D01*
X130147796Y-98028178D01*
X130117936Y-97994147D01*
X130037642Y-97954576D01*
X129963210Y-97904843D01*
X129918805Y-97896011D01*
X129886100Y-97879893D01*
X129886100Y-95707171D01*
X133402799Y-95707171D01*
X133430770Y-96257448D01*
X133587540Y-96635923D01*
X133828483Y-96703912D01*
X134620395Y-95912000D01*
X134979605Y-95912000D01*
X135771517Y-96703912D01*
X136012460Y-96635923D01*
X136197201Y-96116829D01*
X136169230Y-95566552D01*
X136012460Y-95188077D01*
X135771517Y-95120088D01*
X134979605Y-95912000D01*
X134620395Y-95912000D01*
X133828483Y-95120088D01*
X133587540Y-95188077D01*
X133402799Y-95707171D01*
X129886100Y-95707171D01*
X129886100Y-86927908D01*
X129919102Y-86911641D01*
X129963581Y-86902780D01*
X130037934Y-86853067D01*
X130118157Y-86813524D01*
X130148066Y-86779432D01*
X130185767Y-86754225D01*
X130216239Y-86723735D01*
X130300261Y-86926582D01*
X130619030Y-87086365D01*
X131616934Y-86088461D01*
X131976144Y-86088461D01*
X130798635Y-87265970D01*
G36*
X143193262Y-86121202D02*
X143202097Y-86165676D01*
X143251770Y-86240059D01*
X143291274Y-86320310D01*
X143325345Y-86350233D01*
X143350529Y-86387945D01*
X143716642Y-86754247D01*
X143754335Y-86779446D01*
X143784233Y-86813526D01*
X143864470Y-86853077D01*
X143938834Y-86902792D01*
X143983295Y-86911648D01*
X144023965Y-86931695D01*
X144524104Y-87065609D01*
X144569077Y-87068548D01*
X144611747Y-87083041D01*
X144701278Y-87077189D01*
X144790809Y-87083040D01*
X144833479Y-87068547D01*
X144878451Y-87065607D01*
X145378607Y-86931683D01*
X145419279Y-86911634D01*
X145463743Y-86902777D01*
X145538103Y-86853062D01*
X145618338Y-86813511D01*
X145648238Y-86779428D01*
X145685932Y-86754227D01*
X146052039Y-86387918D01*
X146077222Y-86350207D01*
X146111288Y-86320287D01*
X146150791Y-86240035D01*
X146200466Y-86165646D01*
X146209299Y-86121174D01*
X146225402Y-86088461D01*
X147378738Y-86088461D01*
X146835057Y-86313106D01*
X146374722Y-86772637D01*
X146125284Y-87373352D01*
X146124716Y-88023795D01*
X146373106Y-88624943D01*
X146397197Y-88649076D01*
X146327000Y-88685531D01*
X146327000Y-89893000D01*
X146347000Y-89893000D01*
X146347000Y-90147000D01*
X146327000Y-90147000D01*
X146327000Y-90167000D01*
X146073000Y-90167000D01*
X146073000Y-90147000D01*
X146053000Y-90147000D01*
X146053000Y-89893000D01*
X146073000Y-89893000D01*
X146073000Y-88685531D01*
X145840973Y-88565032D01*
X145624868Y-88666316D01*
X145489317Y-88338257D01*
X145226527Y-88075008D01*
X144882999Y-87932362D01*
X144511033Y-87932038D01*
X144167257Y-88074083D01*
X143904008Y-88336873D01*
X143816855Y-88546760D01*
X143689359Y-88521400D01*
X143630641Y-88521400D01*
X143057152Y-88635474D01*
X142570971Y-88960330D01*
X142369695Y-89261561D01*
X142392200Y-89148420D01*
X142392200Y-87206763D01*
X142424392Y-87174627D01*
X142567038Y-86831099D01*
X142567362Y-86459133D01*
X142425317Y-86115357D01*
X142398468Y-86088461D01*
X143177145Y-86088461D01*
X143193262Y-86121202D01*
X143193262Y-86121202D01*
G37*
X143193262Y-86121202D02*
X143202097Y-86165676D01*
X143251770Y-86240059D01*
X143291274Y-86320310D01*
X143325345Y-86350233D01*
X143350529Y-86387945D01*
X143716642Y-86754247D01*
X143754335Y-86779446D01*
X143784233Y-86813526D01*
X143864470Y-86853077D01*
X143938834Y-86902792D01*
X143983295Y-86911648D01*
X144023965Y-86931695D01*
X144524104Y-87065609D01*
X144569077Y-87068548D01*
X144611747Y-87083041D01*
X144701278Y-87077189D01*
X144790809Y-87083040D01*
X144833479Y-87068547D01*
X144878451Y-87065607D01*
X145378607Y-86931683D01*
X145419279Y-86911634D01*
X145463743Y-86902777D01*
X145538103Y-86853062D01*
X145618338Y-86813511D01*
X145648238Y-86779428D01*
X145685932Y-86754227D01*
X146052039Y-86387918D01*
X146077222Y-86350207D01*
X146111288Y-86320287D01*
X146150791Y-86240035D01*
X146200466Y-86165646D01*
X146209299Y-86121174D01*
X146225402Y-86088461D01*
X147378738Y-86088461D01*
X146835057Y-86313106D01*
X146374722Y-86772637D01*
X146125284Y-87373352D01*
X146124716Y-88023795D01*
X146373106Y-88624943D01*
X146397197Y-88649076D01*
X146327000Y-88685531D01*
X146327000Y-89893000D01*
X146347000Y-89893000D01*
X146347000Y-90147000D01*
X146327000Y-90147000D01*
X146327000Y-90167000D01*
X146073000Y-90167000D01*
X146073000Y-90147000D01*
X146053000Y-90147000D01*
X146053000Y-89893000D01*
X146073000Y-89893000D01*
X146073000Y-88685531D01*
X145840973Y-88565032D01*
X145624868Y-88666316D01*
X145489317Y-88338257D01*
X145226527Y-88075008D01*
X144882999Y-87932362D01*
X144511033Y-87932038D01*
X144167257Y-88074083D01*
X143904008Y-88336873D01*
X143816855Y-88546760D01*
X143689359Y-88521400D01*
X143630641Y-88521400D01*
X143057152Y-88635474D01*
X142570971Y-88960330D01*
X142369695Y-89261561D01*
X142392200Y-89148420D01*
X142392200Y-87206763D01*
X142424392Y-87174627D01*
X142567038Y-86831099D01*
X142567362Y-86459133D01*
X142425317Y-86115357D01*
X142398468Y-86088461D01*
X143177145Y-86088461D01*
X143193262Y-86121202D01*
G36*
X130791435Y-105274770D02*
X130951218Y-105593539D01*
X131741987Y-105903523D01*
X132591187Y-105887297D01*
X133300382Y-105593539D01*
X133460165Y-105274770D01*
X132273792Y-104088397D01*
X132633002Y-104088397D01*
X133639770Y-105095165D01*
X133958539Y-104935382D01*
X134268523Y-104144613D01*
X134267449Y-104088397D01*
X137042096Y-104088397D01*
X136992249Y-104138157D01*
X136758067Y-104702130D01*
X136757535Y-105312791D01*
X136990732Y-105877171D01*
X137422157Y-106309351D01*
X137986130Y-106543533D01*
X138596791Y-106544065D01*
X139161171Y-106310868D01*
X139593351Y-105879443D01*
X139827533Y-105315470D01*
X139828065Y-104704809D01*
X139594868Y-104140429D01*
X139542927Y-104088397D01*
X140867244Y-104088397D01*
X140832808Y-104122773D01*
X140690162Y-104466301D01*
X140689838Y-104838267D01*
X140831883Y-105182043D01*
X140865000Y-105215218D01*
X140865000Y-106842418D01*
X140858720Y-106848698D01*
X140813233Y-106848658D01*
X140469457Y-106990703D01*
X140206208Y-107253493D01*
X140063562Y-107597021D01*
X140063238Y-107968987D01*
X140150165Y-108179367D01*
X140006508Y-108322773D01*
X139863862Y-108666301D01*
X139863538Y-109038267D01*
X140005583Y-109382043D01*
X140268373Y-109645292D01*
X140611901Y-109787938D01*
X140983867Y-109788262D01*
X141327643Y-109646217D01*
X141360818Y-109613100D01*
X141825081Y-109613100D01*
X141762051Y-109707432D01*
X141704199Y-109998271D01*
X141704199Y-111139329D01*
X141762051Y-111430168D01*
X141926798Y-111676730D01*
X142213658Y-111963590D01*
X142191043Y-111997435D01*
X142141760Y-112245200D01*
X142141760Y-112771536D01*
X141345457Y-111975233D01*
X141552316Y-111768734D01*
X141694962Y-111425206D01*
X141695286Y-111053240D01*
X141553241Y-110709464D01*
X141290451Y-110446215D01*
X140946923Y-110303569D01*
X140574957Y-110303245D01*
X140231181Y-110445290D01*
X140023166Y-110652942D01*
X136177802Y-106807578D01*
X136178040Y-106534515D01*
X135967631Y-106025285D01*
X135578364Y-105635339D01*
X135069502Y-105424041D01*
X134518515Y-105423560D01*
X134009285Y-105633969D01*
X133619339Y-106023236D01*
X133408041Y-106532098D01*
X133407560Y-107083085D01*
X133617969Y-107592315D01*
X134007236Y-107982261D01*
X134239670Y-108078776D01*
X134009285Y-108173969D01*
X133619339Y-108563236D01*
X133408041Y-109072098D01*
X133407560Y-109623085D01*
X133617969Y-110132315D01*
X133850113Y-110364864D01*
X133619339Y-110595236D01*
X133408041Y-111104098D01*
X133407560Y-111655085D01*
X133617969Y-112164315D01*
X134007236Y-112554261D01*
X134223779Y-112644177D01*
X134068877Y-112708340D01*
X134000888Y-112949283D01*
X134792800Y-113741195D01*
X135584712Y-112949283D01*
X135516723Y-112708340D01*
X135350179Y-112649068D01*
X135576315Y-112555631D01*
X135966261Y-112166364D01*
X136177559Y-111657502D01*
X136178040Y-111106515D01*
X135967631Y-110597285D01*
X135735487Y-110364736D01*
X135966261Y-110134364D01*
X136177559Y-109625502D01*
X136177895Y-109240119D01*
X141969388Y-115031612D01*
X142248393Y-115218037D01*
X142577500Y-115283500D01*
X142658533Y-115283500D01*
X142956531Y-115407240D01*
X143328497Y-115407564D01*
X143510403Y-115332402D01*
X144829198Y-115332402D01*
X145158306Y-115266938D01*
X145437310Y-115080514D01*
X145952402Y-114565422D01*
X146163441Y-114607400D01*
X146222159Y-114607400D01*
X146795648Y-114493326D01*
X147281829Y-114168470D01*
X147415244Y-113968800D01*
X148905887Y-113968800D01*
X149234995Y-113903336D01*
X149357930Y-113821194D01*
X149357638Y-114156467D01*
X149499683Y-114500243D01*
X149762473Y-114763492D01*
X150106001Y-114906138D01*
X150477967Y-114906462D01*
X150821743Y-114764417D01*
X151084992Y-114501627D01*
X151227638Y-114158099D01*
X151227698Y-114089313D01*
X151348363Y-113908725D01*
X151406215Y-113617885D01*
X151406215Y-111192800D01*
X155589360Y-111192800D01*
X155589360Y-113224800D01*
X155638643Y-113472565D01*
X155778991Y-113682609D01*
X155989035Y-113822957D01*
X156236800Y-113872240D01*
X158268800Y-113872240D01*
X158516565Y-113822957D01*
X158726609Y-113682609D01*
X158831462Y-113525687D01*
X158927982Y-113615185D01*
X159409856Y-113814775D01*
X159665800Y-113695636D01*
X159665800Y-112335800D01*
X159919800Y-112335800D01*
X159919800Y-113695636D01*
X160175744Y-113814775D01*
X160657618Y-113615185D01*
X161129988Y-113177179D01*
X161398783Y-112591746D01*
X161280167Y-112335800D01*
X159919800Y-112335800D01*
X159665800Y-112335800D01*
X159645800Y-112335800D01*
X159645800Y-112081800D01*
X159665800Y-112081800D01*
X159665800Y-110721964D01*
X159919800Y-110721964D01*
X159919800Y-112081800D01*
X161280167Y-112081800D01*
X161398783Y-111825854D01*
X161129988Y-111240421D01*
X160657618Y-110802415D01*
X160175744Y-110602825D01*
X159919800Y-110721964D01*
X159665800Y-110721964D01*
X159409856Y-110602825D01*
X158927982Y-110802415D01*
X158831462Y-110891913D01*
X158726609Y-110734991D01*
X158516565Y-110594643D01*
X158268800Y-110545360D01*
X156236800Y-110545360D01*
X155989035Y-110594643D01*
X155778991Y-110734991D01*
X155638643Y-110945035D01*
X155589360Y-111192800D01*
X151406215Y-111192800D01*
X151406215Y-110071215D01*
X151348363Y-109780376D01*
X151183616Y-109533814D01*
X150070602Y-108420800D01*
X152974237Y-108420800D01*
X153006373Y-108452992D01*
X153349901Y-108595638D01*
X153721867Y-108595962D01*
X154065643Y-108453917D01*
X154328892Y-108191127D01*
X154471538Y-107847599D01*
X154471672Y-107692800D01*
X155629360Y-107692800D01*
X155629360Y-109724800D01*
X155678643Y-109972565D01*
X155818991Y-110182609D01*
X156029035Y-110322957D01*
X156276800Y-110372240D01*
X158308800Y-110372240D01*
X158556565Y-110322957D01*
X158766609Y-110182609D01*
X158871462Y-110025687D01*
X158967982Y-110115185D01*
X159449856Y-110314775D01*
X159705800Y-110195636D01*
X159705800Y-108835800D01*
X159959800Y-108835800D01*
X159959800Y-110195636D01*
X160215744Y-110314775D01*
X160697618Y-110115185D01*
X161169988Y-109677179D01*
X161438783Y-109091746D01*
X161320167Y-108835800D01*
X159959800Y-108835800D01*
X159705800Y-108835800D01*
X159685800Y-108835800D01*
X159685800Y-108581800D01*
X159705800Y-108581800D01*
X159705800Y-107221964D01*
X159959800Y-107221964D01*
X159959800Y-108581800D01*
X161320167Y-108581800D01*
X161438783Y-108325854D01*
X161169988Y-107740421D01*
X160697618Y-107302415D01*
X160215744Y-107102825D01*
X159959800Y-107221964D01*
X159705800Y-107221964D01*
X159449856Y-107102825D01*
X158967982Y-107302415D01*
X158871462Y-107391913D01*
X158766609Y-107234991D01*
X158556565Y-107094643D01*
X158308800Y-107045360D01*
X156276800Y-107045360D01*
X156029035Y-107094643D01*
X155818991Y-107234991D01*
X155678643Y-107445035D01*
X155629360Y-107692800D01*
X154471672Y-107692800D01*
X154471862Y-107475633D01*
X154329817Y-107131857D01*
X154067027Y-106868608D01*
X153723499Y-106725962D01*
X153351533Y-106725638D01*
X153007757Y-106867683D01*
X152974582Y-106900800D01*
X151900590Y-106900800D01*
X151927800Y-106835109D01*
X151927800Y-105994550D01*
X151769050Y-105835800D01*
X150419800Y-105835800D01*
X150419800Y-105855800D01*
X150165800Y-105855800D01*
X150165800Y-105835800D01*
X150145800Y-105835800D01*
X150145800Y-105581800D01*
X150165800Y-105581800D01*
X150165800Y-105561800D01*
X150419800Y-105561800D01*
X150419800Y-105581800D01*
X151769050Y-105581800D01*
X151927800Y-105423050D01*
X151927800Y-104582491D01*
X151884150Y-104477112D01*
X152023190Y-104534846D01*
X152375265Y-104535153D01*
X152700398Y-104400811D01*
X153023190Y-104534846D01*
X153375265Y-104535153D01*
X153700398Y-104400811D01*
X154023190Y-104534846D01*
X154375265Y-104535153D01*
X154700398Y-104400811D01*
X155023190Y-104534846D01*
X155375265Y-104535153D01*
X155700398Y-104400811D01*
X156023190Y-104534846D01*
X156375265Y-104535153D01*
X156700398Y-104400811D01*
X157023190Y-104534846D01*
X157375265Y-104535153D01*
X157700398Y-104400811D01*
X158023190Y-104534846D01*
X158375265Y-104535153D01*
X158700657Y-104400704D01*
X158949829Y-104151967D01*
X158976226Y-104088397D01*
X160440409Y-104088397D01*
X160654989Y-104279138D01*
X161064112Y-104642808D01*
X161473196Y-105006444D01*
X161882419Y-105370203D01*
X162291328Y-105733683D01*
X162700284Y-106097205D01*
X163109346Y-106460821D01*
X163518390Y-106824421D01*
X163927480Y-107188062D01*
X164336589Y-107551720D01*
X164515969Y-107711171D01*
X164515969Y-107919671D01*
X164320163Y-107723522D01*
X163719448Y-107474084D01*
X163069005Y-107473516D01*
X162467857Y-107721906D01*
X162007522Y-108181437D01*
X161758084Y-108782152D01*
X161757516Y-109432595D01*
X161758069Y-109433934D01*
X161757516Y-110067595D01*
X161758069Y-110068934D01*
X161757516Y-110702595D01*
X161758069Y-110703934D01*
X161757516Y-111337595D01*
X161758069Y-111338934D01*
X161757516Y-111972595D01*
X162005906Y-112573743D01*
X162465437Y-113034078D01*
X163066152Y-113283516D01*
X163716595Y-113284084D01*
X164317743Y-113035694D01*
X164515969Y-112837814D01*
X164515969Y-113095936D01*
X164336641Y-113255341D01*
X163927519Y-113619011D01*
X163518435Y-113982647D01*
X163109211Y-114346407D01*
X162700302Y-114709887D01*
X162700300Y-114709890D01*
X162291347Y-115073409D01*
X161882284Y-115437026D01*
X161882283Y-115437027D01*
X161473240Y-115800626D01*
X161473238Y-115800629D01*
X161064151Y-116164267D01*
X160655042Y-116527925D01*
X160440409Y-116718713D01*
X146225165Y-116718713D01*
X146209032Y-116685976D01*
X146200197Y-116641565D01*
X146150468Y-116567143D01*
X146110900Y-116486854D01*
X146076862Y-116456988D01*
X146051704Y-116419337D01*
X145685610Y-116053255D01*
X145647964Y-116028102D01*
X145618104Y-115994072D01*
X145537811Y-115954502D01*
X145463378Y-115904770D01*
X145418974Y-115895938D01*
X145378362Y-115875924D01*
X144878386Y-115742101D01*
X144833477Y-115739170D01*
X144790863Y-115724692D01*
X144701269Y-115730541D01*
X144611680Y-115724693D01*
X144569069Y-115739170D01*
X144524157Y-115742102D01*
X144024161Y-115875935D01*
X143983545Y-115895952D01*
X143939138Y-115904785D01*
X143864711Y-115954516D01*
X143784420Y-115994085D01*
X143754558Y-116028118D01*
X143716908Y-116053275D01*
X143350822Y-116419366D01*
X143325667Y-116457013D01*
X143291633Y-116486877D01*
X143252063Y-116567173D01*
X143202335Y-116641597D01*
X143193502Y-116686004D01*
X143177383Y-116718713D01*
X139554012Y-116718713D01*
X139593351Y-116679443D01*
X139827533Y-116115470D01*
X139828065Y-115504809D01*
X139594868Y-114940429D01*
X139163443Y-114508249D01*
X138599470Y-114274067D01*
X137988809Y-114273535D01*
X137424429Y-114506732D01*
X136992249Y-114938157D01*
X136758067Y-115502130D01*
X136757535Y-116112791D01*
X136990732Y-116677171D01*
X137032201Y-116718713D01*
X134256411Y-116718713D01*
X134252297Y-116503413D01*
X133958539Y-115794218D01*
X133639770Y-115634435D01*
X132555492Y-116718713D01*
X132196282Y-116718713D01*
X133460165Y-115454830D01*
X133300382Y-115136061D01*
X132678592Y-114892317D01*
X134000888Y-114892317D01*
X134068877Y-115133260D01*
X134587971Y-115318001D01*
X135138248Y-115290030D01*
X135516723Y-115133260D01*
X135584712Y-114892317D01*
X134792800Y-114100405D01*
X134000888Y-114892317D01*
X132678592Y-114892317D01*
X132509613Y-114826077D01*
X131660413Y-114842303D01*
X130951218Y-115136061D01*
X130791435Y-115454830D01*
X132055318Y-116718713D01*
X131696108Y-116718713D01*
X130611830Y-115634435D01*
X130293061Y-115794218D01*
X130189803Y-116057628D01*
X130185441Y-116053266D01*
X130147796Y-116028113D01*
X130117936Y-115994082D01*
X130037642Y-115954511D01*
X129963210Y-115904778D01*
X129918805Y-115895946D01*
X129886100Y-115879828D01*
X129886100Y-113715971D01*
X133395599Y-113715971D01*
X133423570Y-114266248D01*
X133580340Y-114644723D01*
X133821283Y-114712712D01*
X134613195Y-113920800D01*
X134972405Y-113920800D01*
X135764317Y-114712712D01*
X136005260Y-114644723D01*
X136190001Y-114125629D01*
X136162030Y-113575352D01*
X136005260Y-113196877D01*
X135764317Y-113128888D01*
X134972405Y-113920800D01*
X134613195Y-113920800D01*
X133821283Y-113128888D01*
X133580340Y-113196877D01*
X133395599Y-113715971D01*
X129886100Y-113715971D01*
X129886100Y-104927843D01*
X129919103Y-104911576D01*
X129963580Y-104902715D01*
X130037932Y-104853003D01*
X130118157Y-104813459D01*
X130148066Y-104779368D01*
X130185766Y-104754161D01*
X130208553Y-104731361D01*
X130293061Y-104935382D01*
X130611830Y-105095165D01*
X131618598Y-104088397D01*
X131977808Y-104088397D01*
X130791435Y-105274770D01*
X130791435Y-105274770D01*
G37*
X130791435Y-105274770D02*
X130951218Y-105593539D01*
X131741987Y-105903523D01*
X132591187Y-105887297D01*
X133300382Y-105593539D01*
X133460165Y-105274770D01*
X132273792Y-104088397D01*
X132633002Y-104088397D01*
X133639770Y-105095165D01*
X133958539Y-104935382D01*
X134268523Y-104144613D01*
X134267449Y-104088397D01*
X137042096Y-104088397D01*
X136992249Y-104138157D01*
X136758067Y-104702130D01*
X136757535Y-105312791D01*
X136990732Y-105877171D01*
X137422157Y-106309351D01*
X137986130Y-106543533D01*
X138596791Y-106544065D01*
X139161171Y-106310868D01*
X139593351Y-105879443D01*
X139827533Y-105315470D01*
X139828065Y-104704809D01*
X139594868Y-104140429D01*
X139542927Y-104088397D01*
X140867244Y-104088397D01*
X140832808Y-104122773D01*
X140690162Y-104466301D01*
X140689838Y-104838267D01*
X140831883Y-105182043D01*
X140865000Y-105215218D01*
X140865000Y-106842418D01*
X140858720Y-106848698D01*
X140813233Y-106848658D01*
X140469457Y-106990703D01*
X140206208Y-107253493D01*
X140063562Y-107597021D01*
X140063238Y-107968987D01*
X140150165Y-108179367D01*
X140006508Y-108322773D01*
X139863862Y-108666301D01*
X139863538Y-109038267D01*
X140005583Y-109382043D01*
X140268373Y-109645292D01*
X140611901Y-109787938D01*
X140983867Y-109788262D01*
X141327643Y-109646217D01*
X141360818Y-109613100D01*
X141825081Y-109613100D01*
X141762051Y-109707432D01*
X141704199Y-109998271D01*
X141704199Y-111139329D01*
X141762051Y-111430168D01*
X141926798Y-111676730D01*
X142213658Y-111963590D01*
X142191043Y-111997435D01*
X142141760Y-112245200D01*
X142141760Y-112771536D01*
X141345457Y-111975233D01*
X141552316Y-111768734D01*
X141694962Y-111425206D01*
X141695286Y-111053240D01*
X141553241Y-110709464D01*
X141290451Y-110446215D01*
X140946923Y-110303569D01*
X140574957Y-110303245D01*
X140231181Y-110445290D01*
X140023166Y-110652942D01*
X136177802Y-106807578D01*
X136178040Y-106534515D01*
X135967631Y-106025285D01*
X135578364Y-105635339D01*
X135069502Y-105424041D01*
X134518515Y-105423560D01*
X134009285Y-105633969D01*
X133619339Y-106023236D01*
X133408041Y-106532098D01*
X133407560Y-107083085D01*
X133617969Y-107592315D01*
X134007236Y-107982261D01*
X134239670Y-108078776D01*
X134009285Y-108173969D01*
X133619339Y-108563236D01*
X133408041Y-109072098D01*
X133407560Y-109623085D01*
X133617969Y-110132315D01*
X133850113Y-110364864D01*
X133619339Y-110595236D01*
X133408041Y-111104098D01*
X133407560Y-111655085D01*
X133617969Y-112164315D01*
X134007236Y-112554261D01*
X134223779Y-112644177D01*
X134068877Y-112708340D01*
X134000888Y-112949283D01*
X134792800Y-113741195D01*
X135584712Y-112949283D01*
X135516723Y-112708340D01*
X135350179Y-112649068D01*
X135576315Y-112555631D01*
X135966261Y-112166364D01*
X136177559Y-111657502D01*
X136178040Y-111106515D01*
X135967631Y-110597285D01*
X135735487Y-110364736D01*
X135966261Y-110134364D01*
X136177559Y-109625502D01*
X136177895Y-109240119D01*
X141969388Y-115031612D01*
X142248393Y-115218037D01*
X142577500Y-115283500D01*
X142658533Y-115283500D01*
X142956531Y-115407240D01*
X143328497Y-115407564D01*
X143510403Y-115332402D01*
X144829198Y-115332402D01*
X145158306Y-115266938D01*
X145437310Y-115080514D01*
X145952402Y-114565422D01*
X146163441Y-114607400D01*
X146222159Y-114607400D01*
X146795648Y-114493326D01*
X147281829Y-114168470D01*
X147415244Y-113968800D01*
X148905887Y-113968800D01*
X149234995Y-113903336D01*
X149357930Y-113821194D01*
X149357638Y-114156467D01*
X149499683Y-114500243D01*
X149762473Y-114763492D01*
X150106001Y-114906138D01*
X150477967Y-114906462D01*
X150821743Y-114764417D01*
X151084992Y-114501627D01*
X151227638Y-114158099D01*
X151227698Y-114089313D01*
X151348363Y-113908725D01*
X151406215Y-113617885D01*
X151406215Y-111192800D01*
X155589360Y-111192800D01*
X155589360Y-113224800D01*
X155638643Y-113472565D01*
X155778991Y-113682609D01*
X155989035Y-113822957D01*
X156236800Y-113872240D01*
X158268800Y-113872240D01*
X158516565Y-113822957D01*
X158726609Y-113682609D01*
X158831462Y-113525687D01*
X158927982Y-113615185D01*
X159409856Y-113814775D01*
X159665800Y-113695636D01*
X159665800Y-112335800D01*
X159919800Y-112335800D01*
X159919800Y-113695636D01*
X160175744Y-113814775D01*
X160657618Y-113615185D01*
X161129988Y-113177179D01*
X161398783Y-112591746D01*
X161280167Y-112335800D01*
X159919800Y-112335800D01*
X159665800Y-112335800D01*
X159645800Y-112335800D01*
X159645800Y-112081800D01*
X159665800Y-112081800D01*
X159665800Y-110721964D01*
X159919800Y-110721964D01*
X159919800Y-112081800D01*
X161280167Y-112081800D01*
X161398783Y-111825854D01*
X161129988Y-111240421D01*
X160657618Y-110802415D01*
X160175744Y-110602825D01*
X159919800Y-110721964D01*
X159665800Y-110721964D01*
X159409856Y-110602825D01*
X158927982Y-110802415D01*
X158831462Y-110891913D01*
X158726609Y-110734991D01*
X158516565Y-110594643D01*
X158268800Y-110545360D01*
X156236800Y-110545360D01*
X155989035Y-110594643D01*
X155778991Y-110734991D01*
X155638643Y-110945035D01*
X155589360Y-111192800D01*
X151406215Y-111192800D01*
X151406215Y-110071215D01*
X151348363Y-109780376D01*
X151183616Y-109533814D01*
X150070602Y-108420800D01*
X152974237Y-108420800D01*
X153006373Y-108452992D01*
X153349901Y-108595638D01*
X153721867Y-108595962D01*
X154065643Y-108453917D01*
X154328892Y-108191127D01*
X154471538Y-107847599D01*
X154471672Y-107692800D01*
X155629360Y-107692800D01*
X155629360Y-109724800D01*
X155678643Y-109972565D01*
X155818991Y-110182609D01*
X156029035Y-110322957D01*
X156276800Y-110372240D01*
X158308800Y-110372240D01*
X158556565Y-110322957D01*
X158766609Y-110182609D01*
X158871462Y-110025687D01*
X158967982Y-110115185D01*
X159449856Y-110314775D01*
X159705800Y-110195636D01*
X159705800Y-108835800D01*
X159959800Y-108835800D01*
X159959800Y-110195636D01*
X160215744Y-110314775D01*
X160697618Y-110115185D01*
X161169988Y-109677179D01*
X161438783Y-109091746D01*
X161320167Y-108835800D01*
X159959800Y-108835800D01*
X159705800Y-108835800D01*
X159685800Y-108835800D01*
X159685800Y-108581800D01*
X159705800Y-108581800D01*
X159705800Y-107221964D01*
X159959800Y-107221964D01*
X159959800Y-108581800D01*
X161320167Y-108581800D01*
X161438783Y-108325854D01*
X161169988Y-107740421D01*
X160697618Y-107302415D01*
X160215744Y-107102825D01*
X159959800Y-107221964D01*
X159705800Y-107221964D01*
X159449856Y-107102825D01*
X158967982Y-107302415D01*
X158871462Y-107391913D01*
X158766609Y-107234991D01*
X158556565Y-107094643D01*
X158308800Y-107045360D01*
X156276800Y-107045360D01*
X156029035Y-107094643D01*
X155818991Y-107234991D01*
X155678643Y-107445035D01*
X155629360Y-107692800D01*
X154471672Y-107692800D01*
X154471862Y-107475633D01*
X154329817Y-107131857D01*
X154067027Y-106868608D01*
X153723499Y-106725962D01*
X153351533Y-106725638D01*
X153007757Y-106867683D01*
X152974582Y-106900800D01*
X151900590Y-106900800D01*
X151927800Y-106835109D01*
X151927800Y-105994550D01*
X151769050Y-105835800D01*
X150419800Y-105835800D01*
X150419800Y-105855800D01*
X150165800Y-105855800D01*
X150165800Y-105835800D01*
X150145800Y-105835800D01*
X150145800Y-105581800D01*
X150165800Y-105581800D01*
X150165800Y-105561800D01*
X150419800Y-105561800D01*
X150419800Y-105581800D01*
X151769050Y-105581800D01*
X151927800Y-105423050D01*
X151927800Y-104582491D01*
X151884150Y-104477112D01*
X152023190Y-104534846D01*
X152375265Y-104535153D01*
X152700398Y-104400811D01*
X153023190Y-104534846D01*
X153375265Y-104535153D01*
X153700398Y-104400811D01*
X154023190Y-104534846D01*
X154375265Y-104535153D01*
X154700398Y-104400811D01*
X155023190Y-104534846D01*
X155375265Y-104535153D01*
X155700398Y-104400811D01*
X156023190Y-104534846D01*
X156375265Y-104535153D01*
X156700398Y-104400811D01*
X157023190Y-104534846D01*
X157375265Y-104535153D01*
X157700398Y-104400811D01*
X158023190Y-104534846D01*
X158375265Y-104535153D01*
X158700657Y-104400704D01*
X158949829Y-104151967D01*
X158976226Y-104088397D01*
X160440409Y-104088397D01*
X160654989Y-104279138D01*
X161064112Y-104642808D01*
X161473196Y-105006444D01*
X161882419Y-105370203D01*
X162291328Y-105733683D01*
X162700284Y-106097205D01*
X163109346Y-106460821D01*
X163518390Y-106824421D01*
X163927480Y-107188062D01*
X164336589Y-107551720D01*
X164515969Y-107711171D01*
X164515969Y-107919671D01*
X164320163Y-107723522D01*
X163719448Y-107474084D01*
X163069005Y-107473516D01*
X162467857Y-107721906D01*
X162007522Y-108181437D01*
X161758084Y-108782152D01*
X161757516Y-109432595D01*
X161758069Y-109433934D01*
X161757516Y-110067595D01*
X161758069Y-110068934D01*
X161757516Y-110702595D01*
X161758069Y-110703934D01*
X161757516Y-111337595D01*
X161758069Y-111338934D01*
X161757516Y-111972595D01*
X162005906Y-112573743D01*
X162465437Y-113034078D01*
X163066152Y-113283516D01*
X163716595Y-113284084D01*
X164317743Y-113035694D01*
X164515969Y-112837814D01*
X164515969Y-113095936D01*
X164336641Y-113255341D01*
X163927519Y-113619011D01*
X163518435Y-113982647D01*
X163109211Y-114346407D01*
X162700302Y-114709887D01*
X162700300Y-114709890D01*
X162291347Y-115073409D01*
X161882284Y-115437026D01*
X161882283Y-115437027D01*
X161473240Y-115800626D01*
X161473238Y-115800629D01*
X161064151Y-116164267D01*
X160655042Y-116527925D01*
X160440409Y-116718713D01*
X146225165Y-116718713D01*
X146209032Y-116685976D01*
X146200197Y-116641565D01*
X146150468Y-116567143D01*
X146110900Y-116486854D01*
X146076862Y-116456988D01*
X146051704Y-116419337D01*
X145685610Y-116053255D01*
X145647964Y-116028102D01*
X145618104Y-115994072D01*
X145537811Y-115954502D01*
X145463378Y-115904770D01*
X145418974Y-115895938D01*
X145378362Y-115875924D01*
X144878386Y-115742101D01*
X144833477Y-115739170D01*
X144790863Y-115724692D01*
X144701269Y-115730541D01*
X144611680Y-115724693D01*
X144569069Y-115739170D01*
X144524157Y-115742102D01*
X144024161Y-115875935D01*
X143983545Y-115895952D01*
X143939138Y-115904785D01*
X143864711Y-115954516D01*
X143784420Y-115994085D01*
X143754558Y-116028118D01*
X143716908Y-116053275D01*
X143350822Y-116419366D01*
X143325667Y-116457013D01*
X143291633Y-116486877D01*
X143252063Y-116567173D01*
X143202335Y-116641597D01*
X143193502Y-116686004D01*
X143177383Y-116718713D01*
X139554012Y-116718713D01*
X139593351Y-116679443D01*
X139827533Y-116115470D01*
X139828065Y-115504809D01*
X139594868Y-114940429D01*
X139163443Y-114508249D01*
X138599470Y-114274067D01*
X137988809Y-114273535D01*
X137424429Y-114506732D01*
X136992249Y-114938157D01*
X136758067Y-115502130D01*
X136757535Y-116112791D01*
X136990732Y-116677171D01*
X137032201Y-116718713D01*
X134256411Y-116718713D01*
X134252297Y-116503413D01*
X133958539Y-115794218D01*
X133639770Y-115634435D01*
X132555492Y-116718713D01*
X132196282Y-116718713D01*
X133460165Y-115454830D01*
X133300382Y-115136061D01*
X132678592Y-114892317D01*
X134000888Y-114892317D01*
X134068877Y-115133260D01*
X134587971Y-115318001D01*
X135138248Y-115290030D01*
X135516723Y-115133260D01*
X135584712Y-114892317D01*
X134792800Y-114100405D01*
X134000888Y-114892317D01*
X132678592Y-114892317D01*
X132509613Y-114826077D01*
X131660413Y-114842303D01*
X130951218Y-115136061D01*
X130791435Y-115454830D01*
X132055318Y-116718713D01*
X131696108Y-116718713D01*
X130611830Y-115634435D01*
X130293061Y-115794218D01*
X130189803Y-116057628D01*
X130185441Y-116053266D01*
X130147796Y-116028113D01*
X130117936Y-115994082D01*
X130037642Y-115954511D01*
X129963210Y-115904778D01*
X129918805Y-115895946D01*
X129886100Y-115879828D01*
X129886100Y-113715971D01*
X133395599Y-113715971D01*
X133423570Y-114266248D01*
X133580340Y-114644723D01*
X133821283Y-114712712D01*
X134613195Y-113920800D01*
X134972405Y-113920800D01*
X135764317Y-114712712D01*
X136005260Y-114644723D01*
X136190001Y-114125629D01*
X136162030Y-113575352D01*
X136005260Y-113196877D01*
X135764317Y-113128888D01*
X134972405Y-113920800D01*
X134613195Y-113920800D01*
X133821283Y-113128888D01*
X133580340Y-113196877D01*
X133395599Y-113715971D01*
X129886100Y-113715971D01*
X129886100Y-104927843D01*
X129919103Y-104911576D01*
X129963580Y-104902715D01*
X130037932Y-104853003D01*
X130118157Y-104813459D01*
X130148066Y-104779368D01*
X130185766Y-104754161D01*
X130208553Y-104731361D01*
X130293061Y-104935382D01*
X130611830Y-105095165D01*
X131618598Y-104088397D01*
X131977808Y-104088397D01*
X130791435Y-105274770D01*
G36*
X143193262Y-104121138D02*
X143202097Y-104165612D01*
X143251770Y-104239995D01*
X143291274Y-104320246D01*
X143325345Y-104350169D01*
X143350529Y-104387881D01*
X143716642Y-104754183D01*
X143754337Y-104779384D01*
X143784234Y-104813462D01*
X143864468Y-104853011D01*
X143938834Y-104902728D01*
X143983297Y-104911584D01*
X144023966Y-104931631D01*
X144524105Y-105065544D01*
X144569077Y-105068483D01*
X144611747Y-105082976D01*
X144701278Y-105077124D01*
X144790809Y-105082975D01*
X144833479Y-105068482D01*
X144878451Y-105065542D01*
X145378607Y-104931618D01*
X145419277Y-104911571D01*
X145463742Y-104902713D01*
X145538107Y-104852995D01*
X145618338Y-104813446D01*
X145648237Y-104779365D01*
X145685932Y-104754163D01*
X146052038Y-104387854D01*
X146077220Y-104350144D01*
X146111289Y-104320222D01*
X146150792Y-104239969D01*
X146200466Y-104165583D01*
X146209300Y-104121109D01*
X146225402Y-104088397D01*
X147392990Y-104088397D01*
X146827857Y-104321906D01*
X146367522Y-104781437D01*
X146118084Y-105382152D01*
X146117516Y-106032595D01*
X146365906Y-106633743D01*
X146389997Y-106657876D01*
X146319800Y-106694331D01*
X146319800Y-107901800D01*
X146339800Y-107901800D01*
X146339800Y-108155800D01*
X146319800Y-108155800D01*
X146319800Y-108175800D01*
X146065800Y-108175800D01*
X146065800Y-108155800D01*
X146045800Y-108155800D01*
X146045800Y-107901800D01*
X146065800Y-107901800D01*
X146065800Y-106694331D01*
X145833773Y-106573832D01*
X145617668Y-106675116D01*
X145482117Y-106347057D01*
X145219327Y-106083808D01*
X144875799Y-105941162D01*
X144503833Y-105940838D01*
X144160057Y-106082883D01*
X143896808Y-106345673D01*
X143809655Y-106555560D01*
X143682159Y-106530200D01*
X143623441Y-106530200D01*
X143049952Y-106644274D01*
X142563771Y-106969130D01*
X142362495Y-107270361D01*
X142385000Y-107157220D01*
X142385000Y-105215563D01*
X142417192Y-105183427D01*
X142559838Y-104839899D01*
X142560162Y-104467933D01*
X142418117Y-104124157D01*
X142382419Y-104088397D01*
X143177145Y-104088397D01*
X143193262Y-104121138D01*
X143193262Y-104121138D01*
G37*
X143193262Y-104121138D02*
X143202097Y-104165612D01*
X143251770Y-104239995D01*
X143291274Y-104320246D01*
X143325345Y-104350169D01*
X143350529Y-104387881D01*
X143716642Y-104754183D01*
X143754337Y-104779384D01*
X143784234Y-104813462D01*
X143864468Y-104853011D01*
X143938834Y-104902728D01*
X143983297Y-104911584D01*
X144023966Y-104931631D01*
X144524105Y-105065544D01*
X144569077Y-105068483D01*
X144611747Y-105082976D01*
X144701278Y-105077124D01*
X144790809Y-105082975D01*
X144833479Y-105068482D01*
X144878451Y-105065542D01*
X145378607Y-104931618D01*
X145419277Y-104911571D01*
X145463742Y-104902713D01*
X145538107Y-104852995D01*
X145618338Y-104813446D01*
X145648237Y-104779365D01*
X145685932Y-104754163D01*
X146052038Y-104387854D01*
X146077220Y-104350144D01*
X146111289Y-104320222D01*
X146150792Y-104239969D01*
X146200466Y-104165583D01*
X146209300Y-104121109D01*
X146225402Y-104088397D01*
X147392990Y-104088397D01*
X146827857Y-104321906D01*
X146367522Y-104781437D01*
X146118084Y-105382152D01*
X146117516Y-106032595D01*
X146365906Y-106633743D01*
X146389997Y-106657876D01*
X146319800Y-106694331D01*
X146319800Y-107901800D01*
X146339800Y-107901800D01*
X146339800Y-108155800D01*
X146319800Y-108155800D01*
X146319800Y-108175800D01*
X146065800Y-108175800D01*
X146065800Y-108155800D01*
X146045800Y-108155800D01*
X146045800Y-107901800D01*
X146065800Y-107901800D01*
X146065800Y-106694331D01*
X145833773Y-106573832D01*
X145617668Y-106675116D01*
X145482117Y-106347057D01*
X145219327Y-106083808D01*
X144875799Y-105941162D01*
X144503833Y-105940838D01*
X144160057Y-106082883D01*
X143896808Y-106345673D01*
X143809655Y-106555560D01*
X143682159Y-106530200D01*
X143623441Y-106530200D01*
X143049952Y-106644274D01*
X142563771Y-106969130D01*
X142362495Y-107270361D01*
X142385000Y-107157220D01*
X142385000Y-105215563D01*
X142417192Y-105183427D01*
X142559838Y-104839899D01*
X142560162Y-104467933D01*
X142418117Y-104124157D01*
X142382419Y-104088397D01*
X143177145Y-104088397D01*
X143193262Y-104121138D01*
M02*
