G04 #@! TF.GenerationSoftware,KiCad,Pcbnew,5.0.1-33cea8e~67~ubuntu18.04.1*
G04 #@! TF.CreationDate,2018-10-19T08:25:09+02:00*
G04 #@! TF.ProjectId,audio_interface,617564696F5F696E746572666163652E,rev?*
G04 #@! TF.SameCoordinates,Original*
G04 #@! TF.FileFunction,Legend,Bot*
G04 #@! TF.FilePolarity,Positive*
%FSLAX46Y46*%
G04 Gerber Fmt 4.6, Leading zero omitted, Abs format (unit mm)*
G04 Created by KiCad (PCBNEW 5.0.1-33cea8e~67~ubuntu18.04.1) date Fr 19 Okt 2018 08:25:09 CEST*
%MOMM*%
%LPD*%
G01*
G04 APERTURE LIST*
%ADD10C,0.200000*%
G04 APERTURE END LIST*
D10*
X169664285Y-112792857D02*
X169664285Y-111592857D01*
X168978571Y-112792857D02*
X169492857Y-112107142D01*
X168978571Y-111592857D02*
X169664285Y-112278571D01*
X167950000Y-112792857D02*
X167950000Y-112164285D01*
X168007142Y-112050000D01*
X168121428Y-111992857D01*
X168350000Y-111992857D01*
X168464285Y-112050000D01*
X167950000Y-112735714D02*
X168064285Y-112792857D01*
X168350000Y-112792857D01*
X168464285Y-112735714D01*
X168521428Y-112621428D01*
X168521428Y-112507142D01*
X168464285Y-112392857D01*
X168350000Y-112335714D01*
X168064285Y-112335714D01*
X167950000Y-112278571D01*
X167378571Y-112792857D02*
X167378571Y-111992857D01*
X167378571Y-111592857D02*
X167435714Y-111650000D01*
X167378571Y-111707142D01*
X167321428Y-111650000D01*
X167378571Y-111592857D01*
X167378571Y-111707142D01*
X165492857Y-112164285D02*
X165321428Y-112221428D01*
X165264285Y-112278571D01*
X165207142Y-112392857D01*
X165207142Y-112564285D01*
X165264285Y-112678571D01*
X165321428Y-112735714D01*
X165435714Y-112792857D01*
X165892857Y-112792857D01*
X165892857Y-111592857D01*
X165492857Y-111592857D01*
X165378571Y-111650000D01*
X165321428Y-111707142D01*
X165264285Y-111821428D01*
X165264285Y-111935714D01*
X165321428Y-112050000D01*
X165378571Y-112107142D01*
X165492857Y-112164285D01*
X165892857Y-112164285D01*
X164178571Y-112792857D02*
X164178571Y-112164285D01*
X164235714Y-112050000D01*
X164350000Y-111992857D01*
X164578571Y-111992857D01*
X164692857Y-112050000D01*
X164178571Y-112735714D02*
X164292857Y-112792857D01*
X164578571Y-112792857D01*
X164692857Y-112735714D01*
X164750000Y-112621428D01*
X164750000Y-112507142D01*
X164692857Y-112392857D01*
X164578571Y-112335714D01*
X164292857Y-112335714D01*
X164178571Y-112278571D01*
X163092857Y-112792857D02*
X163092857Y-111592857D01*
X163092857Y-112735714D02*
X163207142Y-112792857D01*
X163435714Y-112792857D01*
X163550000Y-112735714D01*
X163607142Y-112678571D01*
X163664285Y-112564285D01*
X163664285Y-112221428D01*
X163607142Y-112107142D01*
X163550000Y-112050000D01*
X163435714Y-111992857D01*
X163207142Y-111992857D01*
X163092857Y-112050000D01*
X162064285Y-112735714D02*
X162178571Y-112792857D01*
X162407142Y-112792857D01*
X162521428Y-112735714D01*
X162578571Y-112621428D01*
X162578571Y-112164285D01*
X162521428Y-112050000D01*
X162407142Y-111992857D01*
X162178571Y-111992857D01*
X162064285Y-112050000D01*
X162007142Y-112164285D01*
X162007142Y-112278571D01*
X162578571Y-112392857D01*
X161492857Y-112792857D02*
X161492857Y-111992857D01*
X161492857Y-112221428D02*
X161435714Y-112107142D01*
X161378571Y-112050000D01*
X161264285Y-111992857D01*
X161150000Y-111992857D01*
X159892857Y-111707142D02*
X159835714Y-111650000D01*
X159721428Y-111592857D01*
X159435714Y-111592857D01*
X159321428Y-111650000D01*
X159264285Y-111707142D01*
X159207142Y-111821428D01*
X159207142Y-111935714D01*
X159264285Y-112107142D01*
X159950000Y-112792857D01*
X159207142Y-112792857D01*
X158464285Y-111592857D02*
X158350000Y-111592857D01*
X158235714Y-111650000D01*
X158178571Y-111707142D01*
X158121428Y-111821428D01*
X158064285Y-112050000D01*
X158064285Y-112335714D01*
X158121428Y-112564285D01*
X158178571Y-112678571D01*
X158235714Y-112735714D01*
X158350000Y-112792857D01*
X158464285Y-112792857D01*
X158578571Y-112735714D01*
X158635714Y-112678571D01*
X158692857Y-112564285D01*
X158750000Y-112335714D01*
X158750000Y-112050000D01*
X158692857Y-111821428D01*
X158635714Y-111707142D01*
X158578571Y-111650000D01*
X158464285Y-111592857D01*
X156921428Y-112792857D02*
X157607142Y-112792857D01*
X157264285Y-112792857D02*
X157264285Y-111592857D01*
X157378571Y-111764285D01*
X157492857Y-111878571D01*
X157607142Y-111935714D01*
X156235714Y-112107142D02*
X156350000Y-112050000D01*
X156407142Y-111992857D01*
X156464285Y-111878571D01*
X156464285Y-111821428D01*
X156407142Y-111707142D01*
X156350000Y-111650000D01*
X156235714Y-111592857D01*
X156007142Y-111592857D01*
X155892857Y-111650000D01*
X155835714Y-111707142D01*
X155778571Y-111821428D01*
X155778571Y-111878571D01*
X155835714Y-111992857D01*
X155892857Y-112050000D01*
X156007142Y-112107142D01*
X156235714Y-112107142D01*
X156350000Y-112164285D01*
X156407142Y-112221428D01*
X156464285Y-112335714D01*
X156464285Y-112564285D01*
X156407142Y-112678571D01*
X156350000Y-112735714D01*
X156235714Y-112792857D01*
X156007142Y-112792857D01*
X155892857Y-112735714D01*
X155835714Y-112678571D01*
X155778571Y-112564285D01*
X155778571Y-112335714D01*
X155835714Y-112221428D01*
X155892857Y-112164285D01*
X156007142Y-112107142D01*
X169921428Y-113992857D02*
X169692857Y-114792857D01*
X169464285Y-114221428D01*
X169235714Y-114792857D01*
X169007142Y-113992857D01*
X168664285Y-113992857D02*
X168435714Y-114792857D01*
X168207142Y-114221428D01*
X167978571Y-114792857D01*
X167750000Y-113992857D01*
X167407142Y-113992857D02*
X167178571Y-114792857D01*
X166950000Y-114221428D01*
X166721428Y-114792857D01*
X166492857Y-113992857D01*
X166035714Y-114678571D02*
X165978571Y-114735714D01*
X166035714Y-114792857D01*
X166092857Y-114735714D01*
X166035714Y-114678571D01*
X166035714Y-114792857D01*
X165464285Y-114792857D02*
X165464285Y-113592857D01*
X165350000Y-114335714D02*
X165007142Y-114792857D01*
X165007142Y-113992857D02*
X165464285Y-114450000D01*
X163978571Y-114792857D02*
X163978571Y-114164285D01*
X164035714Y-114050000D01*
X164150000Y-113992857D01*
X164378571Y-113992857D01*
X164492857Y-114050000D01*
X163978571Y-114735714D02*
X164092857Y-114792857D01*
X164378571Y-114792857D01*
X164492857Y-114735714D01*
X164550000Y-114621428D01*
X164550000Y-114507142D01*
X164492857Y-114392857D01*
X164378571Y-114335714D01*
X164092857Y-114335714D01*
X163978571Y-114278571D01*
X163407142Y-114792857D02*
X163407142Y-113992857D01*
X163407142Y-113592857D02*
X163464285Y-113650000D01*
X163407142Y-113707142D01*
X163350000Y-113650000D01*
X163407142Y-113592857D01*
X163407142Y-113707142D01*
X162835714Y-114792857D02*
X162835714Y-113592857D01*
X162835714Y-114050000D02*
X162721428Y-113992857D01*
X162492857Y-113992857D01*
X162378571Y-114050000D01*
X162321428Y-114107142D01*
X162264285Y-114221428D01*
X162264285Y-114564285D01*
X162321428Y-114678571D01*
X162378571Y-114735714D01*
X162492857Y-114792857D01*
X162721428Y-114792857D01*
X162835714Y-114735714D01*
X161235714Y-114792857D02*
X161235714Y-114164285D01*
X161292857Y-114050000D01*
X161407142Y-113992857D01*
X161635714Y-113992857D01*
X161750000Y-114050000D01*
X161235714Y-114735714D02*
X161350000Y-114792857D01*
X161635714Y-114792857D01*
X161750000Y-114735714D01*
X161807142Y-114621428D01*
X161807142Y-114507142D01*
X161750000Y-114392857D01*
X161635714Y-114335714D01*
X161350000Y-114335714D01*
X161235714Y-114278571D01*
X160150000Y-114792857D02*
X160150000Y-113592857D01*
X160150000Y-114735714D02*
X160264285Y-114792857D01*
X160492857Y-114792857D01*
X160607142Y-114735714D01*
X160664285Y-114678571D01*
X160721428Y-114564285D01*
X160721428Y-114221428D01*
X160664285Y-114107142D01*
X160607142Y-114050000D01*
X160492857Y-113992857D01*
X160264285Y-113992857D01*
X160150000Y-114050000D01*
X159121428Y-114735714D02*
X159235714Y-114792857D01*
X159464285Y-114792857D01*
X159578571Y-114735714D01*
X159635714Y-114621428D01*
X159635714Y-114164285D01*
X159578571Y-114050000D01*
X159464285Y-113992857D01*
X159235714Y-113992857D01*
X159121428Y-114050000D01*
X159064285Y-114164285D01*
X159064285Y-114278571D01*
X159635714Y-114392857D01*
X158550000Y-114792857D02*
X158550000Y-113992857D01*
X158550000Y-114221428D02*
X158492857Y-114107142D01*
X158435714Y-114050000D01*
X158321428Y-113992857D01*
X158207142Y-113992857D01*
X157807142Y-114678571D02*
X157750000Y-114735714D01*
X157807142Y-114792857D01*
X157864285Y-114735714D01*
X157807142Y-114678571D01*
X157807142Y-114792857D01*
X156721428Y-114792857D02*
X156721428Y-113592857D01*
X156721428Y-114735714D02*
X156835714Y-114792857D01*
X157064285Y-114792857D01*
X157178571Y-114735714D01*
X157235714Y-114678571D01*
X157292857Y-114564285D01*
X157292857Y-114221428D01*
X157235714Y-114107142D01*
X157178571Y-114050000D01*
X157064285Y-113992857D01*
X156835714Y-113992857D01*
X156721428Y-114050000D01*
X155692857Y-114735714D02*
X155807142Y-114792857D01*
X156035714Y-114792857D01*
X156150000Y-114735714D01*
X156207142Y-114621428D01*
X156207142Y-114164285D01*
X156150000Y-114050000D01*
X156035714Y-113992857D01*
X155807142Y-113992857D01*
X155692857Y-114050000D01*
X155635714Y-114164285D01*
X155635714Y-114278571D01*
X156207142Y-114392857D01*
X168500000Y-119000000D02*
X156500000Y-119000000D01*
X160500000Y-117000000D02*
X160500000Y-121000000D01*
X164500000Y-117000000D02*
X164500000Y-121000000D01*
X168500000Y-121000000D02*
X168500000Y-117000000D01*
X156500000Y-121000000D02*
X168500000Y-121000000D01*
X156500000Y-117000000D02*
X156500000Y-121000000D01*
X168500000Y-117000000D02*
X156500000Y-117000000D01*
X158938095Y-120361904D02*
X159204761Y-119980952D01*
X159395238Y-120361904D02*
X159395238Y-119561904D01*
X159090476Y-119561904D01*
X159014285Y-119600000D01*
X158976190Y-119638095D01*
X158938095Y-119714285D01*
X158938095Y-119828571D01*
X158976190Y-119904761D01*
X159014285Y-119942857D01*
X159090476Y-119980952D01*
X159395238Y-119980952D01*
X158633333Y-120323809D02*
X158519047Y-120361904D01*
X158328571Y-120361904D01*
X158252380Y-120323809D01*
X158214285Y-120285714D01*
X158176190Y-120209523D01*
X158176190Y-120133333D01*
X158214285Y-120057142D01*
X158252380Y-120019047D01*
X158328571Y-119980952D01*
X158480952Y-119942857D01*
X158557142Y-119904761D01*
X158595238Y-119866666D01*
X158633333Y-119790476D01*
X158633333Y-119714285D01*
X158595238Y-119638095D01*
X158557142Y-119600000D01*
X158480952Y-119561904D01*
X158290476Y-119561904D01*
X158176190Y-119600000D01*
X157947619Y-119561904D02*
X157490476Y-119561904D01*
X157719047Y-120361904D02*
X157719047Y-119561904D01*
X163528571Y-120323809D02*
X163414285Y-120361904D01*
X163223809Y-120361904D01*
X163147619Y-120323809D01*
X163109523Y-120285714D01*
X163071428Y-120209523D01*
X163071428Y-120133333D01*
X163109523Y-120057142D01*
X163147619Y-120019047D01*
X163223809Y-119980952D01*
X163376190Y-119942857D01*
X163452380Y-119904761D01*
X163490476Y-119866666D01*
X163528571Y-119790476D01*
X163528571Y-119714285D01*
X163490476Y-119638095D01*
X163452380Y-119600000D01*
X163376190Y-119561904D01*
X163185714Y-119561904D01*
X163071428Y-119600000D01*
X162271428Y-120285714D02*
X162309523Y-120323809D01*
X162423809Y-120361904D01*
X162500000Y-120361904D01*
X162614285Y-120323809D01*
X162690476Y-120247619D01*
X162728571Y-120171428D01*
X162766666Y-120019047D01*
X162766666Y-119904761D01*
X162728571Y-119752380D01*
X162690476Y-119676190D01*
X162614285Y-119600000D01*
X162500000Y-119561904D01*
X162423809Y-119561904D01*
X162309523Y-119600000D01*
X162271428Y-119638095D01*
X161928571Y-120361904D02*
X161928571Y-119561904D01*
X161471428Y-120361904D02*
X161814285Y-119904761D01*
X161471428Y-119561904D02*
X161928571Y-120019047D01*
X167757142Y-120361904D02*
X167757142Y-119561904D01*
X167490476Y-120133333D01*
X167223809Y-119561904D01*
X167223809Y-120361904D01*
X166842857Y-120361904D02*
X166842857Y-119561904D01*
X166500000Y-120323809D02*
X166385714Y-120361904D01*
X166195238Y-120361904D01*
X166119047Y-120323809D01*
X166080952Y-120285714D01*
X166042857Y-120209523D01*
X166042857Y-120133333D01*
X166080952Y-120057142D01*
X166119047Y-120019047D01*
X166195238Y-119980952D01*
X166347619Y-119942857D01*
X166423809Y-119904761D01*
X166461904Y-119866666D01*
X166500000Y-119790476D01*
X166500000Y-119714285D01*
X166461904Y-119638095D01*
X166423809Y-119600000D01*
X166347619Y-119561904D01*
X166157142Y-119561904D01*
X166042857Y-119600000D01*
X165547619Y-119561904D02*
X165395238Y-119561904D01*
X165319047Y-119600000D01*
X165242857Y-119676190D01*
X165204761Y-119828571D01*
X165204761Y-120095238D01*
X165242857Y-120247619D01*
X165319047Y-120323809D01*
X165395238Y-120361904D01*
X165547619Y-120361904D01*
X165623809Y-120323809D01*
X165700000Y-120247619D01*
X165738095Y-120095238D01*
X165738095Y-119828571D01*
X165700000Y-119676190D01*
X165623809Y-119600000D01*
X165547619Y-119561904D01*
X159109523Y-117600000D02*
X159185714Y-117561904D01*
X159300000Y-117561904D01*
X159414285Y-117600000D01*
X159490476Y-117676190D01*
X159528571Y-117752380D01*
X159566666Y-117904761D01*
X159566666Y-118019047D01*
X159528571Y-118171428D01*
X159490476Y-118247619D01*
X159414285Y-118323809D01*
X159300000Y-118361904D01*
X159223809Y-118361904D01*
X159109523Y-118323809D01*
X159071428Y-118285714D01*
X159071428Y-118019047D01*
X159223809Y-118019047D01*
X158728571Y-118361904D02*
X158728571Y-117561904D01*
X158271428Y-118361904D01*
X158271428Y-117561904D01*
X157890476Y-118361904D02*
X157890476Y-117561904D01*
X157700000Y-117561904D01*
X157585714Y-117600000D01*
X157509523Y-117676190D01*
X157471428Y-117752380D01*
X157433333Y-117904761D01*
X157433333Y-118019047D01*
X157471428Y-118171428D01*
X157509523Y-118247619D01*
X157585714Y-118323809D01*
X157700000Y-118361904D01*
X157890476Y-118361904D01*
X163757142Y-118361904D02*
X163757142Y-117561904D01*
X163490476Y-118133333D01*
X163223809Y-117561904D01*
X163223809Y-118361904D01*
X162690476Y-117561904D02*
X162538095Y-117561904D01*
X162461904Y-117600000D01*
X162385714Y-117676190D01*
X162347619Y-117828571D01*
X162347619Y-118095238D01*
X162385714Y-118247619D01*
X162461904Y-118323809D01*
X162538095Y-118361904D01*
X162690476Y-118361904D01*
X162766666Y-118323809D01*
X162842857Y-118247619D01*
X162880952Y-118095238D01*
X162880952Y-117828571D01*
X162842857Y-117676190D01*
X162766666Y-117600000D01*
X162690476Y-117561904D01*
X162042857Y-118323809D02*
X161928571Y-118361904D01*
X161738095Y-118361904D01*
X161661904Y-118323809D01*
X161623809Y-118285714D01*
X161585714Y-118209523D01*
X161585714Y-118133333D01*
X161623809Y-118057142D01*
X161661904Y-118019047D01*
X161738095Y-117980952D01*
X161890476Y-117942857D01*
X161966666Y-117904761D01*
X162004761Y-117866666D01*
X162042857Y-117790476D01*
X162042857Y-117714285D01*
X162004761Y-117638095D01*
X161966666Y-117600000D01*
X161890476Y-117561904D01*
X161700000Y-117561904D01*
X161585714Y-117600000D01*
X161242857Y-118361904D02*
X161242857Y-117561904D01*
X167966666Y-117561904D02*
X167700000Y-118361904D01*
X167433333Y-117561904D01*
X166900000Y-117942857D02*
X166785714Y-117980952D01*
X166747619Y-118019047D01*
X166709523Y-118095238D01*
X166709523Y-118209523D01*
X166747619Y-118285714D01*
X166785714Y-118323809D01*
X166861904Y-118361904D01*
X167166666Y-118361904D01*
X167166666Y-117561904D01*
X166900000Y-117561904D01*
X166823809Y-117600000D01*
X166785714Y-117638095D01*
X166747619Y-117714285D01*
X166747619Y-117790476D01*
X166785714Y-117866666D01*
X166823809Y-117904761D01*
X166900000Y-117942857D01*
X167166666Y-117942857D01*
X166366666Y-117561904D02*
X166366666Y-118209523D01*
X166328571Y-118285714D01*
X166290476Y-118323809D01*
X166214285Y-118361904D01*
X166061904Y-118361904D01*
X165985714Y-118323809D01*
X165947619Y-118285714D01*
X165909523Y-118209523D01*
X165909523Y-117561904D01*
X165566666Y-118323809D02*
X165452380Y-118361904D01*
X165261904Y-118361904D01*
X165185714Y-118323809D01*
X165147619Y-118285714D01*
X165109523Y-118209523D01*
X165109523Y-118133333D01*
X165147619Y-118057142D01*
X165185714Y-118019047D01*
X165261904Y-117980952D01*
X165414285Y-117942857D01*
X165490476Y-117904761D01*
X165528571Y-117866666D01*
X165566666Y-117790476D01*
X165566666Y-117714285D01*
X165528571Y-117638095D01*
X165490476Y-117600000D01*
X165414285Y-117561904D01*
X165223809Y-117561904D01*
X165109523Y-117600000D01*
X179942857Y-123542857D02*
X179942857Y-122342857D01*
X179542857Y-123200000D01*
X179142857Y-122342857D01*
X179142857Y-123542857D01*
X178571428Y-123542857D02*
X178571428Y-122342857D01*
X177314285Y-123428571D02*
X177371428Y-123485714D01*
X177542857Y-123542857D01*
X177657142Y-123542857D01*
X177828571Y-123485714D01*
X177942857Y-123371428D01*
X178000000Y-123257142D01*
X178057142Y-123028571D01*
X178057142Y-122857142D01*
X178000000Y-122628571D01*
X177942857Y-122514285D01*
X177828571Y-122400000D01*
X177657142Y-122342857D01*
X177542857Y-122342857D01*
X177371428Y-122400000D01*
X177314285Y-122457142D01*
X176800000Y-123085714D02*
X175885714Y-123085714D01*
X175314285Y-123542857D02*
X175314285Y-122342857D01*
X174742857Y-123542857D02*
X174742857Y-122342857D01*
X174057142Y-123542857D01*
X174057142Y-122342857D01*
X180542857Y-114042857D02*
X181114285Y-114042857D01*
X181114285Y-112842857D01*
X180142857Y-114042857D02*
X180142857Y-112842857D01*
X179571428Y-114042857D02*
X179571428Y-112842857D01*
X178885714Y-114042857D01*
X178885714Y-112842857D01*
X178314285Y-113414285D02*
X177914285Y-113414285D01*
X177742857Y-114042857D02*
X178314285Y-114042857D01*
X178314285Y-112842857D01*
X177742857Y-112842857D01*
X177228571Y-113585714D02*
X176314285Y-113585714D01*
X175514285Y-112842857D02*
X175285714Y-112842857D01*
X175171428Y-112900000D01*
X175057142Y-113014285D01*
X175000000Y-113242857D01*
X175000000Y-113642857D01*
X175057142Y-113871428D01*
X175171428Y-113985714D01*
X175285714Y-114042857D01*
X175514285Y-114042857D01*
X175628571Y-113985714D01*
X175742857Y-113871428D01*
X175800000Y-113642857D01*
X175800000Y-113242857D01*
X175742857Y-113014285D01*
X175628571Y-112900000D01*
X175514285Y-112842857D01*
X174485714Y-112842857D02*
X174485714Y-113814285D01*
X174428571Y-113928571D01*
X174371428Y-113985714D01*
X174257142Y-114042857D01*
X174028571Y-114042857D01*
X173914285Y-113985714D01*
X173857142Y-113928571D01*
X173800000Y-113814285D01*
X173800000Y-112842857D01*
X173400000Y-112842857D02*
X172714285Y-112842857D01*
X173057142Y-114042857D02*
X173057142Y-112842857D01*
M02*
