G04 #@! TF.GenerationSoftware,KiCad,Pcbnew,5.0.1-33cea8e~67~ubuntu18.04.1*
G04 #@! TF.CreationDate,2018-10-19T08:25:09+02:00*
G04 #@! TF.ProjectId,audio_interface,617564696F5F696E746572666163652E,rev?*
G04 #@! TF.SameCoordinates,Original*
G04 #@! TF.FileFunction,Copper,L2,Bot,Signal*
G04 #@! TF.FilePolarity,Positive*
%FSLAX46Y46*%
G04 Gerber Fmt 4.6, Leading zero omitted, Abs format (unit mm)*
G04 Created by KiCad (PCBNEW 5.0.1-33cea8e~67~ubuntu18.04.1) date Fr 19 Okt 2018 08:25:09 CEST*
%MOMM*%
%LPD*%
G01*
G04 APERTURE LIST*
G04 #@! TA.AperFunction,SMDPad,CuDef*
%ADD10R,1.727200X1.727200*%
G04 #@! TD*
G04 #@! TA.AperFunction,SMDPad,CuDef*
%ADD11O,1.727200X1.727200*%
G04 #@! TD*
G04 #@! TA.AperFunction,ComponentPad*
%ADD12O,2.000000X1.400000*%
G04 #@! TD*
G04 #@! TA.AperFunction,ComponentPad*
%ADD13O,3.500000X1.900000*%
G04 #@! TD*
G04 #@! TA.AperFunction,ViaPad*
%ADD14C,0.800000*%
G04 #@! TD*
G04 #@! TA.AperFunction,Conductor*
%ADD15C,0.350000*%
G04 #@! TD*
G04 #@! TA.AperFunction,Conductor*
%ADD16C,0.250000*%
G04 #@! TD*
G04 #@! TA.AperFunction,Conductor*
%ADD17C,0.254000*%
G04 #@! TD*
G04 APERTURE END LIST*
D10*
G04 #@! TO.P,J2,1*
G04 #@! TO.N,/MISO*
X165290000Y-124790000D03*
D11*
G04 #@! TO.P,J2,2*
G04 #@! TO.N,VBUS*
X165290000Y-122250000D03*
G04 #@! TO.P,J2,3*
G04 #@! TO.N,/SCK*
X162750000Y-124790000D03*
G04 #@! TO.P,J2,4*
G04 #@! TO.N,/MOSI*
X162750000Y-122250000D03*
G04 #@! TO.P,J2,5*
G04 #@! TO.N,/~RESET*
X160210000Y-124790000D03*
G04 #@! TO.P,J2,6*
G04 #@! TO.N,GND*
X160210000Y-122250000D03*
G04 #@! TD*
D12*
G04 #@! TO.P,J3,T*
G04 #@! TO.N,Net-(C5-Pad1)*
X180500000Y-110800000D03*
X180500000Y-116500000D03*
G04 #@! TO.P,J3,S*
G04 #@! TO.N,GND*
X173000000Y-111350000D03*
G04 #@! TO.P,J3,R*
X173000000Y-115950000D03*
G04 #@! TD*
G04 #@! TO.P,J4,R*
G04 #@! TO.N,GND*
X173000000Y-125150000D03*
G04 #@! TO.P,J4,S*
X173000000Y-120550000D03*
G04 #@! TO.P,J4,T*
G04 #@! TO.N,Net-(C3-Pad2)*
X180500000Y-125700000D03*
X180500000Y-120000000D03*
G04 #@! TD*
D13*
G04 #@! TO.P,J1,5*
G04 #@! TO.N,GND*
X153100000Y-123950000D03*
X153100000Y-112550000D03*
G04 #@! TD*
D14*
G04 #@! TO.N,GND*
X162800000Y-118500000D03*
X172000000Y-118100000D03*
X161235545Y-123520000D03*
X159300000Y-113100000D03*
X171600000Y-113500000D03*
X166400000Y-114000000D03*
X182500000Y-113500000D03*
X182500000Y-122500000D03*
X151500000Y-118000000D03*
X151500000Y-114500000D03*
X151500000Y-122000000D03*
G04 #@! TO.N,VBUS*
X171856900Y-122801100D03*
X158712600Y-118647500D03*
X166235100Y-119027400D03*
X161587500Y-114487100D03*
G04 #@! TO.N,Net-(J1-Pad3)*
X161912100Y-112182700D03*
X158661400Y-116811000D03*
G04 #@! TO.N,/MISO*
X166839500Y-121204500D03*
G04 #@! TO.N,/SCK*
X159063100Y-121070500D03*
G04 #@! TO.N,/MOSI*
X166805300Y-124145300D03*
G04 #@! TO.N,/~RESET*
X166384100Y-116652500D03*
G04 #@! TD*
D15*
G04 #@! TO.N,GND*
X160210000Y-122250000D02*
X160210000Y-122494455D01*
X160210000Y-122494455D02*
X161235545Y-123520000D01*
G04 #@! TO.N,VBUS*
X158712600Y-118647500D02*
X161587500Y-115772600D01*
X161587500Y-115772600D02*
X161587500Y-114487100D01*
X167159200Y-118103300D02*
X166235100Y-119027400D01*
X161587500Y-114487100D02*
X165320100Y-114487100D01*
X165320100Y-114487100D02*
X167180100Y-116347100D01*
X167180100Y-116347100D02*
X167180100Y-118082400D01*
X167180100Y-118082400D02*
X167159200Y-118103300D01*
X171856900Y-122801100D02*
X167159200Y-118103300D01*
X166235100Y-119027400D02*
X165290000Y-119972500D01*
X165290000Y-119972500D02*
X165290000Y-122250000D01*
D16*
G04 #@! TO.N,Net-(C3-Pad2)*
X180500000Y-120000000D02*
X180500000Y-125700000D01*
G04 #@! TO.N,Net-(C5-Pad1)*
X180500000Y-116500000D02*
X180500000Y-110800000D01*
G04 #@! TO.N,Net-(J1-Pad3)*
X158661400Y-116811000D02*
X158661400Y-115433400D01*
X158661400Y-115433400D02*
X161912100Y-112182700D01*
G04 #@! TO.N,/MISO*
X165290000Y-124790000D02*
X165290000Y-123601100D01*
X166839500Y-121204500D02*
X166839500Y-122423100D01*
X166839500Y-122423100D02*
X165661500Y-123601100D01*
X165661500Y-123601100D02*
X165290000Y-123601100D01*
G04 #@! TO.N,/SCK*
X162750000Y-124790000D02*
X161561100Y-124790000D01*
X159063100Y-121070500D02*
X158980100Y-121153500D01*
X158980100Y-121153500D02*
X158980100Y-125299600D01*
X158980100Y-125299600D02*
X159659400Y-125978900D01*
X159659400Y-125978900D02*
X160743800Y-125978900D01*
X160743800Y-125978900D02*
X161561100Y-125161600D01*
X161561100Y-125161600D02*
X161561100Y-124790000D01*
G04 #@! TO.N,/MOSI*
X162750000Y-122250000D02*
X162750000Y-123438900D01*
X166805300Y-124145300D02*
X166805300Y-125520600D01*
X166805300Y-125520600D02*
X166346900Y-125979000D01*
X166346900Y-125979000D02*
X164251100Y-125979000D01*
X164251100Y-125979000D02*
X163938900Y-125666800D01*
X163938900Y-125666800D02*
X163938900Y-124256200D01*
X163938900Y-124256200D02*
X163121600Y-123438900D01*
X163121600Y-123438900D02*
X162750000Y-123438900D01*
G04 #@! TO.N,/~RESET*
X162025002Y-123755868D02*
X161455868Y-124325002D01*
X162025002Y-123284132D02*
X162025002Y-123755868D01*
X161455868Y-124325002D02*
X160674998Y-124325002D01*
X161561399Y-122820529D02*
X162025002Y-123284132D01*
X161561399Y-121475201D02*
X161561399Y-122820529D01*
X166384100Y-116652500D02*
X161561399Y-121475201D01*
X160674998Y-124325002D02*
X160210000Y-124790000D01*
G04 #@! TD*
D17*
G04 #@! TO.N,GND*
G36*
X171418020Y-110956450D02*
X171407284Y-111016671D01*
X171530626Y-111223000D01*
X172873000Y-111223000D01*
X172873000Y-111203000D01*
X173127000Y-111203000D01*
X173127000Y-111223000D01*
X174469374Y-111223000D01*
X174592716Y-111016671D01*
X174581980Y-110956450D01*
X174462663Y-110735000D01*
X175835144Y-110735000D01*
X175765000Y-110904343D01*
X175765000Y-111395657D01*
X175953018Y-111849571D01*
X176300429Y-112196982D01*
X176754343Y-112385000D01*
X177245657Y-112385000D01*
X177699571Y-112196982D01*
X178046982Y-111849571D01*
X178235000Y-111395657D01*
X178235000Y-110904343D01*
X178164856Y-110735000D01*
X178851775Y-110735000D01*
X178838846Y-110800000D01*
X178942458Y-111320891D01*
X179237519Y-111762481D01*
X179679109Y-112057542D01*
X179740001Y-112069654D01*
X179740000Y-115230346D01*
X179679109Y-115242458D01*
X179237519Y-115537519D01*
X178942458Y-115979109D01*
X178838846Y-116500000D01*
X178942458Y-117020891D01*
X179237519Y-117462481D01*
X179679109Y-117757542D01*
X180068515Y-117835000D01*
X180931485Y-117835000D01*
X181320891Y-117757542D01*
X181762481Y-117462481D01*
X182057542Y-117020891D01*
X182161154Y-116500000D01*
X182057542Y-115979109D01*
X181762481Y-115537519D01*
X181320891Y-115242458D01*
X181260000Y-115230346D01*
X181260000Y-112069654D01*
X181320891Y-112057542D01*
X181762481Y-111762481D01*
X182057542Y-111320891D01*
X182161154Y-110800000D01*
X182148225Y-110735000D01*
X183265000Y-110735000D01*
X183265001Y-125765000D01*
X182148225Y-125765000D01*
X182161154Y-125700000D01*
X182057542Y-125179109D01*
X181762481Y-124737519D01*
X181320891Y-124442458D01*
X181260000Y-124430346D01*
X181260000Y-121269654D01*
X181320891Y-121257542D01*
X181762481Y-120962481D01*
X182057542Y-120520891D01*
X182161154Y-120000000D01*
X182057542Y-119479109D01*
X181762481Y-119037519D01*
X181320891Y-118742458D01*
X180931485Y-118665000D01*
X180068515Y-118665000D01*
X179679109Y-118742458D01*
X179237519Y-119037519D01*
X178942458Y-119479109D01*
X178838846Y-120000000D01*
X178942458Y-120520891D01*
X179237519Y-120962481D01*
X179679109Y-121257542D01*
X179740000Y-121269654D01*
X179740001Y-124430346D01*
X179679109Y-124442458D01*
X179237519Y-124737519D01*
X178942458Y-125179109D01*
X178838846Y-125700000D01*
X178851775Y-125765000D01*
X178164856Y-125765000D01*
X178235000Y-125595657D01*
X178235000Y-125104343D01*
X178046982Y-124650429D01*
X177699571Y-124303018D01*
X177245657Y-124115000D01*
X176754343Y-124115000D01*
X176300429Y-124303018D01*
X175953018Y-124650429D01*
X175765000Y-125104343D01*
X175765000Y-125595657D01*
X175835144Y-125765000D01*
X174462663Y-125765000D01*
X174581980Y-125543550D01*
X174592716Y-125483329D01*
X174469374Y-125277000D01*
X173127000Y-125277000D01*
X173127000Y-125297000D01*
X172873000Y-125297000D01*
X172873000Y-125277000D01*
X171530626Y-125277000D01*
X171407284Y-125483329D01*
X171418020Y-125543550D01*
X171537337Y-125765000D01*
X167531575Y-125765000D01*
X167565300Y-125595452D01*
X167565300Y-125595448D01*
X167580188Y-125520601D01*
X167565300Y-125445754D01*
X167565300Y-124849011D01*
X167597640Y-124816671D01*
X171407284Y-124816671D01*
X171530626Y-125023000D01*
X172873000Y-125023000D01*
X172873000Y-123815000D01*
X173127000Y-123815000D01*
X173127000Y-125023000D01*
X174469374Y-125023000D01*
X174592716Y-124816671D01*
X174581980Y-124756450D01*
X174333790Y-124295815D01*
X173928215Y-123965222D01*
X173427000Y-123815000D01*
X173127000Y-123815000D01*
X172873000Y-123815000D01*
X172573000Y-123815000D01*
X172071785Y-123965222D01*
X171666210Y-124295815D01*
X171418020Y-124756450D01*
X171407284Y-124816671D01*
X167597640Y-124816671D01*
X167682731Y-124731580D01*
X167840300Y-124351174D01*
X167840300Y-123939426D01*
X167682731Y-123559020D01*
X167391580Y-123267869D01*
X167163858Y-123173544D01*
X167323973Y-123013429D01*
X167387429Y-122971029D01*
X167555404Y-122719637D01*
X167599500Y-122497952D01*
X167599500Y-122497948D01*
X167614388Y-122423100D01*
X167599500Y-122348252D01*
X167599500Y-121908211D01*
X167716931Y-121790780D01*
X167874500Y-121410374D01*
X167874500Y-120998626D01*
X167716931Y-120618220D01*
X167425780Y-120327069D01*
X167045374Y-120169500D01*
X166633626Y-120169500D01*
X166253220Y-120327069D01*
X166100000Y-120480289D01*
X166100000Y-120308012D01*
X166345613Y-120062400D01*
X166440974Y-120062400D01*
X166821380Y-119904831D01*
X167112531Y-119613680D01*
X167233063Y-119322689D01*
X170821900Y-122911603D01*
X170821900Y-123006974D01*
X170979469Y-123387380D01*
X171270620Y-123678531D01*
X171651026Y-123836100D01*
X172062774Y-123836100D01*
X172443180Y-123678531D01*
X172734331Y-123387380D01*
X172891900Y-123006974D01*
X172891900Y-122595226D01*
X172734331Y-122214820D01*
X172443180Y-121923669D01*
X172062774Y-121766100D01*
X171967422Y-121766100D01*
X171084670Y-120883329D01*
X171407284Y-120883329D01*
X171418020Y-120943550D01*
X171666210Y-121404185D01*
X172071785Y-121734778D01*
X172573000Y-121885000D01*
X172873000Y-121885000D01*
X172873000Y-120677000D01*
X173127000Y-120677000D01*
X173127000Y-121885000D01*
X173427000Y-121885000D01*
X173928215Y-121734778D01*
X174333790Y-121404185D01*
X174581980Y-120943550D01*
X174592716Y-120883329D01*
X174469374Y-120677000D01*
X173127000Y-120677000D01*
X172873000Y-120677000D01*
X171530626Y-120677000D01*
X171407284Y-120883329D01*
X171084670Y-120883329D01*
X170418027Y-120216671D01*
X171407284Y-120216671D01*
X171530626Y-120423000D01*
X172873000Y-120423000D01*
X172873000Y-119215000D01*
X173127000Y-119215000D01*
X173127000Y-120423000D01*
X174469374Y-120423000D01*
X174592716Y-120216671D01*
X174581980Y-120156450D01*
X174553905Y-120104343D01*
X175765000Y-120104343D01*
X175765000Y-120595657D01*
X175953018Y-121049571D01*
X176300429Y-121396982D01*
X176754343Y-121585000D01*
X177245657Y-121585000D01*
X177699571Y-121396982D01*
X178046982Y-121049571D01*
X178235000Y-120595657D01*
X178235000Y-120104343D01*
X178046982Y-119650429D01*
X177699571Y-119303018D01*
X177245657Y-119115000D01*
X176754343Y-119115000D01*
X176300429Y-119303018D01*
X175953018Y-119650429D01*
X175765000Y-120104343D01*
X174553905Y-120104343D01*
X174333790Y-119695815D01*
X173928215Y-119365222D01*
X173427000Y-119215000D01*
X173127000Y-119215000D01*
X172873000Y-119215000D01*
X172573000Y-119215000D01*
X172071785Y-119365222D01*
X171666210Y-119695815D01*
X171418020Y-120156450D01*
X171407284Y-120216671D01*
X170418027Y-120216671D01*
X167990100Y-117788694D01*
X167990100Y-116426872D01*
X168005968Y-116347099D01*
X167993284Y-116283329D01*
X171407284Y-116283329D01*
X171418020Y-116343550D01*
X171666210Y-116804185D01*
X172071785Y-117134778D01*
X172573000Y-117285000D01*
X172873000Y-117285000D01*
X172873000Y-116077000D01*
X173127000Y-116077000D01*
X173127000Y-117285000D01*
X173427000Y-117285000D01*
X173928215Y-117134778D01*
X174333790Y-116804185D01*
X174581980Y-116343550D01*
X174592716Y-116283329D01*
X174469374Y-116077000D01*
X173127000Y-116077000D01*
X172873000Y-116077000D01*
X171530626Y-116077000D01*
X171407284Y-116283329D01*
X167993284Y-116283329D01*
X167957726Y-116104571D01*
X167943103Y-116031054D01*
X167858438Y-115904343D01*
X175765000Y-115904343D01*
X175765000Y-116395657D01*
X175953018Y-116849571D01*
X176300429Y-117196982D01*
X176754343Y-117385000D01*
X177245657Y-117385000D01*
X177699571Y-117196982D01*
X178046982Y-116849571D01*
X178235000Y-116395657D01*
X178235000Y-115904343D01*
X178046982Y-115450429D01*
X177699571Y-115103018D01*
X177245657Y-114915000D01*
X176754343Y-114915000D01*
X176300429Y-115103018D01*
X175953018Y-115450429D01*
X175765000Y-115904343D01*
X167858438Y-115904343D01*
X167764077Y-115763123D01*
X167696447Y-115717934D01*
X167595184Y-115616671D01*
X171407284Y-115616671D01*
X171530626Y-115823000D01*
X172873000Y-115823000D01*
X172873000Y-114615000D01*
X173127000Y-114615000D01*
X173127000Y-115823000D01*
X174469374Y-115823000D01*
X174592716Y-115616671D01*
X174581980Y-115556450D01*
X174333790Y-115095815D01*
X173928215Y-114765222D01*
X173427000Y-114615000D01*
X173127000Y-114615000D01*
X172873000Y-114615000D01*
X172573000Y-114615000D01*
X172071785Y-114765222D01*
X171666210Y-115095815D01*
X171418020Y-115556450D01*
X171407284Y-115616671D01*
X167595184Y-115616671D01*
X165949268Y-113970756D01*
X165904077Y-113903123D01*
X165636146Y-113724097D01*
X165399874Y-113677100D01*
X165399873Y-113677100D01*
X165320100Y-113661232D01*
X165240327Y-113677100D01*
X162241211Y-113677100D01*
X162173780Y-113609669D01*
X161793374Y-113452100D01*
X161717502Y-113452100D01*
X161951902Y-113217700D01*
X162117974Y-113217700D01*
X162498380Y-113060131D01*
X162789531Y-112768980D01*
X162947100Y-112388574D01*
X162947100Y-111976826D01*
X162825530Y-111683329D01*
X171407284Y-111683329D01*
X171418020Y-111743550D01*
X171666210Y-112204185D01*
X172071785Y-112534778D01*
X172573000Y-112685000D01*
X172873000Y-112685000D01*
X172873000Y-111477000D01*
X173127000Y-111477000D01*
X173127000Y-112685000D01*
X173427000Y-112685000D01*
X173928215Y-112534778D01*
X174333790Y-112204185D01*
X174581980Y-111743550D01*
X174592716Y-111683329D01*
X174469374Y-111477000D01*
X173127000Y-111477000D01*
X172873000Y-111477000D01*
X171530626Y-111477000D01*
X171407284Y-111683329D01*
X162825530Y-111683329D01*
X162789531Y-111596420D01*
X162498380Y-111305269D01*
X162117974Y-111147700D01*
X161706226Y-111147700D01*
X161325820Y-111305269D01*
X161034669Y-111596420D01*
X160877100Y-111976826D01*
X160877100Y-112142898D01*
X158176928Y-114843071D01*
X158113472Y-114885471D01*
X158071072Y-114948927D01*
X158071071Y-114948928D01*
X157945497Y-115136863D01*
X157886512Y-115433400D01*
X157901401Y-115508251D01*
X157901401Y-116107288D01*
X157783969Y-116224720D01*
X157626400Y-116605126D01*
X157626400Y-117016874D01*
X157783969Y-117397280D01*
X158075120Y-117688431D01*
X158199266Y-117739854D01*
X158126320Y-117770069D01*
X157835169Y-118061220D01*
X157677600Y-118441626D01*
X157677600Y-118853374D01*
X157835169Y-119233780D01*
X158126320Y-119524931D01*
X158506726Y-119682500D01*
X158918474Y-119682500D01*
X159298880Y-119524931D01*
X159590031Y-119233780D01*
X159747600Y-118853374D01*
X159747600Y-118758012D01*
X162103847Y-116401766D01*
X162171477Y-116356577D01*
X162285646Y-116185711D01*
X162350503Y-116088647D01*
X162413368Y-115772600D01*
X162397500Y-115692826D01*
X162397500Y-115297100D01*
X164984588Y-115297100D01*
X165630188Y-115942701D01*
X165506669Y-116066220D01*
X165349100Y-116446626D01*
X165349100Y-116612698D01*
X161076929Y-120884870D01*
X161013470Y-120927272D01*
X160986046Y-120968315D01*
X160984947Y-120967312D01*
X160569026Y-120795042D01*
X160337000Y-120916183D01*
X160337000Y-122123000D01*
X160357000Y-122123000D01*
X160357000Y-122377000D01*
X160337000Y-122377000D01*
X160337000Y-122397000D01*
X160083000Y-122397000D01*
X160083000Y-122377000D01*
X160063000Y-122377000D01*
X160063000Y-122123000D01*
X160083000Y-122123000D01*
X160083000Y-121312829D01*
X160098100Y-121276374D01*
X160098100Y-120864626D01*
X159940531Y-120484220D01*
X159649380Y-120193069D01*
X159268974Y-120035500D01*
X158857226Y-120035500D01*
X158476820Y-120193069D01*
X158185669Y-120484220D01*
X158028100Y-120864626D01*
X158028100Y-121276374D01*
X158185669Y-121656780D01*
X158220100Y-121691211D01*
X158220101Y-125224748D01*
X158205212Y-125299600D01*
X158220101Y-125374452D01*
X158249172Y-125520601D01*
X158264197Y-125596137D01*
X158377028Y-125765000D01*
X150735000Y-125765000D01*
X150735000Y-124077002D01*
X150879415Y-124077002D01*
X150759414Y-124322588D01*
X150787050Y-124439220D01*
X151089433Y-124980961D01*
X151576114Y-125365748D01*
X152173000Y-125535000D01*
X152973000Y-125535000D01*
X152973000Y-124077000D01*
X153227000Y-124077000D01*
X153227000Y-125535000D01*
X154027000Y-125535000D01*
X154623886Y-125365748D01*
X155110567Y-124980961D01*
X155412950Y-124439220D01*
X155440586Y-124322588D01*
X155320584Y-124077000D01*
X153227000Y-124077000D01*
X152973000Y-124077000D01*
X152953000Y-124077000D01*
X152953000Y-123823000D01*
X152973000Y-123823000D01*
X152973000Y-122365000D01*
X153227000Y-122365000D01*
X153227000Y-123823000D01*
X155320584Y-123823000D01*
X155440586Y-123577412D01*
X155412950Y-123460780D01*
X155110567Y-122919039D01*
X154623886Y-122534252D01*
X154027000Y-122365000D01*
X153227000Y-122365000D01*
X152973000Y-122365000D01*
X152173000Y-122365000D01*
X151576114Y-122534252D01*
X151089433Y-122919039D01*
X150787050Y-123460780D01*
X150759414Y-123577412D01*
X150879415Y-123822998D01*
X150735000Y-123822998D01*
X150735000Y-120314289D01*
X151915000Y-120314289D01*
X151915000Y-120785711D01*
X152095405Y-121221249D01*
X152428751Y-121554595D01*
X152864289Y-121735000D01*
X153335711Y-121735000D01*
X153771249Y-121554595D01*
X154104595Y-121221249D01*
X154285000Y-120785711D01*
X154285000Y-120314289D01*
X154104595Y-119878751D01*
X153771249Y-119545405D01*
X153335711Y-119365000D01*
X152864289Y-119365000D01*
X152428751Y-119545405D01*
X152095405Y-119878751D01*
X151915000Y-120314289D01*
X150735000Y-120314289D01*
X150735000Y-115714289D01*
X151915000Y-115714289D01*
X151915000Y-116185711D01*
X152095405Y-116621249D01*
X152428751Y-116954595D01*
X152864289Y-117135000D01*
X153335711Y-117135000D01*
X153771249Y-116954595D01*
X154104595Y-116621249D01*
X154285000Y-116185711D01*
X154285000Y-115714289D01*
X154104595Y-115278751D01*
X153771249Y-114945405D01*
X153335711Y-114765000D01*
X152864289Y-114765000D01*
X152428751Y-114945405D01*
X152095405Y-115278751D01*
X151915000Y-115714289D01*
X150735000Y-115714289D01*
X150735000Y-112677002D01*
X150879415Y-112677002D01*
X150759414Y-112922588D01*
X150787050Y-113039220D01*
X151089433Y-113580961D01*
X151576114Y-113965748D01*
X152173000Y-114135000D01*
X152973000Y-114135000D01*
X152973000Y-112677000D01*
X153227000Y-112677000D01*
X153227000Y-114135000D01*
X154027000Y-114135000D01*
X154623886Y-113965748D01*
X155110567Y-113580961D01*
X155412950Y-113039220D01*
X155440586Y-112922588D01*
X155320584Y-112677000D01*
X153227000Y-112677000D01*
X152973000Y-112677000D01*
X152953000Y-112677000D01*
X152953000Y-112423000D01*
X152973000Y-112423000D01*
X152973000Y-110965000D01*
X153227000Y-110965000D01*
X153227000Y-112423000D01*
X155320584Y-112423000D01*
X155440586Y-112177412D01*
X155412950Y-112060780D01*
X155110567Y-111519039D01*
X154623886Y-111134252D01*
X154027000Y-110965000D01*
X153227000Y-110965000D01*
X152973000Y-110965000D01*
X152173000Y-110965000D01*
X151576114Y-111134252D01*
X151089433Y-111519039D01*
X150787050Y-112060780D01*
X150759414Y-112177412D01*
X150879415Y-112422998D01*
X150735000Y-112422998D01*
X150735000Y-110735000D01*
X171537337Y-110735000D01*
X171418020Y-110956450D01*
X171418020Y-110956450D01*
G37*
X171418020Y-110956450D02*
X171407284Y-111016671D01*
X171530626Y-111223000D01*
X172873000Y-111223000D01*
X172873000Y-111203000D01*
X173127000Y-111203000D01*
X173127000Y-111223000D01*
X174469374Y-111223000D01*
X174592716Y-111016671D01*
X174581980Y-110956450D01*
X174462663Y-110735000D01*
X175835144Y-110735000D01*
X175765000Y-110904343D01*
X175765000Y-111395657D01*
X175953018Y-111849571D01*
X176300429Y-112196982D01*
X176754343Y-112385000D01*
X177245657Y-112385000D01*
X177699571Y-112196982D01*
X178046982Y-111849571D01*
X178235000Y-111395657D01*
X178235000Y-110904343D01*
X178164856Y-110735000D01*
X178851775Y-110735000D01*
X178838846Y-110800000D01*
X178942458Y-111320891D01*
X179237519Y-111762481D01*
X179679109Y-112057542D01*
X179740001Y-112069654D01*
X179740000Y-115230346D01*
X179679109Y-115242458D01*
X179237519Y-115537519D01*
X178942458Y-115979109D01*
X178838846Y-116500000D01*
X178942458Y-117020891D01*
X179237519Y-117462481D01*
X179679109Y-117757542D01*
X180068515Y-117835000D01*
X180931485Y-117835000D01*
X181320891Y-117757542D01*
X181762481Y-117462481D01*
X182057542Y-117020891D01*
X182161154Y-116500000D01*
X182057542Y-115979109D01*
X181762481Y-115537519D01*
X181320891Y-115242458D01*
X181260000Y-115230346D01*
X181260000Y-112069654D01*
X181320891Y-112057542D01*
X181762481Y-111762481D01*
X182057542Y-111320891D01*
X182161154Y-110800000D01*
X182148225Y-110735000D01*
X183265000Y-110735000D01*
X183265001Y-125765000D01*
X182148225Y-125765000D01*
X182161154Y-125700000D01*
X182057542Y-125179109D01*
X181762481Y-124737519D01*
X181320891Y-124442458D01*
X181260000Y-124430346D01*
X181260000Y-121269654D01*
X181320891Y-121257542D01*
X181762481Y-120962481D01*
X182057542Y-120520891D01*
X182161154Y-120000000D01*
X182057542Y-119479109D01*
X181762481Y-119037519D01*
X181320891Y-118742458D01*
X180931485Y-118665000D01*
X180068515Y-118665000D01*
X179679109Y-118742458D01*
X179237519Y-119037519D01*
X178942458Y-119479109D01*
X178838846Y-120000000D01*
X178942458Y-120520891D01*
X179237519Y-120962481D01*
X179679109Y-121257542D01*
X179740000Y-121269654D01*
X179740001Y-124430346D01*
X179679109Y-124442458D01*
X179237519Y-124737519D01*
X178942458Y-125179109D01*
X178838846Y-125700000D01*
X178851775Y-125765000D01*
X178164856Y-125765000D01*
X178235000Y-125595657D01*
X178235000Y-125104343D01*
X178046982Y-124650429D01*
X177699571Y-124303018D01*
X177245657Y-124115000D01*
X176754343Y-124115000D01*
X176300429Y-124303018D01*
X175953018Y-124650429D01*
X175765000Y-125104343D01*
X175765000Y-125595657D01*
X175835144Y-125765000D01*
X174462663Y-125765000D01*
X174581980Y-125543550D01*
X174592716Y-125483329D01*
X174469374Y-125277000D01*
X173127000Y-125277000D01*
X173127000Y-125297000D01*
X172873000Y-125297000D01*
X172873000Y-125277000D01*
X171530626Y-125277000D01*
X171407284Y-125483329D01*
X171418020Y-125543550D01*
X171537337Y-125765000D01*
X167531575Y-125765000D01*
X167565300Y-125595452D01*
X167565300Y-125595448D01*
X167580188Y-125520601D01*
X167565300Y-125445754D01*
X167565300Y-124849011D01*
X167597640Y-124816671D01*
X171407284Y-124816671D01*
X171530626Y-125023000D01*
X172873000Y-125023000D01*
X172873000Y-123815000D01*
X173127000Y-123815000D01*
X173127000Y-125023000D01*
X174469374Y-125023000D01*
X174592716Y-124816671D01*
X174581980Y-124756450D01*
X174333790Y-124295815D01*
X173928215Y-123965222D01*
X173427000Y-123815000D01*
X173127000Y-123815000D01*
X172873000Y-123815000D01*
X172573000Y-123815000D01*
X172071785Y-123965222D01*
X171666210Y-124295815D01*
X171418020Y-124756450D01*
X171407284Y-124816671D01*
X167597640Y-124816671D01*
X167682731Y-124731580D01*
X167840300Y-124351174D01*
X167840300Y-123939426D01*
X167682731Y-123559020D01*
X167391580Y-123267869D01*
X167163858Y-123173544D01*
X167323973Y-123013429D01*
X167387429Y-122971029D01*
X167555404Y-122719637D01*
X167599500Y-122497952D01*
X167599500Y-122497948D01*
X167614388Y-122423100D01*
X167599500Y-122348252D01*
X167599500Y-121908211D01*
X167716931Y-121790780D01*
X167874500Y-121410374D01*
X167874500Y-120998626D01*
X167716931Y-120618220D01*
X167425780Y-120327069D01*
X167045374Y-120169500D01*
X166633626Y-120169500D01*
X166253220Y-120327069D01*
X166100000Y-120480289D01*
X166100000Y-120308012D01*
X166345613Y-120062400D01*
X166440974Y-120062400D01*
X166821380Y-119904831D01*
X167112531Y-119613680D01*
X167233063Y-119322689D01*
X170821900Y-122911603D01*
X170821900Y-123006974D01*
X170979469Y-123387380D01*
X171270620Y-123678531D01*
X171651026Y-123836100D01*
X172062774Y-123836100D01*
X172443180Y-123678531D01*
X172734331Y-123387380D01*
X172891900Y-123006974D01*
X172891900Y-122595226D01*
X172734331Y-122214820D01*
X172443180Y-121923669D01*
X172062774Y-121766100D01*
X171967422Y-121766100D01*
X171084670Y-120883329D01*
X171407284Y-120883329D01*
X171418020Y-120943550D01*
X171666210Y-121404185D01*
X172071785Y-121734778D01*
X172573000Y-121885000D01*
X172873000Y-121885000D01*
X172873000Y-120677000D01*
X173127000Y-120677000D01*
X173127000Y-121885000D01*
X173427000Y-121885000D01*
X173928215Y-121734778D01*
X174333790Y-121404185D01*
X174581980Y-120943550D01*
X174592716Y-120883329D01*
X174469374Y-120677000D01*
X173127000Y-120677000D01*
X172873000Y-120677000D01*
X171530626Y-120677000D01*
X171407284Y-120883329D01*
X171084670Y-120883329D01*
X170418027Y-120216671D01*
X171407284Y-120216671D01*
X171530626Y-120423000D01*
X172873000Y-120423000D01*
X172873000Y-119215000D01*
X173127000Y-119215000D01*
X173127000Y-120423000D01*
X174469374Y-120423000D01*
X174592716Y-120216671D01*
X174581980Y-120156450D01*
X174553905Y-120104343D01*
X175765000Y-120104343D01*
X175765000Y-120595657D01*
X175953018Y-121049571D01*
X176300429Y-121396982D01*
X176754343Y-121585000D01*
X177245657Y-121585000D01*
X177699571Y-121396982D01*
X178046982Y-121049571D01*
X178235000Y-120595657D01*
X178235000Y-120104343D01*
X178046982Y-119650429D01*
X177699571Y-119303018D01*
X177245657Y-119115000D01*
X176754343Y-119115000D01*
X176300429Y-119303018D01*
X175953018Y-119650429D01*
X175765000Y-120104343D01*
X174553905Y-120104343D01*
X174333790Y-119695815D01*
X173928215Y-119365222D01*
X173427000Y-119215000D01*
X173127000Y-119215000D01*
X172873000Y-119215000D01*
X172573000Y-119215000D01*
X172071785Y-119365222D01*
X171666210Y-119695815D01*
X171418020Y-120156450D01*
X171407284Y-120216671D01*
X170418027Y-120216671D01*
X167990100Y-117788694D01*
X167990100Y-116426872D01*
X168005968Y-116347099D01*
X167993284Y-116283329D01*
X171407284Y-116283329D01*
X171418020Y-116343550D01*
X171666210Y-116804185D01*
X172071785Y-117134778D01*
X172573000Y-117285000D01*
X172873000Y-117285000D01*
X172873000Y-116077000D01*
X173127000Y-116077000D01*
X173127000Y-117285000D01*
X173427000Y-117285000D01*
X173928215Y-117134778D01*
X174333790Y-116804185D01*
X174581980Y-116343550D01*
X174592716Y-116283329D01*
X174469374Y-116077000D01*
X173127000Y-116077000D01*
X172873000Y-116077000D01*
X171530626Y-116077000D01*
X171407284Y-116283329D01*
X167993284Y-116283329D01*
X167957726Y-116104571D01*
X167943103Y-116031054D01*
X167858438Y-115904343D01*
X175765000Y-115904343D01*
X175765000Y-116395657D01*
X175953018Y-116849571D01*
X176300429Y-117196982D01*
X176754343Y-117385000D01*
X177245657Y-117385000D01*
X177699571Y-117196982D01*
X178046982Y-116849571D01*
X178235000Y-116395657D01*
X178235000Y-115904343D01*
X178046982Y-115450429D01*
X177699571Y-115103018D01*
X177245657Y-114915000D01*
X176754343Y-114915000D01*
X176300429Y-115103018D01*
X175953018Y-115450429D01*
X175765000Y-115904343D01*
X167858438Y-115904343D01*
X167764077Y-115763123D01*
X167696447Y-115717934D01*
X167595184Y-115616671D01*
X171407284Y-115616671D01*
X171530626Y-115823000D01*
X172873000Y-115823000D01*
X172873000Y-114615000D01*
X173127000Y-114615000D01*
X173127000Y-115823000D01*
X174469374Y-115823000D01*
X174592716Y-115616671D01*
X174581980Y-115556450D01*
X174333790Y-115095815D01*
X173928215Y-114765222D01*
X173427000Y-114615000D01*
X173127000Y-114615000D01*
X172873000Y-114615000D01*
X172573000Y-114615000D01*
X172071785Y-114765222D01*
X171666210Y-115095815D01*
X171418020Y-115556450D01*
X171407284Y-115616671D01*
X167595184Y-115616671D01*
X165949268Y-113970756D01*
X165904077Y-113903123D01*
X165636146Y-113724097D01*
X165399874Y-113677100D01*
X165399873Y-113677100D01*
X165320100Y-113661232D01*
X165240327Y-113677100D01*
X162241211Y-113677100D01*
X162173780Y-113609669D01*
X161793374Y-113452100D01*
X161717502Y-113452100D01*
X161951902Y-113217700D01*
X162117974Y-113217700D01*
X162498380Y-113060131D01*
X162789531Y-112768980D01*
X162947100Y-112388574D01*
X162947100Y-111976826D01*
X162825530Y-111683329D01*
X171407284Y-111683329D01*
X171418020Y-111743550D01*
X171666210Y-112204185D01*
X172071785Y-112534778D01*
X172573000Y-112685000D01*
X172873000Y-112685000D01*
X172873000Y-111477000D01*
X173127000Y-111477000D01*
X173127000Y-112685000D01*
X173427000Y-112685000D01*
X173928215Y-112534778D01*
X174333790Y-112204185D01*
X174581980Y-111743550D01*
X174592716Y-111683329D01*
X174469374Y-111477000D01*
X173127000Y-111477000D01*
X172873000Y-111477000D01*
X171530626Y-111477000D01*
X171407284Y-111683329D01*
X162825530Y-111683329D01*
X162789531Y-111596420D01*
X162498380Y-111305269D01*
X162117974Y-111147700D01*
X161706226Y-111147700D01*
X161325820Y-111305269D01*
X161034669Y-111596420D01*
X160877100Y-111976826D01*
X160877100Y-112142898D01*
X158176928Y-114843071D01*
X158113472Y-114885471D01*
X158071072Y-114948927D01*
X158071071Y-114948928D01*
X157945497Y-115136863D01*
X157886512Y-115433400D01*
X157901401Y-115508251D01*
X157901401Y-116107288D01*
X157783969Y-116224720D01*
X157626400Y-116605126D01*
X157626400Y-117016874D01*
X157783969Y-117397280D01*
X158075120Y-117688431D01*
X158199266Y-117739854D01*
X158126320Y-117770069D01*
X157835169Y-118061220D01*
X157677600Y-118441626D01*
X157677600Y-118853374D01*
X157835169Y-119233780D01*
X158126320Y-119524931D01*
X158506726Y-119682500D01*
X158918474Y-119682500D01*
X159298880Y-119524931D01*
X159590031Y-119233780D01*
X159747600Y-118853374D01*
X159747600Y-118758012D01*
X162103847Y-116401766D01*
X162171477Y-116356577D01*
X162285646Y-116185711D01*
X162350503Y-116088647D01*
X162413368Y-115772600D01*
X162397500Y-115692826D01*
X162397500Y-115297100D01*
X164984588Y-115297100D01*
X165630188Y-115942701D01*
X165506669Y-116066220D01*
X165349100Y-116446626D01*
X165349100Y-116612698D01*
X161076929Y-120884870D01*
X161013470Y-120927272D01*
X160986046Y-120968315D01*
X160984947Y-120967312D01*
X160569026Y-120795042D01*
X160337000Y-120916183D01*
X160337000Y-122123000D01*
X160357000Y-122123000D01*
X160357000Y-122377000D01*
X160337000Y-122377000D01*
X160337000Y-122397000D01*
X160083000Y-122397000D01*
X160083000Y-122377000D01*
X160063000Y-122377000D01*
X160063000Y-122123000D01*
X160083000Y-122123000D01*
X160083000Y-121312829D01*
X160098100Y-121276374D01*
X160098100Y-120864626D01*
X159940531Y-120484220D01*
X159649380Y-120193069D01*
X159268974Y-120035500D01*
X158857226Y-120035500D01*
X158476820Y-120193069D01*
X158185669Y-120484220D01*
X158028100Y-120864626D01*
X158028100Y-121276374D01*
X158185669Y-121656780D01*
X158220100Y-121691211D01*
X158220101Y-125224748D01*
X158205212Y-125299600D01*
X158220101Y-125374452D01*
X158249172Y-125520601D01*
X158264197Y-125596137D01*
X158377028Y-125765000D01*
X150735000Y-125765000D01*
X150735000Y-124077002D01*
X150879415Y-124077002D01*
X150759414Y-124322588D01*
X150787050Y-124439220D01*
X151089433Y-124980961D01*
X151576114Y-125365748D01*
X152173000Y-125535000D01*
X152973000Y-125535000D01*
X152973000Y-124077000D01*
X153227000Y-124077000D01*
X153227000Y-125535000D01*
X154027000Y-125535000D01*
X154623886Y-125365748D01*
X155110567Y-124980961D01*
X155412950Y-124439220D01*
X155440586Y-124322588D01*
X155320584Y-124077000D01*
X153227000Y-124077000D01*
X152973000Y-124077000D01*
X152953000Y-124077000D01*
X152953000Y-123823000D01*
X152973000Y-123823000D01*
X152973000Y-122365000D01*
X153227000Y-122365000D01*
X153227000Y-123823000D01*
X155320584Y-123823000D01*
X155440586Y-123577412D01*
X155412950Y-123460780D01*
X155110567Y-122919039D01*
X154623886Y-122534252D01*
X154027000Y-122365000D01*
X153227000Y-122365000D01*
X152973000Y-122365000D01*
X152173000Y-122365000D01*
X151576114Y-122534252D01*
X151089433Y-122919039D01*
X150787050Y-123460780D01*
X150759414Y-123577412D01*
X150879415Y-123822998D01*
X150735000Y-123822998D01*
X150735000Y-120314289D01*
X151915000Y-120314289D01*
X151915000Y-120785711D01*
X152095405Y-121221249D01*
X152428751Y-121554595D01*
X152864289Y-121735000D01*
X153335711Y-121735000D01*
X153771249Y-121554595D01*
X154104595Y-121221249D01*
X154285000Y-120785711D01*
X154285000Y-120314289D01*
X154104595Y-119878751D01*
X153771249Y-119545405D01*
X153335711Y-119365000D01*
X152864289Y-119365000D01*
X152428751Y-119545405D01*
X152095405Y-119878751D01*
X151915000Y-120314289D01*
X150735000Y-120314289D01*
X150735000Y-115714289D01*
X151915000Y-115714289D01*
X151915000Y-116185711D01*
X152095405Y-116621249D01*
X152428751Y-116954595D01*
X152864289Y-117135000D01*
X153335711Y-117135000D01*
X153771249Y-116954595D01*
X154104595Y-116621249D01*
X154285000Y-116185711D01*
X154285000Y-115714289D01*
X154104595Y-115278751D01*
X153771249Y-114945405D01*
X153335711Y-114765000D01*
X152864289Y-114765000D01*
X152428751Y-114945405D01*
X152095405Y-115278751D01*
X151915000Y-115714289D01*
X150735000Y-115714289D01*
X150735000Y-112677002D01*
X150879415Y-112677002D01*
X150759414Y-112922588D01*
X150787050Y-113039220D01*
X151089433Y-113580961D01*
X151576114Y-113965748D01*
X152173000Y-114135000D01*
X152973000Y-114135000D01*
X152973000Y-112677000D01*
X153227000Y-112677000D01*
X153227000Y-114135000D01*
X154027000Y-114135000D01*
X154623886Y-113965748D01*
X155110567Y-113580961D01*
X155412950Y-113039220D01*
X155440586Y-112922588D01*
X155320584Y-112677000D01*
X153227000Y-112677000D01*
X152973000Y-112677000D01*
X152953000Y-112677000D01*
X152953000Y-112423000D01*
X152973000Y-112423000D01*
X152973000Y-110965000D01*
X153227000Y-110965000D01*
X153227000Y-112423000D01*
X155320584Y-112423000D01*
X155440586Y-112177412D01*
X155412950Y-112060780D01*
X155110567Y-111519039D01*
X154623886Y-111134252D01*
X154027000Y-110965000D01*
X153227000Y-110965000D01*
X152973000Y-110965000D01*
X152173000Y-110965000D01*
X151576114Y-111134252D01*
X151089433Y-111519039D01*
X150787050Y-112060780D01*
X150759414Y-112177412D01*
X150879415Y-112422998D01*
X150735000Y-112422998D01*
X150735000Y-110735000D01*
X171537337Y-110735000D01*
X171418020Y-110956450D01*
G36*
X161186069Y-123520000D02*
X161141067Y-123565002D01*
X161074069Y-123565002D01*
X161002174Y-123516963D01*
X161096728Y-123430659D01*
X161186069Y-123520000D01*
X161186069Y-123520000D01*
G37*
X161186069Y-123520000D02*
X161141067Y-123565002D01*
X161074069Y-123565002D01*
X161002174Y-123516963D01*
X161096728Y-123430659D01*
X161186069Y-123520000D01*
G04 #@! TD*
M02*
