G04 #@! TF.GenerationSoftware,KiCad,Pcbnew,5.0.1-33cea8e~67~ubuntu18.04.1*
G04 #@! TF.CreationDate,2018-10-19T08:25:09+02:00*
G04 #@! TF.ProjectId,audio_interface,617564696F5F696E746572666163652E,rev?*
G04 #@! TF.SameCoordinates,Original*
G04 #@! TF.FileFunction,Legend,Top*
G04 #@! TF.FilePolarity,Positive*
%FSLAX46Y46*%
G04 Gerber Fmt 4.6, Leading zero omitted, Abs format (unit mm)*
G04 Created by KiCad (PCBNEW 5.0.1-33cea8e~67~ubuntu18.04.1) date Fr 19 Okt 2018 08:25:09 CEST*
%MOMM*%
%LPD*%
G01*
G04 APERTURE LIST*
%ADD10C,0.200000*%
%ADD11C,0.120000*%
%ADD12C,0.150000*%
G04 APERTURE END LIST*
D10*
X158371428Y-114985714D02*
X158542857Y-115042857D01*
X158828571Y-115042857D01*
X158942857Y-114985714D01*
X159000000Y-114928571D01*
X159057142Y-114814285D01*
X159057142Y-114700000D01*
X159000000Y-114585714D01*
X158942857Y-114528571D01*
X158828571Y-114471428D01*
X158600000Y-114414285D01*
X158485714Y-114357142D01*
X158428571Y-114300000D01*
X158371428Y-114185714D01*
X158371428Y-114071428D01*
X158428571Y-113957142D01*
X158485714Y-113900000D01*
X158600000Y-113842857D01*
X158885714Y-113842857D01*
X159057142Y-113900000D01*
X159571428Y-115042857D02*
X159571428Y-113842857D01*
X159571428Y-114414285D02*
X160257142Y-114414285D01*
X160257142Y-115042857D02*
X160257142Y-113842857D01*
X160771428Y-114700000D02*
X161342857Y-114700000D01*
X160657142Y-115042857D02*
X161057142Y-113842857D01*
X161457142Y-115042857D01*
X162542857Y-115042857D02*
X162142857Y-114471428D01*
X161857142Y-115042857D02*
X161857142Y-113842857D01*
X162314285Y-113842857D01*
X162428571Y-113900000D01*
X162485714Y-113957142D01*
X162542857Y-114071428D01*
X162542857Y-114242857D01*
X162485714Y-114357142D01*
X162428571Y-114414285D01*
X162314285Y-114471428D01*
X161857142Y-114471428D01*
X163057142Y-115042857D02*
X163057142Y-113842857D01*
X163514285Y-113842857D01*
X163628571Y-113900000D01*
X163685714Y-113957142D01*
X163742857Y-114071428D01*
X163742857Y-114242857D01*
X163685714Y-114357142D01*
X163628571Y-114414285D01*
X163514285Y-114471428D01*
X163057142Y-114471428D01*
X164257142Y-114585714D02*
X165171428Y-114585714D01*
X165742857Y-115042857D02*
X165742857Y-113842857D01*
X166200000Y-113842857D01*
X166314285Y-113900000D01*
X166371428Y-113957142D01*
X166428571Y-114071428D01*
X166428571Y-114242857D01*
X166371428Y-114357142D01*
X166314285Y-114414285D01*
X166200000Y-114471428D01*
X165742857Y-114471428D01*
X167628571Y-114928571D02*
X167571428Y-114985714D01*
X167400000Y-115042857D01*
X167285714Y-115042857D01*
X167114285Y-114985714D01*
X167000000Y-114871428D01*
X166942857Y-114757142D01*
X166885714Y-114528571D01*
X166885714Y-114357142D01*
X166942857Y-114128571D01*
X167000000Y-114014285D01*
X167114285Y-113900000D01*
X167285714Y-113842857D01*
X167400000Y-113842857D01*
X167571428Y-113900000D01*
X167628571Y-113957142D01*
X158571428Y-123450000D02*
X159142857Y-123450000D01*
X158457142Y-123792857D02*
X158857142Y-122592857D01*
X159257142Y-123792857D01*
X159657142Y-122592857D02*
X159657142Y-123564285D01*
X159714285Y-123678571D01*
X159771428Y-123735714D01*
X159885714Y-123792857D01*
X160114285Y-123792857D01*
X160228571Y-123735714D01*
X160285714Y-123678571D01*
X160342857Y-123564285D01*
X160342857Y-122592857D01*
X160914285Y-123792857D02*
X160914285Y-122592857D01*
X161200000Y-122592857D01*
X161371428Y-122650000D01*
X161485714Y-122764285D01*
X161542857Y-122878571D01*
X161600000Y-123107142D01*
X161600000Y-123278571D01*
X161542857Y-123507142D01*
X161485714Y-123621428D01*
X161371428Y-123735714D01*
X161200000Y-123792857D01*
X160914285Y-123792857D01*
X162114285Y-123792857D02*
X162114285Y-122592857D01*
X162914285Y-122592857D02*
X163142857Y-122592857D01*
X163257142Y-122650000D01*
X163371428Y-122764285D01*
X163428571Y-122992857D01*
X163428571Y-123392857D01*
X163371428Y-123621428D01*
X163257142Y-123735714D01*
X163142857Y-123792857D01*
X162914285Y-123792857D01*
X162800000Y-123735714D01*
X162685714Y-123621428D01*
X162628571Y-123392857D01*
X162628571Y-122992857D01*
X162685714Y-122764285D01*
X162800000Y-122650000D01*
X162914285Y-122592857D01*
X164857142Y-123792857D02*
X164857142Y-122592857D01*
X166285714Y-122535714D02*
X165257142Y-124078571D01*
X166914285Y-122592857D02*
X167142857Y-122592857D01*
X167257142Y-122650000D01*
X167371428Y-122764285D01*
X167428571Y-122992857D01*
X167428571Y-123392857D01*
X167371428Y-123621428D01*
X167257142Y-123735714D01*
X167142857Y-123792857D01*
X166914285Y-123792857D01*
X166800000Y-123735714D01*
X166685714Y-123621428D01*
X166628571Y-123392857D01*
X166628571Y-122992857D01*
X166685714Y-122764285D01*
X166800000Y-122650000D01*
X166914285Y-122592857D01*
D11*
G04 #@! TO.C,C1*
X160625221Y-126010000D02*
X160950779Y-126010000D01*
X160625221Y-124990000D02*
X160950779Y-124990000D01*
G04 #@! TO.C,C2*
X165490000Y-111950779D02*
X165490000Y-111625221D01*
X166510000Y-111950779D02*
X166510000Y-111625221D01*
G04 #@! TO.C,C3*
X169950779Y-121510000D02*
X169625221Y-121510000D01*
X169950779Y-120490000D02*
X169625221Y-120490000D01*
G04 #@! TO.C,C4*
X168490000Y-111625221D02*
X168490000Y-111950779D01*
X169510000Y-111625221D02*
X169510000Y-111950779D01*
G04 #@! TO.C,C5*
X169990000Y-111950779D02*
X169990000Y-111625221D01*
X171010000Y-111950779D02*
X171010000Y-111625221D01*
G04 #@! TO.C,D1*
X164588000Y-124765000D02*
X162303000Y-124765000D01*
X162303000Y-124765000D02*
X162303000Y-126235000D01*
X162303000Y-126235000D02*
X164588000Y-126235000D01*
G04 #@! TO.C,R1*
X163990000Y-111950779D02*
X163990000Y-111625221D01*
X165010000Y-111950779D02*
X165010000Y-111625221D01*
G04 #@! TO.C,R2*
X163510000Y-111950779D02*
X163510000Y-111625221D01*
X162490000Y-111950779D02*
X162490000Y-111625221D01*
G04 #@! TO.C,R3*
X166950779Y-126010000D02*
X166625221Y-126010000D01*
X166950779Y-124990000D02*
X166625221Y-124990000D01*
G04 #@! TO.C,R4*
X169625221Y-113990000D02*
X169950779Y-113990000D01*
X169625221Y-115010000D02*
X169950779Y-115010000D01*
G04 #@! TO.C,R5*
X169950779Y-123490000D02*
X169625221Y-123490000D01*
X169950779Y-124510000D02*
X169625221Y-124510000D01*
G04 #@! TO.C,R6*
X169625221Y-126010000D02*
X169950779Y-126010000D01*
X169625221Y-124990000D02*
X169950779Y-124990000D01*
G04 #@! TO.C,R7*
X166990000Y-111625221D02*
X166990000Y-111950779D01*
X168010000Y-111625221D02*
X168010000Y-111950779D01*
G04 #@! TO.C,R8*
X169625221Y-121990000D02*
X169950779Y-121990000D01*
X169625221Y-123010000D02*
X169950779Y-123010000D01*
G04 #@! TO.C,U1*
X164885000Y-115890000D02*
X165360000Y-115890000D01*
X165360000Y-115890000D02*
X165360000Y-116365000D01*
X160615000Y-121110000D02*
X160140000Y-121110000D01*
X160140000Y-121110000D02*
X160140000Y-120635000D01*
X164885000Y-121110000D02*
X165360000Y-121110000D01*
X165360000Y-121110000D02*
X165360000Y-120635000D01*
X160615000Y-115890000D02*
X160140000Y-115890000D01*
G04 #@! TO.C,U2*
X170300000Y-115940000D02*
X168500000Y-115940000D01*
X168500000Y-119160000D02*
X170950000Y-119160000D01*
D12*
G04 #@! TO.C,Y1*
X161400000Y-112550000D02*
X161200000Y-112550000D01*
X158000000Y-112550000D02*
X158000000Y-110950000D01*
X161200000Y-110950000D02*
X161400000Y-110950000D01*
X161400000Y-110950000D02*
X161400000Y-112550000D01*
X158000000Y-110950000D02*
X158200000Y-110950000D01*
X158200000Y-112550000D02*
X158000000Y-112550000D01*
D11*
G04 #@! TO.C,J1*
X154220000Y-122650000D02*
X154220000Y-113850000D01*
X151050000Y-124395000D02*
X150000000Y-124395000D01*
X151050000Y-112105000D02*
X150000000Y-112105000D01*
G04 #@! TD*
M02*
