M48
METRIC,TZ
T1C0.400
T2C0.600
T3C0.900
T4C1.100
T5C1.200
%
G90
G05
T1
X151.5Y-114.5
X151.5Y-118.
X151.5Y-122.
X158.661Y-116.811
X158.713Y-118.647
X159.063Y-121.07
X159.3Y-113.1
X161.236Y-123.52
X161.588Y-114.487
X161.912Y-112.183
X162.8Y-118.5
X166.235Y-119.027
X166.384Y-116.652
X166.4Y-114.
X166.805Y-124.145
X166.839Y-121.204
X171.6Y-113.5
X171.857Y-122.801
X172.Y-118.1
X182.5Y-113.5
X182.5Y-122.5
T4
X153.1Y-115.95
X153.1Y-120.55
T5
X177.Y-120.35
X177.Y-125.35
X177.Y-111.15
X177.Y-116.15
T2
X173.3Y-120.55G85X172.7Y-120.55
G05
X173.3Y-125.15G85X172.7Y-125.15
G05
X180.8Y-120.G85X180.2Y-120.
G05
X180.8Y-125.7G85X180.2Y-125.7
G05
X173.3Y-111.35G85X172.7Y-111.35
G05
X173.3Y-115.95G85X172.7Y-115.95
G05
X180.8Y-110.8G85X180.2Y-110.8
G05
X180.8Y-116.5G85X180.2Y-116.5
G05
T3
X153.9Y-112.55G85X152.3Y-112.55
G05
X153.9Y-123.95G85X152.3Y-123.95
G05
T0
M30
